<svg width="240" height="240" viewBox="0 0 240 240" version="1.1" xmlns="http://www.w3.org/2000/svg" xmlns:xlink="http://www.w3.org/1999/xlink">
<title>Group</title>
<desc>Created using Figma</desc>
<g id="Canvas" transform="translate(-5086 -191)">
<g id="Group">
<g id="sea">
<g id="Shape">
<use xlink:href="#path0_fill" transform="translate(5086 291)" fill="#878DFF"/>
</g>
<g id="Shape">
<use xlink:href="#path1_fill" transform="translate(5168 330)" fill="#878DFF"/>
</g>
<g id="Shape">
<use xlink:href="#path2_fill" transform="translate(5086 330)" fill="#878DFF"/>
</g>
<g id="Shape">
<use xlink:href="#path3_fill" transform="translate(5118 408)" fill="#878DFF"/>
</g>
<g id="Shape">
<use xlink:href="#path4_fill" transform="translate(5086 408)" fill="#878DFF"/>
</g>
<g id="Shape">
<use xlink:href="#path5_fill" transform="translate(5268 369)" fill="#878DFF"/>
</g>
<g id="Shape">
<use xlink:href="#path6_fill" transform="translate(5086 369)" fill="#878DFF"/>
</g>
</g>
<g id="Path">
<use xlink:href="#path7_fill" transform="translate(5160 191)" fill="#3E43C8"/>
</g>
<g id="amphora">
<g id="Shape">
<use xlink:href="#path8_fill" transform="translate(5160 191)" fill="#FFFFFF"/>
</g>
<g id="Shape">
<use xlink:href="#path9_fill" transform="translate(5205.87 330.13)" fill="#FFFFFF"/>
</g>
<g id="Shape">
<use xlink:href="#path10_fill" transform="translate(5194.4 218.536)" fill="#FFFFFF"/>
</g>
</g>
</g>
</g>
<defs>
<path id="path0_fill" d="M 235.932 14.9765C 229.234 14.9765 226.094 12.1374 222.119 8.54307C 217.69 4.53871 212.671 0 202.807 0C 192.943 0 187.924 4.53871 183.495 8.54307C 179.521 12.1374 176.381 14.9765 169.683 14.9765C 162.984 14.9765 159.845 12.1374 155.87 8.54307C 151.441 4.53871 146.422 0 136.559 0C 126.695 0 121.676 4.53871 117.247 8.54353C 113.273 12.1379 110.133 14.9765 103.435 14.9765C 96.7379 14.9765 93.5987 12.1374 89.6242 8.54353C 85.1959 4.53917 80.177 0 70.3136 0C 60.4502 0 55.4313 4.53871 51.0026 8.54307C 47.0286 12.1374 43.8889 14.9765 37.1909 14.9765C 30.493 14.9765 27.3533 12.1374 23.3788 8.54307C 18.9501 4.53917 13.9312 0 4.0678 0C 1.82062 0 0 1.79625 0 4.01129C 0 6.22634 1.82062 8.02259 4.0678 8.02259C 10.7657 8.02259 13.9054 10.8616 17.8795 14.4555C 22.3077 18.4599 27.3271 22.9991 37.1909 22.9991C 47.0543 22.9991 52.0732 18.4604 56.502 14.4565C 60.476 10.8621 63.6157 8.02305 70.3136 8.02305C 77.0111 8.02305 80.1503 10.8621 84.1248 14.456C 88.5531 18.4604 93.572 22.9995 103.435 22.9995C 113.299 22.9995 118.318 18.4613 122.746 14.4569C 126.721 10.8626 129.861 8.02351 136.559 8.02351C 143.256 8.02351 146.396 10.8626 150.371 14.4565C 154.799 18.4608 159.819 23 169.682 23C 179.546 23 184.565 18.4618 188.994 14.4574C 192.969 10.863 196.108 8.02398 202.807 8.02398C 209.506 8.02398 212.646 10.863 216.621 14.4574C 221.049 18.4618 226.068 23 235.932 23C 238.179 23 240 21.2037 240 18.9887C 240 16.7727 238.179 14.9765 235.932 14.9765Z"/>
<path id="path1_fill" d="M 153.95 14.9774C 147.28 14.9774 144.153 12.1382 140.195 8.54358C 135.786 4.53898 130.788 0 120.967 0C 111.145 0 106.147 4.53898 101.737 8.54358C 97.7799 12.1382 94.6537 14.9774 87.984 14.9774C 81.3142 14.9774 78.188 12.1382 74.2301 8.54358C 69.8208 4.53898 64.8239 0 55.0018 0C 45.1797 0 40.1828 4.53898 35.7731 8.54405C 31.8161 12.1386 28.6898 14.9774 22.0206 14.9774C 15.3518 14.9774 12.2265 12.1382 8.26859 8.54405C 7.76311 8.08502 7.2581 7.62599 6.74562 7.17343C 5.07563 5.6988 2.5151 5.84534 1.02666 7.4984C -0.461767 9.15239 -0.314278 11.6884 1.35525 13.1625C 1.83926 13.5897 2.31627 14.0233 2.79327 14.4564C 7.20256 18.4606 12.1999 22.9995 22.0206 22.9995C 31.8417 22.9995 36.8391 18.461 41.2489 14.4564C 45.2064 10.8618 48.3326 8.02261 55.0018 8.02261C 61.6711 8.02261 64.7973 10.8618 68.7548 14.456C 73.1645 18.4606 78.1624 23 87.9835 23C 97.8046 23 102.802 18.4615 107.212 14.4569C 111.17 10.8623 114.296 8.02307 120.967 8.02307C 127.636 8.02307 130.763 10.8623 134.721 14.4569C 139.13 18.4615 144.128 23 153.95 23C 156.187 23 158 21.2036 158 18.9885C 158 16.7733 156.187 14.9774 153.95 14.9774Z"/>
<path id="path2_fill" d="M 75.8301 0.601833C 74.0256 0.202922 72.0815 0 70.0523 0C 60.2256 0 55.2254 4.53871 50.8131 8.54261C 46.8538 12.137 43.7258 14.976 37.0527 14.976C 30.3797 14.976 27.2517 12.137 23.2919 8.54261C 18.8801 4.53825 13.8794 0 4.05268 0C 1.81385 0 0 1.79625 0 4.01129C 0 6.22634 1.81385 8.02351 4.05268 8.02351C 10.7257 8.02351 13.8537 10.8626 17.813 14.4565C 22.2248 18.4608 27.2255 23 37.0527 23C 46.8795 23 51.8797 18.4613 56.292 14.4569C 60.2513 10.8626 63.3793 8.02351 70.0523 8.02351C 71.5085 8.02351 72.8203 8.1571 74.0625 8.43167C 76.2453 8.91424 78.4136 7.55388 78.9016 5.39153C 79.3896 3.22919 78.0143 1.08487 75.8301 0.601833Z"/>
<path id="path3_fill" d="M 202.93 14.9766C 196.227 14.9766 193.085 12.1375 189.108 8.54295C 184.677 4.53843 179.655 0 169.785 0C 159.915 0 154.893 4.53889 150.462 8.54295C 146.485 12.1375 143.343 14.9766 136.641 14.9766C 129.938 14.9766 126.797 12.1375 122.819 8.54295C 118.389 4.53843 113.367 0 103.497 0C 93.6267 0 88.6053 4.53889 84.174 8.54387C 80.1976 12.1384 77.056 14.9771 70.3541 14.9771C 63.6526 14.9771 60.5115 12.1379 56.5347 8.54387C 52.1038 4.53935 47.0819 0 37.2126 0C 27.3433 0 22.3215 4.53889 17.8901 8.54295C 13.9137 12.1375 10.7721 14.9766 4.07022 14.9766C 1.8217 14.9766 0 16.773 0 18.9881C 0 21.2037 1.8217 22.9995 4.07022 22.9995C 13.9395 22.9995 18.9614 18.4606 23.3927 14.4566C 27.3691 10.8621 30.5107 8.02291 37.2126 8.02291C 43.9141 8.02291 47.0552 10.8621 51.032 14.4561C 55.4629 18.4606 60.4848 23 70.3541 23C 80.2234 23 85.2452 18.4616 89.6766 14.4571C 93.6535 10.8625 96.795 8.02337 103.497 8.02337C 110.199 8.02337 113.34 10.8625 117.317 14.4571C 121.749 18.4611 126.771 23 136.64 23C 146.51 23 151.532 18.4616 155.963 14.4571C 159.941 10.8625 163.082 8.02337 169.785 8.02337C 176.487 8.02337 179.629 10.8625 183.607 14.4571C 188.038 18.4616 193.06 23 202.93 23C 205.178 23 207 21.2037 207 18.9885C 207 16.773 205.178 14.9766 202.93 14.9766Z"/>
<path id="path4_fill" d="M 28.2385 12.4846C 26.7258 11.4235 25.3342 10.1522 23.8602 8.80667C 19.3408 4.67898 14.2181 0 4.15156 0C 1.85811 0 0 1.85158 0 4.13484C 0 6.41811 1.85811 8.26968 4.15156 8.26968C 10.9874 8.26968 14.1917 11.1962 18.2481 14.9013C 19.8507 16.3645 21.507 17.8773 23.4569 19.2453C 24.1836 19.7551 25.0175 20 25.8441 20C 27.1487 20 28.4342 19.3892 29.2427 18.2456C 30.5626 16.3788 30.1129 13.7996 28.2385 12.4846Z"/>
<path id="path5_fill" d="M 53.9198 14.9769C 47.2009 14.9769 44.0511 12.1377 40.064 8.54312C 35.6222 4.53852 30.5875 0 20.6934 0C 10.7999 0 5.76563 4.53852 1.32288 8.54266C -0.338269 10.0399 -0.450173 12.5773 1.07322 14.211C 2.59566 15.8441 5.17649 15.9537 6.83858 14.4564C 10.8253 10.8623 13.975 8.02307 20.6934 8.02307C 27.4123 8.02307 30.5621 10.8623 34.5492 14.4569C 38.991 18.4615 44.0257 23 53.9198 23C 56.1738 23 58 21.2036 58 18.9885C 58 16.7728 56.1733 14.9769 53.9198 14.9769Z"/>
<path id="path6_fill" d="M 178.872 17.3479C 178.314 15.2021 176.103 13.9091 173.926 14.4597C 172.553 14.8077 171.087 14.9774 169.445 14.9774C 162.756 14.9774 159.621 12.1382 155.651 8.54358C 151.229 4.53898 146.217 0 136.367 0C 126.517 0 121.505 4.53898 117.083 8.54405C 113.114 12.1386 109.979 14.9774 103.291 14.9774C 96.6025 14.9774 93.4677 12.1382 89.4987 8.54358C 85.0767 4.53944 80.0648 0 70.2152 0C 60.3656 0 55.3538 4.53898 50.9312 8.54358C 46.9627 12.1382 43.8275 14.9774 37.1389 14.9774C 30.4503 14.9774 27.315 12.1382 23.3461 8.54358C 18.924 4.53898 13.9117 0 4.0621 0C 1.81807 0 0 1.79636 0 4.01154C 0 6.22671 1.81901 8.02261 4.06304 8.02261C 10.7516 8.02261 13.8869 10.8618 17.8554 14.456C 22.2774 18.4606 27.2898 23 37.1398 23C 46.9894 23 52.0013 18.461 56.4238 14.4564C 60.3923 10.8618 63.5276 8.02261 70.2161 8.02261C 76.9042 8.02261 80.0391 10.8618 84.008 14.4564C 88.4301 18.4606 93.4419 22.9995 103.292 22.9995C 113.141 22.9995 118.153 18.461 122.576 14.4564C 126.544 10.8618 129.68 8.02261 136.368 8.02261C 143.057 8.02261 146.192 10.8618 150.161 14.4564C 154.584 18.4606 159.596 22.9995 169.446 22.9995C 171.745 22.9995 173.933 22.7407 175.947 22.2303C 178.12 21.6802 179.429 19.4933 178.872 17.3479Z"/>
<path id="path7_fill" fill-rule="evenodd" d="M 74.6086 28.3648C 72.8666 27.5464 71.0155 27.0027 69.1262 26.7394C 70.5811 24.0792 72.0848 21.6816 73.4767 19.4609C 73.4843 19.4492 73.4908 19.4382 73.4985 19.4265C 78.1036 18.7347 81.6505 14.666 81.6505 9.76482C 81.6505 4.38046 77.3691 0 72.1066 0L 13.8935 0C 8.63101 0 4.34922 4.38046 4.34922 9.76482C 4.34922 14.6672 7.89727 18.7363 12.5036 19.4269C 12.5104 19.4371 12.5162 19.4472 12.523 19.4578C 13.9061 21.6632 15.4049 24.0574 16.8606 26.7265C 14.9899 26.9902 13.1529 27.5367 11.3911 28.3644C 1.59675 32.9648 -2.71482 44.8616 1.78076 54.885L 11.5736 76.7127C 11.0777 77.3979 10.6058 78.0975 10.163 78.8139C 10.0725 78.9463 9.9893 79.0834 9.91562 79.2276C 9.30328 80.2479 8.73828 81.2959 8.23207 82.3776C 5.0318 89.2158 3.88997 97.1479 4.7409 106.626C 5.04173 109.976 5.59566 113.44 6.35345 116.98C 6.37941 117.135 6.41147 117.289 6.45499 117.438C 7.40022 121.761 8.64361 126.195 10.1012 130.67C 10.1279 130.767 10.1592 130.861 10.1932 130.955C 13.7794 141.904 18.622 153.087 23.4306 163.481C 21.952 165.908 20.4953 169.444 18.5735 174.264C 17.6966 176.465 16.7999 178.716 15.9959 180.468L 13.8939 180.468C 8.63139 180.468 4.3496 184.849 4.3496 190.234C 4.3496 195.618 8.63139 200 13.8939 200L 72.1066 200C 77.3691 200 81.6505 195.618 81.6505 190.234C 81.6505 184.849 77.3691 180.468 72.1066 180.468L 70.0054 180.468C 69.2018 178.716 68.3039 176.465 67.427 174.264C 65.5064 169.443 64.0484 165.907 62.5699 163.481C 67.38 153.084 72.2241 141.898 75.8108 130.945C 75.8428 130.856 75.8726 130.766 75.8978 130.674C 77.3607 126.183 78.609 121.734 79.555 117.395C 79.5909 117.265 79.6199 117.133 79.6428 116.997C 80.4018 113.452 80.958 109.981 81.2592 106.626C 82.1101 97.1475 80.9675 89.2162 77.768 82.3776C 77.2588 81.2897 76.6915 80.2358 76.0753 79.21C 75.9917 79.0502 75.8947 78.8987 75.7913 78.753C 75.3591 78.0577 74.911 77.3717 74.4288 76.7057L 84.219 54.8854C 88.7149 44.8628 84.4037 32.966 74.6086 28.3648Z"/>
<path id="path8_fill" fill-rule="evenodd" d="M 69.126 26.7394C 71.0156 27.0027 72.8667 27.5464 74.6084 28.3648C 84.4038 32.966 88.7148 44.8628 84.2188 54.8854L 74.4287 76.7057C 74.9111 77.3717 75.3594 78.0576 75.7915 78.753C 75.8945 78.8987 75.9917 79.0502 76.0752 79.21C 76.6914 80.2358 77.2588 81.2897 77.7681 82.3776C 80.9673 89.2162 82.1104 97.1475 81.2593 106.626C 80.958 109.981 80.4019 113.452 79.6431 116.997C 79.6201 117.133 79.5908 117.265 79.5552 117.395C 78.6089 121.734 77.3608 126.183 75.8979 130.674C 75.8726 130.766 75.8428 130.856 75.8105 130.945C 72.2241 141.898 67.3799 153.084 62.5698 163.481C 64.0483 165.908 65.5063 169.443 67.4268 174.264C 68.3037 176.465 69.2017 178.716 70.0054 180.468L 72.1064 180.468C 77.3691 180.468 81.6504 184.849 81.6504 190.234C 81.6504 195.618 77.3691 200 72.1064 200L 13.894 200C 8.63135 200 4.34961 195.618 4.34961 190.234C 4.34961 184.849 8.63135 180.468 13.894 180.468L 15.9961 180.468C 16.7998 178.716 17.6968 176.465 18.5737 174.264C 20.4951 169.444 21.9521 165.908 23.4307 163.481C 18.6221 153.087 13.7793 141.904 10.1934 130.955L 10.1738 130.899L 10.1553 130.846L 10.1436 130.811C 10.1284 130.764 10.1143 130.717 10.1011 130.67C 8.64355 126.195 7.40039 121.761 6.45508 117.438C 6.43457 117.368 6.4165 117.297 6.40088 117.225C 6.38281 117.144 6.36719 117.062 6.35352 116.98C 5.5957 113.44 5.0415 109.976 4.74072 106.626C 3.89014 97.1479 5.03174 89.2159 8.23193 82.3776C 8.73828 81.2959 9.30322 80.2479 9.91553 79.2276C 9.98926 79.0834 10.0728 78.9463 10.1631 78.8139C 10.606 78.0975 11.0776 77.3979 11.5737 76.7127L 1.78076 54.885C -2.71484 44.8616 1.59668 32.9648 11.3911 28.3644C 13.1528 27.5367 14.9897 26.9902 16.8604 26.7265C 15.4048 24.0574 13.9062 21.6632 12.5229 19.4578L 12.5034 19.4269C 7.89746 18.7363 4.34912 14.6672 4.34912 9.76483C 4.34912 4.38046 8.63086 0 13.8936 0L 72.1064 0C 77.3691 0 81.6504 4.38046 81.6504 9.76483C 81.6504 14.666 78.1035 18.7347 73.4985 19.4265L 73.4766 19.4609L 73.4487 19.5045L 73.437 19.5235C 72.0566 21.7266 70.5679 24.1042 69.126 26.7394ZM 13.8936 11.7191L 14.6592 11.7191L 71.3418 11.7191L 72.106 11.7191C 73.1411 11.7191 74.0151 10.8242 74.0151 9.76483C 74.0151 8.70662 73.1411 7.81248 72.106 7.81248L 13.8936 7.81248C 12.8584 7.81248 11.9844 8.70662 11.9844 9.76483C 11.9844 10.8242 12.8584 11.7191 13.8936 11.7191ZM 48.8784 34.5429L 57.3369 34.5429C 53.8926 44.8191 52.9526 55.9944 54.479 68.5307C 54.6348 69.8092 55.3965 70.9276 56.5151 71.5186C 59.6421 73.1706 62.2983 75.0483 64.5293 77.1428L 21.4707 77.1428C 23.7021 75.0479 26.3589 73.1702 29.4849 71.5182C 30.604 70.9268 31.3657 69.8088 31.5215 68.5303C 33.6089 51.3847 30.7661 38.9929 26.791 29.6328C 26.7246 29.4367 26.6431 29.2472 26.5479 29.0652C 24.9819 25.4668 23.2563 22.3211 21.5938 19.532L 64.4062 19.532C 63.1006 21.7183 61.7725 24.0925 60.5083 26.7304L 48.8784 26.7304C 46.77 26.7304 45.061 28.4796 45.061 30.6367C 45.061 32.7941 46.77 34.5429 48.8784 34.5429ZM 72.4878 90.2365C 71.9604 88.3861 71.2773 86.6252 70.4268 84.9549L 15.5728 84.9549C 14.7236 86.6256 14.04 88.3865 13.5127 90.2365L 72.4878 90.2365ZM 8.71924 51.6265C 5.97998 45.5183 8.60742 38.2687 14.5771 35.4652C 16.4434 34.5886 18.4502 34.2339 20.4658 34.405C 23.521 42.2292 25.5088 52.1741 24.1646 65.5835C 21.5986 67.0749 19.2832 68.7358 17.2104 70.5526L 8.71924 51.6265ZM 74.0151 190.234C 74.0151 189.175 73.1406 188.281 72.106 188.281L 13.8936 188.281C 12.8584 188.281 11.9844 189.175 11.9844 190.234C 11.9844 191.293 12.8584 192.188 13.8936 192.188L 72.106 192.188C 73.1411 192.188 74.0151 191.293 74.0151 190.234ZM 54.6885 162.249C 53.9907 163.742 54.29 165.523 55.4341 166.694C 56.6655 167.954 58.8828 173.517 60.3521 177.204L 60.3564 177.215L 60.377 177.266L 60.4517 177.454L 60.4575 177.47L 60.4663 177.491C 60.8726 178.509 61.2715 179.509 61.665 180.468L 24.3345 180.468C 24.5371 179.975 24.7407 179.471 24.9463 178.959C 25.1768 178.386 25.4092 177.803 25.6436 177.214L 25.6465 177.208C 27.1147 173.521 29.333 167.955 30.5659 166.694C 31.7095 165.523 32.0083 163.742 31.3115 162.249C 29.0054 157.307 26.8594 152.536 24.8999 147.937L 38.5898 147.937C 40.6982 147.937 42.4077 146.188 42.4077 144.031C 42.4077 141.874 40.6982 140.125 38.5898 140.125L 21.6904 140.125C 20.8022 137.872 19.9707 135.668 19.1929 133.508L 66.8066 133.508C 63.6328 142.325 59.5117 151.913 54.6885 162.249ZM 16.5703 125.695L 69.4292 125.695C 70.0034 123.835 70.5244 122.016 70.9937 120.233L 15.0068 120.233C 15.4756 122.015 15.9966 123.835 16.5703 125.695ZM 72.7441 112.421L 13.2559 112.421C 12.3208 107.244 11.9478 102.451 12.2192 98.049L 73.7803 98.049C 74.0518 102.45 73.6792 107.244 72.7441 112.421ZM 68.791 70.546L 77.2783 51.6261C 78.5991 48.6835 78.7148 45.3753 77.6045 42.3112C 76.4937 39.2476 74.2983 36.8159 71.4229 35.4652C 69.5522 34.5863 67.54 34.2281 65.519 34.4015C 61.8789 43.7316 60.6699 53.9714 61.8345 65.5839C 64.3989 67.0745 66.7192 68.7303 68.791 70.546Z"/>
<path id="path9_fill" d="M 3.54154 7.24638L 3.62512 7.24638C 5.58112 7.24638 7.16667 5.62391 7.16667 3.62319C 7.16667 1.6221 5.58147 0 3.62512 0L 3.54154 0C 1.58555 0 0 1.62246 0 3.62319C 0 5.62391 1.58555 7.24638 3.54154 7.24638Z"/>
<path id="path10_fill" d="M 3.62495 0L 3.54172 0C 1.58563 0 0 1.62246 0 3.62319C 0 5.62428 1.58598 7.24638 3.54172 7.24638L 3.62495 7.24638C 5.58104 7.24638 7.16667 5.62428 7.16667 3.62319C 7.16667 1.62246 5.58104 0 3.62495 0Z"/>
</defs>
</svg>
