<svg width="160" height="170" viewBox="0 0 160 170" version="1.1" xmlns="http://www.w3.org/2000/svg" xmlns:xlink="http://www.w3.org/1999/xlink">
<title>fat-boy-smiling</title>
<desc>Created using Figma</desc>
<g id="Canvas" transform="translate(654 -491)">
<g id="fat-boy-smiling">
<g id="Shape">
<use xlink:href="#path0_fill" transform="translate(-654 491)" fill="#252AA6"/>
</g>
<g id="Oval">
<use xlink:href="#path1_fill" transform="translate(-606 590.586)" fill="#252AA6"/>
</g>
<g id="Oval">
<use xlink:href="#path1_fill" transform="translate(-550 590.586)" fill="#252AA6"/>
</g>
<g id="Shape">
<use xlink:href="#path2_fill" transform="translate(-555 579.521)" fill="#252AA6"/>
</g>
<g id="Shape">
<use xlink:href="#path3_fill" transform="translate(-611 579.521)" fill="#252AA6"/>
</g>
<g id="Shape">
<use xlink:href="#path4_fill" transform="translate(-589 614.728)" fill="#252AA6"/>
</g>
</g>
</g>
<defs>
<path id="path0_fill" fill-rule="evenodd" d="M 160 97.1427C 160 94.0438 159.06 91.1572 157.448 88.7332C 158.102 84.7388 158.437 80.655 158.437 76.5737C 158.437 34.351 123.25 0 79.9991 0C 36.7487 0 1.56116 34.351 1.56116 76.5737C 1.56116 80.6572 1.896 84.7421 2.54993 88.7365C 0.939758 91.1598 0 94.0453 0 97.1423C 0 104.857 5.80676 111.271 13.3769 112.442C 17.4166 144.829 45.7521 170 79.9998 170C 114.247 170 142.583 144.829 146.623 112.442C 154.194 111.271 160 104.857 160 97.1427ZM 5.97906 97.1427C 5.97906 92.8356 8.88318 89.1794 12.8796 87.9395L 12.8799 104.475C 12.8799 105.105 12.8912 105.731 12.9095 106.356C 8.8974 105.125 5.97906 101.46 5.97906 97.1427ZM 18.8589 104.475C 18.8589 137.387 46.2865 164.163 80.0002 164.163C 113.714 164.163 141.142 137.387 141.142 104.475L 141.141 74.2971C 141.141 69.7894 138.719 65.8008 134.662 63.6289C 130.645 61.4778 125.95 61.6237 122.102 64.0178C 109.533 71.8392 94.9734 75.9733 79.9991 75.9733C 65.0255 75.9733 50.4667 71.8392 37.8976 64.0181C 34.0493 61.6237 29.3541 61.4785 25.3372 63.6296C 21.2803 65.8019 18.8586 69.7902 18.8586 74.2982L 18.8589 104.475ZM 137.537 58.5117C 131.577 55.3198 124.605 55.539 118.889 59.0964C 107.281 66.3196 93.8326 70.1375 79.9987 70.1375C 66.1652 70.1375 52.718 66.3196 41.1105 59.0967C 35.3937 55.5394 28.4215 55.3212 22.4611 58.5124C 16.4612 61.725 12.8788 67.6262 12.8792 74.2982L 12.8792 81.9299C 11.1005 82.2623 9.42761 82.8857 7.91205 83.7469C 7.66693 81.37 7.53949 78.9719 7.53949 76.5734C 7.53986 37.5692 40.0452 5.83661 79.9991 5.83661C 119.953 5.83661 152.458 37.5692 152.458 76.5737C 152.458 78.9715 152.331 81.3693 152.085 83.7458C 150.57 82.8849 148.898 82.2623 147.12 81.9299L 147.12 74.2975C 147.119 67.6255 143.537 61.7243 137.537 58.5117ZM 147.11 105.56C 147.105 105.826 147.099 106.091 147.091 106.356C 151.103 105.125 154.021 101.46 154.021 97.1427C 154.021 92.8356 151.117 89.179 147.12 87.9391L 147.12 104.475C 147.12 104.838 147.117 105.199 147.11 105.56Z"/>
<path id="path1_fill" d="M 5 10.0592C 7.76142 10.0592 10 7.80735 10 5.02959C 10 2.25182 7.76142 0 5 0C 2.23858 0 0 2.25182 0 5.02959C 0 7.80735 2.23858 10.0592 5 10.0592Z"/>
<path id="path2_fill" d="M 0.883525 3.40177C -0.294509 4.46477 -0.294509 6.18734 0.883525 7.25034C 2.06118 8.31266 3.97054 8.31266 5.1482 7.25034C 7.82356 4.83589 12.1764 4.83589 14.8514 7.25034C 15.4403 7.78167 16.2119 8.04734 16.9839 8.04734C 17.756 8.04734 18.5276 7.78167 19.1165 7.25034C 20.2945 6.18734 20.2945 4.46477 19.1165 3.40177C 14.0896 -1.13392 5.91043 -1.13392 0.883525 3.40177Z"/>
<path id="path3_fill" d="M 10.0001 0C 6.55642 0 3.31854 1.20945 0.883261 3.40535C -0.29442 4.46727 -0.29442 6.18898 0.883261 7.2509C 2.06094 8.31248 3.97034 8.31282 5.1484 7.25056C 6.44445 6.0819 8.16725 5.43877 9.99974 5.43877C 11.8326 5.43877 13.5554 6.08224 14.8515 7.25056C 15.4407 7.78186 16.212 8.04734 16.984 8.04734C 17.7557 8.04734 18.5278 7.78186 19.1166 7.2509C 20.2943 6.18898 20.2947 4.46727 19.1166 3.40535C 16.6821 1.20911 13.4442 0 10.0001 0Z"/>
<path id="path4_fill" d="M 27.0334 0C 25.3951 0 24.0668 1.26428 24.0668 2.82363C 24.0668 7.58179 19.9996 11.4533 15.0002 11.4533C 10.0007 11.4533 5.93318 7.58179 5.93318 2.82363C 5.93318 1.26428 4.60489 0 2.96659 0C 1.32829 0 0 1.26428 0 2.82363C 0 10.6963 6.72896 17.1006 15.0002 17.1006C 23.271 17.1006 30 10.6959 30 2.82363C 30 1.26428 28.6717 0 27.0334 0Z"/>
</defs>
</svg>
