<svg width="440" height="480" viewBox="0 0 440 480" version="1.1" xmlns="http://www.w3.org/2000/svg" xmlns:xlink="http://www.w3.org/1999/xlink">
<title>fat-boy-smiling</title>
<desc>Created using Figma</desc>
<g id="Canvas" transform="translate(-14186 409)">
<g id="fat-boy-smiling">
<g id="Shape">
<use xlink:href="#path0_fill" transform="translate(14186 -409)" fill="#FFFFFF"/>
</g>
<g id="Oval">
<use xlink:href="#path1_fill" transform="translate(14315 -127.239)" fill="#FFFFFF"/>
</g>
<g id="Oval">
<use xlink:href="#path1_fill" transform="translate(14471 -127.239)" fill="#FFFFFF"/>
</g>
<g id="Shape">
<use xlink:href="#path2_fill" transform="translate(14457 -158.434)" fill="#FFFFFF"/>
</g>
<g id="Shape">
<use xlink:href="#path3_fill" transform="translate(14304 -158.434)" fill="#FFFFFF"/>
</g>
<g id="Shape">
<use xlink:href="#path4_fill" transform="translate(14363 -58.8113)" fill="#FFFFFF"/>
</g>
</g>
</g>
<defs>
<path id="path0_fill" fill-rule="evenodd" d="M 440 274.285C 440 265.536 437.415 257.385 432.982 250.541C 434.78 239.263 435.7 227.732 435.7 216.208C 435.7 96.9911 338.937 0 219.997 0C 101.059 0 4.29297 96.9911 4.29297 216.208C 4.29297 227.738 5.21387 239.272 7.0127 250.55C 2.58398 257.392 0 265.54 0 274.284C 0 296.066 15.9688 314.177 36.7861 317.483C 47.8955 408.928 125.818 480 219.999 480C 314.181 480 392.104 408.929 403.213 317.483C 424.032 314.178 440 296.068 440 274.285ZM 16.4424 274.285C 16.4424 262.124 24.4287 251.801 35.4189 248.3L 35.4199 294.989C 35.4199 296.766 35.4502 298.535 35.501 300.3C 24.4678 296.824 16.4424 286.476 16.4424 274.285ZM 51.8623 294.988C 51.8623 387.917 127.288 463.52 220.001 463.52C 312.714 463.52 388.14 387.917 388.14 294.988L 388.138 209.78C 388.138 197.053 381.478 185.791 370.322 179.658C 359.274 173.584 346.362 173.996 335.781 180.756C 301.215 202.84 261.177 214.513 219.998 214.513C 178.82 214.513 138.783 202.84 104.219 180.757C 93.6357 173.996 80.7236 173.586 69.6777 179.66C 58.5215 185.794 51.8613 197.055 51.8613 209.783L 51.8623 294.988ZM 378.227 165.209C 361.836 156.197 342.664 156.816 326.944 166.86C 295.021 187.255 258.039 198.035 219.996 198.035C 181.954 198.035 144.975 187.255 113.054 166.861C 97.333 156.817 78.1592 156.201 61.7676 165.211C 45.2676 174.283 35.417 190.945 35.418 209.783L 35.418 231.332C 30.5264 232.27 25.9258 234.03 21.7578 236.462C 21.084 229.751 20.7334 222.979 20.7334 216.207C 20.7344 106.078 110.124 16.4798 219.997 16.4798C 329.871 16.4798 419.259 106.078 419.259 216.208C 419.259 222.978 418.908 229.748 418.234 236.459C 414.067 234.028 409.47 232.27 404.58 231.332L 404.58 209.781C 404.578 190.943 394.728 174.28 378.227 165.209ZM 404.581 294.989C 404.581 296.766 404.551 298.535 404.5 300.3C 415.533 296.824 423.559 286.476 423.559 274.285C 423.559 262.124 415.572 251.8 404.58 248.299L 404.581 294.989Z"/>
<path id="path1_fill" d="M 14.5 27.1698C 22.5081 27.1698 29 21.0876 29 13.5849C 29 6.08217 22.5081 0 14.5 0C 6.49187 0 0 6.08217 0 13.5849C 0 21.0876 6.49187 27.1698 14.5 27.1698Z"/>
<path id="path2_fill" d="M 2.38552 10.6345C -0.795173 13.9576 -0.795173 19.3426 2.38552 22.6657C 5.56519 25.9867 10.7205 25.9867 13.9001 22.6657C 21.1236 15.1177 32.8764 15.1177 40.0989 22.6657C 41.6887 24.3267 43.7722 25.1572 45.8567 25.1572C 47.9412 25.1572 50.0246 24.3267 51.6145 22.6657C 54.7952 19.3426 54.7952 13.9576 51.6145 10.6345C 38.0418 -3.54482 15.9582 -3.54482 2.38552 10.6345Z"/>
<path id="path3_fill" d="M 27.0003 0C 17.7023 0 8.96007 3.78092 2.38481 10.6457C -0.794935 13.9654 -0.794935 19.3477 2.38481 22.6674C 5.56455 25.9861 10.7199 25.9872 13.9007 22.6664C 17.4 19.013 22.0516 17.0024 26.9993 17.0024C 31.9481 17.0024 36.5996 19.014 40.0989 22.6664C 41.6898 24.3273 43.7723 25.1572 45.8569 25.1572C 47.9404 25.1572 50.0249 24.3273 51.6148 22.6674C 54.7946 19.3477 54.7956 13.9654 51.6148 10.6457C 45.0416 3.77985 36.2993 0 27.0003 0Z"/>
<path id="path4_fill" d="M 75.6936 0C 71.1063 0 67.3871 3.64545 67.3871 8.1417C 67.3871 21.8615 55.999 33.0248 42.0005 33.0248C 28.0021 33.0248 16.6129 21.8615 16.6129 8.1417C 16.6129 3.64545 12.8937 0 8.30645 0C 3.71921 0 0 3.64545 0 8.1417C 0 30.8418 18.8411 49.3082 42.0005 49.3082C 65.1589 49.3082 84 30.8408 84 8.1417C 84 3.64545 80.2808 0 75.6936 0Z"/>
</defs>
</svg>
