<svg width="160" height="170" viewBox="0 0 160 170" version="1.1" xmlns="http://www.w3.org/2000/svg" xmlns:xlink="http://www.w3.org/1999/xlink">
<title>kissing-girl</title>
<desc>Created using Figma</desc>
<g id="Canvas" transform="translate(-4126 -831)">
<g id="kissing-girl">
<g id="Shape">
<use xlink:href="#path0_fill" transform="translate(4166.69 929.154)" fill="#252AA6"/>
</g>
<g id="Shape">
<use xlink:href="#path1_fill" transform="translate(4224.47 929.154)" fill="#252AA6"/>
</g>
<g id="Shape">
<use xlink:href="#path2_fill" transform="translate(4209.71 950.197)" fill="#252AA6"/>
</g>
<g id="Shape">
<use xlink:href="#path3_fill" transform="translate(4126.23 831)" fill="#252AA6"/>
</g>
</g>
</g>
<defs>
<path id="path0_fill" d="M 0.899137 4.13262C -0.29952 5.38517 -0.299904 7.41595 0.899137 8.6685C 2.09779 9.92144 4.0412 9.92144 5.23986 8.6685C 8.11947 5.65942 12.8055 5.65942 15.6847 8.6685C 16.2841 9.29477 17.0695 9.60791 17.8553 9.60791C 18.6411 9.60791 19.4265 9.29477 20.0259 8.6685C 21.2249 7.41595 21.2249 5.38517 20.0259 4.13262C 14.7524 -1.37754 6.17223 -1.37754 0.899137 4.13262Z"/>
<path id="path1_fill" d="M 0.898993 8.66865C 2.09803 9.92159 4.04144 9.92159 5.23971 8.66865C 8.1201 5.65917 12.8058 5.65997 15.6854 8.66865C 16.2847 9.29532 17.0697 9.60806 17.8555 9.60806C 18.6413 9.60806 19.4268 9.29492 20.0261 8.66865C 21.2247 7.4157 21.2247 5.38532 20.0257 4.13277C 14.7534 -1.37739 6.17247 -1.37779 0.898993 4.13277C -0.299664 5.38492 -0.299664 7.4157 0.898993 8.66865Z"/>
<path id="path2_fill" d="M 3.06954 0C 1.37439 0 0 1.43618 0 3.20755C 0 4.97892 1.37439 6.41509 3.06954 6.41509C 4.65918 6.41509 5.95261 7.76667 5.95261 9.42778C 5.95261 11.0889 4.65918 12.4405 3.06954 12.4405C 1.37439 12.4405 0 13.8767 0 15.648C 0 17.4194 1.37439 18.8556 3.06954 18.8556C 4.65918 18.8556 5.95261 20.2071 5.95261 21.8683C 5.95261 23.5294 4.65918 24.8809 3.06954 24.8809C 1.37439 24.8809 0 26.3171 0 28.0885C 0 29.8599 1.37439 31.296 3.06954 31.296C 8.04451 31.296 12.0917 27.0669 12.0917 21.8683C 12.0917 19.4871 11.2426 17.3091 9.84403 15.648C 11.243 13.9869 12.0917 11.809 12.0917 9.42778C 12.0913 4.22915 8.04451 0 3.06954 0Z"/>
<path id="path3_fill" fill-rule="evenodd" d="M 157.026 135.482C 152.331 123.169 141.706 115.723 137.543 113.186C 144.478 111.305 149.614 104.71 149.614 96.8835C 149.614 93.4731 148.619 90.1509 146.792 87.3644C 147.836 82.3377 148.371 77.1768 148.371 71.997C 148.371 32.298 117.464 0 79.4746 0C 41.4839 0 10.5752 32.298 10.5752 71.9974C 10.5752 77.4662 11.1719 82.9067 12.3354 88.1951C 10.8657 90.7339 10.0186 93.7077 10.0186 96.8851C 10.0186 104.711 15.1538 111.306 22.0879 113.187C 17.9253 115.724 7.30127 123.171 2.60693 135.482C -3.17383 150.642 2.42822 166.909 2.66943 167.594C 2.97021 168.448 3.60498 169.129 4.41406 169.466C 4.59766 169.542 4.78613 169.6 4.97705 169.638C 5.1665 169.675 5.3584 169.694 5.55029 169.694C 6.01758 169.694 6.48438 169.582 6.91211 169.36C 7.53857 169.036 22.3105 161.253 28.0913 146.093C 29.124 143.385 29.7915 140.643 30.1934 137.96C 32.1943 141.725 34.5933 145.278 37.3711 148.546C 48.1396 161.217 63.6104 168.484 79.8164 168.484C 96.0215 168.484 111.492 161.217 122.261 148.547C 125.039 145.278 127.438 141.725 129.439 137.959C 129.841 140.643 130.509 143.385 131.541 146.093C 137.321 161.253 152.094 169.037 152.72 169.361C 152.875 169.441 153.034 169.506 153.196 169.558C 153.485 169.648 153.783 169.694 154.082 169.694C 154.467 169.694 154.853 169.619 155.218 169.466C 156.028 169.13 156.662 168.449 156.963 167.595C 157.205 166.909 162.807 150.642 157.026 135.482ZM 143.475 96.884C 143.475 101.513 140.571 105.445 136.568 106.801L 136.568 100.059C 137.463 100.241 138.367 100.413 139.29 100.565C 139.334 100.572 139.379 100.578 139.423 100.583C 139.478 100.59 139.533 100.595 139.587 100.598C 139.647 100.602 139.708 100.604 139.768 100.604C 140.905 100.604 141.966 99.942 142.498 98.8594L 143.475 96.884ZM 23.0645 86.967C 19.061 88.3234 16.1577 92.2555 16.1577 96.8848C 16.1577 101.514 19.061 105.446 23.0645 106.802L 23.0645 86.967ZM 22.3887 143.718C 19.0059 152.589 11.667 158.668 7.41406 161.599C 6.25488 156.413 4.92773 146.726 8.31006 137.856C 11.6924 128.985 19.0312 122.906 23.2852 119.975C 24.4443 125.161 25.7705 134.848 22.3887 143.718ZM 117.671 144.287C 125.898 134.608 130.43 122.139 130.43 109.177L 130.43 98.5314C 113.708 93.5721 102.554 83.5181 95.856 75.3525C 92.3989 71.1385 89.8008 67.0706 87.9263 63.7047C 87.6611 68.1508 88.3066 73.8445 91.7119 79.4365C 92.314 80.4244 92.3525 81.6761 91.813 82.7021C 91.2734 83.7282 90.2427 84.3661 89.1221 84.3661C 76.4912 84.3661 64.4253 78.4037 54.2305 67.1235C 51.5371 64.1441 49.3125 61.174 47.5557 58.5666C 45.7627 67.9731 41.5977 74.2864 37.9624 78.2044C 34.6304 81.796 31.271 83.9266 29.2036 85.0264L 29.2036 109.177C 29.2036 122.139 33.7349 134.607 41.9619 144.286C 51.5664 155.588 65.3638 162.069 79.8164 162.069C 94.269 162.069 108.066 155.588 117.671 144.287ZM 100.674 71.3691C 92.8647 61.9161 89.7363 53.0909 89.707 53.0079C 89.2803 51.7719 88.1753 50.9323 86.9175 50.8901C 85.6479 50.8541 84.5063 51.6122 84.0044 52.8171C 83.7749 53.3688 79.0928 64.9376 83.9199 77.5637C 74.8921 76.2049 66.4668 71.2725 58.812 62.8499C 51.8433 55.1823 48.1831 47.3671 48.1484 47.2921C 47.458 45.7933 45.7676 45.0704 44.2329 45.7084C 43.0557 46.1979 42.3145 47.4372 42.3125 48.7611C 42.2837 69.0436 30.7627 77.0168 26.5659 79.2485C 26.2969 79.3916 25.4805 79.6465 24.4253 79.9761C 22.2437 80.6572 19.0415 81.6572 17.5435 82.6473C 16.9956 79.139 16.7134 75.5758 16.7134 71.9978C 16.7144 35.8351 44.8687 6.4151 79.4746 6.4151C 114.079 6.4151 142.232 35.8351 142.232 71.9974C 142.232 77.188 141.649 82.3578 140.503 87.3583L 140.496 87.3892C 140.046 89.3306 138.065 93.8348 138.065 93.8348C 123.143 90.9007 110.572 83.3501 100.674 71.3691ZM 137.245 143.718C 140.644 152.631 147.969 158.691 152.218 161.608C 153.377 156.426 154.708 146.733 151.323 137.856C 147.941 128.986 140.604 122.907 136.348 119.975C 135.189 125.159 133.863 134.847 137.245 143.718Z"/>
</defs>
</svg>
