<svg width="320" height="440" viewBox="0 0 320 440" version="1.1" xmlns="http://www.w3.org/2000/svg" xmlns:xlink="http://www.w3.org/1999/xlink">
<title>Group</title>
<desc>Created using Figma</desc>
<g id="Canvas" transform="translate(334 479)">
<g id="Group">
<g id="&#208;&#188;&#208;&#176;&#209;&#128;&#208;&#186;&#208;&#181;&#209;&#128; &#208;&#186;&#209;&#128;&#208;&#181;&#208;&#188;&#208;&#187;&#209;&#143;">
<g id="Oval">
<use xlink:href="#path0_fill" transform="translate(-334 -389)" fill="#1FB38C"/>
</g>
<g id="Triangle">
<use xlink:href="#path1_fill" transform="translate(-194 -79)" fill="#1FB38C"/>
</g>
</g>
<g id="kremlin">
<g id="Path">
<use xlink:href="#path2_fill" transform="translate(-299 -453)" fill="#FFFFFF"/>
<mask id="mask0_outline_ins">
<use xlink:href="#path2_fill" fill="white" transform="translate(-299 -453)"/>
</mask>
<g mask="url(#mask0_outline_ins)">
<use xlink:href="#path3_stroke_2x" transform="translate(-299 -453)" fill="#2F67FF"/>
</g>
</g>
<g id="Shape">
<use xlink:href="#path4_fill" transform="translate(-196.233 -282)" fill="#252AA6"/>
</g>
<g id="Shape">
<use xlink:href="#path5_fill" transform="translate(-212.043 -193)" fill="#252AA6"/>
</g>
<g id="Shape">
<use xlink:href="#path5_fill" transform="translate(-195.245 -193)" fill="#252AA6"/>
</g>
<g id="Shape">
<use xlink:href="#path5_fill" transform="translate(-177.458 -193)" fill="#252AA6"/>
</g>
<g id="Shape">
<use xlink:href="#path5_fill" transform="translate(-160.66 -193)" fill="#252AA6"/>
</g>
<g id="Shape">
<use xlink:href="#path5_fill" transform="translate(-142.874 -193)" fill="#252AA6"/>
</g>
<g id="Shape">
<use xlink:href="#path6_fill" transform="translate(-186.352 -479)" fill="#252AA6"/>
</g>
<g id="Shape">
<use xlink:href="#path7_fill" transform="translate(-299 -453)" fill="#252AA6"/>
</g>
<g id="Shape">
<use xlink:href="#path8_fill" transform="translate(-178.447 -270)" fill="#252AA6"/>
</g>
</g>
</g>
</g>
<defs>
<path id="path0_fill" fill-rule="evenodd" d="M 160 320C 248.366 320 320 248.366 320 160C 320 71.6344 248.366 0 160 0C 71.6344 0 0 71.6344 0 160C 0 248.366 71.6344 320 160 320Z"/>
<path id="path1_fill" fill-rule="evenodd" d="M 20 40L 0 0L 40 0L 20 40Z"/>
<path id="path2_fill" fill-rule="evenodd" d="M 248.373 245.258C 247.373 244.744 246.174 244.838 245.268 245.506L 237.303 251.359L 229.332 245.506C 228.425 244.84 227.226 244.743 226.227 245.259C 225.228 245.774 224.599 246.811 224.599 247.943L 224.599 267.899L 212.565 267.899L 212.565 247.943C 212.565 246.81 211.936 245.773 210.937 245.259C 209.937 244.744 208.738 244.839 207.831 245.506L 199.867 251.36L 191.902 245.506C 190.996 244.84 189.797 244.745 188.797 245.259C 187.798 245.773 187.169 246.81 187.169 247.943L 187.169 267.899L 175.113 267.899L 175.113 223.092C 175.113 221.429 173.778 220.08 172.132 220.08L 170.642 220.08L 170.642 205.722C 170.642 204.058 169.307 202.71 167.661 202.71C 166.015 202.71 164.68 204.058 164.68 205.722L 164.68 220.08L 160.582 220.08L 160.582 163.601C 160.582 161.938 159.247 160.589 157.601 160.589L 152.385 160.589L 152.385 91.6849C 152.385 90.0214 151.051 88.6727 149.405 88.6727L 143.474 88.6727L 127.371 2.45344C 127.105 1.03018 125.875 0 124.442 0C 123.009 0 121.779 1.03018 121.513 2.45344L 105.41 88.6719L 99.4791 88.6719C 97.8331 88.6719 96.4985 90.0206 96.4985 91.6841L 96.4985 160.588L 91.2824 160.588C 89.6364 160.588 88.3018 161.937 88.3018 163.601L 88.3018 220.08L 83.8308 220.08L 83.8308 205.721C 83.8308 204.058 82.4963 202.709 80.8502 202.709C 79.2042 202.709 77.8696 204.058 77.8696 205.721L 77.8696 220.08L 76.3793 220.08C 74.7332 220.08 73.3987 221.428 73.3987 223.092L 73.3987 267.898L 62.8323 267.898L 62.8323 247.942C 62.8323 246.809 62.2034 245.772 61.2042 245.258C 60.2049 244.744 59.0052 244.838 58.0984 245.506L 50.1341 251.359L 42.1699 245.506C 41.2638 244.839 40.0641 244.744 39.0641 245.258C 38.0656 245.772 37.4359 246.809 37.4359 247.942L 37.4359 267.898L 25.4016 267.898L 25.4016 247.942C 25.4016 246.81 24.7727 245.773 23.7742 245.258C 22.7757 244.744 21.576 244.84 20.6692 245.505L 12.6982 251.358L 4.73398 245.505C 3.82787 244.838 2.62817 244.743 1.62817 245.257C 0.629657 245.771 0 246.808 0 247.942L 0 320.988C 0 322.651 1.33458 324 2.98063 324L 247.019 324C 248.665 324 250 322.651 250 320.988L 250 247.942C 250.001 246.809 249.372 245.772 248.373 245.258Z"/>
<path id="path3_stroke_2x" d="M 248.373 245.258L 248.831 244.369L 248.831 244.369L 248.373 245.258ZM 245.268 245.506L 245.86 246.311L 245.86 246.311L 245.268 245.506ZM 237.303 251.359L 236.711 252.165L 237.304 252.6L 237.896 252.165L 237.303 251.359ZM 229.332 245.506L 229.923 244.7L 229.923 244.699L 229.332 245.506ZM 226.227 245.259L 225.768 244.37L 225.768 244.37L 226.227 245.259ZM 224.599 267.899L 224.599 268.899L 225.599 268.899L 225.599 267.899L 224.599 267.899ZM 212.565 267.899L 211.565 267.899L 211.565 268.899L 212.565 268.899L 212.565 267.899ZM 210.937 245.259L 211.394 244.369L 211.394 244.369L 210.937 245.259ZM 207.831 245.506L 208.423 246.312L 208.423 246.312L 207.831 245.506ZM 199.867 251.36L 199.274 252.166L 199.867 252.601L 200.459 252.166L 199.867 251.36ZM 191.902 245.506L 192.495 244.701L 192.495 244.701L 191.902 245.506ZM 188.797 245.259L 188.34 244.369L 188.339 244.37L 188.797 245.259ZM 187.169 267.899L 187.169 268.899L 188.169 268.899L 188.169 267.899L 187.169 267.899ZM 175.113 267.899L 174.113 267.899L 174.113 268.899L 175.113 268.899L 175.113 267.899ZM 170.642 220.08L 169.642 220.08L 169.642 221.08L 170.642 221.08L 170.642 220.08ZM 164.68 220.08L 164.68 221.08L 165.68 221.08L 165.68 220.08L 164.68 220.08ZM 160.582 220.08L 159.582 220.08L 159.582 221.08L 160.582 221.08L 160.582 220.08ZM 152.385 160.589L 151.385 160.589L 151.385 161.589L 152.385 161.589L 152.385 160.589ZM 143.474 88.6727L 142.491 88.8563L 142.643 89.6727L 143.474 89.6727L 143.474 88.6727ZM 127.371 2.45344L 128.354 2.26985L 128.354 2.26972L 127.371 2.45344ZM 121.513 2.45344L 120.53 2.26972L 120.53 2.26985L 121.513 2.45344ZM 105.41 88.6719L 105.41 89.6719L 106.24 89.6719L 106.393 88.8555L 105.41 88.6719ZM 96.4985 160.588L 96.4985 161.588L 97.4985 161.588L 97.4985 160.588L 96.4985 160.588ZM 88.3018 220.08L 88.3018 221.08L 89.3018 221.08L 89.3018 220.08L 88.3018 220.08ZM 83.8308 220.08L 82.8308 220.08L 82.8308 221.08L 83.8308 221.08L 83.8308 220.08ZM 77.8696 220.08L 77.8696 221.08L 78.8696 221.08L 78.8696 220.08L 77.8696 220.08ZM 73.3987 267.898L 73.3987 268.898L 74.3987 268.898L 74.3987 267.898L 73.3987 267.898ZM 62.8323 267.898L 61.8323 267.898L 61.8323 268.898L 62.8323 268.898L 62.8323 267.898ZM 58.0984 245.506L 58.6906 246.311L 58.691 246.311L 58.0984 245.506ZM 50.1341 251.359L 49.5419 252.165L 50.1341 252.6L 50.7263 252.165L 50.1341 251.359ZM 42.1699 245.506L 41.5774 246.311L 41.5777 246.311L 42.1699 245.506ZM 39.0641 245.258L 38.6072 244.368L 38.6062 244.369L 39.0641 245.258ZM 37.4359 267.898L 37.4359 268.898L 38.4359 268.898L 38.4359 267.898L 37.4359 267.898ZM 25.4016 267.898L 24.4016 267.898L 24.4016 268.898L 25.4016 268.898L 25.4016 267.898ZM 23.7742 245.258L 24.2327 244.369L 24.2316 244.369L 23.7742 245.258ZM 20.6692 245.505L 20.0778 244.698L 20.0773 244.699L 20.6692 245.505ZM 12.6982 251.358L 12.106 252.164L 12.698 252.599L 13.2901 252.164L 12.6982 251.358ZM 4.73398 245.505L 4.14148 246.31L 4.14176 246.311L 4.73398 245.505ZM 1.62817 245.257L 1.17131 244.368L 1.17024 244.368L 1.62817 245.257ZM 250 247.942L 249 247.941L 249 247.942L 250 247.942ZM 248.831 244.369C 247.493 243.681 245.888 243.808 244.675 244.7L 245.86 246.311C 246.461 245.869 247.253 245.806 247.916 246.147L 248.831 244.369ZM 244.675 244.7L 236.711 250.553L 237.896 252.165L 245.86 246.311L 244.675 244.7ZM 237.895 250.553L 229.923 244.7L 228.74 246.312L 236.711 252.165L 237.895 250.553ZM 229.923 244.699C 228.712 243.81 227.106 243.68 225.768 244.37L 226.685 246.147C 227.345 245.807 228.138 245.87 228.74 246.312L 229.923 244.699ZM 225.768 244.37C 224.434 245.058 223.599 246.44 223.599 247.943L 225.599 247.943C 225.599 247.181 226.022 246.489 226.685 246.147L 225.768 244.37ZM 223.599 247.943L 223.599 267.899L 225.599 267.899L 225.599 247.943L 223.599 247.943ZM 224.599 266.899L 212.565 266.899L 212.565 268.899L 224.599 268.899L 224.599 266.899ZM 213.565 267.899L 213.565 247.943L 211.565 247.943L 211.565 267.899L 213.565 267.899ZM 213.565 247.943C 213.565 246.439 212.73 245.057 211.394 244.369L 210.479 246.148C 211.142 246.489 211.565 247.18 211.565 247.943L 213.565 247.943ZM 211.394 244.369C 210.057 243.682 208.451 243.809 207.238 244.701L 208.423 246.312C 209.024 245.87 209.817 245.807 210.479 246.148L 211.394 244.369ZM 207.239 244.701L 199.274 250.554L 200.459 252.166L 208.423 246.312L 207.239 244.701ZM 200.459 250.554L 192.495 244.701L 191.31 246.312L 199.274 252.166L 200.459 250.554ZM 192.495 244.701C 191.282 243.809 189.677 243.683 188.34 244.369L 189.253 246.148C 189.917 245.807 190.709 245.87 191.31 246.312L 192.495 244.701ZM 188.339 244.37C 187.004 245.057 186.169 246.439 186.169 247.943L 188.169 247.943C 188.169 247.18 188.592 246.489 189.254 246.148L 188.339 244.37ZM 186.169 247.943L 186.169 267.899L 188.169 267.899L 188.169 247.943L 186.169 247.943ZM 187.169 266.899L 175.113 266.899L 175.113 268.899L 187.169 268.899L 187.169 266.899ZM 176.113 267.899L 176.113 223.092L 174.113 223.092L 174.113 267.899L 176.113 267.899ZM 176.113 223.092C 176.113 220.887 174.34 219.08 172.132 219.08L 172.132 221.08C 173.216 221.08 174.113 221.971 174.113 223.092L 176.113 223.092ZM 172.132 219.08L 170.642 219.08L 170.642 221.08L 172.132 221.08L 172.132 219.08ZM 171.642 220.08L 171.642 205.722L 169.642 205.722L 169.642 220.08L 171.642 220.08ZM 171.642 205.722C 171.642 203.516 169.869 201.71 167.661 201.71L 167.661 203.71C 168.745 203.71 169.642 204.601 169.642 205.722L 171.642 205.722ZM 167.661 201.71C 165.453 201.71 163.68 203.516 163.68 205.722L 165.68 205.722C 165.68 204.601 166.577 203.71 167.661 203.71L 167.661 201.71ZM 163.68 205.722L 163.68 220.08L 165.68 220.08L 165.68 205.722L 163.68 205.722ZM 164.68 219.08L 160.582 219.08L 160.582 221.08L 164.68 221.08L 164.68 219.08ZM 161.582 220.08L 161.582 163.601L 159.582 163.601L 159.582 220.08L 161.582 220.08ZM 161.582 163.601C 161.582 161.396 159.81 159.589 157.601 159.589L 157.601 161.589C 158.685 161.589 159.582 162.48 159.582 163.601L 161.582 163.601ZM 157.601 159.589L 152.385 159.589L 152.385 161.589L 157.601 161.589L 157.601 159.589ZM 153.385 160.589L 153.385 91.6849L 151.385 91.6849L 151.385 160.589L 153.385 160.589ZM 153.385 91.6849C 153.385 89.4791 151.613 87.6727 149.405 87.6727L 149.405 89.6727C 150.488 89.6727 151.385 90.5637 151.385 91.6849L 153.385 91.6849ZM 149.405 87.6727L 143.474 87.6727L 143.474 89.6727L 149.405 89.6727L 149.405 87.6727ZM 144.457 88.4891L 128.354 2.26985L 126.388 2.63704L 142.491 88.8563L 144.457 88.4891ZM 128.354 2.26972C 128.001 0.380375 126.363 -1 124.442 -1L 124.442 1C 125.386 1 126.209 1.67998 126.388 2.63717L 128.354 2.26972ZM 124.442 -1C 122.52 -1 120.883 0.380372 120.53 2.26972L 122.496 2.63717C 122.675 1.67998 123.498 1 124.442 1L 124.442 -1ZM 120.53 2.26985L 104.427 88.4883L 106.393 88.8555L 122.496 2.63704L 120.53 2.26985ZM 105.41 87.6719L 99.4791 87.6719L 99.4791 89.6719L 105.41 89.6719L 105.41 87.6719ZM 99.4791 87.6719C 97.2709 87.6719 95.4985 89.4783 95.4985 91.6841L 97.4985 91.6841C 97.4985 90.5629 98.3953 89.6719 99.4791 89.6719L 99.4791 87.6719ZM 95.4985 91.6841L 95.4985 160.588L 97.4985 160.588L 97.4985 91.6841L 95.4985 91.6841ZM 96.4985 159.588L 91.2824 159.588L 91.2824 161.588L 96.4985 161.588L 96.4985 159.588ZM 91.2824 159.588C 89.0742 159.588 87.3018 161.395 87.3018 163.601L 89.3018 163.601C 89.3018 162.479 90.1986 161.588 91.2824 161.588L 91.2824 159.588ZM 87.3018 163.601L 87.3018 220.08L 89.3018 220.08L 89.3018 163.601L 87.3018 163.601ZM 88.3018 219.08L 83.8308 219.08L 83.8308 221.08L 88.3018 221.08L 88.3018 219.08ZM 84.8308 220.08L 84.8308 205.721L 82.8308 205.721L 82.8308 220.08L 84.8308 220.08ZM 84.8308 205.721C 84.8308 203.515 83.0585 201.709 80.8502 201.709L 80.8502 203.709C 81.9341 203.709 82.8308 204.6 82.8308 205.721L 84.8308 205.721ZM 80.8502 201.709C 78.642 201.709 76.8696 203.515 76.8696 205.721L 78.8696 205.721C 78.8696 204.6 79.7664 203.709 80.8502 203.709L 80.8502 201.709ZM 76.8696 205.721L 76.8696 220.08L 78.8696 220.08L 78.8696 205.721L 76.8696 205.721ZM 77.8696 219.08L 76.3793 219.08L 76.3793 221.08L 77.8696 221.08L 77.8696 219.08ZM 76.3793 219.08C 74.171 219.08 72.3987 220.886 72.3987 223.092L 74.3987 223.092C 74.3987 221.971 75.2954 221.08 76.3793 221.08L 76.3793 219.08ZM 72.3987 223.092L 72.3987 267.898L 74.3987 267.898L 74.3987 223.092L 72.3987 223.092ZM 73.3987 266.898L 62.8323 266.898L 62.8323 268.898L 73.3987 268.898L 73.3987 266.898ZM 63.8323 267.898L 63.8323 247.942L 61.8323 247.942L 61.8323 267.898L 63.8323 267.898ZM 63.8323 247.942C 63.8323 246.439 62.9976 245.056 61.6618 244.369L 60.7465 246.147C 61.4092 246.488 61.8323 247.18 61.8323 247.942L 63.8323 247.942ZM 61.6618 244.369C 60.3251 243.681 58.7185 243.808 57.5057 244.7L 58.691 246.311C 59.2919 245.869 60.0848 245.806 60.7465 246.147L 61.6618 244.369ZM 57.5061 244.7L 49.5419 250.553L 50.7263 252.165L 58.6906 246.311L 57.5061 244.7ZM 50.7263 250.553L 42.7621 244.7L 41.5777 246.311L 49.5419 252.165L 50.7263 250.553ZM 42.7624 244.7C 41.5502 243.808 39.944 243.682 38.6072 244.368L 39.5209 246.147C 40.1841 245.807 40.9774 245.87 41.5774 246.311L 42.7624 244.7ZM 38.6062 244.369C 37.2716 245.056 36.4359 246.438 36.4359 247.942L 38.4359 247.942C 38.4359 247.18 38.8595 246.488 39.522 246.147L 38.6062 244.369ZM 36.4359 247.942L 36.4359 267.898L 38.4359 267.898L 38.4359 247.942L 36.4359 247.942ZM 37.4359 266.898L 25.4016 266.898L 25.4016 268.898L 37.4359 268.898L 37.4359 266.898ZM 26.4016 267.898L 26.4016 247.942L 24.4016 247.942L 24.4016 267.898L 26.4016 267.898ZM 26.4016 247.942C 26.4016 246.439 25.5669 245.057 24.2327 244.369L 23.3158 246.147C 23.9786 246.488 24.4016 247.181 24.4016 247.942L 26.4016 247.942ZM 24.2316 244.369C 22.8952 243.681 21.2896 243.81 20.0778 244.698L 21.2605 246.311C 21.8625 245.87 22.6562 245.807 23.3168 246.147L 24.2316 244.369ZM 20.0773 244.699L 12.1063 250.552L 13.2901 252.164L 21.261 246.311L 20.0773 244.699ZM 13.2904 250.553L 5.3262 244.699L 4.14176 246.311L 12.106 252.164L 13.2904 250.553ZM 5.32648 244.699C 4.11426 243.808 2.50811 243.681 1.17131 244.368L 2.08502 246.147C 2.74823 245.806 3.54147 245.869 4.14148 246.31L 5.32648 244.699ZM 1.17024 244.368C -0.164267 245.055 -1 246.437 -1 247.942L 1 247.942C 1 247.179 1.42358 246.487 2.08609 246.146L 1.17024 244.368ZM -1 247.942L -1 320.988L 1 320.988L 1 247.942L -1 247.942ZM -1 320.988C -1 323.194 0.77238 325 2.98063 325L 2.98063 323C 1.89677 323 1 322.109 1 320.988L -1 320.988ZM 2.98063 325L 247.019 325L 247.019 323L 2.98063 323L 2.98063 325ZM 247.019 325C 249.228 325 251 323.194 251 320.988L 249 320.988C 249 322.109 248.103 323 247.019 323L 247.019 325ZM 251 320.988L 251 247.942L 249 247.942L 249 320.988L 251 320.988ZM 251 247.942C 251.001 246.439 250.166 245.056 248.831 244.369L 247.915 246.147C 248.578 246.488 249.001 247.18 249 247.941L 251 247.942Z"/>
<path id="path4_fill" fill-rule="evenodd" d="M 0 22C 0 9.86966 9.75188 0 21.7391 0C 33.7264 0 43.4783 9.86966 43.4783 22C 43.4783 34.1303 33.7264 44 21.7391 44C 9.75188 44 0 34.1303 0 22ZM 5.99699 22C 5.99699 30.7841 13.0585 37.931 21.7391 37.931C 30.4198 37.931 37.4812 30.7841 37.4812 22C 37.4812 13.2159 30.4198 6.06897 21.7391 6.06897C 13.0585 6.06897 5.99699 13.2159 5.99699 22Z"/>
<path id="path5_fill" d="M 2.96443 0C 1.32732 0 0 1.34325 0 3L 0 12C 0 13.6567 1.32732 15 2.96443 15C 4.60153 15 5.92885 13.6567 5.92885 12L 5.92885 3C 5.92885 1.34325 4.60153 0 2.96443 0Z"/>
<path id="path6_fill" d="M 1.85722 12.3642L 6.20765 14.1492L 3.68687 18.2787C 2.85269 19.6461 3.17746 21.4587 4.42909 22.4144C 4.9458 22.8092 5.54643 23 6.14342 23C 6.99001 23 7.82783 22.6145 8.40293 21.8779L 11.3638 18.0841L 14.3246 21.8779C 14.9078 22.6244 15.7682 22.9916 16.6184 23C 18.2211 22.9877 19.5165 21.6196 19.5165 19.9343C 19.5165 19.223 19.2859 18.5692 18.8991 18.0488L 16.5192 14.15L 20.8696 12.3649C 22.3103 11.7748 23.0612 10.1062 22.5839 8.56186C 22.1059 7.01749 20.566 6.13839 19.0684 6.54307L 14.5501 7.7847L 14.2779 2.88717C 14.1882 1.26615 12.9103 0 11.3638 0C 9.81731 0 8.5394 1.26615 8.44963 2.88717L 8.17741 7.7847L 3.65914 6.54307C 2.16302 6.13686 0.62092 7.01673 0.143621 8.56186C -0.334407 10.1055 0.417302 11.7732 1.85722 12.3642Z"/>
<path id="path7_fill" fill-rule="evenodd" d="M 248.373 245.258C 247.373 244.744 246.174 244.838 245.268 245.506L 237.303 251.359L 229.332 245.506C 228.425 244.84 227.226 244.743 226.227 245.259C 225.228 245.774 224.599 246.811 224.599 247.943L 224.599 267.899L 212.565 267.899L 212.565 247.943C 212.565 246.81 211.936 245.773 210.937 245.259C 209.937 244.744 208.738 244.839 207.831 245.506L 199.867 251.36L 191.902 245.506C 190.996 244.84 189.797 244.745 188.797 245.259C 187.798 245.773 187.169 246.81 187.169 247.943L 187.169 267.899L 175.113 267.899L 175.113 223.092C 175.113 221.429 173.778 220.08 172.132 220.08L 170.642 220.08L 170.642 205.722C 170.642 204.058 169.307 202.71 167.661 202.71C 166.015 202.71 164.68 204.058 164.68 205.722L 164.68 220.08L 160.582 220.08L 160.582 163.601C 160.582 161.938 159.247 160.589 157.601 160.589L 152.385 160.589L 152.385 91.6849C 152.385 90.0214 151.051 88.6727 149.405 88.6727L 143.474 88.6727L 127.371 2.45343C 127.105 1.03018 125.875 0 124.442 0C 123.009 0 121.779 1.03018 121.513 2.45343L 105.41 88.6719L 99.4791 88.6719C 97.8331 88.6719 96.4985 90.0206 96.4985 91.6841L 96.4985 160.588L 91.2824 160.588C 89.6364 160.588 88.3018 161.937 88.3018 163.601L 88.3018 220.08L 83.8308 220.08L 83.8308 205.721C 83.8308 204.058 82.4963 202.709 80.8502 202.709C 79.2042 202.709 77.8696 204.058 77.8696 205.721L 77.8696 220.08L 76.3793 220.08C 74.7332 220.08 73.3987 221.428 73.3987 223.092L 73.3987 267.898L 62.8323 267.898L 62.8323 247.942C 62.8323 246.809 62.2034 245.772 61.2042 245.258C 60.2049 244.744 59.0052 244.838 58.0984 245.506L 50.1341 251.359L 42.1699 245.506C 41.2638 244.839 40.0641 244.744 39.0641 245.258C 38.0656 245.772 37.4359 246.809 37.4359 247.942L 37.4359 267.898L 25.4016 267.898L 25.4016 247.942C 25.4016 246.81 24.7727 245.773 23.7742 245.258C 22.7757 244.744 21.576 244.84 20.6692 245.505L 12.6982 251.358L 4.73398 245.505C 3.82788 244.838 2.62817 244.743 1.62817 245.257C 0.629669 245.771 0 246.808 0 247.942L 0 320.988C 0 322.651 1.33456 324 2.98062 324L 247.019 324C 248.665 324 250 322.651 250 320.988L 250 247.942C 250.001 246.809 249.372 245.772 248.373 245.258ZM 79.3599 226.104L 94.0768 226.104L 94.0768 247.34C 94.0768 249.004 95.4113 250.352 97.0574 250.352C 98.7034 250.352 100.038 249.004 100.038 247.34L 100.038 226.104L 121.275 226.104L 121.275 247.34C 121.275 249.004 122.61 250.352 124.256 250.352C 125.902 250.352 127.236 249.004 127.236 247.34L 127.236 226.104L 148.473 226.104L 148.473 247.34C 148.473 249.004 149.808 250.352 151.454 250.352C 153.1 250.352 154.434 249.004 154.434 247.34L 154.434 226.104L 169.151 226.104L 169.151 290.113L 79.3599 290.113L 79.3599 226.104ZM 138.227 136.114L 146.424 136.114L 146.424 94.6963L 138.227 94.6963L 138.227 136.114ZM 132.266 94.6963L 132.266 136.114L 116.618 136.114L 116.618 94.6963L 132.266 94.6963ZM 137.408 88.6719L 124.442 19.2525L 111.476 88.6719L 137.408 88.6719ZM 110.656 94.6963L 110.656 136.114L 102.46 136.114L 102.46 94.6963L 110.656 94.6963ZM 146.424 160.588L 146.424 142.139L 102.46 142.139L 102.46 160.588L 146.424 160.588ZM 94.263 166.613L 154.621 166.613L 154.621 220.08L 94.263 220.08L 94.263 166.613ZM 5.9635 253.858L 5.96201 253.857L 5.9635 253.857L 5.9635 253.858ZM 5.9635 253.858L 10.9456 257.519C 11.9903 258.287 13.4061 258.286 14.4508 257.52L 19.4426 253.854L 19.4426 270.91C 19.4426 272.573 20.7772 273.922 22.4232 273.922L 40.4188 273.922C 42.0648 273.922 43.3994 272.573 43.3994 270.91L 43.3994 253.856L 48.383 257.518C 49.4277 258.286 50.8443 258.286 51.889 257.518L 56.8726 253.856L 56.8726 270.91C 56.8726 272.573 58.2072 273.922 59.8532 273.922L 73.4001 273.922L 73.4001 317.976L 5.9635 317.976L 5.9635 253.858ZM 79.3599 317.976L 79.3599 296.138L 169.151 296.138L 169.151 317.976L 79.3599 317.976ZM 175.113 317.976L 244.039 317.976L 244.041 317.976L 244.041 253.858L 239.057 257.52C 238.013 258.288 236.597 258.287 235.552 257.521L 230.56 253.855L 230.56 270.911C 230.56 272.574 229.226 273.923 227.58 273.923L 209.584 273.923C 207.938 273.923 206.604 272.574 206.604 270.911L 206.604 253.857L 201.62 257.519C 200.575 258.287 199.159 258.287 198.114 257.519L 193.13 253.857L 193.13 270.911C 193.13 272.574 191.796 273.923 190.15 273.923L 175.113 273.923L 175.113 317.976Z"/>
<path id="path8_fill" d="M 10.7598 7.82069L 6.14844 7.82069L 6.14844 3.08966C 6.14844 1.38339 4.77196 0 3.07422 0C 1.37648 0 0 1.38339 0 3.08966L 0 10.9103C 0 12.6166 1.37648 14 3.07422 14L 10.7598 14C 12.4575 14 13.834 12.6166 13.834 10.9103C 13.834 9.20408 12.4575 7.82069 10.7598 7.82069Z"/>
</defs>
</svg>
