<svg xmlns="http://www.w3.org/2000/svg" xmlns:xlink="http://www.w3.org/1999/xlink" width="360" height="504" viewBox="0 0 360 504">
    <defs>
        <path id="a" d="M357.658 390.504a4.248 4.248 0 0 0-4.473.357l-11.468 8.437-11.48-8.437a4.249 4.249 0 0 0-4.47-.356 4.351 4.351 0 0 0-2.344 3.87v28.764h-17.33v-28.764a4.348 4.348 0 0 0-2.344-3.87 4.248 4.248 0 0 0-4.473.358l-11.468 8.436-11.469-8.436a4.253 4.253 0 0 0-4.472-.358 4.349 4.349 0 0 0-2.343 3.87v28.764h-17.362v-64.583c0-2.398-1.922-4.342-4.292-4.342h-2.146V333.52c0-2.398-1.922-4.342-4.292-4.342s-4.292 1.944-4.292 4.342v20.695h-5.902v-81.406c0-2.398-1.922-4.342-4.292-4.342h-7.511v-99.315c0-2.398-1.922-4.342-4.292-4.342h-8.54L183.413 40.536c-.383-2.051-2.154-3.536-4.218-3.536-2.063 0-3.835 1.485-4.218 3.536L151.79 164.808h-8.54c-2.37 0-4.292 1.944-4.292 4.342v99.315h-7.511c-2.37 0-4.292 1.944-4.292 4.342v81.406h-6.439v-20.695c0-2.398-1.921-4.342-4.292-4.342-2.37 0-4.292 1.944-4.292 4.342v20.695h-2.146c-2.37 0-4.292 1.944-4.292 4.342v64.582H90.48v-28.763a4.348 4.348 0 0 0-2.345-3.87 4.248 4.248 0 0 0-4.472.357l-11.469 8.437-11.468-8.437a4.253 4.253 0 0 0-4.473-.357 4.35 4.35 0 0 0-2.344 3.87v28.763h-17.33v-28.763a4.351 4.351 0 0 0-2.343-3.87 4.256 4.256 0 0 0-4.471.356l-11.479 8.437-11.468-8.437a4.253 4.253 0 0 0-4.472-.357A4.35 4.35 0 0 0 0 394.373v105.285C0 502.056 1.922 504 4.292 504h351.416c2.37 0 4.292-1.944 4.292-4.342V394.373a4.345 4.345 0 0 0-2.342-3.869z"/>
    </defs>
    <g fill="none" fill-rule="evenodd">
        <g>
            <use fill="#1FB38C" xlink:href="#a"/>
            <path stroke="#1FB38C" d="M357.429 390.949a3.748 3.748 0 0 0-3.947.315l-11.765 8.655-.296-.218-11.48-8.437a3.749 3.749 0 0 0-3.945-.314 3.851 3.851 0 0 0-2.073 3.425v29.264h-18.33v-29.264c0-1.447-.801-2.77-2.073-3.425a3.748 3.748 0 0 0-3.947.315l-11.765 8.655-11.765-8.655a3.752 3.752 0 0 0-3.947-.315 3.849 3.849 0 0 0-2.072 3.425v29.264h-18.362v-65.083c0-2.123-1.7-3.842-3.792-3.842h-2.646V333.52c0-2.123-1.7-3.842-3.792-3.842-2.093 0-3.792 1.719-3.792 3.842v21.195h-6.902v-81.906c0-2.123-1.7-3.842-3.792-3.842h-8.011v-99.815c0-2.123-1.7-3.842-3.792-3.842h-8.956L182.923 40.63c-.34-1.816-1.905-3.129-3.727-3.129-1.822 0-3.387 1.313-3.726 3.128l-23.265 124.68h-8.955c-2.093 0-3.792 1.719-3.792 3.842v99.815h-8.011c-2.093 0-3.792 1.72-3.792 3.842v81.906h-7.439v-21.195c0-2.123-1.699-3.842-3.792-3.842s-3.792 1.719-3.792 3.842v21.195h-2.646c-2.093 0-3.792 1.72-3.792 3.842v65.082H89.98v-29.263c0-1.447-.802-2.77-2.074-3.425a3.748 3.748 0 0 0-3.947.315l-11.765 8.655-.296-.218-11.469-8.437a3.752 3.752 0 0 0-3.947-.315 3.85 3.85 0 0 0-2.073 3.425v29.263h-18.33v-29.263a3.851 3.851 0 0 0-2.072-3.425 3.755 3.755 0 0 0-3.946.314l-11.775 8.655-.295-.217-11.47-8.438a3.752 3.752 0 0 0-3.946-.315A3.85 3.85 0 0 0 .5 394.373v105.285c0 2.123 1.7 3.842 3.792 3.842h351.416c2.093 0 3.792-1.719 3.792-3.842V394.372c0-1.445-.8-2.768-2.071-3.423z"/>
        </g>
        <path fill="#1DA783" fill-rule="nonzero" d="M179.5 284c-17.37 0-31.5 14.132-31.5 31.5 0 17.368 14.13 31.5 31.5 31.5 17.37 0 31.5-14.132 31.5-31.5 0-17.368-14.13-31.5-31.5-31.5zm0 54.31c-12.578 0-22.81-10.233-22.81-22.81 0-12.577 10.232-22.81 22.81-22.81s22.81 10.233 22.81 22.81c0 12.577-10.232 22.81-22.81 22.81zM129.5 412c-2.485 0-4.5 1.97-4.5 4.4v13.2c0 2.43 2.015 4.4 4.5 4.4s4.5-1.97 4.5-4.4v-13.2c0-2.43-2.015-4.4-4.5-4.4zM153.5 412c-2.485 0-4.5 1.97-4.5 4.4v13.2c0 2.43 2.015 4.4 4.5 4.4s4.5-1.97 4.5-4.4v-13.2c0-2.43-2.015-4.4-4.5-4.4zM179.5 412c-2.485 0-4.5 1.97-4.5 4.4v13.2c0 2.43 2.015 4.4 4.5 4.4s4.5-1.97 4.5-4.4v-13.2c0-2.43-2.015-4.4-4.5-4.4zM203.5 412c-2.485 0-4.5 1.97-4.5 4.4v13.2c0 2.43 2.015 4.4 4.5 4.4s4.5-1.97 4.5-4.4v-13.2c0-2.43-2.015-4.4-4.5-4.4zM229.5 412c-2.485 0-4.5 1.97-4.5 4.4v13.2c0 2.43 2.015 4.4 4.5 4.4s4.5-1.97 4.5-4.4v-13.2c0-2.43-2.015-4.4-4.5-4.4zM164.697 17.74l6.317 2.561-3.66 5.925c-1.212 1.962-.74 4.563 1.077 5.934.75.566 1.622.84 2.49.84 1.228 0 2.445-.553 3.28-1.61l4.3-5.443 4.298 5.443c.847 1.071 2.096 1.598 3.331 1.61 2.327-.018 4.208-1.98 4.208-4.399 0-1.02-.335-1.958-.896-2.705l-3.456-5.594 6.317-2.561c2.091-.847 3.182-3.24 2.489-5.457-.694-2.215-2.93-3.477-5.105-2.896l-6.56 1.781-.395-7.027C182.602 1.817 180.746 0 178.5 0c-2.245 0-4.1 1.817-4.231 4.142l-.395 7.027-6.56-1.781c-2.173-.583-4.412.68-5.105 2.896-.695 2.215.397 4.608 2.488 5.456z"/>
        <path fill="#1DA783" fill-rule="nonzero" d="M357.658 390.504a4.248 4.248 0 0 0-4.473.357l-11.468 8.437-11.48-8.437a4.249 4.249 0 0 0-4.47-.356 4.351 4.351 0 0 0-2.344 3.87v28.764h-17.33v-28.764a4.348 4.348 0 0 0-2.344-3.87 4.248 4.248 0 0 0-4.473.358l-11.468 8.436-11.469-8.436a4.253 4.253 0 0 0-4.472-.358 4.349 4.349 0 0 0-2.343 3.87v28.764h-17.362v-64.583c0-2.398-1.922-4.342-4.292-4.342h-2.146V333.52c0-2.398-1.922-4.342-4.292-4.342s-4.292 1.944-4.292 4.342v20.695h-5.902v-81.406c0-2.398-1.922-4.342-4.292-4.342h-7.511v-99.315c0-2.398-1.922-4.342-4.292-4.342h-8.54L183.413 40.536c-.383-2.051-2.154-3.536-4.218-3.536-2.063 0-3.835 1.485-4.218 3.536L151.79 164.808h-8.54c-2.37 0-4.292 1.944-4.292 4.342v99.315h-7.511c-2.37 0-4.292 1.944-4.292 4.342v81.406h-6.439v-20.695c0-2.398-1.921-4.342-4.292-4.342-2.37 0-4.292 1.944-4.292 4.342v20.695h-2.146c-2.37 0-4.292 1.944-4.292 4.342v64.582H90.48v-28.763a4.348 4.348 0 0 0-2.345-3.87 4.248 4.248 0 0 0-4.472.357l-11.469 8.437-11.468-8.437a4.253 4.253 0 0 0-4.473-.357 4.35 4.35 0 0 0-2.344 3.87v28.763h-17.33v-28.763a4.351 4.351 0 0 0-2.343-3.87 4.256 4.256 0 0 0-4.471.356l-11.479 8.437-11.468-8.437a4.253 4.253 0 0 0-4.472-.357A4.35 4.35 0 0 0 0 394.373v105.285C0 502.056 1.922 504 4.292 504h351.416c2.37 0 4.292-1.944 4.292-4.342V394.373a4.345 4.345 0 0 0-2.342-3.869zm-243.38-27.607h21.193v30.609c0 2.397 1.921 4.341 4.292 4.341 2.37 0 4.292-1.944 4.292-4.341v-30.61h30.58v30.61c0 2.397 1.923 4.341 4.293 4.341s4.292-1.944 4.292-4.341v-30.61h30.581v30.61c0 2.397 1.922 4.341 4.292 4.341s4.293-1.944 4.293-4.341v-30.61h21.192v92.261h-129.3v-92.26zm96.573-129.708h-11.804v-59.698h11.804v59.698zm-20.388-59.698v59.698H167.93v-59.698h22.533zM179.196 64.75l18.67 100.058h-37.34l18.67-100.058zm-19.85 108.741v59.698h-11.804v-59.698h11.803zm-11.804 68.382h63.309v26.592h-63.309v-26.592zm-11.803 35.276h86.915v77.064h-86.915V277.15zM8.585 402.899l7.177 5.278a4.256 4.256 0 0 0 5.047.001l7.188-5.284v24.584c0 2.398 1.922 4.342 4.292 4.342h25.914c2.37 0 4.292-1.944 4.292-4.342v-24.58l7.177 5.278a4.252 4.252 0 0 0 5.048 0l7.177-5.278v24.58c0 2.398 1.921 4.342 4.292 4.342h19.507v63.497H8.587v-92.418h-.002zm105.693 92.419V463.84h129.3v31.477h-129.3zm237.139 0h-99.255V431.82h21.654c2.37 0 4.292-1.944 4.292-4.342V402.9l7.176 5.278a4.252 4.252 0 0 0 5.049 0l7.176-5.278v24.58c0 2.398 1.922 4.342 4.292 4.342h25.914c2.37 0 4.292-1.944 4.292-4.342v-24.584l7.188 5.284a4.254 4.254 0 0 0 5.048 0l7.176-5.28v92.419h-.002z"/>
        <path fill="#1DA783" fill-rule="nonzero" d="M189.556 312.172h-6.667v-6.758c0-2.438-1.99-4.414-4.445-4.414-2.454 0-4.444 1.976-4.444 4.414v11.172c0 2.438 1.99 4.414 4.444 4.414h11.112c2.454 0 4.444-1.976 4.444-4.414 0-2.437-1.99-4.414-4.444-4.414z"/>
    </g>
</svg>
