<svg xmlns="http://www.w3.org/2000/svg" width="320" height="440" viewBox="0 0 320 440">
    <g fill="none" fill-rule="evenodd">
        <g fill="#1FB38C" transform="translate(0 90)">
            <circle cx="160" cy="160" r="160"/>
            <path d="M160 350l-20-40h40z"/>
        </g>
        <g fill-rule="nonzero">
            <path fill="#FFF" d="M299.511 250.78l-.05 93.923h-87.05v-64.67h9.548a2.389 2.389 0 0 0 2.379-2.397V250.78c5.69.754 10.137 4.144 10.137 8.076a2.406 2.406 0 0 0 2.396 2.415 2.406 2.406 0 0 0 2.396-2.415c0-3.932 4.438-7.322 10.129-8.076l-.084 26.856a2.389 2.389 0 0 0 2.378 2.398h20.418c.632.002 1.24-.25 1.688-.7.448-.45.7-1.06.7-1.698l-.051-26.856c5.69.754 10.137 4.144 10.137 8.076a2.406 2.406 0 0 0 2.396 2.415 2.406 2.406 0 0 0 2.396-2.415c0-3.932 4.438-7.322 10.137-8.076zm-10.6 26.678v-5.026a2.412 2.412 0 0 0-1.148-2.203 2.37 2.37 0 0 0-2.469 0 2.412 2.412 0 0 0-1.149 2.203v5.026a2.396 2.396 0 0 0 2.383 2.264 2.396 2.396 0 0 0 2.383-2.264zm-50.157 0v-5.026a2.412 2.412 0 0 0-1.149-2.203 2.37 2.37 0 0 0-2.468 0 2.412 2.412 0 0 0-1.15 2.203v5.026a2.396 2.396 0 0 0 2.384 2.264 2.396 2.396 0 0 0 2.383-2.264z"/>
            <path fill="#252AA6" d="M288.911 272.432v5.026a2.396 2.396 0 0 1-2.383 2.264 2.396 2.396 0 0 1-2.383-2.264v-5.026a2.412 2.412 0 0 1 1.149-2.203 2.37 2.37 0 0 1 2.469 0 2.412 2.412 0 0 1 1.148 2.203zM238.754 272.432v5.026a2.396 2.396 0 0 1-2.383 2.264 2.396 2.396 0 0 1-2.383-2.264v-5.026a2.412 2.412 0 0 1 1.149-2.203 2.37 2.37 0 0 1 2.468 0 2.412 2.412 0 0 1 1.149 2.203z"/>
            <path fill="#FFF" d="M207.644 237.763v106.94h-22.696v-24.491h12.113a1.2 1.2 0 0 0 1.094-1.2 1.2 1.2 0 0 0-1.094-1.198h-12.155c-.53-14.407-10.625-23.967-25.444-23.967-14.82 0-24.915 9.585-25.444 23.967h-12.744a1.19 1.19 0 0 0-1.116.568 1.212 1.212 0 0 0 0 1.261 1.19 1.19 0 0 0 1.116.569h12.727v24.491h-22.04v-106.94h95.683zm-15.004 25.796c0-.664-.535-1.203-1.194-1.203h-14.752c-.66 0-1.194.539-1.194 1.203 0 .665.535 1.204 1.194 1.204h14.752c.66 0 1.194-.54 1.194-1.204zm-25.798 7.509v-15.102c0-.32-.125-.625-.35-.85a1.189 1.189 0 0 0-.843-.353h-12.24c-.316 0-.62.126-.843.352-.224.226-.35.532-.35.851v15.102c0 .664.535 1.203 1.194 1.203h12.239c.316 0 .62-.127.844-.352.224-.226.35-.532.35-.851zm-23.292-7.509a1.207 1.207 0 0 0-1.194-1.203h-14.76c-.66 0-1.194.539-1.194 1.203 0 .665.534 1.204 1.194 1.204h14.76a1.207 1.207 0 0 0 1.194-1.204zM193.548 212.975v19.864h-10.525v-7.492a1.206 1.206 0 0 0-.563-1.125 1.185 1.185 0 0 0-1.251 0 1.206 1.206 0 0 0-.564 1.125v7.492h-11.34v-7.492c0-.664-.534-1.203-1.193-1.203-.66 0-1.194.539-1.194 1.203v7.492H152.83v-7.492a1.206 1.206 0 0 0-.564-1.125 1.185 1.185 0 0 0-1.251 0 1.206 1.206 0 0 0-.564 1.125v7.492h-11.348v-7.492a1.206 1.206 0 0 0-.564-1.125 1.185 1.185 0 0 0-1.25 0 1.206 1.206 0 0 0-.565 1.125v7.492h-10.667v-19.864h18.796a1.207 1.207 0 0 0 1.193-1.204c.047-5.757 2.87-11.131 7.566-14.407a35.03 35.03 0 0 0 6.094-4.94 35.03 35.03 0 0 0 6.094 4.94c4.82 3.163 7.68 8.61 7.565 14.407 0 .662.53 1.199 1.185 1.204h18.998zm-32.682-5.22v-5.035a1.198 1.198 0 0 0-1.19-1.102c-.62 0-1.137.479-1.189 1.102v5.034a1.198 1.198 0 0 0 1.19 1.103c.62 0 1.137-.48 1.189-1.103z"/>
            <path fill="#FFF" d="M193.548 184.839v25.729h-17.863c-.262-6.176-3.448-11.85-8.565-15.254-5.237-3.577-6.12-5.085-6.246-5.348a1.15 1.15 0 0 0-.26-.644 1.231 1.231 0 0 0-1.85 0 1.15 1.15 0 0 0-.26.644c-.135.271-1.026 1.78-6.246 5.348-5.018 3.495-8.171 9.116-8.557 15.254H126.05v-25.729h12.306V191c0 .665.534 1.203 1.194 1.203.659 0 1.193-.538 1.193-1.203v-8.475-42.059h4.136c.148.013.297.013.445 0h28.908c.148.013.297.013.446 0h4.135v50.568c0 .665.535 1.203 1.194 1.203.659 0 1.193-.538 1.193-1.203v-6.161l12.349-.034zm-18.796-22.466c0-8.383-6.74-15.178-15.055-15.178-8.314 0-15.054 6.795-15.054 15.178 0 8.382 6.74 15.178 15.054 15.178 8.31-.014 15.041-6.801 15.055-15.178z"/>
            <path fill="#252AA6" d="M191.446 262.356c.66 0 1.194.539 1.194 1.203 0 .665-.535 1.204-1.194 1.204h-14.752c-.66 0-1.194-.54-1.194-1.204 0-.664.535-1.203 1.194-1.203h14.752z"/>
            <path fill="#FFF" d="M182.544 318.975c-.004.059-.004.118 0 .178V344.703H136.38V319.28a.7.7 0 0 1 0-.305c0-15.73 11.591-22.763 23.082-22.763 11.49 0 23.082 7.034 23.082 22.763zM159.697 149.602c6.996 0 12.668 5.718 12.668 12.77 0 7.054-5.672 12.772-12.668 12.772-6.996 0-12.667-5.718-12.667-12.771.01-7.05 5.675-12.762 12.667-12.771zm6.07 7.762a1.21 1.21 0 0 0 .254-1.205 1.189 1.189 0 1 0-2.07-.354l-4.581 5.39-3.043-2.822a1.187 1.187 0 0 0-1.615.137 1.21 1.21 0 0 0 .01 1.634l3.95 3.661c.229.212.53.324.84.314h.068c.326-.019.63-.172.84-.424l5.346-6.33zM160.841 103.11h11.028v32.517h-11.028zM161.05 48.983l3.85 49.322h-10.162l3.682-49.364c.004-.06.004-.119 0-.178V42.66h2.63v6.136a1.452 1.452 0 0 0 0 .186zM154.595 257.169h9.86v12.695h-9.86z"/>
            <path fill="#252AA6" d="M160.866 202.72v5.034a1.198 1.198 0 0 1-1.19 1.103c-.62 0-1.137-.48-1.189-1.103v-5.034a1.198 1.198 0 0 1 1.19-1.102c.62 0 1.137.479 1.189 1.102z"/>
            <path fill="#FFF" d="M147.728 103.11h10.734v32.517h-10.734z"/>
            <path fill="#252AA6" d="M158.68 163.805l-3.95-3.66a1.21 1.21 0 0 1-.01-1.635 1.187 1.187 0 0 1 1.615-.137l3.043 2.822 4.573-5.39a1.189 1.189 0 0 1 2.07.354 1.21 1.21 0 0 1-.255 1.205l-5.38 6.33c-.21.253-.514.406-.84.425h-.067a1.18 1.18 0 0 1-.799-.314zM154.595 269.864h9.86v-12.711h-9.86v12.711zm11.054 2.407h-12.24c-.658 0-1.193-.539-1.193-1.203v-15.102c0-.32.126-.625.35-.85.224-.227.527-.353.844-.353h12.239c.316 0 .62.126.844.352.224.226.35.532.35.851v15.102c0 .664-.535 1.203-1.194 1.203zM153.309 8.644l4.556 2.661-2.118 5.246 4.026-3.204 4.043 3.17-2.126-5.246 4.564-2.66-5.38.126-1.093-4.652-1.092 4.652-5.38-.093zm-2.522 1.28a1.935 1.935 0 0 1-1.219-2.263 1.926 1.926 0 0 1 2.152-1.466l5.136.127 1.076-4.568A1.913 1.913 0 0 1 159.807 0c.982.01 1.796.768 1.883 1.754l1.042 4.568 5.136-.127a1.926 1.926 0 0 1 2.152 1.466 1.944 1.944 0 0 1-1.202 2.297l-4.136 2.406 1.959 4.84c.332.598.324 1.33-.023 1.92-.346.59-.978.95-1.659.944a1.885 1.885 0 0 1-1.454-.678l-3.74-2.932-3.724 2.932a1.939 1.939 0 0 1-2.522.356 1.942 1.942 0 0 1-.622-2.543l1.959-4.839-4.069-2.44z"/>
            <path fill="#252AA6" d="M159.697 149.602c-6.996 0-12.667 5.718-12.667 12.77 0 7.054 5.671 12.772 12.667 12.772 6.996 0 12.668-5.718 12.668-12.771-.01-7.05-5.675-12.762-12.668-12.771zm-15.054 12.77c0-8.382 6.74-15.177 15.054-15.177 8.315 0 15.055 6.795 15.055 15.178 0 8.382-6.74 15.178-15.055 15.178-8.308-.014-15.04-6.801-15.054-15.178zM142.356 262.356c.66 0 1.194.539 1.194 1.203 0 .665-.535 1.204-1.194 1.204h-14.76c-.66 0-1.194-.54-1.194-1.204 0-.664.534-1.203 1.194-1.203h14.76z"/>
            <path fill="#252AA6" d="M160.84 135.627h11.029V103.11h-11.028v32.517zm-26.822 182.144c.53-14.407 10.625-23.966 25.444-23.966 14.82 0 24.915 9.585 25.444 23.966h12.138a1.2 1.2 0 0 1 1.094 1.2 1.2 1.2 0 0 1-1.094 1.198h-12.112v24.534h22.695v-106.94h-95.666v106.94H134v-24.491h-12.727a1.19 1.19 0 0 1-1.116-.569 1.212 1.212 0 0 1 0-1.26 1.19 1.19 0 0 1 1.116-.57l12.744-.042zm8.943-217.068a2.397 2.397 0 0 1 2.388-2.398h4.606l3.707-49.602V40.23a2.397 2.397 0 0 1 2.345-2.373h1.312V22.669a2.396 2.396 0 0 1 2.383-2.264c1.263 0 2.308.993 2.383 2.264v15.187h1.32a2.397 2.397 0 0 1 2.387 2.407v8.474l3.866 49.61h4.565a2.389 2.389 0 0 1 2.378 2.399v34.923h4.624a2.397 2.397 0 0 1 2.387 2.399v42.008h12.323a2.397 2.397 0 0 1 2.387 2.399V233h11.718a2.389 2.389 0 0 1 2.37 2.381v39.83h7.162l-.042-27.016a2.408 2.408 0 0 1 .694-1.701 2.37 2.37 0 0 1 1.685-.706c6.43 0 11.936 2.543 14.92 6.356 2.976-3.83 8.481-6.356 14.912-6.356a2.37 2.37 0 0 1 1.685.706c.446.451.696 1.063.694 1.7l-.042 27.018h15.643v-27.017a2.442 2.442 0 0 1 .698-1.695 2.37 2.37 0 0 1 1.68-.703c6.431 0 11.945 2.542 14.921 6.356 2.976-3.831 8.481-6.356 14.912-6.356a2.369 2.369 0 0 1 1.69.702c.449.452.7 1.065.697 1.704l-.05 98.84a2.397 2.397 0 0 1-2.38 2.406H17.43a2.397 2.397 0 0 1-2.379-2.407v-69.406L15 248.22a2.442 2.442 0 0 1 .698-1.695 2.377 2.377 0 0 1 1.68-.703c6.431 0 11.937 2.542 14.913 6.356 2.975-3.83 8.481-6.356 14.912-6.356.63.001 1.235.254 1.68.703.444.452.694 1.06.698 1.695v27.017h15.644V248.22a2.4 2.4 0 0 1 .689-1.695 2.403 2.403 0 0 1 1.681-.703c6.43 0 11.936 2.542 14.912 6.356 2.984-3.83 8.49-6.356 14.92-6.356a2.37 2.37 0 0 1 1.685.705c.447.452.696 1.064.694 1.702l-.118 26.983h7.49v-39.83a2.389 2.389 0 0 1 2.379-2.399h11.734v-50.55a2.397 2.397 0 0 1 2.388-2.4H136v-42.008a2.397 2.397 0 0 1 2.388-2.398h4.572v-34.924zm16.501 195.509c-11.49 0-23.082 7.034-23.082 22.763a.7.7 0 0 0 0 .305v25.423h46.173V319.28v-.127a1.273 1.273 0 0 1 0-.178c-.009-15.73-11.6-22.763-23.091-22.763zm-5.884-98.881c-4.696 3.275-7.518 8.65-7.565 14.406a1.207 1.207 0 0 1-1.194 1.204h-18.762v19.898h10.667v-7.492c-.037-.452.18-.887.564-1.125a1.185 1.185 0 0 1 1.251 0c.384.238.602.673.564 1.125v7.492h11.348v-7.492c-.038-.452.18-.887.564-1.125a1.185 1.185 0 0 1 1.25 0c.385.238.603.673.565 1.125v7.492h14.105v-7.492c0-.664.534-1.203 1.193-1.203.66 0 1.194.539 1.194 1.203v7.492h11.34v-7.492c-.038-.452.18-.887.563-1.125a1.185 1.185 0 0 1 1.251 0c.384.238.602.673.564 1.125v7.492h10.524v-19.864H174.5a1.199 1.199 0 0 1-1.185-1.204c.115-5.797-2.745-11.244-7.565-14.407a35.03 35.03 0 0 1-6.095-4.94 35.029 35.029 0 0 1-6.06 4.907h-.017zm-9.894 13.237c.386-6.138 3.54-11.759 8.557-15.254 5.22-3.568 6.111-5.085 6.246-5.348a1.15 1.15 0 0 1 .26-.644 1.231 1.231 0 0 1 1.85 0c.15.182.242.407.26.644.126.263 1.01 1.771 6.246 5.348 5.117 3.404 8.303 9.078 8.565 15.254h17.863v-25.729h-12.306V191c0 .665-.535 1.203-1.194 1.203-.66 0-1.194-.538-1.194-1.203v-8.339-42.195h-4.135a2.56 2.56 0 0 1-.446 0H145.35a2.56 2.56 0 0 1-.446 0h-4.135v50.585c0 .664-.535 1.203-1.194 1.203-.66 0-1.194-.539-1.194-1.203v-6.161h-12.323v25.729l17.627-.051zm14.76-107.458h-10.716v32.517h10.734l-.017-32.517zm141.017 241.593l.05-93.881c-5.7.754-10.137 4.144-10.137 8.076a2.406 2.406 0 0 1-2.396 2.416 2.406 2.406 0 0 1-2.396-2.416c0-3.932-4.446-7.322-10.137-8.076l.05 26.856c0 .638-.251 1.249-.7 1.699a2.369 2.369 0 0 1-1.687.7H251.69a2.389 2.389 0 0 1-2.378-2.399l.042-26.856c-5.691.754-10.13 4.144-10.13 8.076a2.406 2.406 0 0 1-2.395 2.416 2.406 2.406 0 0 1-2.396-2.416c0-3.932-4.446-7.322-10.137-8.076v26.856a2.389 2.389 0 0 1-2.379 2.398h-9.507v64.627h87.05zM164.917 98.305l-3.866-49.322a1.452 1.452 0 0 1 0-.186V42.66h-2.631v6.136c.004.059.004.118 0 .178l-3.682 49.33h10.18zm-57.722 246.398v-64.67h-9.591a2.201 2.201 0 0 1-.706 0h-.093l-.403-.126-.101-.051-.286-.161-.118-.093a1.44 1.44 0 0 1-.218-.178.727.727 0 0 1-.11-.119l-.168-.203-.1-.153-.127-.229a.92.92 0 0 1-.067-.16 1.45 1.45 0 0 1-.084-.272 1.034 1.034 0 0 1 0-.152 2.357 2.357 0 0 1-.042-.433l.042-26.856c-5.69.755-10.137 4.145-10.137 8.077a2.406 2.406 0 0 1-2.396 2.415 2.406 2.406 0 0 1-2.396-2.415c0-3.932-4.438-7.322-10.086-8.077v26.856c-.001.636-.252 1.246-.698 1.695a2.336 2.336 0 0 1-1.681.704h-20.46a2.344 2.344 0 0 1-1.681-.704 2.408 2.408 0 0 1-.698-1.695v-26.856c-5.69.755-10.087 4.145-10.087 8.077a2.406 2.406 0 0 1-2.395 2.415 2.406 2.406 0 0 1-2.396-2.415c0-3.932-4.438-7.322-10.087-8.077l.008 26.789v67.067h87.362z"/>
            <path fill="#FFF" d="M107.195 280.034v64.67H19.833v-67.068l-.042-26.856c5.691.754 10.13 4.144 10.13 8.076a2.406 2.406 0 0 0 2.395 2.415 2.406 2.406 0 0 0 2.396-2.415c0-3.932 4.438-7.322 10.087-8.076v26.856c0 .635.251 1.245.697 1.695.444.452 1.05.705 1.681.703h20.41a2.336 2.336 0 0 0 1.68-.703c.447-.45.698-1.06.699-1.695V250.78c5.69.754 10.086 4.144 10.086 8.076a2.406 2.406 0 0 0 2.396 2.415 2.406 2.406 0 0 0 2.396-2.415c0-3.932 4.446-7.322 10.137-8.076l-.042 26.856c0 .145.015.29.042.432-.004.05-.004.102 0 .152.02.093.047.184.084.272a.92.92 0 0 0 .067.16l.127.23.1.152.169.203a.727.727 0 0 0 .109.119c.067.066.14.126.218.178l.118.093.286.161.1.051.404.127h.093c.234.038.472.038.706 0l9.633.068zm-21.914-2.542v-5.026a2.412 2.412 0 0 0-1.149-2.203 2.37 2.37 0 0 0-2.468 0 2.412 2.412 0 0 0-1.15 2.203v5.026a2.396 2.396 0 0 0 2.384 2.264 2.396 2.396 0 0 0 2.383-2.264zm-50.15 0v-5.026a2.412 2.412 0 0 0-1.148-2.203 2.37 2.37 0 0 0-2.468 0 2.412 2.412 0 0 0-1.15 2.203v5.026a2.396 2.396 0 0 0 2.384 2.264 2.396 2.396 0 0 0 2.383-2.264z"/>
            <path fill="#252AA6" d="M85.28 272.432v5.026a2.396 2.396 0 0 1-2.382 2.264 2.396 2.396 0 0 1-2.383-2.264v-5.026a2.412 2.412 0 0 1 1.149-2.203 2.37 2.37 0 0 1 2.468 0 2.412 2.412 0 0 1 1.149 2.203zM35.132 272.432v5.026a2.396 2.396 0 0 1-2.383 2.264 2.396 2.396 0 0 1-2.383-2.264v-5.026a2.412 2.412 0 0 1 1.149-2.203 2.37 2.37 0 0 1 2.468 0 2.412 2.412 0 0 1 1.149 2.203z"/>
        </g>
    </g>
</svg>
