<svg xmlns="http://www.w3.org/2000/svg" width="345" height="409" viewBox="0 0 345 409">
    <g fill="#1DA783" fill-rule="nonzero">
        <path d="M161.48 11.71l4.92 2.85-2.32 5.7a2.29 2.29 0 0 0 .74 3 2.33 2.33 0 0 0 3-.42l4.43-3.46 4.45 3.46a2.27 2.27 0 0 0 1.72.8c.445.002.88-.13 1.25-.38a2.29 2.29 0 0 0 .74-3l-2.32-5.7 4.91-2.85a2.28 2.28 0 0 0 1.45-2.66 2.31 2.31 0 0 0-1-1.42 2.27 2.27 0 0 0-1.54-.31l-6.11.15-1.28-5.4A2.28 2.28 0 0 0 172.25 0 2.29 2.29 0 0 0 170 2.07l-1.27 5.4-6.11-.15a2.24 2.24 0 0 0-1.54.31 2.28 2.28 0 0 0 .42 4.08h-.02zm9.46-1.35l1.3-5.5 1.3 5.5 6.4-.16-5.43 3.14 2.53 6.2-4.82-3.75-4.78 3.74 2.56-6.19-5.43-3.14 6.37.16zM323 318.64a2.84 2.84 0 0 0-2.84 2.83v5.93a2.84 2.84 0 1 0 5.67 0v-5.93a2.83 2.83 0 0 0-2.83-2.83zM263.36 318.64a2.84 2.84 0 0 0-2.84 2.83v5.93a2.84 2.84 0 1 0 5.67 0v-5.93a2.83 2.83 0 0 0-2.83-2.83zM21.11 318.64a2.83 2.83 0 0 0-2.83 2.83v5.93a2.84 2.84 0 1 0 5.67 0v-5.93a2.84 2.84 0 0 0-2.84-2.83z"/>
        <path d="M343.3 290.9a2.83 2.83 0 0 0-2-.83c-7.65 0-14.2 3-17.75 7.49-3.54-4.52-10.09-7.49-17.74-7.49-.75 0-1.47.3-2 .83a2.8 2.8 0 0 0-.83 2v31.87h-18.56l.05-31.87a2.83 2.83 0 0 0-2.83-2.84c-7.65 0-14.2 3-17.75 7.49-3.54-4.52-10.09-7.49-17.74-7.49a2.83 2.83 0 0 0-2.84 2.84l.06 31.87h-8.52v-47a2.84 2.84 0 0 0-2.84-2.84h-13.94v-59.65a2.84 2.84 0 0 0-2.83-2.84h-14.66v-49.56a2.84 2.84 0 0 0-2.84-2.84h-5.45v-41.2a2.84 2.84 0 0 0-2.83-2.84H184l-4.6-58.53v-10a2.84 2.84 0 0 0-2.84-2.83H175V26.76a2.84 2.84 0 1 0-5.67 0v17.92h-1.56a2.83 2.83 0 0 0-2.77 2.83v10L160.55 116h-5.48a2.84 2.84 0 0 0-2.84 2.84V160h-5.45a2.84 2.84 0 0 0-2.83 2.84v49.56h-14.67a2.84 2.84 0 0 0-2.83 2.84v59.61h-13.94a2.84 2.84 0 0 0-2.84 2.84v47h-8.9v-31.87a2.83 2.83 0 0 0-2.77-2.75c-7.65 0-14.2 3-17.74 7.49-3.54-4.52-10.09-7.49-17.74-7.49a2.83 2.83 0 0 0-2.84 2.84l.05 31.87H41.1l.06-31.87a2.83 2.83 0 0 0-2.84-2.84c-7.65 0-14.2 3-17.74 7.49-3.58-4.56-10.09-7.49-17.75-7.49A2.83 2.83 0 0 0 0 292.91l.06 34.7v80.93h5.67v-80.93l-.06-31.69c6.77.89 12.06 4.9 12.06 9.53a2.85 2.85 0 1 0 5.7 0c0-4.63 5.28-8.64 12-9.53v31.69a2.87 2.87 0 0 0 .83 2c.53.53 1.25.828 2 .83h24.29a2.84 2.84 0 0 0 2-.83 2.87 2.87 0 0 0 .83-2v-31.69c6.77.89 12 4.9 12 9.53a2.85 2.85 0 1 0 5.7 0c0-4.63 5.28-8.64 12-9.53v31.69a2.21 2.21 0 0 0 .05.51v.17c0 .06.06.22.1.33l.09.19c.042.094.092.184.15.27.033.059.07.116.11.17l.2.24.14.15.26.21.14.11c.11.066.224.126.34.18l.12.06c.153.07.314.121.48.15h.06c.282.04.568.04.85 0h11.4v78.09h5.67v-128h113.94v128h5.67v-77.99h11.36a2.83 2.83 0 0 0 2.83-2.83v-31.69c6.77.89 12.05 4.9 12.05 9.53a2.85 2.85 0 1 0 5.7 0c0-4.63 5.29-8.64 12.06-9.53l-.05 31.69a2.82 2.82 0 0 0 .82 2 2.87 2.87 0 0 0 2 .83h24.29a2.83 2.83 0 0 0 2.83-2.84l-.05-31.69c6.77.89 12.05 4.9 12.05 9.53a2.87 2.87 0 0 0 2.87 2.84 2.84 2.84 0 0 0 2.84-2.84c0-4.63 5.28-8.64 12-9.53v112.62h5.67l.05-115.64a2.83 2.83 0 0 0-.87-2zm-197.07-26.42a1.41 1.41 0 0 0-1.42 1.42v8.83h-12.69v-23.42h22.36a1.41 1.41 0 0 0 1.41-1.42 20.88 20.88 0 0 1 9-17 41.06 41.06 0 0 0 7.25-5.83 40.48 40.48 0 0 0 7.24 5.83 19.82 19.82 0 0 1 9 17c0 .784.636 1.42 1.42 1.42h22.6v23.42h-12.51v-8.83a1.42 1.42 0 0 0-2.84 0v8.83h-13.49v-8.83a1.42 1.42 0 1 0-2.83 0v8.83H164v-8.83a1.42 1.42 0 0 0-2.84 0v8.83h-13.52v-8.83a1.41 1.41 0 0 0-1.41-1.42zM186.62 160H173.5v-38.33h13.12V160zm-16-102.25v-7.4h3.13v7.45l4.58 58.2h-12.1l4.39-58.25zm-12.72 63.92h12.77V160H157.9v-38.33zm-11.13 96.44v7.27a1.42 1.42 0 1 0 2.83 0v-10a.5.5 0 0 0 0-.12v-49.55h4.92c.176.015.354.015.53 0h34.39a3 3 0 0 0 .52 0h4.93v49.57a2.28 2.28 0 0 0 0 .26v9.84a1.42 1.42 0 0 0 2.84 0v-7.27h14.67v30.37h-21.24a22.71 22.71 0 0 0-10.2-18c-6.22-4.23-7.27-6-7.42-6.32a1.45 1.45 0 0 0-.31-.76 1.48 1.48 0 0 0-2.21 0 1.54 1.54 0 0 0-.31.76c-.15.32-1.21 2.1-7.42 6.32a23.72 23.72 0 0 0-10.19 18h-21v-30.37h14.67z"/>
        <path d="M80.78 318.64a2.84 2.84 0 0 0-2.84 2.83v5.93a2.84 2.84 0 1 0 5.67 0v-5.93a2.83 2.83 0 0 0-2.83-2.83zM172.11 246.57a1.42 1.42 0 0 0 1.42-1.42v-5.93a1.42 1.42 0 1 0-2.83 0v5.93c0 .78.63 1.415 1.41 1.42zM216.56 375h-14.43c-.64-17-12.64-28.27-30.27-28.27S142.22 358 141.59 375h-15.17a1.42 1.42 0 0 0 0 2.84h15.14v30.73h2.84v-31.82a.82.82 0 0 1 0-.36c0-18.55 13.79-26.86 27.46-26.86 13.67 0 27.46 8.31 27.46 26.86a1.64 1.64 0 0 0 0 .22.59.59 0 0 0 0 .14v31.79h2.84v-30.73h14.4a1.42 1.42 0 0 0 0-2.84v.03zM209.91 312.42a1.42 1.42 0 1 0 0-2.83h-17.56a1.42 1.42 0 0 0 0 2.83h17.56zM179.22 321.28c.78 0 1.415-.63 1.42-1.41V302a1.43 1.43 0 0 0-1.42-1.42h-14.57a1.42 1.42 0 0 0-1.41 1.42v17.83a1.41 1.41 0 0 0 1.41 1.41l14.57.04zm-13.15-17.82h11.73v15h-11.73v-15zM151.51 312.42a1.42 1.42 0 0 0 0-2.83H134a1.42 1.42 0 1 0 0 2.83h17.51zM170.93 193.29a1.4 1.4 0 0 0 .95.37h.12a1.41 1.41 0 0 0 1-.49l6.4-7.48a1.42 1.42 0 1 0-2.16-1.84l-5.44 6.36-3.62-3.32a1.42 1.42 0 0 0-1.92 2.09l4.67 4.31z"/>
        <path d="M172.14 209.51a17.91 17.91 0 1 0-17.91-17.9c.011 9.885 8.025 17.894 17.91 17.9zm0-33c8.328 0 15.08 6.752 15.08 15.08s-6.752 15.08-15.08 15.08-15.08-6.752-15.08-15.08c.017-8.318 6.762-15.055 15.08-15.06v-.02z"/>
    </g>
</svg>
