<svg width="160" height="165" viewBox="0 0 160 165" version="1.1" xmlns="http://www.w3.org/2000/svg" xmlns:xlink="http://www.w3.org/1999/xlink">
<title>like</title>
<desc>Created using Figma</desc>
<g id="Canvas" transform="translate(-20706 289)">
<g id="like">
<g id="Shape">
<use xlink:href="#path0_fill" transform="translate(20706 -264)" fill="#1DA783"/>
</g>
<g id="Shape">
<use xlink:href="#path1_fill" transform="translate(20841 -253)" fill="#1DA783"/>
</g>
<g id="Shape">
<use xlink:href="#path2_fill" transform="translate(20769 -253)" fill="#1DA783"/>
</g>
<g id="Shape">
<use xlink:href="#path3_fill" transform="translate(20789 -289)" fill="#1DA783"/>
</g>
<g id="Shape">
<use xlink:href="#path4_fill" transform="translate(20825 -289)" fill="#1DA783"/>
</g>
</g>
</g>
<defs>
<path id="path0_fill" fill-rule="evenodd" d="M 160 62.4898C 160 54.0983 153.174 47.2717 144.783 47.2717L 139.604 47.2717L 117.195 47.2717C 121.467 39.5362 123.738 32.2355 123.738 22.1524L 123.738 20.5229C 123.738 15.0966 121.643 9.98222 117.836 6.11951C 114.033 2.25906 108.955 0.085968 103.539 0.00128174L 103.383 0C 98.1328 0 93.541 4.17621 93.1094 9.37981C 91.0547 34.1943 67.1465 46.9821 51.1543 54.7599L 51.1543 52.1922C 51.1543 49.5097 48.9785 47.3353 46.2969 47.3353L 4.85547 47.3353C 2.17383 47.3353 0 49.5101 0 52.1922L 0 135.083C 0 137.765 2.17383 139.94 4.85547 139.94L 35.9375 139.94C 41.8906 139.94 47.0527 136.501 49.5508 131.507C 66.8477 139.021 81.873 140 99.1309 140C 102.078 140 105.094 139.972 108.193 139.942L 108.252 139.942C 111.66 139.909 115.186 139.876 118.883 139.876L 134.238 139.876C 142.629 139.876 149.453 133.049 149.453 124.658C 149.453 121.837 148.682 119.192 147.34 116.925C 151.711 114.248 154.635 109.427 154.635 103.935C 154.635 101.114 153.863 98.4697 152.52 96.2019C 156.891 93.525 159.814 88.7043 159.814 83.2128C 159.814 79.2609 158.299 75.657 155.822 72.9491C 158.408 70.2194 160 66.538 160 62.4898ZM 41.4414 124.721C 41.4414 127.756 38.9727 130.226 35.9375 130.226L 30.4336 130.226L 30.4336 114.36C 30.4336 111.677 28.2578 109.503 25.5762 109.503C 22.8945 109.503 20.7207 111.678 20.7207 114.36L 20.7207 130.226L 9.71289 130.226L 9.71289 57.0487L 41.4414 57.0487L 41.4414 124.721ZM 139.604 77.708L 134.422 77.708C 131.74 77.708 129.566 75.5333 129.566 72.8508C 129.566 70.1687 131.74 67.994 134.422 67.994L 139.604 67.994L 144.783 67.994C 147.818 67.994 150.287 65.5249 150.287 62.4895C 150.287 59.4541 147.818 56.985 144.783 56.985L 139.604 56.985L 108.572 56.985L 108.557 56.985L 98.1621 56.985C 95.4805 56.985 93.3047 54.8106 93.3047 52.1282C 93.3047 49.4461 95.4805 47.2713 98.1621 47.2713L 105.887 47.2713C 111.393 38.6365 114.025 32.2484 114.025 22.1521L 114.025 20.5258C 114.025 14.6555 109.252 9.80479 103.385 9.71301C 103.119 9.71301 102.803 10.0165 102.789 10.1813C 101.641 24.0615 94.8867 36.3409 82.7148 46.6783C 72.7734 55.1222 61.2129 60.6971 52.7695 64.768L 51.2168 65.5177L 51.2168 121.608C 70.5469 130.585 86.4531 130.433 108.102 130.229C 111.553 130.196 115.121 130.162 118.883 130.162L 134.236 130.162C 137.271 130.162 139.74 127.693 139.74 124.658C 139.74 121.622 137.271 119.153 134.236 119.153C 131.555 119.153 129.381 116.979 129.381 114.296C 129.381 111.614 131.555 109.44 134.236 109.44L 139.418 109.44C 142.451 109.44 144.922 106.97 144.922 103.935C 144.922 100.9 142.451 98.4306 139.418 98.4306L 134.422 98.4306C 131.74 98.4306 129.566 96.2559 129.566 93.5738C 129.566 90.8917 131.74 88.7169 134.422 88.7169L 139.418 88.7169L 139.604 88.7169L 144.598 88.7169C 147.633 88.7169 150.102 86.2478 150.102 83.2125C 150.102 80.1771 147.633 77.708 144.598 77.708L 139.604 77.708Z"/>
<path id="path1_fill" d="M 15.1613 0L 4.83869 0C 2.16627 0 0 2.01494 0 4.5C 0 6.98506 2.16659 9 4.83869 9L 15.1613 9C 17.8337 9 20 6.98506 20 4.5C 20 2.01494 17.8337 0 15.1613 0Z"/>
<path id="path2_fill" d="M 15.1613 0L 4.83869 0C 2.16627 0 0 2.01494 0 4.5C 0 6.98506 2.16659 9 4.83869 9L 15.1613 9C 17.8334 9 20 6.98506 20 4.5C 20 2.01494 17.8334 0 15.1613 0Z"/>
<path id="path3_fill" d="M 14.3439 11.5926L 9.12696 2.46976C 7.77634 0.107966 4.78513 -0.701312 2.44613 0.6626C 0.106795 2.02618 -0.694462 5.04611 0.656154 7.40757L 5.87311 16.5304C 6.77884 18.1148 8.42301 19 10.1131 19C 10.9426 19 11.7839 18.7868 12.5539 18.3376C 14.893 16.9743 15.6945 13.9544 14.3439 11.5926Z"/>
<path id="path4_fill" d="M 12.5539 0.662671C 10.2146 -0.701564 7.22312 0.108369 5.87317 2.46982L 0.656289 11.5927C -0.694633 13.9541 0.106938 16.9743 2.44624 18.3376C 3.21624 18.7868 4.05719 19 4.88707 19C 6.57744 19 8.22158 18.1145 9.12697 16.5304L 14.3439 7.40762C 15.6945 5.04616 14.8932 2.02625 12.5539 0.662671Z"/>
</defs>
</svg>
