<svg width="1120" height="15" viewBox="0 0 1120 15" version="1.1" xmlns="http://www.w3.org/2000/svg" xmlns:xlink="http://www.w3.org/1999/xlink">
<title>Group</title>
<desc>Created using Figma</desc>
<g id="Canvas" transform="translate(-3606 24)">
<g id="Group">
<g id="3">
<g id="&#208;&#191;&#208;&#187;&#208;&#176;&#209;&#136;&#208;&#186;&#208;&#176; copy 4">
<use xlink:href="#path0_fill" transform="translate(4496 -19)" fill="#D0D0D0"/>
</g>
<g id="&#208;&#191;&#208;&#187;&#208;&#176;&#209;&#136;&#208;&#186;&#208;&#176; copy 7">
<use xlink:href="#path0_fill" transform="translate(4511 -19)" fill="#D0D0D0"/>
</g>
<g id="&#208;&#191;&#208;&#187;&#208;&#176;&#209;&#136;&#208;&#186;&#208;&#176; copy 8">
<use xlink:href="#path0_fill" transform="translate(4526 -19)" fill="#D0D0D0"/>
</g>
<g id="&#208;&#191;&#208;&#187;&#208;&#176;&#209;&#136;&#208;&#186;&#208;&#176; copy 5">
<use xlink:href="#path1_fill" transform="translate(4541 -17)" fill="#D0D0D0"/>
</g>
<g id="&#208;&#191;&#208;&#187;&#208;&#176;&#209;&#136;&#208;&#186;&#208;&#176; copy 9">
<use xlink:href="#path2_fill" transform="translate(4619 -17)" fill="#D0D0D0"/>
</g>
<g id="&#208;&#191;&#208;&#187;&#208;&#176;&#209;&#136;&#208;&#186;&#208;&#176; copy 4">
<use xlink:href="#path0_fill" transform="translate(4604 -19)" fill="#F3F3F3"/>
<mask id="mask0_outline_out">
<rect id="mask0_outline_inv" fill="white" x="-5" y="-5" width="15" height="15" transform="translate(4604 -19)"/>
<use xlink:href="#path0_fill" fill="black" transform="translate(4604 -19)"/>
</mask>
<g mask="url(#mask0_outline_out)">
<use xlink:href="#path3_stroke_2x" transform="translate(4604 -19)" fill="#1FB38C"/>
</g>
</g>
<g id="&#208;&#191;&#208;&#187;&#208;&#176;&#209;&#136;&#208;&#186;&#208;&#176; copy 6">
<use xlink:href="#path4_fill" transform="translate(4446 -17)" fill="#D0D0D0"/>
</g>
</g>
<g id="2">
<g id="&#208;&#191;&#208;&#187;&#208;&#176;&#209;&#136;&#208;&#186;&#208;&#176; copy 4">
<use xlink:href="#path0_fill" transform="translate(4256 -19)" fill="#D0D0D0"/>
</g>
<g id="&#208;&#191;&#208;&#187;&#208;&#176;&#209;&#136;&#208;&#186;&#208;&#176; copy 5">
<use xlink:href="#path5_fill" transform="translate(4271 -17)" fill="#D0D0D0"/>
</g>
<g id="&#208;&#191;&#208;&#187;&#208;&#176;&#209;&#136;&#208;&#186;&#208;&#176; copy 6">
<use xlink:href="#path4_fill" transform="translate(4206 -17)" fill="#D0D0D0"/>
</g>
</g>
<g id="1">
<g id="&#208;&#191;&#208;&#187;&#208;&#176;&#209;&#136;&#208;&#186;&#208;&#176; copy 5">
<use xlink:href="#path5_fill" transform="translate(4031 -17)" fill="#D0D0D0"/>
</g>
<g id="&#208;&#191;&#208;&#187;&#208;&#176;&#209;&#136;&#208;&#186;&#208;&#176; copy 6">
<use xlink:href="#path4_fill" transform="translate(3966 -17)" fill="#D0D0D0"/>
</g>
<g id="&#208;&#191;&#208;&#187;&#208;&#176;&#209;&#136;&#208;&#186;&#208;&#176; copy 4">
<use xlink:href="#path0_fill" transform="translate(4016 -19)" fill="#D0D0D0"/>
</g>
</g>
<g id="0">
<g id="&#208;&#191;&#208;&#187;&#208;&#176;&#209;&#136;&#208;&#186;&#208;&#176; copy 4">
<use xlink:href="#path0_fill" transform="translate(3921 -19)" fill="#D0D0D0"/>
</g>
<g id="&#208;&#191;&#208;&#187;&#208;&#176;&#209;&#136;&#208;&#186;&#208;&#176; copy 7">
<use xlink:href="#path0_fill" transform="translate(3936 -19)" fill="#D0D0D0"/>
</g>
<g id="&#208;&#191;&#208;&#187;&#208;&#176;&#209;&#136;&#208;&#186;&#208;&#176; copy 8">
<use xlink:href="#path0_fill" transform="translate(3951 -19)" fill="#D0D0D0"/>
</g>
<g id="&#208;&#191;&#208;&#187;&#208;&#176;&#209;&#136;&#208;&#186;&#208;&#176; copy 6">
<use xlink:href="#path6_fill" transform="translate(3606 -17)" fill="#D0D0D0"/>
</g>
</g>
</g>
</g>
<defs>
<path id="path0_fill" fill-rule="evenodd" d="M 0 2.5C 0 1.11929 1.11929 0 2.5 0C 3.88071 0 5 1.11929 5 2.5C 5 3.88071 3.88071 5 2.5 5C 1.11929 5 0 3.88071 0 2.5Z"/>
<path id="path1_fill" fill-rule="evenodd" d="M 0 0L 53 0L 53 1L 0 1L 0 0Z"/>
<path id="path2_fill" fill-rule="evenodd" d="M 0 0L 107 0L 107 1L 0 1L 0 0Z"/>
<path id="path3_stroke_2x" d="M 2.5 0C 3.88071 0 5 1.11929 5 2.5L -5 2.5C -5 6.64214 -1.64214 10 2.5 10L 2.5 0ZM 0 2.5C 0 1.11929 1.11929 0 2.5 0L 2.5 10C 6.64214 10 10 6.64214 10 2.5L 0 2.5ZM 2.5 5C 1.11929 5 0 3.88071 0 2.5L 10 2.5C 10 -1.64214 6.64214 -5 2.5 -5L 2.5 5ZM 2.5 -5C -1.64214 -5 -5 -1.64214 -5 2.5L 5 2.5C 5 3.88071 3.88071 5 2.5 5L 2.5 -5Z"/>
<path id="path4_fill" fill-rule="evenodd" d="M 0 0L 40 0L 40 1L 0 1L 0 0Z"/>
<path id="path5_fill" fill-rule="evenodd" d="M 0 0L 175 0L 175 1L 0 1L 0 0Z"/>
<path id="path6_fill" fill-rule="evenodd" d="M 0 0L 305 0L 305 1L 0 1L 0 0Z"/>
</defs>
</svg>
