<svg width="16" height="17" viewBox="0 0 16 17" version="1.1" xmlns="http://www.w3.org/2000/svg" xmlns:xlink="http://www.w3.org/1999/xlink">
<title>&#239;&#138;&#156;</title>
<desc>Created using Figma</desc>
<g id="Canvas" transform="translate(-5150 423)">
<g id="&#239;&#138;&#156;">
<use xlink:href="#path0_fill" transform="translate(5150 -429)" fill="#FFFFFF"/>
</g>
</g>
<defs>
<path id="path0_fill" d="M 8.83929 17.625C 8.83929 17.4442 8.69866 17.3036 8.51786 17.3036L 6.91071 17.3036C 6.72991 17.3036 6.58929 17.4442 6.58929 17.625L 6.58929 19.2321C 6.58929 19.4129 6.72991 19.5536 6.91071 19.5536L 8.51786 19.5536C 8.69866 19.5536 8.83929 19.4129 8.83929 19.2321L 8.83929 17.625ZM 11.4107 12.6429C 11.4107 10.8951 9.5625 9.58929 7.91518 9.58929C 6.38839 9.58929 5.23326 10.2221 4.4096 11.5179C 4.3192 11.6585 4.34933 11.8493 4.47991 11.9498L 5.56473 12.7734C 5.61496 12.8136 5.68527 12.8337 5.75558 12.8337C 5.85603 12.8337 5.94643 12.7935 6.0067 12.7132C 6.37835 12.2511 6.58929 12.0301 6.81027 11.8795C 7.04129 11.7188 7.41295 11.6083 7.76451 11.6083C 8.42746 11.6083 9.16071 12.0402 9.16071 12.6228C 9.16071 13.0748 8.78906 13.2656 8.18638 13.5469C 7.47321 13.8683 6.58929 14.26 6.58929 15.4955L 6.58929 16.1786C 6.58929 16.3594 6.72991 16.5 6.91071 16.5L 8.51786 16.5C 8.69866 16.5 8.83929 16.3594 8.83929 16.1786L 8.83929 15.8571C 8.83929 15.5357 9.16071 15.3449 9.68304 15.0435C 10.4163 14.6317 11.4107 14.0692 11.4107 12.6429ZM 7.71429 8.14286C 11.26 8.14286 14.1429 11.0257 14.1429 14.5714C 14.1429 18.1172 11.26 21 7.71429 21C 4.16853 21 1.28571 18.1172 1.28571 14.5714C 1.28571 11.0257 4.16853 8.14286 7.71429 8.14286ZM 15.4286 14.5714C 15.4286 10.3125 11.9732 6.85714 7.71429 6.85714C 3.45536 6.85714 0 10.3125 0 14.5714C 0 18.8304 3.45536 22.2857 7.71429 22.2857C 11.9732 22.2857 15.4286 18.8304 15.4286 14.5714Z"/>
</defs>
</svg>
