<svg width="346" height="285" viewBox="0 0 346 285" version="1.1" xmlns="http://www.w3.org/2000/svg" xmlns:xlink="http://www.w3.org/1999/xlink">
<title>questions</title>
<desc>Created using Figma</desc>
<g id="Canvas" transform="translate(-15726 434)">
<g id="questions">
<g id="Shape">
<use xlink:href="#path0_fill" transform="translate(15726 -434)" fill="#1FB38C"/>
</g>
<g id="Shape">
<use xlink:href="#path1_fill" transform="translate(15829 -403)" fill="#1FB38C"/>
</g>
<g id="Shape">
<use xlink:href="#path2_fill" transform="translate(15884 -379)" fill="#1FB38C"/>
</g>
<g id="Shape">
<use xlink:href="#path3_fill" transform="translate(15829 -379)" fill="#1FB38C"/>
</g>
<g id="Shape">
<use xlink:href="#path4_fill" transform="translate(15750 -415)" fill="#1FB38C"/>
</g>
<g id="Shape">
<use xlink:href="#path5_fill" transform="translate(15766 -367)" fill="#1FB38C"/>
</g>
<g id="Shape">
<use xlink:href="#path1_fill" transform="translate(15829 -294)" fill="#1FB38C"/>
</g>
<g id="Shape">
<use xlink:href="#path6_fill" transform="translate(15884 -269)" fill="#1FB38C"/>
</g>
<g id="Shape">
<use xlink:href="#path3_fill" transform="translate(15829 -269)" fill="#1FB38C"/>
</g>
<g id="Shape">
<use xlink:href="#path7_fill" transform="translate(15750 -305)" fill="#1FB38C"/>
</g>
<g id="Shape">
<use xlink:href="#path5_fill" transform="translate(15766 -258)" fill="#1FB38C"/>
</g>
<g id="Shape">
<use xlink:href="#path1_fill" transform="translate(15829 -185)" fill="#1FB38C"/>
</g>
<g id="Shape">
<use xlink:href="#path8_fill" transform="translate(15884 -160)" fill="#1FB38C"/>
</g>
<g id="Shape">
<use xlink:href="#path3_fill" transform="translate(15829 -160)" fill="#1FB38C"/>
</g>
<g id="Shape">
<use xlink:href="#path9_fill" transform="translate(15750 -196)" fill="#1FB38C"/>
</g>
<g id="Shape">
<use xlink:href="#path10_fill" transform="translate(15726 -325)" fill="#1FB38C"/>
</g>
</g>
</g>
<defs>
<path id="path0_fill" fill-rule="evenodd" d="M 309.238 0L 11.7627 0C 5.27637 0 0 5.25589 0 11.7163L 0 84.2837C 0 90.7441 5.27637 96 11.7627 96L 309.238 96C 315.724 96 321 90.7441 321 84.2837L 321 11.7163C 321.001 5.25589 315.725 0 309.238 0ZM 78.9219 84.6612L 11.7627 84.6612C 11.6338 84.6612 11.5195 84.5969 11.4512 84.4986C 11.4082 84.4375 11.3828 84.3632 11.3828 84.283L 11.3828 11.7156C 11.3828 11.5073 11.5527 11.3374 11.7627 11.3374L 78.9219 11.3374L 78.9219 84.6612ZM 309.237 84.6619C 309.447 84.6619 309.617 84.492 309.617 84.2837L 309.617 11.7163C 309.617 11.5073 309.446 11.3381 309.237 11.3381L 90.3047 11.3381L 90.3047 84.6619L 309.237 84.6619Z"/>
<path id="path1_fill" d="M 108.338 0L 5.66205 0C 2.53462 0 0 2.68664 0 6C 0 9.31336 2.53532 12 5.66205 12L 108.338 12C 111.465 12 114 9.31336 114 6C 114 2.68664 111.465 0 108.338 0Z"/>
<path id="path2_fill" d="M 126.343 0L 5.6569 0C 2.53162 0 0 2.68664 0 6C 0 9.31336 2.53302 12 5.6569 12L 126.343 12C 129.468 12 132 9.31336 132 6C 132 2.68664 129.467 0 126.343 0Z"/>
<path id="path3_fill" d="M 36.2731 0L 5.72689 0C 2.56365 0 0 2.68664 0 6C 0 9.31336 2.56435 12 5.72689 12L 36.2731 12C 39.4364 12 42 9.31336 42 6C 42 2.68664 39.4356 0 36.2731 0Z"/>
<path id="path4_fill" d="M 21 0C 9.42013 0 0 9.42083 0 21C 0 24.1633 2.56444 26.7271 5.72708 26.7271C 8.88972 26.7271 11.4542 24.1626 11.4542 21C 11.4542 15.7362 15.7362 11.4542 21 11.4542C 26.2638 11.4542 30.5458 15.7369 30.5458 21C 30.5458 26.2631 26.2638 30.5458 21 30.5458C 17.8367 30.5458 15.2729 33.1103 15.2729 36.2729C 15.2729 39.4356 17.8374 42 21 42C 32.5799 42 42 32.5799 42 21C 42 9.42013 32.5799 0 21 0Z"/>
<path id="path5_fill" d="M 6.0155 0L 5.95204 0C 2.64691 0 0 2.68664 0 6C 0 9.31336 2.71111 12 6.01623 12C 9.32136 12 12 9.31336 12 6C 12 2.68664 9.31989 0 6.0155 0Z"/>
<path id="path6_fill" d="M 108.338 0L 5.66202 0C 2.53461 0 0 2.68664 0 6C 0 9.31336 2.5353 12 5.66202 12L 108.338 12C 111.465 12 114 9.31336 114 6C 114 2.68664 111.465 0 108.338 0Z"/>
<path id="path7_fill" d="M 21 0C 9.42013 0 0 9.42013 0 21C 0 24.1633 2.56444 26.7271 5.72708 26.7271C 8.88972 26.7271 11.4542 24.1626 11.4542 21C 11.4542 15.7362 15.7362 11.4542 21 11.4542C 26.2638 11.4542 30.5458 15.7362 30.5458 21C 30.5458 26.2638 26.2638 30.5458 21 30.5458C 17.8367 30.5458 15.2729 33.1103 15.2729 36.2729C 15.2729 39.4356 17.8374 42 21 42C 32.5799 42 42 32.5799 42 21C 42 9.42013 32.5799 0 21 0Z"/>
<path id="path8_fill" d="M 115.293 0L 5.70731 0C 2.55488 0 0 2.68664 0 6C 0 9.31336 2.55558 12 5.70731 12L 115.293 12C 118.445 12 121 9.31336 121 6C 121 2.68664 118.444 0 115.293 0Z"/>
<path id="path9_fill" d="M 21 0C 9.42013 0 0 9.42013 0 21C 0 24.1633 2.56444 26.7271 5.72708 26.7271C 8.88972 26.7271 11.4542 24.1626 11.4542 21C 11.4542 15.7362 15.7362 11.4542 21 11.4542C 26.2638 11.4542 30.5458 15.7362 30.5458 21C 30.5458 26.2638 26.2638 30.5458 21 30.5458C 17.8367 30.5458 15.2729 33.1103 15.2729 36.2729C 15.2729 39.4356 17.8374 42 21 42C 32.5799 42 42 32.5799 42 21C 42 9.42083 32.5799 0 21 0Z"/>
<path id="path10_fill" fill-rule="evenodd" d="M 326.412 125.112C 327.213 123.608 328.645 122.541 330.314 122.203L 342.756 119.686L 297.26 74.1962L 297.26 138.445L 307.862 131.497C 308.802 130.881 309.89 130.564 310.988 130.564C 311.551 130.564 312.116 130.647 312.667 130.817C 314.289 131.317 315.605 132.514 316.255 134.083L 335.259 179.956L 345.182 175.846L 326.177 129.973C 325.525 128.398 325.611 126.616 326.412 125.112ZM 310.182 194.217C 310.182 194.427 310.012 194.598 309.802 194.598L 90.4697 194.598L 90.4697 120.863L 285.854 120.863L 285.854 148.997C 285.854 151.091 287.003 153.018 288.846 154.013C 290.688 155.009 292.93 154.914 294.682 153.766L 308.354 144.806L 310.182 149.219L 310.182 194.217Z"/>
</defs>
</svg>
