<svg width="160" height="160" viewBox="0 0 160 160" version="1.1" xmlns="http://www.w3.org/2000/svg" xmlns:xlink="http://www.w3.org/1999/xlink">
<title>Shape</title>
<desc>Created using Figma</desc>
<g id="Canvas" transform="translate(-14546 -2101)">
<g id="Shape">
<g id="Mask">
<use xlink:href="#path0_fill" transform="translate(14546 2101)" fill="#4F55EC"/>
</g>
<mask id="mask0_outline" mask-type="alpha">
<g id="Mask">
<use xlink:href="#path0_fill" transform="translate(14546 2101)" fill="#FFFFFF"/>
</g>
</mask>
<g id="hockey" mask="url(#mask0_outline)">
<g id="Shape">
<use xlink:href="#path1_fill" transform="translate(14566 2146)" fill="#9296F9"/>
</g>
<g id="Shape">
<use xlink:href="#path2_fill" transform="translate(14580 2192)" fill="#9296F9"/>
</g>
</g>
</g>
</g>
<defs>
<path id="path0_fill" fill-rule="evenodd" d="M 80 160C 124.183 160 160 124.183 160 80C 160 35.8172 124.183 0 80 0C 35.8172 0 0 35.8172 0 80C 0 124.183 35.8172 160 80 160Z"/>
<path id="path1_fill" fill-rule="evenodd" d="M 136.127 10.0732C 134.305 8.9873 131.946 9.58105 130.857 11.3977L 120.046 29.4473L 107.289 29.4473L 121.455 5.79785C 122.544 3.9812 121.949 1.62817 120.127 0.542969C 118.304 -0.54248 115.945 0.050293 114.857 1.86743L 72.9121 71.8926C 68.8994 78.5903 61.5469 82.7512 53.7236 82.7512L 16.208 82.7512C 14.1094 82.7512 12.1172 83.7593 10.8779 85.4475L 1.28027 98.5208C -0.197266 100.534 -0.412109 103.167 0.719727 105.393C 1.85156 107.618 4.10938 109 6.61133 109L 64.2998 109C 74.8135 109 84.6943 103.409 90.0859 94.4077L 137.456 15.3276C 138.544 13.511 137.949 11.1584 136.127 10.0732ZM 64.3008 101.336L 8.73926 101.336L 16.7559 90.4153L 53.7236 90.4153C 64.2373 90.4153 74.1182 84.8237 79.5107 75.8228L 93.7344 52.0771L 106.491 52.0771L 83.4893 90.4773C 79.4766 97.1753 72.124 101.336 64.3008 101.336ZM 98.3242 44.4131L 111.081 44.4131L 115.454 37.1113L 102.698 37.1113L 98.3242 44.4131Z"/>
<path id="path2_fill" fill-rule="evenodd" d="M 22.5 32C 32.8789 32 45 29.3779 45 21.988L 45 10.012C 45 2.62207 32.8789 0 22.5 0C 12.1211 0 0 2.62207 0 10.012L 0 21.988C 0 29.3779 12.1201 32 22.5 32ZM 22.5 24.2512C 14.3223 24.2512 8.99707 22.4434 7.60547 21.3362L 7.60547 17.8738C 13.3174 19.8708 20.4775 20.0239 22.5 20.0239C 24.542 20.0239 31.6914 19.8694 37.3945 17.8777L 37.3945 21.3362C 36.0029 22.4434 30.6768 24.2512 22.5 24.2512ZM 22.5 12.2754C 29.2031 12.2754 33.9893 11.0608 36.2637 10.0129C 33.9912 8.96436 29.207 7.74854 22.5 7.74902C 15.7939 7.74902 11.0098 8.9646 8.73633 10.0129C 11.0107 11.0608 15.7969 12.2754 22.5 12.2754Z"/>
</defs>
</svg>
