<svg width="160" height="160" viewBox="0 0 160 160" version="1.1" xmlns="http://www.w3.org/2000/svg" xmlns:xlink="http://www.w3.org/1999/xlink">
<title>Shape</title>
<desc>Created using Figma</desc>
<g id="Canvas" transform="translate(-14546 -1801)">
<g id="Shape">
<g id="Mask">
<use xlink:href="#path0_fill" transform="translate(14546 1801)" fill="#4F55EC"/>
</g>
<mask id="mask0_outline" mask-type="alpha">
<g id="Mask">
<use xlink:href="#path0_fill" transform="translate(14546 1801)" fill="#FFFFFF"/>
</g>
</mask>
<g id="Shape" mask="url(#mask0_outline)">
<use xlink:href="#path1_fill" transform="translate(14566 1851)" fill="#9296F9"/>
</g>
</g>
</g>
<defs>
<path id="path0_fill" fill-rule="evenodd" d="M 80 160C 124.183 160 160 124.183 160 80C 160 35.8172 124.183 0 80 0C 35.8172 0 0 35.8172 0 80C 0 124.183 35.8172 160 80 160Z"/>
<path id="path1_fill" fill-rule="evenodd" d="M 119.071 31.2825L 92.8213 1.28247C 92.1094 0.472534 91.0811 0 90.001 0L 30.002 0C 29.543 0 29.0938 0.0853271 28.6738 0.245728C 28.1055 0.462646 27.5918 0.816772 27.1816 1.28247L 0.931641 31.2825C -0.185547 32.5575 -0.313477 34.4175 0.631836 35.8275L 15.6318 58.3275C 16.2539 59.265 17.2666 59.8726 18.3838 59.9775C 19.5469 60.0975 20.6113 59.6925 21.4062 58.8975L 22.502 57.8025L 22.502 75L 22.502 82.5L 22.502 116.25C 22.502 118.32 24.1816 120 26.252 120L 93.751 120C 95.8213 120 97.501 118.32 97.501 116.25L 97.501 82.5L 97.501 75L 97.501 57.8025L 98.5967 58.8975C 99.3916 59.6925 100.479 60.0975 101.619 59.9775C 102.736 59.865 103.749 59.2574 104.371 58.3275L 119.371 35.8275C 120.309 34.4175 120.188 32.55 119.071 31.2825ZM 74 7L 58.7158 25L 45 7L 74 7ZM 23.0723 45.5353C 24.1475 44.4645 25.7461 44.1425 27.1426 44.7266C 28.5391 45.3031 29.4502 46.6735 29.4502 48.1862L 29.4502 57L 53 30.244L 34.6494 7L 31.1465 7L 8 33.5164L 18.8301 49.7961L 23.0723 45.5353ZM 30 112L 30 82L 52.5 82L 45.75 91C 44.5049 92.6575 44.8428 95.005 46.5 96.25C 46.8369 96.5006 47.2021 96.6879 47.5811 96.8126C 47.9609 96.9379 48.3555 97 48.75 97C 49.8896 97 51.0146 96.4825 51.75 95.5L 60 84.4976L 68.25 95.5C 68.9854 96.4825 70.1104 97 71.25 97C 71.4395 97 71.6299 96.9854 71.8184 96.9561C 71.9033 96.9427 71.9883 96.9264 72.0732 96.9071C 72.3506 96.8438 72.625 96.7478 72.8877 96.6189C 73.0967 96.5167 73.2988 96.3938 73.4922 96.25C 75.1504 95.005 75.4873 92.6575 74.2422 91L 67.5 82L 90 82L 90 112L 30 112ZM 96.7793 45.8809L 101.071 50.1801L 112 33.7543L 88.626 7L 84.501 7L 30 68.8724L 30 75L 90.3389 75L 90.3389 48.5555C 90.3389 47.0293 91.2588 45.6466 92.6689 45.0649C 94.0869 44.4756 95.7012 44.8004 96.7793 45.8809Z"/>
</defs>
</svg>
