<svg width="252" height="2" viewBox="0 0 252 2" version="1.1" xmlns="http://www.w3.org/2000/svg" xmlns:xlink="http://www.w3.org/1999/xlink">
<title>Line</title>
<desc>Created using Figma</desc>
<g id="Canvas" transform="translate(-4835 120)">
<g id="Line" opacity="0.5">
<use xlink:href="#path0_stroke" transform="translate(4836 -120)" fill="#FFFFFF"/>
</g>
</g>
<defs>
<path id="path0_stroke" d="M 0 0C -0.552285 0 -1 0.447715 -1 1C -1 1.55228 -0.552285 2 0 2L 0 0ZM 250 2C 250.552 2 251 1.55228 251 1C 251 0.447715 250.552 0 250 0L 250 2ZM 0.496032 2C 1.04832 2 1.49603 1.55228 1.49603 1C 1.49603 0.447715 1.04832 0 0.496032 0L 0.496032 2ZM 6.44841 0C 5.89613 0 5.44841 0.447715 5.44841 1C 5.44841 1.55228 5.89613 2 6.44841 2L 6.44841 0ZM 7.44048 2C 7.99276 2 8.44048 1.55228 8.44048 1C 8.44048 0.447715 7.99276 0 7.44048 0L 7.44048 2ZM 13.3929 0C 12.8406 0 12.3929 0.447715 12.3929 1C 12.3929 1.55228 12.8406 2 13.3929 2L 13.3929 0ZM 14.3849 2C 14.9372 2 15.3849 1.55228 15.3849 1C 15.3849 0.447715 14.9372 0 14.3849 0L 14.3849 2ZM 20.3373 0C 19.785 0 19.3373 0.447715 19.3373 1C 19.3373 1.55228 19.785 2 20.3373 2L 20.3373 0ZM 21.3294 2C 21.8817 2 22.3294 1.55228 22.3294 1C 22.3294 0.447715 21.8817 0 21.3294 0L 21.3294 2ZM 27.2817 0C 26.7295 0 26.2817 0.447715 26.2817 1C 26.2817 1.55228 26.7295 2 27.2817 2L 27.2817 0ZM 28.2738 2C 28.8261 2 29.2738 1.55228 29.2738 1C 29.2738 0.447715 28.8261 0 28.2738 0L 28.2738 2ZM 34.2262 0C 33.6739 0 33.2262 0.447715 33.2262 1C 33.2262 1.55228 33.6739 2 34.2262 2L 34.2262 0ZM 35.2183 2C 35.7705 2 36.2183 1.55228 36.2183 1C 36.2183 0.447715 35.7705 0 35.2183 0L 35.2183 2ZM 41.1706 0C 40.6184 0 40.1706 0.447715 40.1706 1C 40.1706 1.55228 40.6184 2 41.1706 2L 41.1706 0ZM 42.1627 2C 42.715 2 43.1627 1.55228 43.1627 1C 43.1627 0.447715 42.715 0 42.1627 0L 42.1627 2ZM 48.1151 0C 47.5628 0 47.1151 0.447715 47.1151 1C 47.1151 1.55228 47.5628 2 48.1151 2L 48.1151 0ZM 49.1071 2C 49.6594 2 50.1071 1.55228 50.1071 1C 50.1071 0.447715 49.6594 0 49.1071 0L 49.1071 2ZM 55.0595 0C 54.5072 0 54.0595 0.447715 54.0595 1C 54.0595 1.55228 54.5072 2 55.0595 2L 55.0595 0ZM 56.0516 2C 56.6039 2 57.0516 1.55228 57.0516 1C 57.0516 0.447715 56.6039 0 56.0516 0L 56.0516 2ZM 62.004 0C 61.4517 0 61.004 0.447715 61.004 1C 61.004 1.55228 61.4517 2 62.004 2L 62.004 0ZM 62.996 2C 63.5483 2 63.996 1.55228 63.996 1C 63.996 0.447715 63.5483 0 62.996 0L 62.996 2ZM 68.9484 0C 68.3961 0 67.9484 0.447715 67.9484 1C 67.9484 1.55228 68.3961 2 68.9484 2L 68.9484 0ZM 69.9405 2C 70.4928 2 70.9405 1.55228 70.9405 1C 70.9405 0.447715 70.4928 0 69.9405 0L 69.9405 2ZM 75.8929 0C 75.3406 0 74.8929 0.447715 74.8929 1C 74.8929 1.55228 75.3406 2 75.8929 2L 75.8929 0ZM 76.8849 2C 77.4372 2 77.8849 1.55228 77.8849 1C 77.8849 0.447715 77.4372 0 76.8849 0L 76.8849 2ZM 82.8373 0C 82.285 0 81.8373 0.447715 81.8373 1C 81.8373 1.55228 82.285 2 82.8373 2L 82.8373 0ZM 83.8294 2C 84.3816 2 84.8294 1.55228 84.8294 1C 84.8294 0.447715 84.3816 0 83.8294 0L 83.8294 2ZM 89.7817 0C 89.2295 0 88.7817 0.447715 88.7817 1C 88.7817 1.55228 89.2295 2 89.7817 2L 89.7817 0ZM 90.7738 2C 91.3261 2 91.7738 1.55228 91.7738 1C 91.7738 0.447715 91.3261 0 90.7738 0L 90.7738 2ZM 96.7262 0C 96.1739 0 95.7262 0.447715 95.7262 1C 95.7262 1.55228 96.1739 2 96.7262 2L 96.7262 0ZM 97.7182 2C 98.2705 2 98.7182 1.55228 98.7182 1C 98.7182 0.447715 98.2705 0 97.7182 0L 97.7182 2ZM 103.671 0C 103.118 0 102.671 0.447715 102.671 1C 102.671 1.55228 103.118 2 103.671 2L 103.671 0ZM 104.663 2C 105.215 2 105.663 1.55228 105.663 1C 105.663 0.447715 105.215 0 104.663 0L 104.663 2ZM 110.615 0C 110.063 0 109.615 0.447715 109.615 1C 109.615 1.55228 110.063 2 110.615 2L 110.615 0ZM 111.607 2C 112.159 2 112.607 1.55228 112.607 1C 112.607 0.447715 112.159 0 111.607 0L 111.607 2ZM 117.56 0C 117.007 0 116.56 0.447715 116.56 1C 116.56 1.55228 117.007 2 117.56 2L 117.56 0ZM 118.552 2C 119.104 2 119.552 1.55228 119.552 1C 119.552 0.447715 119.104 0 118.552 0L 118.552 2ZM 124.504 0C 123.952 0 123.504 0.447715 123.504 1C 123.504 1.55228 123.952 2 124.504 2L 124.504 0ZM 125.496 2C 126.048 2 126.496 1.55228 126.496 1C 126.496 0.447715 126.048 0 125.496 0L 125.496 2ZM 131.448 0C 130.896 0 130.448 0.447715 130.448 1C 130.448 1.55228 130.896 2 131.448 2L 131.448 0ZM 132.44 2C 132.993 2 133.44 1.55228 133.44 1C 133.44 0.447715 132.993 0 132.44 0L 132.44 2ZM 138.393 0C 137.841 0 137.393 0.447715 137.393 1C 137.393 1.55228 137.841 2 138.393 2L 138.393 0ZM 139.385 2C 139.937 2 140.385 1.55228 140.385 1C 140.385 0.447715 139.937 0 139.385 0L 139.385 2ZM 145.337 0C 144.785 0 144.337 0.447715 144.337 1C 144.337 1.55228 144.785 2 145.337 2L 145.337 0ZM 146.329 2C 146.882 2 147.329 1.55228 147.329 1C 147.329 0.447715 146.882 0 146.329 0L 146.329 2ZM 152.282 0C 151.729 0 151.282 0.447715 151.282 1C 151.282 1.55228 151.729 2 152.282 2L 152.282 0ZM 153.274 2C 153.826 2 154.274 1.55228 154.274 1C 154.274 0.447715 153.826 0 153.274 0L 153.274 2ZM 159.226 0C 158.674 0 158.226 0.447715 158.226 1C 158.226 1.55228 158.674 2 159.226 2L 159.226 0ZM 160.218 2C 160.771 2 161.218 1.55228 161.218 1C 161.218 0.447715 160.771 0 160.218 0L 160.218 2ZM 166.171 0C 165.618 0 165.171 0.447715 165.171 1C 165.171 1.55228 165.618 2 166.171 2L 166.171 0ZM 167.163 2C 167.715 2 168.163 1.55228 168.163 1C 168.163 0.447715 167.715 0 167.163 0L 167.163 2ZM 173.115 0C 172.563 0 172.115 0.447715 172.115 1C 172.115 1.55228 172.563 2 173.115 2L 173.115 0ZM 174.107 2C 174.659 2 175.107 1.55228 175.107 1C 175.107 0.447715 174.659 0 174.107 0L 174.107 2ZM 180.059 0C 179.507 0 179.059 0.447715 179.059 1C 179.059 1.55228 179.507 2 180.059 2L 180.059 0ZM 181.052 2C 181.604 2 182.052 1.55228 182.052 1C 182.052 0.447715 181.604 0 181.052 0L 181.052 2ZM 187.004 0C 186.452 0 186.004 0.447715 186.004 1C 186.004 1.55228 186.452 2 187.004 2L 187.004 0ZM 187.996 2C 188.548 2 188.996 1.55228 188.996 1C 188.996 0.447715 188.548 0 187.996 0L 187.996 2ZM 193.948 0C 193.396 0 192.948 0.447715 192.948 1C 192.948 1.55228 193.396 2 193.948 2L 193.948 0ZM 194.94 2C 195.493 2 195.94 1.55228 195.94 1C 195.94 0.447715 195.493 0 194.94 0L 194.94 2ZM 200.893 0C 200.341 0 199.893 0.447715 199.893 1C 199.893 1.55228 200.341 2 200.893 2L 200.893 0ZM 201.885 2C 202.437 2 202.885 1.55228 202.885 1C 202.885 0.447715 202.437 0 201.885 0L 201.885 2ZM 207.837 0C 207.285 0 206.837 0.447715 206.837 1C 206.837 1.55228 207.285 2 207.837 2L 207.837 0ZM 208.829 2C 209.382 2 209.829 1.55228 209.829 1C 209.829 0.447715 209.382 0 208.829 0L 208.829 2ZM 214.782 0C 214.229 0 213.782 0.447715 213.782 1C 213.782 1.55228 214.229 2 214.782 2L 214.782 0ZM 215.774 2C 216.326 2 216.774 1.55228 216.774 1C 216.774 0.447715 216.326 0 215.774 0L 215.774 2ZM 221.726 0C 221.174 0 220.726 0.447715 220.726 1C 220.726 1.55228 221.174 2 221.726 2L 221.726 0ZM 222.718 2C 223.27 2 223.718 1.55228 223.718 1C 223.718 0.447715 223.27 0 222.718 0L 222.718 2ZM 228.671 0C 228.118 0 227.671 0.447715 227.671 1C 227.671 1.55228 228.118 2 228.671 2L 228.671 0ZM 229.663 2C 230.215 2 230.663 1.55228 230.663 1C 230.663 0.447715 230.215 0 229.663 0L 229.663 2ZM 235.615 0C 235.063 0 234.615 0.447715 234.615 1C 234.615 1.55228 235.063 2 235.615 2L 235.615 0ZM 236.607 2C 237.159 2 237.607 1.55228 237.607 1C 237.607 0.447715 237.159 0 236.607 0L 236.607 2ZM 242.559 0C 242.007 0 241.559 0.447715 241.559 1C 241.559 1.55228 242.007 2 242.559 2L 242.559 0ZM 243.552 2C 244.104 2 244.552 1.55228 244.552 1C 244.552 0.447715 244.104 0 243.552 0L 243.552 2ZM 249.504 0C 248.952 0 248.504 0.447715 248.504 1C 248.504 1.55228 248.952 2 249.504 2L 249.504 0ZM 0 2L 0.496032 2L 0.496032 0L 0 0L 0 2ZM 6.44841 2L 7.44048 2L 7.44048 0L 6.44841 0L 6.44841 2ZM 13.3929 2L 14.3849 2L 14.3849 0L 13.3929 0L 13.3929 2ZM 20.3373 2L 21.3294 2L 21.3294 0L 20.3373 0L 20.3373 2ZM 27.2817 2L 28.2738 2L 28.2738 0L 27.2817 0L 27.2817 2ZM 34.2262 2L 35.2183 2L 35.2183 0L 34.2262 0L 34.2262 2ZM 41.1706 2L 42.1627 2L 42.1627 0L 41.1706 0L 41.1706 2ZM 48.1151 2L 49.1071 2L 49.1071 0L 48.1151 0L 48.1151 2ZM 55.0595 2L 56.0516 2L 56.0516 0L 55.0595 0L 55.0595 2ZM 62.004 2L 62.996 2L 62.996 0L 62.004 0L 62.004 2ZM 68.9484 2L 69.9405 2L 69.9405 0L 68.9484 0L 68.9484 2ZM 75.8929 2L 76.8849 2L 76.8849 0L 75.8929 0L 75.8929 2ZM 82.8373 2L 83.8294 2L 83.8294 0L 82.8373 0L 82.8373 2ZM 89.7817 2L 90.7738 2L 90.7738 0L 89.7817 0L 89.7817 2ZM 96.7262 2L 97.7182 2L 97.7182 0L 96.7262 0L 96.7262 2ZM 103.671 2L 104.663 2L 104.663 0L 103.671 0L 103.671 2ZM 110.615 2L 111.607 2L 111.607 0L 110.615 0L 110.615 2ZM 117.56 2L 118.552 2L 118.552 0L 117.56 0L 117.56 2ZM 124.504 2L 125.496 2L 125.496 0L 124.504 0L 124.504 2ZM 131.448 2L 132.44 2L 132.44 0L 131.448 0L 131.448 2ZM 138.393 2L 139.385 2L 139.385 0L 138.393 0L 138.393 2ZM 145.337 2L 146.329 2L 146.329 0L 145.337 0L 145.337 2ZM 152.282 2L 153.274 2L 153.274 0L 152.282 0L 152.282 2ZM 159.226 2L 160.218 2L 160.218 0L 159.226 0L 159.226 2ZM 166.171 2L 167.163 2L 167.163 0L 166.171 0L 166.171 2ZM 173.115 2L 174.107 2L 174.107 0L 173.115 0L 173.115 2ZM 180.059 2L 181.052 2L 181.052 0L 180.059 0L 180.059 2ZM 187.004 2L 187.996 2L 187.996 0L 187.004 0L 187.004 2ZM 193.948 2L 194.94 2L 194.94 0L 193.948 0L 193.948 2ZM 200.893 2L 201.885 2L 201.885 0L 200.893 0L 200.893 2ZM 207.837 2L 208.829 2L 208.829 0L 207.837 0L 207.837 2ZM 214.782 2L 215.774 2L 215.774 0L 214.782 0L 214.782 2ZM 221.726 2L 222.718 2L 222.718 0L 221.726 0L 221.726 2ZM 228.671 2L 229.663 2L 229.663 0L 228.671 0L 228.671 2ZM 235.615 2L 236.607 2L 236.607 0L 235.615 0L 235.615 2ZM 242.559 2L 243.552 2L 243.552 0L 242.559 0L 242.559 2ZM 249.504 2L 250 2L 250 1.11022e-16L 249.504 1.11022e-16L 249.504 2Z"/>
</defs>
</svg>
