<svg xmlns="http://www.w3.org/2000/svg" width="731" height="206" viewBox="0 0 731 206">
    <g fill="none" fill-rule="evenodd" stroke="#252AA6" stroke-linecap="round" stroke-linejoin="round" stroke-width="5">
        <path d="M77.853 129.931l-12.949 13.756a1 1 0 0 1-1.715-.524l-3.043-18.645-17.084-8.064a1 1 0 0 1-.031-1.793l16.792-8.656 2.39-18.74a1 1 0 0 1 1.696-.584l13.42 13.296 18.562-3.518a1 1 0 0 1 1.08 1.433l-8.498 16.872 9.081 16.566a1 1 0 0 1-1.028 1.47l-18.673-2.869zM9.175 91.316l-5.772 10.735a1 1 0 0 1-1.793-.063l-5.009-11.11-11.993-2.173a1 1 0 0 1-.494-1.724l9.02-8.198-1.64-12.078a1 1 0 0 1 1.486-1.003l10.584 6.045 10.98-5.292a1 1 0 0 1 1.413 1.105l-2.479 11.933 8.426 8.807a1 1 0 0 1-.613 1.686l-12.116 1.33zM157.213 189.768l-20.298 13.048a1 1 0 0 1-1.538-.924l1.991-24.048-18.682-15.273a1 1 0 0 1 .404-1.748l23.486-5.538 8.753-22.487a1 1 0 0 1 1.787-.156l12.524 20.626 24.091 1.375a1 1 0 0 1 .701 1.651l-15.746 18.285 6.137 23.337a1 1 0 0 1-1.354 1.177l-22.256-9.325zM146.404 46.555l-14.4-2.093a1 1 0 0 1-.554-1.706L141.87 32.6l-2.46-14.342a1 1 0 0 1 1.45-1.054l12.88 6.771 12.88-6.771a1 1 0 0 1 1.451 1.054l-2.46 14.342 10.42 10.156a1 1 0 0 1-.554 1.706l-14.4 2.093-6.44 13.048a1 1 0 0 1-1.793 0l-6.44-13.048zM51.167 33.389l-11.744-1.706a1 1 0 0 1-.554-1.706l8.498-8.283L45.36 9.998a1 1 0 0 1 1.45-1.054l10.504 5.522 10.503-5.522a1 1 0 0 1 1.451 1.054l-2.006 11.696 8.498 8.283a1 1 0 0 1-.554 1.706l-11.744 1.706-5.251 10.641a1 1 0 0 1-1.794 0L51.167 33.39z"/>
        <g>
            <path d="M551.98 41.625l-16.654 2.261a1 1 0 0 1-1.003-1.487l8.336-14.594-7.297-15.141a1 1 0 0 1 1.104-1.413l16.456 3.417L565.067 3.05a1 1 0 0 1 1.685.613l1.835 16.707 14.803 7.96a1 1 0 0 1-.063 1.792l-15.322 6.908-2.996 16.538a1 1 0 0 1-1.724.494l-11.304-12.437zM629.11 84.811l-11.46 5.28a1 1 0 0 1-1.395-1.13l2.781-12.306-8.561-9.268a1 1 0 0 1 .642-1.675l12.564-1.158 6.169-11.007a1 1 0 0 1 1.79.094l4.985 11.591 12.374 2.466a1 1 0 0 1 .464 1.732l-9.483 8.322 1.479 12.53a1 1 0 0 1-1.504.977l-10.846-6.448zM700.99 30.26l-9.277.119a1 1 0 0 1-.815-1.598l5.55-7.435-2.98-8.786a1 1 0 0 1 1.268-1.269l8.786 2.98 7.435-5.549a1 1 0 0 1 1.598.814l-.118 9.277 7.575 5.357a1 1 0 0 1-.281 1.771l-8.86 2.754-2.753 8.86a1 1 0 0 1-1.772.28l-5.357-7.575zM693.103 145.387l-19.264 6.91a1 1 0 0 1-1.29-1.246l6.233-19.494-12.525-16.186a1 1 0 0 1 .786-1.611l20.466-.096 11.523-16.913a1 1 0 0 1 1.776.25l6.416 19.434 19.646 5.733a1 1 0 0 1 .311 1.766l-16.5 12.107.618 20.456a1 1 0 0 1-1.583.842l-16.613-11.952zM585.058 181.309l-14.813 20.19a1 1 0 0 1-1.766-.312l-7.015-24.038-23.778-7.85a1 1 0 0 1-.25-1.775l20.694-14.1.117-25.04a1 1 0 0 1 1.612-.786l19.804 15.324 23.85-7.627a1 1 0 0 1 1.247 1.29l-8.455 23.57 14.624 20.327a1 1 0 0 1-.842 1.584l-25.03-.757z"/>
        </g>
    </g>
</svg>
