<svg xmlns="http://www.w3.org/2000/svg" width="335" height="240" viewBox="0 0 335 240">
    <g fill="#1FB38C" fill-rule="nonzero">
        <path d="M2.76 77.26h289.55a2.76 2.76 0 0 0 2.76-2.76V2.76A2.76 2.76 0 0 0 292.31 0H2.76A2.76 2.76 0 0 0 0 2.76V74.5a2.76 2.76 0 0 0 2.76 2.76zm286.79-5.52H83V5.52h206.55v66.22zM5.52 5.52h72v66.22h-72V5.52zM2.76 178.23h289.55a2.77 2.77 0 0 0 2.76-2.76v-71.74a2.76 2.76 0 0 0-2.76-2.76H2.76A2.76 2.76 0 0 0 0 103.73v71.74a2.77 2.77 0 0 0 2.76 2.76zm286.79-5.52H83v-66.23h206.55v66.23zm-284-66.23h72v66.23h-72v-66.23z"/>
        <path d="M41.93 19.86a10.29 10.29 0 0 0-9.5 6.3A1.394 1.394 0 0 0 35 27.24a7.55 7.55 0 1 1 7 10.49 1.38 1.38 0 0 0-1.38 1.38V46a1.38 1.38 0 1 0 2.76 0v-5.6A10.32 10.32 0 0 0 42 19.86h-.07zM42.36 52.89h-.9a1.38 1.38 0 1 0 0 2.76h.9a1.38 1.38 0 1 0 0-2.76zM41.93 222.24a10.28 10.28 0 0 0-9.5 6.3 1.37 1.37 0 0 0 .73 1.8 1.38 1.38 0 0 0 1.81-.73 7.55 7.55 0 1 1 7 10.49 1.38 1.38 0 0 0-1.38 1.38v6.91a1.38 1.38 0 1 0 2.76 0v-5.62a10.31 10.31 0 0 0-1.38-20.53h-.04zM41.93 120.12a10.28 10.28 0 0 0-9.5 6.3 1.37 1.37 0 0 0 .73 1.8 1.38 1.38 0 0 0 1.81-.73 7.55 7.55 0 1 1 7 10.49 1.38 1.38 0 0 0-1.38 1.38v6.91a1.38 1.38 0 1 0 2.76 0v-5.62a10.31 10.31 0 0 0-1.38-20.53h-.04zM42.36 153.14h-.9a1.38 1.38 0 1 0 0 2.76h.9a1.38 1.38 0 1 0 0-2.76zM124.42 25.41H265a1.38 1.38 0 1 0 0-2.76H124.42a1.38 1.38 0 1 0 0 2.76zM123.66 37.58h77.65a1.38 1.38 0 0 0 0-2.75h-77.65a1.38 1.38 0 1 0 0 2.75zM235.7 47.76H124.26a1.38 1.38 0 1 0 0 2.76H235.7a1.38 1.38 0 1 0 0-2.76zM264.21 34.83h-42.94a1.38 1.38 0 1 0 0 2.75h42.94a1.38 1.38 0 1 0 0-2.75zM199 126.39h65.35a1.38 1.38 0 1 0 0-2.76H199a1.38 1.38 0 1 0 0 2.76zM124.42 126.39h52.29a1.38 1.38 0 1 0 0-2.76h-52.29a1.38 1.38 0 1 0 0 2.76zM123.66 138.56h102.07a1.38 1.38 0 1 0 0-2.75H123.66a1.38 1.38 0 1 0 0 2.75zM153.69 148.74h-29.43a1.38 1.38 0 1 0 0 2.76h29.43a1.38 1.38 0 1 0 0-2.76zM264.21 135.81H245a1.38 1.38 0 1 0 0 2.75h19.17a1.38 1.38 0 1 0 0-2.75h.04zM237.35 225.68H165a1.38 1.38 0 1 0 0 2.76h72.33a1.38 1.38 0 1 0 0-2.76h.02zM124.42 228.44h21.3a1.38 1.38 0 1 0 0-2.76h-21.3a1.38 1.38 0 1 0 0 2.76zM201.31 240.61a1.38 1.38 0 1 0 0-2.76h-77.65a1.38 1.38 0 1 0 0 2.76h77.65z"/>
        <path d="M336.35 241.29l-26.16-26.16 13.09-7.5a2.76 2.76 0 0 0-.46-5l-56.7-19.84a2.73 2.73 0 0 0-2.86.65l-.66.65a2.77 2.77 0 0 0-.6 2.91l5.24 15H2.76A2.77 2.77 0 0 0 0 204.69v71.75a2.77 2.77 0 0 0 2.76 2.76h289.55a2.77 2.77 0 0 0 2.76-2.76v-44.63l25.38 25.38a2.75 2.75 0 0 0 3.9 0l12-12a2.75 2.75 0 0 0 0-3.9zM5.52 207.45h72v66.23h-72v-66.23zM83 273.68v-66.23h186.1l12.67 36.21a2.76 2.76 0 0 0 5 .46l2.76-4.82v34.38H83zm239.4-22.34l-26.76-26.76a2.77 2.77 0 0 0-1.95-.81h-.37a2.78 2.78 0 0 0-2 1.37l-6.28 11-16.32-46.6 46.61 16.31-11 6.29a2.75 2.75 0 0 0-.58 4.35l26.76 26.76-8.11 8.09z"/>
    </g>
</svg>
