<svg xmlns="http://www.w3.org/2000/svg" viewBox="0 0 308.61 398.46"><title>Бабурин</title><g id="Layer_2" data-name="Layer 2"><g id="Layer_1-2" data-name="Layer 1"><path d="M122.61,203.1a9.19,9.19,0,0,0,5,1.3,14.6,14.6,0,0,0,2-.15,5.06,5.06,0,0,0,.56.05,5,5,0,0,0,3.53-1.46l.78-.78a5,5,0,0,0,1.28-2.27,12,12,0,0,0,15.17.14,4.93,4.93,0,0,0,7.05,2.73l.52.16.15,0a15.8,15.8,0,0,0,3.61.45,9.18,9.18,0,0,0,6.24-2.15c2.13,4.46,6.53,10.58,15.51,15.44l2.38-4.4a36.28,36.28,0,0,1-7.12-5l-5.3-6.4a18.27,18.27,0,0,1-2.45-6.23,12.31,12.31,0,0,0-1.36-6.28,2.47,2.47,0,0,0-.19-.31l-6.71-9.08-4,3,6.59,8.92c.89,1.79,1.06,4.52-.18,6.13-1,1.27-2.69,1.48-4.3,1.31a5,5,0,0,0-6-5.64A12,12,0,0,0,152,181.91L149.83,184a9.09,9.09,0,1,1-11.51-1.11l-1.68-2.49a12,12,0,0,0-4.9,13.17,5,5,0,0,0-4.36,1.38l-.78.78a5,5,0,0,0-1.42,3.06,2.32,2.32,0,0,1-.54-.49c-1-1.21-.89-3.63.15-5.64l2.65-5.14L123,185.26l-2.65,5.14a12.33,12.33,0,0,0-1.33,6.52c0,.8-.61,9.88-12.2,15a2.5,2.5,0,0,0-1.32,1.41l-4.32,11.55,4.68,1.75,4-10.59C117.45,212.39,121,207.17,122.61,203.1Zm64.56,62.31a2.5,2.5,0,0,0-3.5.51c-.1.14-10.4,13.54-37.62,12.59-25.81-.87-30-9.68-30.17-10a2.5,2.5,0,0,0-4.7,1.7c.44,1.25,5.11,12.26,34.7,13.26q1.46,0,2.86,0c27.68,0,38.48-14,38.94-14.65A2.5,2.5,0,0,0,187.17,265.41ZM158.46,129.69l1.45,3a51.53,51.53,0,0,0-11,31.86v9.92h3v-9.92a48.52,48.52,0,0,1,9.51-28.83l1.44,3,14.28-6.94,26.19,0,0-10-28.5,0Zm-51,2.25,18.9,6.94,1.1-3a48.52,48.52,0,0,1,9.39,28.66h3a51.53,51.53,0,0,0-11.16-32l1.11-3-20.56-7.55H92.72l-6.83,3.48,4.54,8.91,4.69-2.39Zm-2.37,12.19,9,.67,11.53,5.49,1.29-2.71L115.16,142l-.53-.14-9.38-.7h-.18a15.86,15.86,0,0,0-13.15,8.12L91,150.83l2.62,1.47.89-1.58A12.87,12.87,0,0,1,105.12,144.14Zm-2.75,13.55h12.51l.51-.09,8.21-3-1-2.82-8,2.89h-.38a4.94,4.94,0,0,0,.26-5.94l.93.08.25-3-8.54-.7h-.2a14.49,14.49,0,0,0-12.12,8.17L94,154.88l2.67,1.37.54-1.06,4.44,2.33Zm4.34-9.51a4.92,4.92,0,0,0-.21,6.51h-3.76l-3.93-2.06A11.22,11.22,0,0,1,106.71,148.17Zm92,1.23-.07-.15a15.86,15.86,0,0,0-13.15-8.12l-9.56.7-.53.14-11.78,5.61,1.29,2.71,11.53-5.49,9-.67a12.86,12.86,0,0,1,8.72,4.05,15.88,15.88,0,0,0-8.67-3.05l-9.56.7-.53.14-11.78,5.61,1.29,2.71,2.61-1.24-.51,1.57,9.22,3,.46.07h14.06l.75-.2,4.58-2.64,1.65,3.89,2.76-1.17-1.43-3.39,1.43-.61ZM177,154.69l-7.64-2.47,7.15-3.41,1.83-.14a4.92,4.92,0,0,0,.2,6Zm13.42,0h-4.13a4.92,4.92,0,0,0-.19-6.49,12.82,12.82,0,0,1,8.31,4.18ZM128,160.22l-2.69-1.34c-2.7,5.43-9,8.94-16,8.94A19.48,19.48,0,0,1,99.06,165l-1.57,2.55a22.48,22.48,0,0,0,11.81,3.25C117.43,170.82,124.76,166.66,128,160.22Zm64.25,7.8-1.48-2.61a19,19,0,0,1-9.37,2.38c-6.64,0-12.59-3.21-15.14-8.19L163.57,161c3.06,6,10.05,9.81,17.81,9.81A22,22,0,0,0,192.22,168Zm.5,51.87-3.83-3.22L186.08,220,153.6,203.43a2.5,2.5,0,0,0-2.18,0l-7.67,3.51-7.18-2.59a2.5,2.5,0,0,0-2.26.29l-22.1,15.14a2.5,2.5,0,0,0-1,1.25l-5.17,15.13a2.5,2.5,0,0,0,3,3.22l2-.55-4,8.07a1.5,1.5,0,0,0,2.69,1.34L115,237.71l7.92-2.18c2.37,2.17,7,5.92,10.66,5.92,2,0,6.92,0,12.26.07,6.33,0,13.24.09,16.56.09,4.93,0,10.4-4,13-6.11l7.84,1.2L187,248.36a2.5,2.5,0,1,0,4.76-1.54l-4.07-12.58,1.37-10Zm-30.31,18.73c-3.31,0-10.22,0-16.54-.09-5.35,0-10.28-.07-12.28-.07s-4.77-1.89-7.19-3.88l9.21-2.54h17.19l18.51,2.83C168.8,236.66,165.38,238.61,162.41,238.61ZM104.64,57.32l2.21-1.8L105,50.68a24.74,24.74,0,0,0,7,4.1L113,52a22.38,22.38,0,0,1-11.67-10.5L99.16,35.8l-2.87.84A25.07,25.07,0,0,0,98.76,43l3.35,8.59c-4.82-4.46-5.25-8.26-5.26-8.31l-1.49.13-1.5.11C93.88,43.82,94.52,50.77,104.64,57.32Zm6.3-13a20.54,20.54,0,0,1-6.08-15.94l-1.49-.19-1.49-.2a23.19,23.19,0,0,0,7,18.47ZM307.5,289C280.85,276,249,260.76,237.91,255.46a70.24,70.24,0,0,0,8.69-33.74l-.16-3,1.84-1.4a11.56,11.56,0,0,0,4.65-7.58,10.5,10.5,0,0,0-2.17-7.8l-2.88-3.77,12.23-23a2.49,2.49,0,0,0,.28-.89l1.59-14a14.89,14.89,0,0,0-8.09-14.78l6.42-46.46a47.79,47.79,0,0,0-5.13-29l-7.53-14.29c-13.79-26.17-39-44.68-69.08-50.76L164.5,2.06a106.18,106.18,0,0,0-62.6,6.5A25,25,0,0,0,88.66,22L79.77,43.44l-6.61,2.91A43.28,43.28,0,0,0,51.26,67.48l-2.53,5.39a15.86,15.86,0,0,0-.07,13.33l6,13.2,1,39.06,2.35,7.79A14,14,0,0,0,48.79,151a12.21,12.21,0,0,0-2,12L64.3,210l1.91,29.6.08.61a81.64,81.64,0,0,0,8,22.68L1,300.62l-1,3.54a179.52,179.52,0,0,0,52.95,54.62l3.72-1.18,3.92-10.18,1.63,9.17,51.35-18.15,13,16.94-6.19,39.19,47.44,3.9L146.49,355l15.66-13.6,40.31,17.51,10.38-11.25-10.8,29,3.1,3.25a179,179,0,0,0,103.47-87.42ZM229.9,141.38l-.32-6.53c0-14.28-3.77-20.41-5.65-22.58v-5.91a31.35,31.35,0,0,0,16.4,12.93l.94-2.85c-9.48-3.12-14.57-10.75-16.86-15.33a38.23,38.23,0,0,0,24,10.55l-4.56,33L238.27,155A36.23,36.23,0,0,0,229.9,141.38Zm.64,13.23-.41-8.35a33.65,33.65,0,0,1,6.06,12.53l-1.39,2.54A30.34,30.34,0,0,0,230.55,154.61Zm3.7,23.47-2.7-3-.72-14.84a34.44,34.44,0,0,1,2.79,6.12Zm-10.17-84.8a46.28,46.28,0,0,0,23.38,5.87c.89,0,1.82,0,2.75-.07l-1.05,7.6A33.79,33.79,0,0,1,224.08,93.28Zm19.54,72.82,3.88-7.12a7.64,7.64,0,0,1,1.34,6.27l-2.25,9.92a7.6,7.6,0,0,1-1.26,2.79l-1,1.38ZM248,209a6.21,6.21,0,0,1-1.87,3.52l-.49-9.15,1.18,1.54A5.47,5.47,0,0,1,248,209Zm9-49.41-1.54,13.54L245,192.8l-.3-5.52,4.62-6.39a12.6,12.6,0,0,0,2.08-4.61l2.25-9.92a12.66,12.66,0,0,0-3.69-12l2.24-4.11A9.83,9.83,0,0,1,257,159.61ZM250.72,94c-17.68,1-27.72-6.65-32.1-11.29q-.39-.59-.81-1.17A65.08,65.08,0,0,0,246.45,88c1.32,0,2.67,0,4-.11A37.59,37.59,0,0,1,250.72,94ZM97.89,25.83a15.06,15.06,0,0,1,8-8.09,96.07,96.07,0,0,1,56.65-5.87l14.07,2.84c27.15,5.49,49.83,22.12,62.22,45.62l7.53,14.29q.33.63.64,1.27c-24-1.2-38.71-14.79-54.19-29.13-10.82-10-22-20.39-36.55-25.81l-1,2.81c14,5.21,25,15.37,35.56,25.2,15.51,14.37,31.51,29.19,57.54,30a38.17,38.17,0,0,1,1.27,4C222,84.12,206.14,69.47,189.46,54c-3.38-3.13-6.78-6.28-10.3-9.3l0,0-.13-.1c-12.15-10.4-25.76-19.27-44.81-20.45H119.13a2.5,2.5,0,0,0,0,5H131l-.34.22C126.76,32,124.8,36.62,124.8,43c0,8.81,4.86,13.95,10.4,17a256.73,256.73,0,0,0-34,.7C96.78,58.37,91.33,54.5,88,49.79Zm38,14.45c0-4.87,2.33-7.78,7.11-8.88a13.8,13.8,0,0,1,2.73-.33,58,58,0,0,1,5.69,1.85l-.16.07c-2.56,1.31-3.85,4.25-3.85,8.73,0,9.83,4.27,15.61,13.51,20.68q-2.52-.37-5-.69C139.11,56.51,135.9,50.32,135.9,40.28Zm8,19.79a33.34,33.34,0,0,1-4.62-1.47C131.67,55.51,127.8,50.24,127.8,43c0-5.3,1.52-9,4.53-11.13a12.85,12.85,0,0,1,6.45-2c-3.81,2-5.87,5.64-5.87,10.49C132.9,49.56,135.88,55.54,143.93,60.07Zm6.49-18.36c0-3.26.75-5.3,2.22-6.06s4-.24,6.16.67a77.62,77.62,0,0,1,7.73,4.81c-1.67,1.35-3.11,4-2.24,9.2.94,5.63,5.36,10.6,11,14.55l-3-.55C157,58.24,150.42,53.06,150.42,41.71Zm18.8,7.8c-.26-1.57-.49-4.27.9-4.73a1.91,1.91,0,0,1,1.76.43L176,48.56l0,0c3.39,2.92,6.71,6,10.08,9.12,4.27,4,8.58,7.95,13.12,11.67-.72-.16-1.45-.31-2.2-.43C186.31,66.65,170.74,58.63,169.22,49.51Zm-105,131.72-8.12-21.75a2.12,2.12,0,0,1,.39-2.14,4.25,4.25,0,0,1,3.05-1.18,2.44,2.44,0,0,1,1.73.73l1.63,5.4.63,2.08h0l.7,2.33ZM63.06,93.67l-5.3-11.62a5.87,5.87,0,0,1,0-4.94l2.53-5.39A33.28,33.28,0,0,1,77.18,55.5l6.64-2.92a36.45,36.45,0,0,0,6.91,7.19,47.26,47.26,0,0,0-18.67,4.09l2.07,4.55a42.44,42.44,0,0,1,17.13-3.62C85.13,69.08,81,75.87,79.65,84.21,75.81,84.78,68.27,86.77,63.06,93.67Zm1.56,3.43-.12-.26a21.53,21.53,0,0,1,14.77-9.56c-.1,1.12-.16,2.25-.17,3.41l-.19,2.15a26.57,26.57,0,0,0-14.25,5.74Zm.14,5.32a24.26,24.26,0,0,1,13.88-6.55l-.5,5.64a27.23,27.23,0,0,0-13.29,4.1Zm.18,6.76a24.78,24.78,0,0,1,12.93-4.64L77,114.61a21,21,0,0,0-11.75,5.31Zm.4,15.12a16.84,16.84,0,0,1,11.36-6.67l-.37,4.15a25.07,25.07,0,0,0-10.89,6.35Zm.33,12.29-.11-4.11a22.59,22.59,0,0,1,10.21-7.39L75.41,127A26.83,26.83,0,0,0,65.67,136.59Zm4.77,16.07-.1-.33h0L69,147.81a25.17,25.17,0,0,1,3.67-6.58Zm-2.8-9.27-.77-2.55a23.93,23.93,0,0,1,7.74-9.8l-.87,4.52A29.59,29.59,0,0,0,67.65,143.39ZM70,343.22l-2.46-13.86,7.89-20.48.15-1.22c-2.61-20.38.31-33,2.25-38.66a83.32,83.32,0,0,0,5,7l5.48,6.89a76,76,0,0,0,6,6.73l29.34,34.64Zm72-21.53h-.07l-.46-.2h-7l-11.7-13.81A83.17,83.17,0,0,0,151.91,313q2.17,0,4.31-.11Zm80,1.3L199.93,346.9l-46.82-20.34,36.75-22.72a79.21,79.21,0,0,0,22.47-17.17l15.61-17.21c.43-.47.84-1,1.25-1.45C231.15,285.51,228.77,303.63,222,323Zm-1.45-60.26-15.61,17.21a71.51,71.51,0,0,1-53,23,72.27,72.27,0,0,1-50.26-20.2L90.59,269.72a72.55,72.55,0,0,1-14.42-31.08l-1.94-29.89V165.22L73.55,163l7.66-39.68L84.09,91v-.22c0-12.93,6.38-22.31,17.08-25.16a251.78,251.78,0,0,1,68.67,3.31L196,73.84h0l.14,0a26.85,26.85,0,0,1,15.63,8.27,26.64,26.64,0,0,0,2.78,3.54,26.69,26.69,0,0,1,3.24,6.94l0,.12a27.21,27.21,0,0,1,1.13,7.74v12.82l.92,1.94s4.73,4.26,4.73,19.68l2,41.24.63,1.54,7.46,8.41,1.92,35.75A61.05,61.05,0,0,1,220.54,262.74Z" style="fill:#2724ad"/></g></g></svg>