<svg xmlns="http://www.w3.org/2000/svg" viewBox="0 0 323.22 343.35"><title>Жириновский</title><g id="Layer_2" data-name="Layer 2"><g id="Layer_1-2" data-name="Layer 1"><path d="M78.3,82.65,66.46,68.5l-2.3,1.93L76,84.58Zm56,134.47,6.25,1.51a19.42,19.42,0,0,0,2.43,5.06l2.11,1.11,14.8-.21,2.23-1.44,2.89-6.2,4.81-.72,2.13-2.47v-7.88l-.25-1.1-1.22-2.49a75,75,0,0,0-4.51-7.94c-2.43-3.83-3.65-5.75-4.24-13.67l-3.07-29.26a2.5,2.5,0,0,0-5,.52l3.06,29.19c.67,9.1,2.39,11.81,5,15.91a69.88,69.88,0,0,1,4.24,7.46l1,2v5.15l-4,.6L161,213.6l-2.8,6-11.8.17a8.87,8.87,0,0,1-1.21-3.18l-1.91-2.43-6.1-1.47,2.18-11.52a2.5,2.5,0,1,0-4.91-.93l-2.33,12.32c-3.64,1.34-11.61,6.31-19.37,24.66l4.61,1.95C125.1,220.83,132.63,217.61,134.26,217.12Zm15.09-85-13.53,1.77.39,3,13.53-1.77Zm26.27,34.35a1.5,1.5,0,0,0,0,3h23.33a1.5,1.5,0,0,0,0-3Zm29.14-15.57,4.2,2.8,2.78-4.16L194,137.75l-2.07-.33-29.51,8.34,1.36,4.81,28.4-8,2.4,1.6-25.54,6a1.5,1.5,0,0,0,.69,2.92l27.93-6.6a1.51,1.51,0,0,0,.3-.11l1.9,1.27-31.22,9.8a2.5,2.5,0,1,0,1.5,4.77l11.79-3.7a4.16,4.16,0,1,0,7.73-2.43l13.86-4.35A2.49,2.49,0,0,0,204.75,150.92ZM87.23,74.44l-15-12.59-1.93,2.3,15,12.59Zm-4,78.71a1.5,1.5,0,0,0,1.25-2.33l-12-18A1.5,1.5,0,0,0,70,134.46l12,18A1.5,1.5,0,0,0,83.27,153.14Zm52.21,17.63a1.5,1.5,0,0,0-3,0c0,12.46-5.92,21.23-15.84,23.48-6.89,1.56-14-.61-17.83-5.14,7.12,1,13.19-.17,18.1-3.39a24.67,24.67,0,0,0,10-14.66l-1.65-1.78-25.9,3.08a1.5,1.5,0,0,0,.35,3l23.64-2.81a21.46,21.46,0,0,1-8.12,10.71c-5,3.25-11.44,4-19.23,2.34l-1.67,2.11c3,6.28,10,10.09,17.71,10.09a23.88,23.88,0,0,0,5.28-.59C121.56,196.21,135.48,191.45,135.48,170.77Zm54.34,64.37-20,2.27-1.19.46L160.18,244l0,0L155,242.61l-.53-.05-20.89,1.7A6.18,6.18,0,0,0,123,246.41l-4.19,13.13a2.5,2.5,0,0,0,4.4,2.24l10.52-14.38.09-.14,20.63-1.68,4.86,1.36a2.49,2.49,0,0,0,3.79,1.11L171,242.3l16.63-1.89.11,4.59a2.46,2.46,0,0,0,2.56,2.44,2.5,2.5,0,0,0,2.44-2.56l-.17-7.32ZM107.08,164a4.58,4.58,0,1,0,7.92-3.11,24.74,24.74,0,0,1,6.14-.87,1.5,1.5,0,0,0,0-3c-13.42,0-30.38,13-31.1,13.58A1.5,1.5,0,1,0,91.88,173a90.6,90.6,0,0,1,15.22-9.18C107.09,163.92,107.08,164,107.08,164Zm26.32-21.5,16.34-2.17-.39-3L133,139.57Zm19-59.18,2.37-4.29L139.63,66.29c9.5,4.85,20.31,9.7,29.18,11.86l2-4.46-17.24-12.3c8.44,4.1,16.46,7.53,21.49,8.56a2.5,2.5,0,1,0,1-4.9c-13.83-2.84-54.37-26.45-54.78-26.69l-2.71,4.19,34.6,24.69A317.13,317.13,0,0,1,119,48.92l-2.94,4,24.24,20.49c-21.92-9.88-32.46-22.6-32.58-22.75a2.5,2.5,0,0,0-3.89,3.15C104.51,54.61,119.71,73.06,152.4,83.37ZM138.47,88.3a2.5,2.5,0,0,0,1.5-4.77c-31-9.76-41.62-23.92-41.75-24.09a2.5,2.5,0,0,0-4.05,2.93C94.63,63,105.71,78,138.47,88.3Zm-21.38,59,1.1.87-20.49,7a2.5,2.5,0,1,0,1.62,4.73l22.63-7.72a2.49,2.49,0,0,0,.83-.48c4.83,3.66,11.18,8.28,15.28,10.47l3.68-2.21V146.56h-5v9c-7.26-4.73-17.43-12.87-17.55-13l-2.3-.44-26.66,8.24-1.31,1-8.69,12.46,4.1,2.86,8.2-11.76Zm-28.59-83L80,57l-2,2.27,8.51,7.34ZM225.16,186.38a17.29,17.29,0,0,1-12.55,2.37l-3.35-1.67a2.5,2.5,0,1,0-2.23,4.47l3.61,1.8.44.17a19.4,19.4,0,0,0,4.83.55,21.88,21.88,0,0,0,12-3.5,2.5,2.5,0,0,0-2.72-4.2ZM215.43,213a2.51,2.51,0,0,0-3.06,1.77l-12,44.78a2.5,2.5,0,1,0,4.83,1.29l12-44.78A2.5,2.5,0,0,0,215.43,213ZM128.9,37.1c1.62.91,40,22.27,63.11,28.2a2.5,2.5,0,0,0,2-4.5L167.54,43.19l23.93,11.06L214,67.52c-.78,8.55-3.63,47.64,7.09,65.11a2.5,2.5,0,0,0,4.26-2.62c-10.94-17.81-6.27-63.12-6.22-63.57A2.5,2.5,0,0,0,217.92,64l-24-14.15-.22-.12L140.28,25.08a2.5,2.5,0,0,0-2.43,4.35l36.83,24.5c-20.62-8.57-43-21-43.33-21.2a2.5,2.5,0,1,0-2.44,4.37Zm75.89,138.36c-.07.09-7,9.24-18.7,9.24-11.07,0-12.16-10.59-12.2-11a1.5,1.5,0,0,0-3,.26c0,.14,1.35,13.78,15.19,13.78a26.35,26.35,0,0,0,15.5-5.14c-2.27,4-5.87,8.75-10.91,10.39-4.69,1.53-10,.15-15.68-4.1a1.5,1.5,0,1,0-1.79,2.41c4.75,3.53,9.32,5.31,13.63,5.31a15.29,15.29,0,0,0,4.77-.76c10.91-3.56,15.62-18.38,15.81-19ZM188,218a2.5,2.5,0,0,0,1.83-4.2l-6-6.41a2.5,2.5,0,1,0-3.66,3.41l6,6.41A2.49,2.49,0,0,0,188,218Zm134.76,14.54a5,5,0,0,0-3.26-2.73l-76.74-20.33c.11-.56.19-1,.24-1.38l.05-.36,0-6.71,2.9-2.77a2.5,2.5,0,0,0,.77-1.75l.33-14.32,4.37-46.5a22.11,22.11,0,0,0-2.46-12.41l-3.17-6a2.5,2.5,0,0,0-2.71-1.28l-.26.08-.07-23.59-3.39-29.92a60.16,60.16,0,0,0-24.47-41.82A109.19,109.19,0,0,0,120.72,4.26L94.3,11.86A68.15,68.15,0,0,0,52.78,46C43.56,63.85,38.89,77.28,38.89,85.91v.46L47.3,132l-.25-.09a21.43,21.43,0,0,0-6.83,14.78l-.47,10.17a21.64,21.64,0,0,0,.1,3.24l3.65,34.61L48.05,215l1,1.52L54,219.89l.08.23L3.52,235.75a5,5,0,0,0-3,7.1,180.51,180.51,0,0,0,92,83.51,5,5,0,0,0,6.88-4.63V302.19l2.75,4.49,39.08,23.56L136,343.35h46.68l-7.29-16.94,42-26.44-5,23.92a5,5,0,0,0,6.53,5.74,181.27,181.27,0,0,0,103.77-92.88A5,5,0,0,0,322.76,232.49ZM245.32,127.32a17.11,17.11,0,0,1,1.1,7.85L243,172.08l0-15.85ZM48.46,194.06l-3.63-34.47a16.71,16.71,0,0,1-.08-2.49l.47-10.17A16.5,16.5,0,0,1,47,140.15l1.34,11.31c.39,15.21,1,36.78,1.38,48.24ZM132.38,313.2l-22.93-13.82-7.85-12.82,20,10.48,28.65-2.27Zm87.41-26.56L180,311.7l-15.54-18.06,27-2.13,30.95-19.2Zm-.88-24-30.71,19-51.45,4.07c-1.54-1.93-2.71-4.83-2.71-9.21,0-12.41,8.56-14.31,9.24-14.44l39.7-4.68a2.5,2.5,0,0,0-.59-5l-39.77,4.69h-.1C137.85,258,129,263,129,276.6a20.87,20.87,0,0,0,2.07,9.65l-7.4.59L91.42,270l-1.9-3.1L66.4,225.09l-6.46-18.68c-.07-2.19-.27-8.89-.52-17.36a28,28,0,0,0,18.44,15l-1.43.08c1.27,22.37,13.62,48.15,14.15,49.23L95.31,252c-.15-1.14-3.69-27.27-11.45-47.08l.68,0a27.73,27.73,0,0,0,15-4.41,2.5,2.5,0,0,0-2.71-4.21,22.83,22.83,0,0,1-32.94-9.41,2.49,2.49,0,0,0-4.57.14C58.78,167.69,58,140.69,58,135.4v-.46l-3.22-17.46c-.22-4.78-.37-9.76-.36-14.41L63.9,127.9l2.86-.88c-.07-.31-6.61-28-6.49-45.25l3.67,8.05,2.73-1.24L60.52,75.09l-2.85.42c-1.23,8.88.57,23,2.54,34.3L54.53,94.92l-2.9.45c-.07,1.32-.12,2.71-.16,4.14l-2.59-14c.18-6.91,4.7-19.27,12.77-34.91a58.11,58.11,0,0,1,35.4-29.11l26.42-7.6A99.2,99.2,0,0,1,209,28.8a50.13,50.13,0,0,1,20.4,34.85l3.33,29.08.09,33.42A101.22,101.22,0,0,1,229,103.62l-5,.11a104.81,104.81,0,0,0,8.44,36.16l.41-.18.19,67.23C232,213.23,223,247.49,218.91,262.69Z" style="fill:#2724ad"/></g></g></svg>