<svg xmlns="http://www.w3.org/2000/svg" viewBox="0 0 296.9 389.43"><title>Грудинин</title><g id="Layer_2" data-name="Layer 2"><g id="Layer_1-2" data-name="Layer 1"><path d="M164.65,190.62a23.74,23.74,0,0,0-2.76-12.37l-1-2-4.47,2.23.08.16L152,180.88a8.56,8.56,0,0,0-2.64-3.84l-.82-25L150.34,139l1.23-1.05a16.28,16.28,0,0,1-3.82-9l-.88-8.62-5,.51.88,8.62a21.3,21.3,0,0,0,4.34,10.93l-1.58,11.41V152l.77,23.5a6.6,6.6,0,0,0-1.49-.17v3c2.42,0,4.62,2.46,4.62,5.17v6.05c0,4-3.07,9.09-6.53,9.09h-2c-3.45,0-6.53-5.08-6.53-9.09v-6.48a1.5,1.5,0,0,0-3,0v6.48a12.23,12.23,0,0,0,.33,2.69L128.64,194a2.83,2.83,0,0,1-2.72,0,3.25,3.25,0,0,1-1.7-2.57,18.94,18.94,0,0,1,2.35-11.32,1.5,1.5,0,0,0-2.6-1.49,22,22,0,0,0-2.75,12.89L108.3,201.76a2.53,2.53,0,0,0-.4.4c-6,7.54-11.1,20.16-12.39,30.69l5,.61c1.15-9.45,5.83-21.14,11.17-28L123.58,196a6,6,0,0,0,1,.63,5.72,5.72,0,0,0,5.27.06l-5.25,12.23-16,19.42a2.48,2.48,0,0,0,1.1,3.93l-6.14,11,4.37,2.43,5.76-10.33,2.58,2.62a16.63,16.63,0,0,0,12,5h0l35.5-2.17a1.5,1.5,0,0,0-.18-3l-35.41,2.17a13.61,13.61,0,0,1-9.74-4.13l-3.2-3.24.13-.23h20.57a2.49,2.49,0,0,0,1-.2L142,230.1l8.41,2.27a2.52,2.52,0,0,0,.65.09h22a2.5,2.5,0,0,0,1.91-4.11l-13.61-16.15-5.89-15a5.77,5.77,0,0,0,3.84-.55,6.1,6.1,0,0,0,2.29-2.09c6.13,6.16,18.72,20,19.64,26.79v7.58l-4.34,4.84,3.72,3.34,5-5.55.64-1.67V221.2l0-.29C185.07,211.51,168.93,194.88,164.65,190.62Zm-5.1.81a3.24,3.24,0,0,1-1.7,2.57,2.83,2.83,0,0,1-2.72,0l-2-1.13a2.46,2.46,0,0,0-.32-.18l-.66-.37a12.23,12.23,0,0,0,.32-2.73V184l5.41-2.65A19,19,0,0,1,159.55,191.43ZM142,262.66l-16.12-9L123.44,258l17.13,9.58a2.5,2.5,0,0,0,2.09.16l20-7.41-1.74-4.69Zm-5.23-136.74h-3v.89a12.66,12.66,0,0,1-3.67,9l-.38,1.5,3,10,1,18,3-.17-1-18.16-2.9-9.66a15.74,15.74,0,0,0,3.93-10.43Zm55.18,3.16-.14-.67,11.35,5.66,2.23-4.47-14.79-7.38,0,.08-.62-3-37.58,7.66,2,9.8ZM88.09,135.89l0,.34,36.08,3.67,1-9.95-36.08-3.67-.33,3.27-.2-.26L77,138l3,4Zm84.07,32.27c-10.29,0-13.78-9-13.92-9.42l-1.41.52-1.41.52c0,.11,4.32,11.38,16.74,11.38a23.23,23.23,0,0,0,18.57-9.06l-2.47-1.71A20.2,20.2,0,0,1,172.16,168.16Zm-5.7-23.08,4.86.1a6.3,6.3,0,0,0-2.64,5.18,6.23,6.23,0,0,0,3.6,5.73h-6.1l-5.37-4L159,154.54l5.77,4.25.89.29H179a11.92,11.92,0,0,0,10.33-6l13.35,2.29.51-3-6.73-1.15,4.84-1.37-1.36-4.81-7.74,2.19a15,15,0,0,0-12.23-6.93l-14-.28-1.21.29-12.5,6.57,2.33,4.43Zm11.55.23,1.82,0a10,10,0,0,1,8.28,4.92l-1,.54a8.91,8.91,0,0,1-8.13,5.27h-2.09a6.23,6.23,0,0,0,3.6-5.73A6.31,6.31,0,0,0,178,145.31Zm-67.93,23.94A20.2,20.2,0,0,1,94,161.48l-2.47,1.71a23.23,23.23,0,0,0,18.57,9.06c12.42,0,16.7-11.27,16.74-11.38l-2.82-1C124,159.92,120.44,169.25,110.09,169.25ZM90.61,153.72l.51-.23,6.65,4.35.82.25h18l.89-.29,5.77-4.25-1.78-2.41-5.37,4h-3.7a6.37,6.37,0,0,0,1.16-3.68,6.27,6.27,0,0,0-2.61-5.14l4.87-.1,11.93,6.27L130,148l-12.5-6.57-1.21-.29-14,.28a15,15,0,0,0-12.23,6.93l-7.74-2.19L81,151l2.49.71-4.41.82.55,2.95L90,153.53Zm11.8-7.28,1.83,0a6.27,6.27,0,0,0-2.44,5,6.37,6.37,0,0,0,1.16,3.68H99l-5.12-3.36A10,10,0,0,1,102.41,146.43ZM94.19,256.12a55.41,55.41,0,0,1-7.25-25.21l-1.18-29.54a2.5,2.5,0,1,0-5,.2l1.18,29.54a60.42,60.42,0,0,0,7.91,27.5l4.4,7.68a2.5,2.5,0,1,0,4.34-2.48ZM211.91,183.7a2.5,2.5,0,0,0-2.77,2.19L201.79,249a2.5,2.5,0,0,0,2.19,2.77l.29,0a2.5,2.5,0,0,0,2.48-2.21l7.34-63.12A2.5,2.5,0,0,0,211.91,183.7ZM198,173l-1.09,1.56a5.66,5.66,0,0,1-6.73,2l-6.3-2.49L182,178.78l6.3,2.49A10.64,10.64,0,0,0,201,177.48l1.09-1.56ZM123.81,71.65l-1.11-7.71,4.75,14.53,2.93-.47V53.37l3.42,18.77,3-.06,1.64-11.88,1,14.65,2.87.5c.37-.84,8.95-20.82,4.05-44.12l-2.94.62c3,14.24.63,27.45-1.5,35.2l-1.44-21.75-3-.1-2.36,17.18-4.71-25.88-3,.27V68.6l-7.2-22-2.91.68L119.67,64l-3.2-5.78-2.62,1.45L121,72.59Zm61.25-8.49-2.53-1.55L169.3,77l2.28,2,7.17-8.36-2.56,6.22,2.44,1.64,22-21.56-2.1-2.14L181.74,71.25Zm-4.82,16.26,3.42,3.65L199.6,68.15l-3.42-3.65Zm-83.32,103,5-2.31-2.1-4.54-5,2.31a12.69,12.69,0,0,1-11.86-.63l-2.57,4.29a17.68,17.68,0,0,0,16.54.87ZM94.82,55.7,84.59,40.76l-4.13,2.82L90.69,58.52Zm13.31,26.39-1.71-6.22a37.81,37.81,0,0,0,13.78,12.54l2-2.07-10.29-18.4-2.62,1.46,7.37,13.18c-9.88-7.84-14.15-21-14.2-21.13l-2.88.85,4,14.68L87.54,59.7,85,61.23l3.81,10.41L78.29,61.51l-2.44,1.61,5.3,14.09L76,73.58,74.26,76l9.14,6.44,2.27-1.75L81,68.25l10.47,10,2.45-1.6-3.48-9.51,15.18,16.32ZM110.74,57l-9.17-16.05-4.34,2.48,9.17,16.05Zm.63-15.82L109,35.74l-4.57,2,2.4,5.43Zm75.8-.68L182.82,38l-6.23,11,4.35,2.47ZM295.28,289l-41.43-8.11L250.21,274,249,272.87l-24.62-10.63,6.45-35.8,2.44-11.89a6.13,6.13,0,0,0,2.19.41c5.42,0,10-4.31,11.14-10.49l3.86-21a2.51,2.51,0,0,0,0-.45V156.17c0-4.77-3-8.8-7.05-9.58a7.38,7.38,0,0,0-2.16-.06,10.43,10.43,0,0,0-3.17.86c1.6-9.16,3.52-18.47,5-25.74,2.31-11.2,3.51-17.17,3.51-19.9,0-27.05-13.27-56-34.56-75.45C197.13,12.61,171-3,131.18.49,92.94,3.83,66.36,28.74,65.25,29.8l-.73.7L60.79,39l-6.7,4.35-.61,1.17C52.73,46,35.06,80.2,35.06,99.8c0,3.28,2,11.26,5.75,26.26,1.54,6.13,3.28,13,4.89,19.82L45,145.8a10,10,0,0,0-2.89.09C36.85,146.9,33,152,33,157.94V180a57.85,57.85,0,0,0,1,10.5l3,16.28c1.37,7.39,7,12.55,13.68,12.55a17.92,17.92,0,0,0,4.67-.57l13.24,40.5c.45,1.37,1,2.69,1.53,4l-12.62,1.41-1.4.63L38.8,280.87,1.33,292.46,0,296.25A176.92,176.92,0,0,0,84.1,363.1l3.65,1.09,27.8-22.32,15.37,17.2-15,30.37,66.58-1.32-15.66-32.26,11.34-12.65,26,12.69,3,6.05,3.13,1.24a179,179,0,0,0,86.62-70.41ZM229.4,139.41,220.84,126l-.13-2.38,10.11,8.4C230.34,134.47,229.86,136.93,229.4,139.41Zm-1.31,7.24c-.88,5.07-1.64,10.06-2.19,14.71l-4.24-20.59-.25-4.59Zm13.72,4.86a2.57,2.57,0,0,1,.7,0c1.71.33,3,2.33,3,4.67v26.62l-3.82,20.77c-.68,3.7-3.3,6.39-6.23,6.39a1.45,1.45,0,0,1-1-.49s-.07-.1-.11-.15l.43-2.09a74.54,74.54,0,0,0,.54-28h0c-.86-5,0-14.17,1.57-24.26A7,7,0,0,1,241.81,151.5Zm-7.3-67.59a65.39,65.39,0,0,0-6.44-5.67l5.1.52Q233.93,81.33,234.52,83.91Zm-187.39,3a33.68,33.68,0,0,1,10.34-9L45.74,93.06C46.09,91.09,46.56,89,47.13,86.89Zm-1.81,14.87,2.34-3A37.72,37.72,0,0,1,54.82,93l-7.57,7.81L50,104.86l1.46-.6-4.63,4.43C46.15,105.84,45.62,103.42,45.32,101.76Zm4.27,18.18-1.11-4.43,6.26-2.13A45.18,45.18,0,0,0,49.59,119.95Zm14.28-8.1-.2,6.67a36.69,36.69,0,0,0-11.5,11.72l-.78-3.09C54.44,120.19,59.95,114.94,63.87,111.85Zm-13.2,97.49c-1.73,0-3.39-1.88-3.85-4.37l-3-16.28A47.75,47.75,0,0,1,43,180V157.94a2.59,2.59,0,0,1,.93-2.2H44c2.7.28,3.47.88,3.83,1.47l3.23,16.68a28.15,28.15,0,0,1,.1,3.06l-.38,11.62a83.66,83.66,0,0,0,1.88,20.57A8.33,8.33,0,0,1,50.67,209.34Zm3.34-72a35.4,35.4,0,0,1,9.48-12.53l-.09,3A51.11,51.11,0,0,0,54,137.34ZM55.55,144a44.22,44.22,0,0,1,7.64-9.42l-.13,4.32-5.84,12.35C56.69,148.91,56.13,146.49,55.55,144Zm3.37,15.33,3.77-8-.09,2.94-2.89,9.27Q59.35,161.55,58.92,159.36Zm53.52,172.17-20,16.09-3.3-26.11-.45-.83a25.07,25.07,0,0,1-2.52-8.55l-.44-7.72c0-.93,0-1.87.07-2.8a44.72,44.72,0,0,0,30.54,23.6l6,1.3ZM198.53,342l-33.21-16.2,23.2-7.87a49.12,49.12,0,0,0,15.27-8.47l-5.94,24.65Zm12.82-63.87-1.06,4.38a39.22,39.22,0,0,1-25,26l-26,8.81a48.2,48.2,0,0,1-9,2.09l-9.24.36a48.08,48.08,0,0,1-7.44-1l-15.3-3.3A34.77,34.77,0,0,1,93.29,294l-3.73-9.55a37.08,37.08,0,0,0,4.9,2.09l9.06,3.08c.52.61,1,1.24,1.56,1.89,3.88,4.79,8.72,10.76,21.35,10.76H161c10.46,0,20.34-5.62,26.42-15a12.88,12.88,0,0,1,4.93-4.55l.44-.22a84.45,84.45,0,0,0,20.37-14.44Zm-23.07-4.56-.44.22a21.55,21.55,0,0,0-2.21,1.31c.06-.82.1-1.64.1-2.48l-5,0a25.41,25.41,0,0,1-1.7,9.17c-4.23,6.55-11,10.46-18,10.46H126.44c-7.87,0-10-2.66-13.58-7.05l-.5-.62a25.85,25.85,0,0,1-2.1-7.5l-1.08-8.57-5,.63,1.08,8.57c.09.69.21,1.37.34,2l-7.95-2.7a30.89,30.89,0,0,1-16.41-13.88l-5.37-13.76-11.55-35.3a73.39,73.39,0,0,1-3.59-25.28l.3-9.34a81.85,81.85,0,0,1,2.85-12.69l3.54-11.37.11-.67.45-15.2h0l.56-18.87a2.49,2.49,0,0,0,0-1.47l.23-7.87c.38-6.6,3.63-12.2,8.29-14.26L97.76,88a2.5,2.5,0,0,0-2-4.57L75.15,92.58c-4.62,2-8.21,6.46-10,12l-10.51,3.58,9.79-9.36-2.67-4.12-2.59,1.06,8-8.25-2.46-4.15a49.86,49.86,0,0,0-7,2.49L67.33,73.4l-2.71-3.92a45.33,45.33,0,0,0-14.24,7.17c.7-2,1.44-3.9,2.19-5.79l7.55-6.36-3.22-3.82,0,0c2.15-4.8,4-8.57,4.91-10.37l7-4.54,4.09-9.39c4.31-3.79,27.79-23.21,59.2-26,28.62-2.51,54,5.53,73.29,23.23A99.71,99.71,0,0,1,228.89,67l-3.69-2.7-3,4,6.79,5-10.49-1.06-1.44,4.69c.15.08,12.47,6.8,19.08,16.84a74.79,74.79,0,0,1,.45,8c0,.15,0,.35,0,.58-8-15.61-19.52-21.6-20.12-21.91l-2.25,4.46c.15.08,13.79,7.17,20.81,26.38l-.21,1.07a111.45,111.45,0,0,0-12.66-19.27l-3.83,3.21c.12.15,10.23,12.29,14.75,24.52l-.59,2.88L224.74,110l-4.35,2.47,4.7,8.26-4.77-4-.62-11.2a23.76,23.76,0,0,0-12-19.49A21.9,21.9,0,0,0,199,83.42a23.08,23.08,0,0,0,4.18-4.86L199,75.87a18.34,18.34,0,0,1-13.89,8.35L150.84,87A74.86,74.86,0,0,0,180,59.39l-2.57-1.55A71.86,71.86,0,0,1,148.34,84.9a65.57,65.57,0,0,0,19-32.51l1.8-7.4-2.92-.71-1.8,7.4a62.57,62.57,0,0,1-18.25,31.13,61.61,61.61,0,0,0,8.71-31.47h-3a58.55,58.55,0,0,1-12.29,35.8l-.61.78-.26,0,0,.28-1,1.29.83.65.4.81.16,2,25.44-2h0l20.91-1.68h0l10.24-.82a16.83,16.83,0,0,1,9.59,2.12,19,19,0,0,1,9.41,15.41l1.12,20.32a2.48,2.48,0,0,0,.06,1.14l.77,13.86,0,.37,9.51,46.14A64.63,64.63,0,0,1,225,205.19l-7.72,37.71C214.55,256.07,200,267.66,188.28,273.58Z" style="fill:#2724ad"/></g></g></svg>