<svg xmlns="http://www.w3.org/2000/svg" viewBox="0 0 315.08 392.98"><defs><style>.cls-1{fill:#2724ad;}</style></defs><title>Путин-2</title><g id="Layer_2" data-name="Layer 2"><g id="Layer_1-2" data-name="Layer 1"><path class="cls-1" d="M185.24,234.54l-10-.38a10.43,10.43,0,0,1-3.16-.62l-7.53-2.73-1.44.23-3,2.39-6.88-2.1-1.28.19-4.61,3.12c-1.84,1.25-4.28,1-6.9.72l-8.59-.89-.65.08-8.23,2.87a1.5,1.5,0,0,0,.49,2.92,1.48,1.48,0,0,0,.49-.08l7.91-2.76,8.31.86c2.86.3,6.1.63,8.84-1.23l4-2.72,6.95,2.12,1.37-.25,3-2.36,6.75,2.45a13.42,13.42,0,0,0,4.07.79l8,.3-.77,1.92a13.24,13.24,0,0,1-10.59,5.43l-31.07.22-3.57-2.91L134,246l4.27,3.48,1.6.56,32-.23a18.24,18.24,0,0,0,14.81-7.8l.27-.5,1-2.55,3.9.83,1-4.89-6-1.28Zm30.12-3.32-1.84,2.91,2.53,1.61,1.84-2.91c6.4-10.08,10.47-23.31,11.47-37.24l-3-.21C225.4,208.81,221.49,221.54,215.35,231.22ZM96.15,214.34l-2.95.56a47.83,47.83,0,0,0,9.25,20.89l1.26,1.54,2.33-1.89-1.26-1.54A44.77,44.77,0,0,1,96.15,214.34ZM93.42,130,84,83a1.5,1.5,0,1,0-2.94.59l9.37,47.07a1.5,1.5,0,0,0,1.47,1.21,1.45,1.45,0,0,0,.29,0A1.5,1.5,0,0,0,93.42,130Zm129-33,.9,27a2.5,2.5,0,0,0,2.5,2.42h.09a2.5,2.5,0,0,0,2.42-2.58l-.89-26.69L233.22,66a2.5,2.5,0,1,0-4.92-.91l-5.8,31.42Zm-13.81,26.15-9.81,1.15-.37-2.18-25.08,4.28.64,3.75c-3.57,3.75-8.84,10.83-8.84,20q0,.11,0,.21l2.16,25.47a2.5,2.5,0,0,0,2.49,2.29h.21a2.5,2.5,0,0,0,2.28-2.7L170.19,150c0-5.65,2.69-10.46,5.27-13.81L200.15,132l-.47-2.74,9.55-1.12a2.5,2.5,0,1,0-.58-5ZM96.1,142l19.24-7.46-.19,1.82,31.51,3.24,1-9.95-31.51-3.24-.26,2.54L94.29,137.3A2.5,2.5,0,1,0,96.1,142ZM177.37,39.14l-2-2.16c-4.65,3-17.9,8.57-40.54-4.47l-1.5,2.6c6.53,3.76,21.18,10.88,34.69,8a30,30,0,0,1-4.93,2.35c-10.51,3.88-23.07,1.73-36.33-6.21l-1.54,2.57c10.51,6.3,19.48,8.48,26.86,8.48A33,33,0,0,0,177.37,39.14ZM167.31,18.34A28.19,28.19,0,0,0,151.82,22l1.44,2.63c13.63-7.46,23.91-.27,24.34,0l1.88-2.33c-15.79-14.19-34.35-8-35.13-7.76l1,2.84A35.33,35.33,0,0,1,167.31,18.34Zm81.32,130.2,1.89-2.33c-7.73-6.25-7.15-19.73-7.14-19.87l-3-.15C240.35,126.79,239.7,141.31,248.63,148.53Zm2.79-21.22,3,0c.29-19.33-11-25.78-11.47-26l-1.46,2.62C241.92,104.16,251.69,109.87,251.42,127.31ZM221.83,47.66a1.5,1.5,0,0,0,1.35-2.16c-9.42-19.35-22.12-21.9-22.66-22l-1,.17-16.08,9.06a1.5,1.5,0,1,0,1.47,2.61l15.56-8.77a22.43,22.43,0,0,1,6.44,3.25c3.68,2.58,9,7.62,13.58,17A1.5,1.5,0,0,0,221.83,47.66ZM82.73,65.48c6.39-16.27,17.15-24.08,21.39-26.65,3.58,4.66,14.27,16.08,34.89,19.09a2.5,2.5,0,1,0,.72-4.95,51.42,51.42,0,0,1-25.1-10.61A36.16,36.16,0,0,1,107,34.27l-3.17-1c-.69.31-16.93,7.9-25.76,30.36a2.5,2.5,0,1,0,4.65,1.83ZM248.37,81.55l2.42-1.78c-1.91-2.6-6.57-4.23-7.1-4.41l-1,2.84C243.91,78.61,247.22,80,248.37,81.55ZM65.11,124.88l3-.53C65,107.25,71.2,96.27,71.27,96.16l-2.59-1.51C68.39,95.13,61.82,106.62,65.11,124.88Zm-1-34.38,2.85.93a18.27,18.27,0,0,1,5.87-8.87L71.1,80.1C70.91,80.23,66.41,83.38,64.08,90.5ZM175.68,205.88a16.32,16.32,0,0,0-9.67,5.43c-1.85,2.18-4.79,4.79-8.31,4.79h-.86a11,11,0,0,1-7.35-2.4A19.19,19.19,0,0,0,137.7,209l-.58,0H137a2.5,2.5,0,0,0-.08,5l.58,0a14.17,14.17,0,0,1,8.7,3.48,16,16,0,0,0,10.6,3.59h.87c4.29,0,8.48-2.27,12.11-6.55a11.31,11.31,0,0,1,6.71-3.74l2-.34h0a2.49,2.49,0,0,0,.47-.13l.12-.06a2.5,2.5,0,0,0,.3-.15l.17-.12.2-.16.14-.15.17-.2.11-.17a2.58,2.58,0,0,0,.13-.23c0-.06.05-.13.08-.19a2.54,2.54,0,0,0,.08-.24c0-.07,0-.15,0-.23s0-.1,0-.15l.83-7.75a6.45,6.45,0,0,0-3-6.11,8.94,8.94,0,0,0-10.93,1l-.34.33a2.5,2.5,0,0,0,3.45,3.62L171,199a3.9,3.9,0,0,1,4.76-.42,1.48,1.48,0,0,1,.71,1.38l-.63,5.88ZM152.4,172.23l.48-12.25v-.15a57.21,57.21,0,0,0-3.13-15.37l-1-3-2.83,1,1,3a54.19,54.19,0,0,1,3,14.49l-.48,12.17ZM208.13,139,194,138.16l-.52.06-14.28,4.37a1.5,1.5,0,0,0,.88,2.87l9.23-2.82a6.3,6.3,0,1,0,9.63-1.19l9,.52a1.48,1.48,0,0,0,1.58-1.41A1.5,1.5,0,0,0,208.13,139Zm-9,14.37a23.63,23.63,0,0,1-13.08-.62l-2.59-1a1.5,1.5,0,1,0-1.08,2.8l2.54,1a23.22,23.22,0,0,0,8.56,1.44,30.14,30.14,0,0,0,6.29-.67,1.5,1.5,0,1,0-.62-2.93Zm-82.4-4.3A6.3,6.3,0,1,0,127,144.12l10.83,1.1a1.5,1.5,0,1,0,.3-3l-17.42-1.77-.72.11-12.4,5.12a1.5,1.5,0,0,0,1.14,2.77l10.3-4.25A6.28,6.28,0,0,0,116.75,149Zm16.43,6.79a1.5,1.5,0,0,0-1.85-1c-10.62,3-17.1.27-17.21.22a1.5,1.5,0,0,0-1.23,2.74,22.88,22.88,0,0,0,8.79,1.46,38.47,38.47,0,0,0,10.47-1.53A1.5,1.5,0,0,0,133.18,155.83ZM252.5,258.62l-9.79-23.79a42.07,42.07,0,0,0,9-18.57l.86-5a13.63,13.63,0,0,0,7.36-3.31,13.87,13.87,0,0,0,4.66-10l9.87-33.5a96.35,96.35,0,0,0,3.93-27.24,8.86,8.86,0,0,0-4.22-7.59,8.71,8.71,0,0,0-7.47-.84l-.44-44,0-.48a85.41,85.41,0,0,0-9.78-31.55,69,69,0,0,0-17.92-21.24c-9.7-7.74-32.38-22.13-42.65-25.38-2-.63-4.12-1.24-6.35-1.8-22.45-5.73-40.77-5.73-63.22,0C124.1,4.87,122,5.47,120,6.1c-13.66,4.33-42.85,28.77-46.13,31.54l-.34.28-.28.34a86.06,86.06,0,0,0-19.53,46l-1.34,38.87-.58-.08c-5.48-.73-10.67,3-12.34,8.8a29.93,29.93,0,0,0,.1,16.59l9.32,31.16,2.22,13c1.59,8.84,7.51,15.62,15,17.55l1,5.88,0,.16a42.2,42.2,0,0,0,11.28,21.08l-15.59,22L0,273.17a175.36,175.36,0,0,0,115.46,93.27c0-.14,0-.28,0-.42l-8-62.17,24.88,28.34L146,320.53l10.5,8.14A10.26,10.26,0,0,1,160,339.8l-15.46,49.35,46.6,3.83-6.87-48.58a137,137,0,0,1-1.22-24.94l.39-9.24,18.46,6.48,21.22-29.86-10.57,75.75a175.52,175.52,0,0,0,102.52-90.22Zm15.36-124.94a3.71,3.71,0,0,1,3.68.17,3.89,3.89,0,0,1,1.85,3.34A91.34,91.34,0,0,1,269.67,163l-10,33.83-.1.71a8.87,8.87,0,0,1-3,6.64,8.63,8.63,0,0,1-3.14,1.78l12.25-71.23Zm-207,57.25-2.26-13.3a5,5,0,0,0-.14-.6l-9.41-31.45a19.79,19.79,0,0,1-.06-11c.33-1.14,1-1.68,1.4-1.64l2.43.32,11,64.16A13.83,13.83,0,0,1,60.91,190.94ZM132.79,325.2,106.25,295,102,262l7.28,16.17,49.23,25.16Zm-18.44-60.06,1.63,1.23a37.2,37.2,0,0,1,6.71,6.12,24.12,24.12,0,0,0,2.61,2.68L117,270.92Zm21.75,15.56a24.94,24.94,0,0,0,7.53.53h36.49q1,.08,2.06.08a24.9,24.9,0,0,0,3.61-.27l-21.11,14.27Zm88.52-4.6L200,310.74l-26.51-9.3,51.05-34.5.57,5.61ZM208,266c4.15-3.75,9.61-8.63,15.06-13.46l.31,3.07Zm21.1-32.1-.36.29c-7.73,6.79-33.12,29.17-35.38,31.9a14.55,14.55,0,0,1-12.58,5.14l-37.61,0-.23,0a14.57,14.57,0,0,1-12.58-5.14,46.77,46.77,0,0,0-8.43-7.76L89.74,233.93A32.45,32.45,0,0,1,77,214.32L72.5,188.4l7.86,3.88a17.3,17.3,0,0,1,9.53,12.58,2.5,2.5,0,0,0,4.93-.81,22.3,22.3,0,0,0-12.25-16.25L71.45,182.3l-5.18-30.15c9.51-15,6.26-44.12,6.09-45.54l-3,.35c0,.31,2.89,25.66-3.92,40.48l-3.28-19.08,1.41-41.22a32.16,32.16,0,0,1,4.1-8.4,18.86,18.86,0,0,1,5-5.16L72,72.27,71.2,71a21.63,21.63,0,0,0-6.3,6.49A76.28,76.28,0,0,1,80.63,45c8.79-7.39,32.53-26.25,42.36-29.36,1.81-.57,3.76-1.13,5.81-1.65,20.7-5.29,37.58-5.29,58.27,0,2,.52,4,1.08,5.81,1.65,8.2,2.6,29.51,15.75,39.43,23.67a59.05,59.05,0,0,1,15.36,18.16,75.47,75.47,0,0,1,8.61,27.63l.12,12.24a24.24,24.24,0,0,0-13.66-15.5l-1,2.83A20.74,20.74,0,0,1,254,100.21,16.79,16.79,0,0,0,241,92.79h0l0,3c.53,0,12.81.09,14.11,17.82l1.44-.11.15,14.79-2.56,14.92a2.86,2.86,0,0,1-.89-.49c-4.64-3.75-5.3-20.63-5.17-26.81l-3-.07c-.05,2.43-.34,23.86,6.28,29.21a5.77,5.77,0,0,0,2.26,1.12l-3,17.45-5.36,7.77a30.76,30.76,0,0,1-15.68,11.71l-8.56,2.8,1.55,4.75,8.56-2.8a35.8,35.8,0,0,0,17.48-12.57l-6.71,39A32.45,32.45,0,0,1,229.13,233.93Z"/></g></g></svg>