<svg xmlns="http://www.w3.org/2000/svg" viewBox="0 0 317.57 393.14"><title>Путин</title><g id="Layer_2" data-name="Layer 2"><g id="Layer_1-2" data-name="Layer 1"><path d="M195.18,235.19l-11-1.06-.55,0-11.29,3.18-8-3.91-1.34,0-6,3.11-3.18-1.84h-1.51l-7.9,4.63-11.44,2.39,1.07-.92a2.5,2.5,0,1,0-3.26-3.79l-8.48,7.28a2.5,2.5,0,1,0,3.26,3.79l4.35-3.74,1.57.54.79,0,13-2.71.45-.17,7.36-4.32,3.14,1.81,1.44,0,6.07-3.14,7.88,3.83,1.06.09,11.57-3.26,10.68,1a1.5,1.5,0,0,0,.29-3Zm-15,10-39.11,3.06.23,3,39.84-3.11,1.13-.67,2.52-3.8-2.5-1.66Zm37.1-13.36,3,.27,3-32.78-3-.27Zm-120-101L88.44,84.05a1.5,1.5,0,0,0-2.95.56l8.87,46.83a1.5,1.5,0,0,0,1.47,1.22l.28,0A1.5,1.5,0,0,0,97.31,130.89ZM219.27,98l.85,26.82a2.5,2.5,0,0,0,2.5,2.42h.08a2.5,2.5,0,0,0,2.42-2.58l-.85-26.56,5.45-31a2.5,2.5,0,0,0-4.92-.87l-5.49,31.26ZM132.69,159a1.5,1.5,0,0,0-.82-2.89c-10.91,3.09-17.57.27-17.68.23A1.5,1.5,0,0,0,113,159a23.43,23.43,0,0,0,9,1.49A39.41,39.41,0,0,0,132.69,159Zm62.6-4.38a24.32,24.32,0,0,1-13.45-.63l-2.66-1a1.5,1.5,0,1,0-1.08,2.8l2.6,1a23.76,23.76,0,0,0,8.76,1.48,30.93,30.93,0,0,0,6.44-.69,1.5,1.5,0,1,0-.62-2.93ZM205.36,124,196,125.19l-.39-2.18-23.74,4.26.71,4-9.5,10.56a2.5,2.5,0,0,0-.64,1.53l-1.88,32a2.49,2.49,0,0,0,.21,1.17l9.33,20.81a2.49,2.49,0,0,0,.87,1l4.75,3.24-.69,6.74-5.38,1a2.5,2.5,0,0,0-1.85,1.48l-3.12,7.31-10.37.74-6.56-6.45a2.5,2.5,0,0,0-1.67-.72l-5.45-.17-.84-5.45,4.85-4.42a2.51,2.51,0,0,0,.67-1l10.76-29.8a2.51,2.51,0,0,0,.14-1l-1-17a2.5,2.5,0,0,0-5,.3l1,16.48-10.38,28.74-5.38,4.91a2.5,2.5,0,0,0-.79,2.23l1.36,8.82a2.5,2.5,0,0,0,2.39,2.12l6.54.21,6.67,6.56a2.5,2.5,0,0,0,1.75.72h.18l13-.93a2.5,2.5,0,0,0,2.12-1.51l3.2-7.48,5.91-1.08a2.5,2.5,0,0,0,2-2.21l1-10.09a2.5,2.5,0,0,0-1.08-2.32l-5.4-3.68L165.64,175l1.79-30.5,6.72-7.47,23.27-4.17-.49-2.74,9-1.11a2.5,2.5,0,0,0-.61-5Zm-87.6,13.12,29.83,3.22,1.07-9.94-29.83-3.22-.27,2.51L98,138.11a2.5,2.5,0,1,0,1.89,4.63l18.09-7.37Zm86.74,2.69L190,139l-.52.06-14.65,4.48a1.5,1.5,0,0,0,.88,2.87l9.51-2.91a6.46,6.46,0,1,0,9.81-1.21l9.29.53a1.5,1.5,0,1,0,.17-3Zm-87.58,10.29A6.46,6.46,0,1,0,127.33,145l11.18,1.14a1.5,1.5,0,0,0,.3-3l-17.86-1.82-.72.11-12.72,5.25a1.5,1.5,0,0,0,1.14,2.77l10.69-4.41A6.44,6.44,0,0,0,116.91,150.14ZM126.73,44c10.17,6.4,18.86,8.62,26,8.62A32,32,0,0,0,177.61,41l-3.44-3.52C170,40.35,157.88,45.65,137,33a2.5,2.5,0,0,0-2.59,4.28c5.3,3.21,16.16,8.81,27.3,8.81h.52C154.91,48.72,144,49,129.39,39.77A2.5,2.5,0,0,0,126.73,44Zm15.61-13.72a34.22,34.22,0,0,0,19.32,6.08,33.52,33.52,0,0,0,14.86-3.54l-1.17-2.76c-.12,0-11.77,4.13-21.87-6.78a1.5,1.5,0,0,0-2.2,2,25.76,25.76,0,0,0,13,7.91,31,31,0,0,1-20.11-5.35,1.5,1.5,0,0,0-1.81,2.39Zm101.76,119A1.5,1.5,0,0,0,246,147c-7.32-6.22-6.77-19.65-6.76-19.79a1.5,1.5,0,0,0-1.43-1.57,1.53,1.53,0,0,0-1.57,1.42C236.26,127.66,235.65,142.08,244.1,149.27Zm-6.74-44.37c.39.23,9.63,5.91,9.38,23.27a1.5,1.5,0,0,0,1.48,1.52h0a1.5,1.5,0,0,0,1.5-1.48c.28-19.22-10.41-25.64-10.87-25.91a1.5,1.5,0,0,0-1.51,2.59Zm-18.56-56a1.5,1.5,0,0,0,1.36-2.13c-8.93-19.26-21-21.81-21.51-21.91l-1.05.18-15.22,9a1.5,1.5,0,1,0,1.53,2.58L198.59,28a20.9,20.9,0,0,1,6,3.21c3.47,2.56,8.52,7.57,12.83,16.87A1.5,1.5,0,0,0,218.81,48.93ZM87.25,66.62c6-16,16-23.75,20.06-26.39,3.48,4.72,13.62,15.94,33,18.92a2.5,2.5,0,1,0,.76-4.94,46.93,46.93,0,0,1-23.67-10.52,35.42,35.42,0,0,1-7.2-8l-3.24-1c-.65.31-16.07,7.87-24.43,30.24a2.5,2.5,0,1,0,4.68,1.75Zm151.29,12.7c1.11.4,4.23,1.76,5.3,3.3a1.5,1.5,0,0,0,2.46-1.72c-1.82-2.59-6.25-4.23-6.75-4.41a1.5,1.5,0,0,0-1,2.83ZM75.93,95.23a1.5,1.5,0,0,0-2.1.31c-.32.44-7.94,10.89-7.16,29.31a1.5,1.5,0,0,0,1.5,1.44h.06a1.5,1.5,0,0,0,1.44-1.56c-.73-17.29,6.5-27.29,6.57-27.39A1.5,1.5,0,0,0,75.93,95.23Zm.1-14c-.18.13-4.45,3.28-6.65,10.36a1.5,1.5,0,0,0,2.86.89,18.15,18.15,0,0,1,5.55-8.82A1.5,1.5,0,0,0,76,81.22ZM317.12,271.1a5,5,0,0,0-3.47-2.81l-58.28-12.8-10.83-26.32a5,5,0,0,0-.54-1,41.22,41.22,0,0,0,3.27-10.45l1-6.08a12.68,12.68,0,0,0,6.45-3.05,14,14,0,0,0,4.68-10.19l9.35-33.34A100.29,100.29,0,0,0,272.49,138a8.87,8.87,0,0,0-4.24-7.68,8.16,8.16,0,0,0-7.11-.68L259,80.71a58.2,58.2,0,0,0-14.07-35.4L228,25.71A73.22,73.22,0,0,0,177.92.46a152.87,152.87,0,0,0-59.4,7.11A73.71,73.71,0,0,0,83.95,31.39L77.3,39.63A86.88,86.88,0,0,0,58.42,85.36l-4,38.66-1-.12a12.67,12.67,0,0,0-13.47,8.54,25.86,25.86,0,0,0,.12,17l11.09,31,2.29,10.61a22.59,22.59,0,0,0,16.09,17.06l1.7,8.52a42.38,42.38,0,0,0,7.93,17.49l-18,22.08L3.93,268.79a5,5,0,0,0-3.31,7.28,181.48,181.48,0,0,0,106.45,86.26,5,5,0,0,0,6.38-5.51L105.15,300l27,30.73,14.09-12L157,327.19a10.59,10.59,0,0,1,3.6,11.49L144.8,389.22l47.65,3.92-7-49.76a140.68,140.68,0,0,1-1.26-25.6l.41-9.56,19,6.66,22-30.92-9.6,68.8a5,5,0,0,0,6.73,5.36A180.39,180.39,0,0,0,317,275.56,5,5,0,0,0,317.12,271.1ZM261.38,135.24v-.15l1.12-.59a3.15,3.15,0,0,1,3.17.1,3.91,3.91,0,0,1,1.83,3.4A95.28,95.28,0,0,1,264,163.73l-9.43,33.66-.09.67a9,9,0,0,1-3,6.79,8,8,0,0,1-2.22,1.39ZM63.18,189,60.82,178a5.08,5.08,0,0,0-.18-.63L49.44,146.1a15.82,15.82,0,0,1-.07-10.41A2.73,2.73,0,0,1,52,133.83l.31,0,2.42.27L67,195.63A12.63,12.63,0,0,1,63.18,189Zm69.47,134.8-28.82-32.83-5.66-38.77,10.46,23.23,50.57,25.85Zm-19-61.57,5.7,4.31a36.31,36.31,0,0,1,6.46,6.07c.18.22.36.43.54.64l-10-5.14Zm28.57,19.14c.67.06,1.35.1,2,.1s1.5,0,2.25-.11l36.9-3.49a30.47,30.47,0,0,0,6.87-1.47l-24.88,16.81ZM227,273.22l-25.37,35.69-27.44-9.63,52.7-35.61.61,6Zm-23.19-6c.38-.44.74-.89,1.1-1.36a42.26,42.26,0,0,1,8.26-8.46l12.16-9.12.42,4.12Zm21.59-31.5-18.24,13.68a52,52,0,0,0-10.23,10.43,20.65,20.65,0,0,1-14.48,8.07l-36.9,3.49a13.66,13.66,0,0,1-12-5,46,46,0,0,0-8.22-7.78l-20.83-15.78a5,5,0,0,0-1.2-.91l-10-7.57A32.37,32.37,0,0,1,81,214.68L73.65,178,81,181.79a11.44,11.44,0,0,1,6,8.37L92.6,226a2.5,2.5,0,0,0,2.47,2.12l.39,0a2.5,2.5,0,0,0,2.09-2.86L92,189.39a16.46,16.46,0,0,0-8.65-12L74,172.54a2.48,2.48,0,0,0-1.52-.25l-3-15.05c11-12.12,7.75-42.34,7.6-43.72a2.5,2.5,0,0,0-5,.55c.85,7.61,1.36,26.31-4,36.4l-4.24-21.18,3.16-30.45s0,0,0-.06c0-.32.06-.62.09-.93l.12-1.13c1.91-16.52,10.27-22,10.4-22.06a1.5,1.5,0,0,0-1.57-2.56c-.24.15-3.66,2.31-6.81,7.87A76.88,76.88,0,0,1,85.08,45.91l6.65-8.23a63.73,63.73,0,0,1,29.89-20.59,142.88,142.88,0,0,1,55.54-6.65,63.28,63.28,0,0,1,43.27,21.83l16.95,19.59A48.17,48.17,0,0,1,249,81.14l.52,12a23.21,23.21,0,0,0-10.89-10.25,1.5,1.5,0,0,0-1.06,2.81c.43.16,9.31,3.69,11.56,15.19a15.81,15.81,0,0,0-12.24-7.11,1.5,1.5,0,0,0,0,3h0c.49,0,12,0,13.27,17.72a1.46,1.46,0,0,0,.26.7l.84,19.38-1.62,9.48a2.37,2.37,0,0,1-1-.5c-1.51-1.21-5.36-8.37-5-26.76a1.5,1.5,0,0,0-1.47-1.53h0a1.5,1.5,0,0,0-1.5,1.47c-.05,2.45-.32,24,6.1,29.17a5.34,5.34,0,0,0,2.37,1.1L245.46,169l-27.9,15.7L220,189l24.37-13.71-7,40.73A31,31,0,0,1,225.4,235.7Z" style="fill:#2724ad"/></g></g></svg>