<svg xmlns="http://www.w3.org/2000/svg" xmlns:xlink="http://www.w3.org/1999/xlink" width="120" height="120" viewBox="0 0 120 120">
    <defs>
        <circle id="a" cx="60" cy="60" r="60"/>
    </defs>
    <g fill="none" fill-rule="evenodd">
        <mask id="b" fill="#fff">
            <use xlink:href="#a"/>
        </mask>
        <use fill="#4F55EC" xlink:href="#a"/>
        <path fill="#9296F9" fill-rule="nonzero" d="M101.68 75.633h-7.987c3.34-3.269 5.415-7.823 5.415-12.854 0-9.923-8.072-17.996-17.995-17.996h-6.195a7.661 7.661 0 0 1-5.454-2.259l-4.26-4.26a12.77 12.77 0 0 0-9.088-3.764h-26.59a2.57 2.57 0 0 0-1.935 4.264L47.52 61.54v14.092H34.496c-4.253 0-7.713 3.46-7.713 7.712v2.571h-2.57c-4.253 0-7.713 3.46-7.713 7.712v5.142a2.57 2.57 0 0 0 2.57 2.57h2.868l2.294 18.653a2.571 2.571 0 0 0 2.551 2.257h5.142a2.571 2.571 0 0 0 2.551-2.257l2.294-18.652h26.473l2.293 18.652a2.57 2.57 0 0 0 2.551 2.257h5.142a2.571 2.571 0 0 0 2.552-2.257l2.293-18.652h5.906l2.294 18.652a2.57 2.57 0 0 0 2.551 2.257h5.142a2.571 2.571 0 0 0 2.551-2.257l2.337-19.008c3.124-.987 5.395-3.911 5.395-7.357V78.204a2.57 2.57 0 0 0-2.57-2.571zM35.25 39.75h20.827c2.05 0 3.978.802 5.427 2.26l4.24 4.26a12.677 12.677 0 0 0 9.046 3.766h6.166c7.055 0 12.794 5.767 12.794 12.857 0 7.09-5.74 12.857-12.794 12.857H66.594L52.64 59.723V47.464a2.565 2.565 0 0 0-2.56-2.571 2.565 2.565 0 0 0-2.558 2.571v6.381L35.25 39.75zM60 75h-7.5v-8.25L60 75zm-30.451 42h-.598L27 101.25h4.5L29.549 117zm41.25 0H70.2l-1.951-15.75h4.5L70.799 117zm21 0H91.2l-1.951-15.75h4.5L91.799 117zm7.951-24.25c0 1.379-1.161 2.5-2.588 2.5H21.75v-2.5c0-1.379 1.161-2.5 2.588-2.5h5.177c1.43 0 2.589-1.12 2.589-2.5v-5c0-1.379 1.161-2.5 2.588-2.5H99.75v12.5z" mask="url(#b)"/>
    </g>
</svg>
