<svg xmlns="http://www.w3.org/2000/svg" xmlns:xlink="http://www.w3.org/1999/xlink" width="120" height="120" viewBox="0 0 120 120">
    <defs>
        <circle id="a" cx="60" cy="60" r="60"/>
    </defs>
    <g fill="none" fill-rule="evenodd">
        <mask id="b" fill="#fff">
            <use xlink:href="#a"/>
        </mask>
        <use fill="#4F55EC" xlink:href="#a"/>
        <path fill="#9296F9" fill-rule="nonzero" d="M111.432 67.143L100.94 51.92l2.116-4.096a1.933 1.933 0 0 0-.84-2.609 1.95 1.95 0 0 0-2.62.837l-2.173 4.204c-.821.106-2.084.29-3.715.594a1.932 1.932 0 0 0-.698-2.094 1.952 1.952 0 0 0-2.724.387 25.83 25.83 0 0 0-1.799 2.838c-.67.165-1.366.343-2.088.536a1.93 1.93 0 0 0-.89-1.26 1.951 1.951 0 0 0-2.674.646c-.026.042-.49.803-1.046 1.96-.914.288-1.855.599-2.82.932a1.937 1.937 0 0 0-1.244-1.477 1.948 1.948 0 0 0-2.497 1.151c-.016.044-.29.792-.588 1.922-1.052.412-2.125.85-3.217 1.316a1.946 1.946 0 0 0-3.832-.193c-.01.047-.188.865-.334 2.074-1.306.62-2.63 1.28-3.97 1.984a28.985 28.985 0 0 1-9.319 3.052l-.008.001a3.905 3.905 0 0 0-1.951-2.127 3.94 3.94 0 0 0-3.493.014 14.745 14.745 0 0 1-14.115-.534l-2.951-1.751a1.953 1.953 0 0 0-2.045.032 1.934 1.934 0 0 0-.886 1.835l.387 3.654c.068.646.175 1.286.315 1.918-.46.001-1.092-.022-1.98-.09-3.35-.256-6.623.365-9.481 1.736a17.355 17.355 0 0 0-5.303-1.194c-3.327-.202-8.177.55-12.395 5.29-4.091 4.598-4.092 9.398-4.093 14.039-.001 4.301-.002 8.364-3.101 12.642a1.93 1.93 0 0 0 .127 2.424 1.95 1.95 0 0 0 2.406.397C1.302 99.6 5.522 94.405 8.094 90.474a16.68 16.68 0 0 0 1.323 3.117c.536.973 1.137 1.84 1.797 2.59l-3.676 6.697a8.511 8.511 0 0 0-.377 7.348l-10.167 7.728a1.932 1.932 0 0 0-.367 2.715c.383.5.962.762 1.548.762.412 0 .827-.13 1.18-.398l22.262-17.708c.26-.217.513-.44.761-.668l10.839 17.783a1.946 1.946 0 0 0 2.68.62 1.932 1.932 0 0 0 .622-2.669L28.5 105.578l5.181-11.646c3.534 1.498 8.178 2.75 13.83 2.75 3.553 0 7.507-.497 11.834-1.738 1.03 2.064 2.345 4.184 3.732 6.195l-.168 8.098-6.655 7.033c-.737.778-.7 2.005.082 2.738.376.353.855.527 1.334.527.517 0 1.034-.204 1.416-.609l7.169-7.575c.33-.35.519-.809.53-1.289l.08-3.846a108.603 108.603 0 0 0 4.33 5.1l1.7 10.797a1.944 1.944 0 0 0 2.225 1.613 1.938 1.938 0 0 0 1.62-2.214l-1.77-11.228.006-16.773 3.24-3.47a11.397 11.397 0 0 0 2.982-9.167 19.808 19.808 0 0 0 16.27-2.344l4.815-3.087.932.52a6.184 6.184 0 0 0 4.723.556 6.195 6.195 0 0 0 3.754-2.964l.039-.071a5.972 5.972 0 0 0-.3-6.34zM49.982 65.7c.013-.006.026-.013.052 0 .008.004.03.09.058.212a5.74 5.74 0 0 1 .098 2.153c-.465 2.99-2.83 5.417-5.875 5.796l-2.706.337a6.665 6.665 0 0 1-6.34-2.852A13.7 13.7 0 0 1 33 65.25c5.25 3.026 11.565 3.202 16.982.45zM6.618 83.11C6.03 84.354 3.285 89.827-1.5 94.5c.59-2.707.59-5.305.591-7.729.001-4.286.002-7.987 3.098-11.492 3.598-4.073 7.75-4.332 10.561-3.853-.062.058-.127.113-.19.172l-.653.627A17.487 17.487 0 0 0 6.618 83.11zM25.619 102l-.869-1.737a23.066 23.066 0 0 0 3.426-8.013c.332.234.689.474 1.074.719L25.62 102zm49.588-13.903l-3.788 4.12a1.994 1.994 0 0 0-.525 1.348l-.004 12.79c-4.1-5.046-9.462-12.559-9.98-17.179a1.962 1.962 0 0 0-2.38-1.71c-1.008.227-1.63 1.245-1.5 2.281.093.755.277 1.552.532 2.375-14.68 4.118-24.394-1.255-28.143-4.008l1.042-4.66a1.982 1.982 0 0 0-1.48-2.371 1.96 1.96 0 0 0-2.344 1.496l-1.905 8.52a18.937 18.937 0 0 1-6.188 10.247l-8.749 7.404c-.136-.99.035-2.02.523-2.922l4.405-8.151c.443-.82.26-1.84-.438-2.45-.769-.672-1.468-1.583-2.078-2.707-2.893-5.333-1.812-12.065 2.627-16.368l.663-.64c2.79-2.704 6.772-4.07 10.93-3.749 1.886.146 2.918.119 3.626.032.37.778.795 1.53 1.274 2.247 1.983 2.962 5.193 4.725 8.65 4.85v5.325h-1.678c-1.083 0-1.96.887-1.96 1.981 0 1.095.877 1.982 1.96 1.982h7.275c1.083 0 1.96-.887 1.96-1.982a1.971 1.971 0 0 0-1.96-1.981h-1.677V78.55l.614-.076c5.078-.626 8.98-4.745 9.542-9.738.056-.008 1.807-.301 2.619-.487l20.182 11.354c.01.5.084.996.197 1.484a7.784 7.784 0 0 1-1.844 7.009zm20.79-13.356A15.284 15.284 0 0 1 84 76.817l6.175-6.023a3.602 3.602 0 0 1 4.33-.565L99 72.779l-3.002 1.962zm12.475-3.209l-.038.071a2.33 2.33 0 0 1-1.546 1.152c-.575.126-1.177.006-1.691-.282-2.788-1.562-6.553-3.666-9.312-5.208a7.601 7.601 0 0 0-9.03 1.16l-7.626 7.325c-.01-.006-.021-.01-.031-.017L62.25 66.311a33.824 33.824 0 0 0 3.023-1.407c.674-.355 1.344-.695 2.01-1.029.113 1.65.435 3.079.973 4.26a1.945 1.945 0 0 0 3.54-1.608c-.56-1.233-.702-2.917-.664-4.482.984-.444 1.954-.863 2.91-1.261-.1 1.615.03 3.045.398 4.267a1.945 1.945 0 0 0 3.724-1.119c-.41-1.362-.294-3.155-.016-4.762.717-.265 1.425-.52 2.118-.76-.302 1.337-.402 2.566-.295 3.675a1.945 1.945 0 0 0 3.871-.371c-.138-1.444.346-3.22.947-4.763a105.02 105.02 0 0 1 2.004-.577c-.23.92-.349 1.79-.349 2.607a1.944 1.944 0 0 0 3.89 0c0-1.162.419-2.5.97-3.746 3.036-.693 5.327-1.06 6.59-1.235l10.475 15.253c.467.68.508 1.552.103 2.28z" mask="url(#b)"/>
    </g>
</svg>
