<svg xmlns="http://www.w3.org/2000/svg" xmlns:xlink="http://www.w3.org/1999/xlink" width="120" height="120" viewBox="0 0 120 120">
    <defs>
        <circle id="a" cx="60" cy="60" r="60"/>
    </defs>
    <g fill="none" fill-rule="evenodd">
        <mask id="b" fill="#fff">
            <use xlink:href="#a"/>
        </mask>
        <use fill="#4F55EC" xlink:href="#a"/>
        <g fill="#9296F9" fill-rule="nonzero" mask="url(#b)">
            <path d="M83.583 32.387a1.332 1.332 0 0 0-.329-.268 36.318 36.318 0 0 0-12.464-6.597 1.339 1.339 0 0 0-.245-.073A36.266 36.266 0 0 0 60.375 24c-3.529 0-6.941.507-10.17 1.449a1.312 1.312 0 0 0-.245.073 36.346 36.346 0 0 0-13.232 7.236c-.126.078-.239.176-.332.29a36.657 36.657 0 0 0-6.118 6.921c-.09.1-.166.211-.223.334A36.162 36.162 0 0 0 24 60.375c0 6.606 1.77 12.806 4.862 18.152.05.121.116.234.198.335 4.491 7.578 11.653 13.394 20.18 16.143.073.03.149.055.227.073a36.246 36.246 0 0 0 10.908 1.672c5.252 0 10.246-1.12 14.76-3.132a1.33 1.33 0 0 0 .318-.144 36.549 36.549 0 0 0 11.492-8.284c.114-.089.215-.196.295-.317a36.389 36.389 0 0 0 7.785-13.427c.035-.079.062-.161.08-.247a36.25 36.25 0 0 0 1.645-10.824c0-11.243-5.128-21.31-13.167-27.988zm-14.857-4.678c-1.045 3.664-4.45 6.304-8.35 6.304-3.902 0-7.307-2.64-8.352-6.304a33.662 33.662 0 0 1 8.351-1.047c2.882 0 5.68.364 8.351 1.047zm-30.772 7.512h8.181a2.746 2.746 0 0 1 2.743 2.743c0 1.142-.72 2.176-1.792 2.572-.522.194-.869.692-.869 1.249v13.641c-3.745.063-7.522.082-8.128.005a1.331 1.331 0 0 0-1.607 1.301V59.3a1.947 1.947 0 0 1-1.946 1.945 1.947 1.947 0 0 1-1.945-1.945V41.303a33.975 33.975 0 0 1 5.363-6.082zM29.93 45.904V59.3a4.615 4.615 0 0 0 3.277 4.41v3.48a8.95 8.95 0 0 0-4.184 5.578 33.537 33.537 0 0 1-2.36-12.393 33.51 33.51 0 0 1 3.267-14.471zm1.495 31.728V74.9a6.265 6.265 0 0 1 6.258-6.258A6.265 6.265 0 0 1 43.94 74.9v.975c0 .735.596 1.33 1.33 1.33h3.438a3.82 3.82 0 0 1 3.816 3.817 3.83 3.83 0 0 1-3.029 3.734 1.33 1.33 0 0 0-1.057 1.302v5.846a33.903 33.903 0 0 1-17.014-14.27zM51.1 92.79v-5.75a6.51 6.51 0 0 0 4.086-6.02 6.485 6.485 0 0 0-6.478-6.477h-2.113c-.187-4.754-4.113-8.564-8.912-8.564a8.92 8.92 0 0 0-1.815.187V63.71a4.615 4.615 0 0 0 3.276-4.41V58.13c1.458.03 3.822.017 7.074-.04v.418a1.33 1.33 0 0 0 2.661 0V42.619a5.43 5.43 0 0 0 2.661-4.656 5.41 5.41 0 0 0-5.404-5.404h-4.787a33.624 33.624 0 0 1 8.125-4.088c1.379 4.77 5.818 8.203 10.902 8.203s9.523-3.433 10.901-8.203a33.687 33.687 0 0 1 9.987 5.46l.051 4.335h-5.75a1.33 1.33 0 0 0 0 2.661h2.218v2.322h-4.246c-.074 0-.149.007-.222.02-2.329.394-4.153 2.552-4.153 4.914v2.474h-8.567a1.33 1.33 0 0 0-1.33 1.33v3.798a6.287 6.287 0 0 0 6.279 6.28 6.277 6.277 0 0 0 5.737-3.721h10.378a8.19 8.19 0 0 0 5.727 3.947v2.474H64.848a5.591 5.591 0 0 0-5.585 5.584 5.591 5.591 0 0 0 5.585 5.585h3.386v8.298c0 3.076 1.351 5.898 3.646 7.834a33.557 33.557 0 0 1-11.505 2.022c-3.216 0-6.328-.453-9.276-1.298zm36.362-12.365v-8.182h4.469a33.68 33.68 0 0 1-4.469 8.182zm5.35-10.844h-6.68a1.33 1.33 0 0 0-1.331 1.331V83.59a33.88 33.88 0 0 1-10.026 7.264c-2.406-1.383-3.878-3.867-3.878-6.622v-9.629a1.33 1.33 0 0 0-1.331-1.33h-4.717a2.927 2.927 0 0 1-2.923-2.924 2.926 2.926 0 0 1 2.923-2.923h23.868a1.33 1.33 0 0 0 1.331-1.33V61.07a1.33 1.33 0 0 0-1.33-1.331 5.517 5.517 0 0 1-5.033-3.268 1.33 1.33 0 0 0-1.215-.789H70.475c-.987 0-1.31.61-1.416 1.004l-.01-.002a3.615 3.615 0 0 1-3.506 2.719 3.622 3.622 0 0 1-3.618-3.618v-2.466h8.567a1.33 1.33 0 0 0 1.331-1.331v-3.805c0-1.013.85-2.05 1.84-2.272h5.45a1.33 1.33 0 0 0 1.33-1.33v-3.654h2.218a1.33 1.33 0 0 0 1.33-1.346l-.038-3.278c6.25 6.123 10.136 14.652 10.136 24.072 0 3.19-.446 6.279-1.278 9.206z"/>
            <path d="M66.375 48c.621 0 1.125-.662 1.125-1.48v-1.54c0-.818-.504-1.48-1.125-1.48s-1.125.662-1.125 1.48v1.54c0 .818.504 1.48 1.125 1.48z"/>
            <path d="M100.756 61.706a1.33 1.33 0 0 0-1.413 1.24c-1.33 20.41-18.428 36.397-38.923 36.397-7.89 0-15.49-2.342-21.98-6.772a1.331 1.331 0 0 0-1.172-.164L23.896 96.86l4.457-13.358c.132-.394.071-.827-.163-1.17a38.727 38.727 0 0 1-6.78-21.957c0-21.487 17.5-38.968 39.01-38.968 20.495 0 37.592 15.988 38.923 36.398a1.329 1.329 0 1 0 2.654-.173c-.686-10.533-5.316-20.328-13.035-27.582-7.754-7.287-17.89-11.3-28.542-11.3-11.13 0-21.595 4.33-29.465 12.192-7.87 7.862-12.205 18.315-12.205 29.433 0 8.196 2.374 16.1 6.873 22.905l-5.092 15.26a1.328 1.328 0 0 0 1.683 1.68l15.275-5.086C44.301 99.628 52.215 102 60.42 102c10.652 0 20.788-4.013 28.543-11.3 7.719-7.253 12.348-17.049 13.035-27.582a1.329 1.329 0 0 0-1.24-1.412z"/>
        </g>
    </g>
</svg>
