<svg xmlns="http://www.w3.org/2000/svg" viewBox="0 0 280.8 393.83"><title>Собчак</title><g id="Layer_2" data-name="Layer 2"><g id="Layer_1-2" data-name="Layer 1"><path d="M113.22,230.1l1.86,2.35,4.94-3.91,16.41.59,3.81,2.73,1.08.27,10.82-1.5-.41-3-10.22,1.42-3.69-2.65-.82-.28-11.78-.42c2.93-1.33,6.76-2.79,9.76-3,2.28,2.7,7.82,3.86,11.64,3a6.24,6.24,0,0,0,3.58-2c2.16.28,6.31,1,7.75,1.23l6.85,4.49-10.46,7.17-24.77,1,.12,3,25.2-1,.79-.26,11.84-8.11,5.32,3.48,2.74-4.18-15.33-10-.94-.37c-.29-.05-7.09-1.23-9.36-1.45l-2.49-.25-.4,4a5.16,5.16,0,0,1-1.08.35c-3.4.74-8.06-.74-8.92-2.34l-1.32-.79c-6.35,0-16,5.43-16.46,5.66Zm10.57-31.57.23-.79c0-7.88,4.28-10.32,4.46-10.42l-1.4-2.65c-.24.13-5.89,3.19-6.06,12.63-4.51,7.26-14.83,25-14.94,25.18l2.59,1.51C108.78,223.81,119.44,205.5,123.79,198.53ZM87.07,148.12c.3.41,7.49,10.09,22.56,10.09L125,156h0a2.49,2.49,0,0,0,2.14-2.46,16.6,16.6,0,0,0-16.07-16.39v-3.57c-16.33,0-24.25,10.67-24.58,11.12l2.63,1.91Zm30.51-.49a6.17,6.17,0,0,0-1.64-4.18,11.49,11.49,0,0,1,6,7.94l-6.6,1A6.2,6.2,0,0,0,117.58,147.62Zm-11.84-3.47a6.14,6.14,0,0,0-1.07,3.47,6.26,6.26,0,0,0,3.36,5.52,24.84,24.84,0,0,1-12.22-3.83A21.18,21.18,0,0,1,105.74,144.16Zm123.1-28c-8.44-46.66-36-58.67-37.15-59.16l-1.16,2.77c.07,0,6.87,3,14.59,11.4,7.13,7.8,16.52,22,20.78,45.53,6.22,34.37,3.76,66.52-.7,124.9-1.54,20.13-3.28,42.94-5,70.08l3,.19c1.71-27.12,3.46-49.92,5-70C232.66,183.23,235.13,150.94,228.84,116.19ZM174.55,242l2,2.22c6.88-6.25,6-20.88,6-21.5l-3,.19C179.57,223,180.38,236.69,174.55,242Zm53.74,64.73,3,.12,3.54-85.58-3-.12Zm12-10.29,3-.42-4-28.44-3,.42ZM70.57,47l-1.75-1.79c-.6.59-14.8,14.74-21.44,42.4l4.86,1.17c6.28-26.17,19.94-39.87,20.08-40ZM276.15,303.7a101.19,101.19,0,0,0-14.72-7.49l-12.56-46.33-3-152.22v-.17a93.38,93.38,0,0,0-21-54.27L213,28.67a72,72,0,0,0-46.5-26L146.25,0,128.4,2.15A110.39,110.39,0,0,0,66.52,30.6a109,109,0,0,0-33,57.71,502.4,502.4,0,0,0-11.19,103l3.43,77.13L14,318c-2.81,1.29-5.59,2.71-8.32,4.25L0,325.42l4.58,4.66a179.6,179.6,0,0,0,83.84,48.18c2,4,3.72,7.63,5.11,10.8l2.1,4.77,4.68-2.3c1.38-.68,31.93-15.83,44.39-31.46l26.52,8.68,5.51-9a44.68,44.68,0,0,1,9.56-11l23.23,37.66,2.9-11.45c.13-.5,1.08-4.37,2.08-10.65a181.39,181.39,0,0,0,63-53.33l3.25-4.38ZM61.34,318.44l-5.87,1.31,3.62,6s1.09,1.8,2.85,4.77l.7,14C37.35,317.41,47.7,271.8,47.82,271.3l-2.92-.69c-.12.5-10.29,45.19,13.53,73.68-5.71-4.58-12.74-12.32-18.44-25l-2.74,1.23c8.33,18.6,19.33,27,25.72,30.55l.2,3.9a64.77,64.77,0,0,1-19.27-15.44C34.5,328,32.58,317.21,32.57,317.12l-1-6-6.24,2.3,10.4-44L32.28,191.2a492.2,492.2,0,0,1,11-100.8A99,99,0,0,1,73.28,38,100.45,100.45,0,0,1,129.6,12.08l12.16-1.46,1.31,9.18-2.53,11.91c-6.23-.59-23.27-.08-47.11,17.52C77,61.36,66.89,78.71,61,92.68a104.56,104.56,0,0,1,31.33-53L88.89,36C50,71.88,53.27,114.9,53.43,116.71l4.95.25c.08-.42,8.31-41.78,38-63.72,21.76-16.06,37.37-16.95,43.08-16.59l-1.79,8.44A109.28,109.28,0,0,0,75.6,106.88L56.9,155a50.85,50.85,0,0,0-3.47,18.5v95.89h5V173.49a45.87,45.87,0,0,1,3.13-16.68l2.07-5.33L64,199.15v.26a90.53,90.53,0,0,0,3.05,18.38v15.74c0,22.22,6.51,63.6,8.86,77.77a27,27,0,0,1-10.12,6l-5-8.76ZM84.6,143.5l3-.37a14.86,14.86,0,0,1,3.75-11.51l1-.11.22.21.24-.25c3-.3,6-.49,8.93-.49q1.53,0,3,.07a63.6,63.6,0,0,1,19.5,4.27c8.92,3.21,12.11,7.24,11,13.89-.76,4.6-2.85,13.21-8.4,19.29-4.59,5-10.73,7.39-18.25,7-9.7-.48-27.07-5.84-34.54-36.3a4.31,4.31,0,0,1,.55-3.36,4.56,4.56,0,0,1,3-2c2.83-.58,6.13-1.18,9.64-1.69A17.27,17.27,0,0,0,84.6,143.5Zm23.74,37q.91,0,1.81,0c8.27,0,15.12-2.92,20.38-8.69,6.09-6.68,8.6-15.57,9.64-21.85,0-.25.09-.54.13-.87a19.93,19.93,0,0,1,10.95-.16l1.06,20a32.86,32.86,0,0,0,1.74,8.93A60.07,60.07,0,0,1,156.72,189l1,7.07a5,5,0,0,0-8.06,3.08c-.49,1.48-2.58,6.7-7.74,6.7s-6-4-6.08-4.8a2.46,2.46,0,0,0-.2-.75,5,5,0,0,0-10,.13v1.06a5,5,0,0,0,6.84,4.64c1.6,2.49,4.5,4.73,9.43,4.73a12.42,12.42,0,0,0,10.46-6,5,5,0,0,0,7.21-4.47v-.5a4.94,4.94,0,0,0-.07-.66l1.66-.24-1.48-10.45a63.23,63.23,0,0,0-2.8-11.64,29.8,29.8,0,0,1-1.58-8.11l-.24-4.48c3.73,8.26,11.24,16.25,26.33,16.25.72,0,1.47,0,2.23-.06,14.52-.72,24-9,30.05-18.4l-3.46,38.14a77.94,77.94,0,0,1-9.7,31.42l-12.85,23-3.93,7c-6.36,11.4-19.32,18.49-33,18L128.1,279a32.13,32.13,0,0,1-26.85-15.7l-16.59-29A81.89,81.89,0,0,1,74,198.94l-.36-45.44C79.06,165.66,89.36,179.57,108.34,180.51Zm75.92-37.19a20.51,20.51,0,0,1,9.91,5.59A24.36,24.36,0,0,1,182.87,153a6.25,6.25,0,0,0,3.15-5.4A6.17,6.17,0,0,0,184.26,143.32Zm-6-10.72v4.54a16.6,16.6,0,0,0-16.08,16.39l2.14,2.47,15.06,2.18.36,0c15.07,0,22.26-9.68,22.56-10.09l-2.75-2,3.3-2.39s-.16-.21-.36-.46l3.5.19a18.26,18.26,0,0,0-3.45-11.59c3,.38,5.85.85,8.35,1.3-.06,6.11-.39,12.93-1.05,20.62l2.93.25c-8.94,18.16-22.82,21.16-29.39,21.48-18.63.92-24.67-11.65-26.43-22.36a16.31,16.31,0,0,1,10.8-17.84,63.63,63.63,0,0,1,19.5-4.27,71.45,71.45,0,0,1,7.77.09c.42.33.83.68,1.22,1A14.49,14.49,0,0,1,201,141.6,31.69,31.69,0,0,0,178.28,132.59Zm-2.68,20-8.19-1.19a11.61,11.61,0,0,1,8.38-8.86,6.18,6.18,0,0,0-.19,10Zm37.25,1.31c.64-7.47,1-14.14,1-20.15,1.46.29,2.73.56,3.71.79a1.29,1.29,0,0,1,1,1.48A73.16,73.16,0,0,1,212.84,153.88ZM76.67,251.44,80.34,294a48.25,48.25,0,0,0,1.61,8,22.34,22.34,0,0,1-3.45,6.42c-2.59-15.89-8.43-54-8.43-74.91v-6.65c.21.55.44,1.1.66,1.65ZM70,143.54l-3.33,0,2.23-5.73a9.39,9.39,0,0,0,.26,2.57C69.42,141.35,69.7,142.41,70,143.54Zm30.54,236.61-1.65-3.21c-4.32-8.89-10.1-19.76-17.29-32.45C77.39,337,73.52,330.4,70.93,326a35,35,0,0,0,15.68-11.76c6.66,13.68,20.26,31.17,48,42.22C126,365.49,110.18,375,100.56,380.15Zm83.69-42.37a54.93,54.93,0,0,0-16,16.74l-1.39,2.27-22.4-7.33-.06,0c-49.7-16.62-53.9-54.72-54.05-56.31l-2.93-33.91,4,7c.71,6.49,1.56,14.16,2,17.88,1.68,14.59,10.2,19.7,10.56,19.91l1.51-2.59c-.31-.18-7.6-4.65-9.1-17.66-.3-2.57-.79-7-1.31-11.69a42.49,42.49,0,0,0,32.74,17l22.66.75,1.55,0a46.77,46.77,0,0,0,38.46-19.94l-5.54,57.67a2.5,2.5,0,0,0,2.25,2.73h.24a2.5,2.5,0,0,0,2.49-2.26l6.59-68.54,2.28-4.08a105.35,105.35,0,0,0,3.68,25l-.51,2.28-.06.28h0l-6.45,28.76-.1.66C194.26,324.37,186.1,335.41,184.25,337.77Zm22.52-1.1c-.07,4.83-.33,9.36-.68,13.45-.3,2.92-.69,6.19-1.16,9.74l-11.17-18.11c3.58-5,10.3-15.9,11.48-28.23l.21-.94a167.3,167.3,0,0,1,1.34,21.79l-.21.17Zm1.83-87-.41-11.26,1.07-1.91q1.07-1.92,2-3.88Q210.15,240.77,208.6,249.72Zm8.09,76.63a158.55,158.55,0,0,0-5.52-35.91l-.8.22,1.32-5.87c19.7-85.63,13-129.47,12.67-131.3l-6.13.22A80.7,80.7,0,0,0,223.55,137a6.26,6.26,0,0,0-4.86-7.33c-1.37-.31-3-.65-4.8-1-.33-26.51-6-38.76-11.67-48.18l-1-.7c-19.66-4.27-24.77-10.14-24.82-10.2l-2.33,1.89c.22.27,5.46,6.56,25.87,11.1,5.27,8.94,10.51,20.69,10.91,45.53a141.47,141.47,0,0,0-14.1-1.83,28.75,28.75,0,0,0-15-5L166,122.48l.39,5,15.31-1.21c.43,0,.85.08,1.28.13a70.77,70.77,0,0,0-16.92,4.23,21.75,21.75,0,0,0-11.18,9.05c-.38-.13-.76-.25-1.14-.35l-.12-2.32-3,.16.08,1.49a30.7,30.7,0,0,0-12.33.67c-2-3.1-5.68-6.26-12.46-8.7A68.06,68.06,0,0,0,105,126c-1.29-.06-2.61-.08-3.95-.07a23,23,0,0,1,7.3-1.15l20.31,3.07.75-4.94-20.5-3.1-.37,0c-7.25,0-13,2.19-18,6.85-5.1.58-10,1.45-13.94,2.26a9.53,9.53,0,0,0-5.43,3.22l9.12-23.46a104.31,104.31,0,0,1,60.48-59.4l1.56-1.82,5.75-27.07,0-.87-1.34-9.37,1.54.21,1.45,10.44L145.2,49.5l.64,1.47c.22.15,22.82,15.39,56,25.08l.84-2.88A219.64,219.64,0,0,1,148.32,49l4.41-28V20.6l-1.36-9.83,13.84,1.85A62,62,0,0,1,205.27,35L217.1,49.53a83.44,83.44,0,0,1,18.74,48.41l3,152.75v.61l12.67,46.75Z" style="fill:#2724ad"/></g></g></svg>