<svg xmlns="http://www.w3.org/2000/svg" viewBox="0 0 279.19 393.83"><title>Собчак-2</title><g id="Layer_2" data-name="Layer 2"><g id="Layer_1-2" data-name="Layer 1"><path d="M121.11,228.55l16.41.59,3.81,2.73,1.08.27,10.82-1.5-.41-3-10.22,1.42-3.69-2.65-.82-.28-11.79-.42c2.93-1.33,6.76-2.79,9.76-3,2.29,2.7,7.82,3.86,11.64,3a6.24,6.24,0,0,0,3.58-2c2.16.28,6.31,1,7.75,1.23l6.86,4.49-10.46,7.17-24.77,1,.12,3,25.2-1,.79-.26,11.84-8.11,5.32,3.48,2.74-4.18-15.33-10-.94-.37c-.29-.05-7.09-1.23-9.36-1.45l-2.49-.25-.4,4a5.16,5.16,0,0,1-1.08.35c-3.4.74-8.06-.74-8.92-2.35l-1.32-.79c-6.35,0-16,5.43-16.45,5.66l-6,4.76,1.86,2.35Zm3.76-30,.23-.79c0-7.88,4.28-10.32,4.46-10.42l-.71-1.32-.69-1.33c-.24.13-5.89,3.19-6.06,12.63-1.39,2.24-3.47,5.69-6.18,10.26l2.58,1.53C121.35,204.28,123.5,200.73,124.87,198.53ZM88.15,148.12c.3.41,7.49,10.09,22.56,10.09L126.13,156h0a2.49,2.49,0,0,0,2.14-2.46,16.6,16.6,0,0,0-16.07-16.39v-3.57c-16.33,0-24.25,10.67-24.58,11.12l2.63,1.91Zm29.76-1a6.17,6.17,0,0,0-1.64-4.18c3.09,1.6,6.11,5,6.78,8.42l-7.79,1A6.2,6.2,0,0,0,117.91,147.15Zm-11.1-3a6.14,6.14,0,0,0-1.07,3.47,6.26,6.26,0,0,0,3.36,5.52,24.84,24.84,0,0,1-12.22-3.83A21.17,21.17,0,0,1,106.82,144.16Zm123.1-28c-8.44-46.66-36-58.67-37.15-59.16l-1.16,2.77c.07,0,6.87,3,14.59,11.4,7.13,7.8,16.52,22,20.78,45.53,6.22,34.37,3.76,66.52-.7,124.9-1.54,20.13-3.28,42.94-5,70.08l3,.19c1.71-27.12,3.46-49.92,5-70C233.74,183.23,236.21,150.94,229.92,116.19ZM179.73,238.66c3.27-3,3-9.42,2.91-10v-3.06h-3v3.16c.09,1.47-.06,6-1.93,7.73Zm49.64,68,3,.12,3.54-85.58-3-.12Zm12-10.29,3-.42-4-28.44-3,.42ZM73.4,48.73,71.65,47,69.9,45.17c-.6.59-14.8,14.74-21.44,42.4l4.86,1.17C59.61,62.56,73.26,48.87,73.4,48.73ZM262.51,296.2,250,249.87l-3-152.22v-.17a93.37,93.37,0,0,0-21-54.27L214.11,28.67a72,72,0,0,0-46.5-26L147.33,0,129.48,2.15A110.39,110.39,0,0,0,67.6,30.6a109,109,0,0,0-33,57.71,502.34,502.34,0,0,0-11.19,103l3.43,77.13L15.09,318A110.77,110.77,0,0,0,0,326.31a174.9,174.9,0,0,0,90.93,54.85c1.4,2.87,2.63,5.52,3.69,7.91l2.1,4.77,4.68-2.3c1.38-.68,31.93-15.83,44.39-31.46l26.52,8.68,5.51-9a44.68,44.68,0,0,1,9.56-11l23.23,37.66,2.9-11.45c.13-.5,1.06-4.29,2-10.45a175.82,175.82,0,0,0,63.64-59.55A100.85,100.85,0,0,0,262.51,296.2ZM45,339.49C35.59,328,33.66,317.2,33.65,317.12L27,313.22l-.54.2,10.4-44L33.36,191.2a492.18,492.18,0,0,1,11-100.8A99,99,0,0,1,74.36,38a100.45,100.45,0,0,1,56.31-25.88l12.16-1.46,1.31,9.18-2.53,11.91c-6.23-.59-23.27-.08-47.11,17.52C78.08,61.36,68,78.7,62,92.68a104.56,104.56,0,0,1,31.33-53L90,36C51.12,71.88,54.36,114.9,54.51,116.71l4.95.26c.08-.42,8.36-41.81,38-63.72,21.76-16.07,37.37-16.95,43.08-16.59l-1.79,8.44a109.28,109.28,0,0,0-62.09,61.77L58,155a50.83,50.83,0,0,0-3.48,18.5v95.89h5V173.49a45.85,45.85,0,0,1,3.14-16.68l2.07-5.33.38,47.68v.26a90.53,90.53,0,0,0,3.05,18.38v15.74c0,22.22,6.51,63.6,8.86,77.77a28.3,28.3,0,0,1-13.65,6.94l-6.8,1.52,3.62,6s1.09,1.8,2.85,4.77l.7,14C38.43,317.41,48.78,271.8,48.9,271.3L46,270.61c-.12.5-10.3,45.24,13.57,73.73C54.3,340.13,47,332.43,41.07,319.25l-2.74,1.23c8.33,18.6,19.33,27,25.72,30.55l.19,3.89A65,65,0,0,1,45,339.49Zm48.89-208c3-.3,6-.49,8.93-.49,1,0,2,0,3,.07a63.53,63.53,0,0,1,19.5,4.27c8.92,3.21,12.11,7.24,11,13.89-.76,4.6-2.85,13.21-8.4,19.29-4.59,5-10.73,7.4-18.25,7-9.69-.48-27.07-5.84-34.54-36.3a4.32,4.32,0,0,1,.55-3.36,4.57,4.57,0,0,1,3-2c2.83-.58,6.13-1.18,9.64-1.69a17.27,17.27,0,0,0-2.61,11.35l3-.37a14.86,14.86,0,0,1,3.75-11.51l1-.11Zm15.56,49.05q.91,0,1.81,0c8.27,0,15.12-2.92,20.38-8.69,6.09-6.68,8.6-15.57,9.64-21.85,0-.25.09-.54.13-.87a19.92,19.92,0,0,1,11-.16l1.06,20a32.82,32.82,0,0,0,1.67,8.74,59.12,59.12,0,0,1,2.63,10.54l1.11,7.8a7,7,0,0,0-3.14-.62,4.49,4.49,0,0,0-4.43,3.81c-.45,1.38-3.08,6.59-8.24,6.59-5.32,0-6.52-4.08-6.59-4.81a2.21,2.21,0,0,0-.18-.68,4.49,4.49,0,0,0-5-4.36,4.63,4.63,0,0,0-4,4.66v.5a4.71,4.71,0,0,0,3.73,4.69,4.4,4.4,0,0,0,2.43-.25,11.48,11.48,0,0,0,9.61,5.25c5,0,8.84-3.67,10.68-6.43a4.38,4.38,0,0,0,2.51.45,4.7,4.7,0,0,0,4-4.73v-.19a4.45,4.45,0,0,0-.06-.59h0a2.19,2.19,0,0,0,1.84-2.48l-1.18-8.3a63.27,63.27,0,0,0-2.8-11.64,29.77,29.77,0,0,1-1.58-8.11l-.24-4.48c3.73,8.26,11.24,16.24,26.33,16.24.72,0,1.47,0,2.23-.06,14.52-.72,24-9,30.05-18.4l-3.46,38.14a77.94,77.94,0,0,1-9.7,31.42l-12.85,23,4,2.24h0l-4-2.24-3.93,7c-6.36,11.4-19.32,18.5-33,18L129.18,279a32.13,32.13,0,0,1-26.85-15.7l-16.59-29a81.88,81.88,0,0,1-10.65-35.39l-.36-45.44C80.14,165.66,90.44,179.57,109.42,180.51Zm75.92-37.19a20.51,20.51,0,0,1,9.91,5.59A24.36,24.36,0,0,1,183.95,153a6.25,6.25,0,0,0,3.15-5.4A6.17,6.17,0,0,0,185.34,143.32Zm-6-10.72v4.54a16.6,16.6,0,0,0-16.08,16.39l2.14,2.47,15.06,2.18.36,0c15.07,0,22.26-9.68,22.56-10.09l-2.75-2,3.3-2.39s-.16-.21-.36-.46l3.5.19a18.26,18.26,0,0,0-3.45-11.59c3,.38,5.85.85,8.35,1.3-.06,6.11-.39,12.94-1.06,20.63l2.93.25c-8.94,18.16-22.82,21.16-29.39,21.48-18.64.92-24.67-11.65-26.43-22.36a16.31,16.31,0,0,1,10.8-17.84,63.5,63.5,0,0,1,19.5-4.27,71,71,0,0,1,7.76.09c.42.34.84.68,1.22,1a14.49,14.49,0,0,1,4.75,9.42A31.7,31.7,0,0,0,179.36,132.59Zm-2.68,20-8.19-1.19a11.61,11.61,0,0,1,8.38-8.86,6.18,6.18,0,0,0-.19,10Zm37.25,1.31c.64-7.47,1-14.14,1-20.15,1.46.29,2.73.57,3.71.79a1.29,1.29,0,0,1,1,1.48A73.15,73.15,0,0,1,213.92,153.88ZM77.75,251.44,81.42,294A48.25,48.25,0,0,0,83,302a22.34,22.34,0,0,1-3.45,6.42c-2.59-15.89-8.43-54-8.43-74.91v-6.65c.21.55.44,1.1.66,1.65Zm-6.64-107.9-3.32,0L70,137.84a9.38,9.38,0,0,0,.26,2.57C70.5,141.35,70.78,142.41,71.11,143.54Zm30.45,236.66c-4.44-9.45-10.77-21.43-18.85-35.7C78.47,337,74.6,330.4,72,326a35,35,0,0,0,15.68-11.76c6.66,13.68,20.26,31.18,48,42.22C127.07,365.51,111.16,375.05,101.56,380.19Zm83.78-42.42a54.92,54.92,0,0,0-16,16.74l-1.39,2.27-22.39-7.33-.06,0c-49.7-16.62-53.9-54.72-54.05-56.31l-2.93-33.91,4,7c.71,6.49,1.56,14.16,2,17.88,1.69,14.59,10.2,19.7,10.56,19.91l1.51-2.59c-.31-.18-7.59-4.65-9.1-17.66-.3-2.57-.79-7-1.31-11.69a42.49,42.49,0,0,0,32.74,17l22.66.75,1.55,0a46.78,46.78,0,0,0,38.46-19.94L186,327.52a2.5,2.5,0,0,0,2.25,2.73h.24A2.5,2.5,0,0,0,191,328l6.59-68.54,2.28-4.08a105.35,105.35,0,0,0,3.68,25l-7,31.31-.1.66C195.34,324.37,187.19,335.41,185.33,337.77Zm22.52-1.11c-.07,5-.34,9.6-.71,13.78-.33,3.13-.73,6.41-1.13,9.43l-11.18-18.12c3.58-5,10.3-15.9,11.48-28.23l.21-.94a167.31,167.31,0,0,1,1.34,21.8l-.21.17Zm1.83-86.94-.4-11.26,1.07-1.91q1.07-1.92,2-3.88Q211.23,240.77,209.68,249.72Zm8.09,76.63a158.54,158.54,0,0,0-5.52-35.91l-.8.22,1.25-5.58c19.78-85.82,13-129.76,12.73-131.59l-6.13.22A80.7,80.7,0,0,0,224.63,137a6.26,6.26,0,0,0-4.86-7.33c-1.37-.31-3-.65-4.8-1-.33-26.52-6-38.76-11.67-48.18l-1-.7c-19.66-4.27-24.77-10.14-24.82-10.2l-2.33,1.89c.22.27,5.46,6.56,25.87,11.1,5.27,8.94,10.51,20.69,10.91,45.53a141.63,141.63,0,0,0-14.1-1.83,28.75,28.75,0,0,0-15-5l-15.8,1.23.39,5,15.31-1.21c.43,0,.86.08,1.28.13a70.66,70.66,0,0,0-16.92,4.23A21.75,21.75,0,0,0,156,139.67c-.38-.13-.76-.25-1.13-.35L154.7,137l-3,.16.08,1.49a30.71,30.71,0,0,0-12.33.67c-2-3.1-5.68-6.26-12.46-8.7A68,68,0,0,0,106.05,126c-1.29-.06-2.61-.08-3.94-.07a23,23,0,0,1,7.3-1.15l20.31,3.07.75-4.94-20.5-3.1-.37,0c-7.25,0-13,2.19-18,6.85-5.1.58-10,1.45-13.94,2.26a9.54,9.54,0,0,0-5.43,3.22l9.12-23.46a104.31,104.31,0,0,1,60.48-59.4l1.56-1.82,5.75-27.07,0-.87-1.34-9.37,1.54.21,1.45,10.44-4.52,28.7.64,1.47c.22.15,22.82,15.39,56,25.08l.84-2.88A219.61,219.61,0,0,1,149.4,49l4.4-28V20.6l-1.36-9.83,13.84,1.85A62,62,0,0,1,206.35,35l11.83,14.54a83.44,83.44,0,0,1,18.74,48.41l3,152.75v.61l12.67,46.75Z" style="fill:#2724ad"/></g></g></svg>