<svg xmlns="http://www.w3.org/2000/svg" viewBox="0 0 280.4 393.83"><defs><style>.cls-1{fill:#2724ad;}</style></defs><title>Собчак-3</title><g id="Layer_2" data-name="Layer 2"><g id="Layer_1-2" data-name="Layer 1"><path class="cls-1" d="M139.29,232.87l1.08.27,10.82-1.5-.41-3-10.22,1.42-3.69-2.65-.79-.28-13.79-.81A27.06,27.06,0,0,1,134,222.7c2.28,2.71,7.82,3.88,11.65,3a6.24,6.24,0,0,0,3.59-2l.2,0h0c2.24.3,6.12,1,7.5,1.2l7,4.6-6.56,5.06a16,16,0,0,1-9.09,3.4l-13.53.6a15.92,15.92,0,0,1-10.4-3.36l-5.86-4.48-1.82,2.38,5.86,4.48a19.09,19.09,0,0,0,11.56,4l.8,0,13.53-.6a19,19,0,0,0,10.79-4l8.48-6.54,3.65-1a2.5,2.5,0,1,0-1.38-4.81l-3.11.89-7.63-5-.94-.37c-.22,0-5.35-.93-8.24-1.32h-.17a2.53,2.53,0,0,0-2.74,2.28c0,.06,0,.12,0,.18-.15.74-.88,1.26-2.19,1.54-3.39.74-8.06-.74-8.92-2.35l-1.32-.79c-8.42,0-15.69,5-17.58,6.37l-5.45-.32-.18,3,23.9,1.4Zm-16.46-34.34.23-.79c0-7.88,4.28-10.32,4.46-10.42l-1.4-2.65c-.24.13-5.89,3.18-6.06,12.63-1.38,2.22-3.45,5.67-6.18,10.26l2.58,1.53C119.33,204.26,121.47,200.71,122.83,198.53ZM86.12,148.12c.3.41,7.49,10.09,22.56,10.09L124.09,156h0a2.49,2.49,0,0,0,2.14-2.46,16.6,16.6,0,0,0-16.07-16.39v-3.57c-16.33,0-24.26,10.67-24.58,11.12l2.63,1.91ZM121,151.39l-7.81,1.13a6.18,6.18,0,0,0,0-9.83A11.58,11.58,0,0,1,121,151.39Zm-17.43-6.93a6.13,6.13,0,0,0-.88,3.16,6.25,6.25,0,0,0,3.23,5.44,24.59,24.59,0,0,1-11.09-3.75A21,21,0,0,1,103.59,144.46Zm124.29-28.27c-8.44-46.66-36-58.67-37.15-59.16l-1.16,2.77c.07,0,6.87,3,14.59,11.4,7.13,7.79,16.52,22,20.78,45.53,6.22,34.37,3.76,66.52-.7,124.9-1.54,20.13-3.28,42.94-5,70.08l3,.19c1.71-27.12,3.46-49.92,5-70C231.7,183.23,234.17,150.94,227.88,116.19ZM178.25,225.43c.24,1.32.6,5.47-.89,7.19l2.27,2c2.7-3.12,1.7-9,1.59-9.61a12,12,0,0,0-2.32-5.78l-1-1.31-2.4,1.8,1,1.31A9.15,9.15,0,0,1,178.25,225.43Zm-72.41,9.66,2-2.22c-1.49-1.35-1.61-5.08-1.54-6.37v-2.56h-3v2.47C103.28,227,103,232.53,105.84,235.09Zm121.5,71.61,3,.12,3.54-85.58-3-.12Zm12-10.29,3-.42-4-28.44-3,.42ZM71.37,48.73,69.61,47l-1.75-1.79c-.6.59-14.8,14.74-21.44,42.41l4.86,1.17C57.57,62.56,71.23,48.87,71.37,48.73ZM260.47,296.2l-12.55-46.33-3-152.22v-.17a93.38,93.38,0,0,0-21-54.27L212.07,28.67a72,72,0,0,0-46.5-26L145.3,0,127.45,2.15A110.39,110.39,0,0,0,65.56,30.6a109,109,0,0,0-33,57.71,502.41,502.41,0,0,0-11.19,103l3.43,77.14L13.06,318A112.23,112.23,0,0,0,0,325a175,175,0,0,0,88.89,56.13c1.4,2.87,2.63,5.52,3.69,7.91l2.1,4.77,4.68-2.3c1.38-.68,31.93-15.83,44.39-31.46l26.52,8.68,5.51-9a44.66,44.66,0,0,1,9.56-11l23.23,37.66,2.9-11.45c.1-.4.72-2.9,1.47-7a175.79,175.79,0,0,0,67.46-60.79A101.06,101.06,0,0,0,260.47,296.2ZM42.94,339.49C33.55,328,31.63,317.21,31.61,317.12l-6.67-3.9-.54.2,10.4-44L31.33,191.2a492.23,492.23,0,0,1,11-100.8A99,99,0,0,1,72.33,38a100.46,100.46,0,0,1,56.31-25.88l12.16-1.46,1.31,9.18-2.53,11.91c-6.23-.59-23.27-.08-47.11,17.52C76,61.4,65.88,78.81,59.94,92.82A104.51,104.51,0,0,1,91.33,39.68L87.93,36C49.08,71.88,52.32,114.9,52.48,116.71l4.95.25c.08-.42,8.31-41.78,38-63.72,21.76-16.07,37.37-16.95,43.08-16.59l-1.79,8.44a109.28,109.28,0,0,0-62.09,61.77L55.94,155a50.84,50.84,0,0,0-3.48,18.5v95.89h5V173.49A45.86,45.86,0,0,1,60.6,156.8l2.07-5.33.38,47.68v.26a90.53,90.53,0,0,0,3.05,18.38v15.74c0,22.22,6.51,63.6,8.86,77.77a28.3,28.3,0,0,1-13.65,6.94l-6.8,1.51,3.61,6s1.09,1.8,2.86,4.77l.7,14C36.4,317.4,46.75,271.8,46.87,271.3l-2.92-.69c-.12.5-10.3,45.24,13.57,73.73-5.25-4.21-12.58-11.91-18.48-25.09l-2.74,1.23c8.33,18.6,19.33,27,25.72,30.55l.19,3.89A64.94,64.94,0,0,1,42.94,339.49Zm40.7-196,3-.37a14.86,14.86,0,0,1,3.75-11.51l1-.11.23.21.24-.25c3-.3,6-.49,8.93-.49,1,0,2,0,3,.07a63.53,63.53,0,0,1,19.5,4.27c8.92,3.21,12.11,7.24,11,13.89-.76,4.6-2.85,13.21-8.4,19.29-4.59,5-10.73,7.39-18.25,7-9.69-.48-27.07-5.84-34.54-36.3a4.31,4.31,0,0,1,.55-3.36,4.56,4.56,0,0,1,3-2c2.83-.58,6.14-1.18,9.64-1.69A17.27,17.27,0,0,0,83.64,143.5Zm23.74,37q.91,0,1.81,0c8.27,0,15.12-2.92,20.38-8.69,6.09-6.68,8.6-15.57,9.64-21.85,0-.25.09-.55.13-.87A20,20,0,0,1,150.3,149l1.06,20a32.81,32.81,0,0,0,1.74,8.93A60.2,60.2,0,0,1,155.77,189l.69,7.48a4.46,4.46,0,0,0-7.26,2.77c-.44,1.33-3.07,6.6-8.24,6.6a6.45,6.45,0,0,1-6.78-5.49,4.49,4.49,0,0,0-5-4.36,4.63,4.63,0,0,0-4,4.66v.51a4.7,4.7,0,0,0,3.73,4.69c.87.16,1.79.59,2.61.27,1.6,2.49,4.5,4.73,9.43,4.73s8.84-3.67,10.68-6.43a4.38,4.38,0,0,0,2.51.45,4.7,4.7,0,0,0,4-4.73v-.19a4.44,4.44,0,0,0-.06-.59h0a2.19,2.19,0,0,0,1.84-2.48l-1-7.14A67,67,0,0,0,156,177a29.76,29.76,0,0,1-1.62-8.24l-.24-4.48c3.73,8.26,11.24,16.25,26.33,16.25.72,0,1.47,0,2.23-.06,14.52-.72,24-9,30.05-18.4l-3.46,38.14a77.93,77.93,0,0,1-9.7,31.42l-12.85,23-3.93,7c-6.36,11.4-19.29,18.47-33,18L127.15,279a32.14,32.14,0,0,1-26.85-15.7l-16.59-29a81.89,81.89,0,0,1-10.65-35.39l-.36-45.44C78.1,165.66,88.41,179.57,107.39,180.51Zm75.92-37.19a20.51,20.51,0,0,1,9.91,5.59A24.35,24.35,0,0,1,181.91,153a6.25,6.25,0,0,0,3.15-5.4A6.17,6.17,0,0,0,183.3,143.32Zm-6-10.72v4.54a16.6,16.6,0,0,0-16.08,16.39l2.14,2.47,15.06,2.18.36,0c15.07,0,22.26-9.68,22.56-10.09l-2.76-2,3.3-2.39s-.16-.21-.36-.46l3.5.19a18.26,18.26,0,0,0-3.46-11.6c3,.38,5.85.85,8.35,1.31-.06,6.11-.39,12.94-1.05,20.63l2.93.25c-8.94,18.16-22.82,21.16-29.39,21.48-18.64.92-24.67-11.65-26.43-22.36a16.31,16.31,0,0,1,10.8-17.84,63.5,63.5,0,0,1,19.5-4.27,70.75,70.75,0,0,1,7.76.09c.42.34.84.68,1.23,1a14.49,14.49,0,0,1,4.76,9.42A31.7,31.7,0,0,0,177.32,132.59Zm-2.68,20-8.19-1.19a11.61,11.61,0,0,1,8.38-8.86,6.18,6.18,0,0,0-.19,10Zm37.25,1.31c.64-7.47,1-14.14,1-20.15,1.46.29,2.73.57,3.71.79a1.29,1.29,0,0,1,1,1.48A73.17,73.17,0,0,1,211.89,153.88ZM75.71,251.43,79.39,294A48.23,48.23,0,0,0,81,302a22.34,22.34,0,0,1-3.45,6.42c-2.59-15.89-8.43-54-8.43-74.91v-6.65c.21.55.44,1.1.66,1.65Zm-6.64-107.9-3.32,0L68,137.84a9.39,9.39,0,0,0,.26,2.57C68.47,141.35,68.75,142.41,69.07,143.54ZM99.52,380.19c-4.44-9.45-10.76-21.42-18.85-35.7C76.44,337,72.57,330.4,70,326a35,35,0,0,0,15.68-11.76c6.66,13.68,20.26,31.18,48,42.22C125,365.51,109.13,375.05,99.52,380.19Zm83.78-42.42a55,55,0,0,0-16,16.74l-1.39,2.27-22.44-7.34h0c-49.7-16.62-53.9-54.72-54.05-56.31l-2.93-33.91,4,7c.71,6.49,1.56,14.16,2,17.88,1.68,14.59,10.2,19.7,10.56,19.91l1.51-2.59c-.31-.18-7.6-4.65-9.1-17.66-.3-2.57-.79-7-1.31-11.69a42.49,42.49,0,0,0,32.74,17l.17-5-.16,5,22.66.75,1.55,0a46.78,46.78,0,0,0,38.47-19.94L184,327.52a2.5,2.5,0,0,0,2.25,2.73h.24a2.5,2.5,0,0,0,2.49-2.26l6.58-68.54,2.28-4.08a105.38,105.38,0,0,0,3.68,25l-7,31.31-.1.66C193.3,324.37,185.15,335.41,183.3,337.77Zm22.52-1.11c-.07,5-.34,9.58-.7,13.75-.33,3.14-.73,6.42-1.13,9.45l-11.18-18.12c3.58-5,10.3-15.9,11.48-28.23l.21-.94a167.35,167.35,0,0,1,1.34,21.79l-.21.17Zm1.83-87-.4-11.24,1.07-1.91q1.07-1.92,2-3.87Q209.2,240.73,207.64,249.7Zm8.09,76.65a158.54,158.54,0,0,0-5.52-35.91l-.8.22,1.25-5.58c19.78-85.82,13-129.76,12.73-131.59l-6.13.22A80.7,80.7,0,0,0,222.59,137a6.26,6.26,0,0,0-4.86-7.34c-1.37-.31-3-.65-4.8-1-.33-26.52-6-38.76-11.67-48.18l-1-.7c-19.66-4.27-24.77-10.14-24.82-10.2l-2.33,1.89c.22.27,5.46,6.56,25.87,11.1,5.27,8.94,10.51,20.69,10.91,45.53a141.65,141.65,0,0,0-14.1-1.83,28.76,28.76,0,0,0-15-5L165,122.48l.39,5,15.31-1.21c.43,0,.85.08,1.28.13a70.66,70.66,0,0,0-16.92,4.23,21.75,21.75,0,0,0-11.18,9.05c-.38-.13-.76-.25-1.14-.35l-.12-2.32-3,.16.08,1.49a30.73,30.73,0,0,0-12.33.67c-2-3.1-5.68-6.26-12.46-8.7A68,68,0,0,0,104,126c-1.29-.06-2.61-.08-4-.07a23,23,0,0,1,7.31-1.15l20.31,3.07.75-4.94-20.5-3.1-.37,0c-7.26,0-13,2.19-18,6.85-5.09.58-10,1.44-13.93,2.25a9.53,9.53,0,0,0-5.43,3.22l9.12-23.46a104.32,104.32,0,0,1,60.48-59.4l1.56-1.82L147.1,20.4l0-.87-1.34-9.37,1.54.21,1.45,10.43-4.52,28.7.64,1.47c.22.15,22.82,15.39,56,25.08l.84-2.88A219.59,219.59,0,0,1,147.36,49l4.4-28V20.6l-1.36-9.83,13.84,1.85A62,62,0,0,1,204.31,35l11.83,14.54a83.44,83.44,0,0,1,18.74,48.41l3,152.75v.61l12.67,46.75Z"/></g></g></svg>