<svg xmlns="http://www.w3.org/2000/svg" viewBox="0 0 303.56 399.79"><title>Сурайкин-Борода</title><g id="Layer_2" data-name="Layer 2"><g id="Layer_1-2" data-name="Layer 1"><path d="M116.59,136.7l.37-5-33-2.46-.8.07-9.74,2.46-1.32.83-6.35,7.7,3.86,3.18,5.83-7.07,8.55-2.16ZM101.1,55.47,93.42,44.79,91,46.54l7.68,10.68ZM120.36,138l-4,3,2.44,3.28-8-4.53-1.51-.31-14,1.6a12.47,12.47,0,0,0-9,5.47l-5.81,8.69L84.59,158l1.31-2,5.24,1.2a34.51,34.51,0,0,0,13.63.34l-8.09,3.72-6.84-1.79-.76,2.9,7.35,1.92,1-.09,19.64-9-.63-1.36-.27-1.47-10.26,1.91a7,7,0,0,0,1.06-9.54l2-.23,8.48,4.78.47,3.25,3-.43c-1.73,11.52-12.54,15.57-13,15.74l.51,1.41.5,1.41c.13,0,10.35-3.82,14-14.1v9.16h5v-16.8l-.5-1.49ZM91.8,154.27l-4.12-.94,2.72-4.06a7.47,7.47,0,0,1,4.54-3.13,7,7,0,0,0,3,8.9A31.44,31.44,0,0,1,91.8,154.27Zm107.67-27.94-14-3h-1l-31.35,5.93.24,1.24-.08,0-3.58,8.56-5-6.11-3.88,3.16,4,4.9L143,151.19l0,1,5.06,21.8,4.87-1.13L148,151.57l.43-2.41,6.69,2.8,4-9.6,2.15,2.66,7.15-5.77,2.05-.13a7,7,0,0,0,2.73,9.2l-6.35-.3-.1,2-3.33-1.65-1.33,2.69,10.93,5.41.81.15,11.9-1.2-.3-3L174,153.62,169,151.11l4.27.2q.79,0,1.58,0a34.67,34.67,0,0,0,13.53-2.76l4.94-2.11,1.63,1.69,3.6-3.47-7.26-7.52a12.48,12.48,0,0,0-9.79-3.79l.16,2.5-.16-2.5-14.09.91-1.41.55-5.5,4.44,2.07-4.95-2.88-1.21,25.29-4.79,12.95,2.75,6.76,5.09,3-4-7.2-5.43ZM183.7,141a7,7,0,0,0-1.06-2.64,7.48,7.48,0,0,1,5,2.28l3.4,3.52-3.89,1.66a31.45,31.45,0,0,1-5.92,1.84A7,7,0,0,0,183.7,141ZM106,52.08,98,41.46l-2.4,1.8,8,10.63Zm9.22,3.51L114.1,42.93l-3,.26,1.09,12.67Zm5.83-.7-1.09-12.67-3,.26L118,55.15Zm76.67,13.58,4.64-1.86C192.9,43,171.79,32.41,170.89,32l-2.21,4.48C168.88,36.56,189,46.67,197.69,68.48Zm-33.83-22,1.57-9.71-4.94-.8-1.28,7.95-3.94.68,2.59-14.17-3-.54-2.78,15.25-3,.52,2.72-16.41-3-.49L146,46.17l-2.82.49,1.36-7.47-3-.54L140,47.2l-2.84.49,1.38-7.55-3-.54L134,48.23l-1.79.31.85,4.93,28.75-5Zm92.4,226.9-14.6-15c0-.12,0-.24,0-.36l-4.75-4.54-.12-.13a1,1,0,0,1,.49.15c-1.84-1.39-3.33-9.79-3.53-18.72,0-1.44,0-2.94,0-4.5.71-2.08,1.35-4.2,1.91-6.39.36-1.41.67-2.77,1-4.1,1.73-7.82,2.39-14.46,2-19.76l0-3.12.35.11a9.88,9.88,0,0,0,12.06-6.6l7.52-24a71.4,71.4,0,0,0,3.09-26.58l-.57-7.87a13.33,13.33,0,0,0-15.42-12.19,9.65,9.65,0,0,0-3.52,1.25c0-.47.06-.86.07-1.17.68-15-1.2-35.66-3.27-43.36a101.57,101.57,0,0,0-47-61.87,88.52,88.52,0,0,0-19.1-8.72l-6-1.77a100,100,0,0,0-61.25,1.56A98.59,98.59,0,0,0,44.52,66.44l-.11.32a82.61,82.61,0,0,0-3.55,40.58l3.57,21.72-.52.62c-.2,0-.39-.08-.6-.1-.36,0-.72-.05-1.09-.05a10.83,10.83,0,0,0-9,4.78A30.91,30.91,0,0,0,29.8,162l10.45,29a10.8,10.8,0,0,0,2.35,3.81l12.75,13.37,4.39,20.75a66.15,66.15,0,0,0,15.35,30.4l1.12,2L61,280.59l-28.73,8.83-.23.08L0,302.94a175.55,175.55,0,0,0,87.48,70.68L91,362.49c7.79-1.5,16.64-6,25.2-10.38,3.76-1.92,7.55-3.85,11.23-5.52l15.42,29.13-7.21,24.07,33.24-7.88L165,380.4l11.34-32L216,365.24l-.32,5.44a175.67,175.67,0,0,0,87.88-81.4Zm-14.43-111,6.12-7.91-8.55-6.62.16-1.5,7.48-9a1.76,1.76,0,0,1,2.28-.37,1.74,1.74,0,0,1,.82,1.49v11.19a43.32,43.32,0,0,1-1.82,12.44l-4.61,8.7,4.42,2.34,4.72-8.91a2.49,2.49,0,0,0,.18-.44,48.31,48.31,0,0,0,2.11-14.13V138.46a6.76,6.76,0,0,0-12-4.32l-2.3,2.77,1.25-8.56c1.4-2.5,2.28-3.4,4.25-3.72a8.33,8.33,0,0,1,9.63,7.62l.57,7.87a66.42,66.42,0,0,1-2.87,24.73l-7.52,24a4.88,4.88,0,0,1-7.66,2.42L238.4,161v-1.31Zm-9.7-56.58L217.11,89l-1.6-5.1L232,101.73C232,103.09,232.09,104.45,232.15,105.8ZM72.57,38.71,81,41.41c-1,1.17-2.34,2.73-3.79,4.64l-10.3-.5A88.32,88.32,0,0,1,72.57,38.71ZM53.84,70.07l.11-.32A89.62,89.62,0,0,1,64.78,48.46l10.29.5q-.83,1.2-1.68,2.53L53.08,72.38Q53.44,71.22,53.84,70.07Zm-2.34,8.24L68,61.31a75.86,75.86,0,0,0-3.55,9.25l-11,11.56,2.18,2.06,7.21-7.6q-.46,2.13-.8,4.36L49.78,94.27A72.73,72.73,0,0,1,51.51,78.31ZM49.84,187.89a.85.85,0,0,1-.19-.3l-10.45-29a20.87,20.87,0,0,1,2.32-18.69.65.65,0,0,1,1.21,0l1.42,4.54-4.45,10,4.56,2,2.15-4.8,1.73,5.51L49.81,182l1.4,6.6h0l.2,1Zm2.73-70.94,8.36-9.65-.49,2.53-7.55,9.07Zm1,5.87,5.74-6.9-3.71,19.31ZM111.61,343.2c-5.37,2.74-10.86,5.54-15.83,7.45,1.34-15.55.72-39.9,0-56.8a198.66,198.66,0,0,0,37.25,39.8C126.09,335.82,118.78,339.54,111.61,343.2Zm38.53-9.2A188.14,188.14,0,0,1,96.3,276.3l.91.63c7.33,5.11,17.74,8.3,27.25,9.8a78.9,78.9,0,0,0,12,1h.2l24.61-2,.31,0A59.08,59.08,0,0,0,169,284c24.26-6.83,42-17.57,53.48-32.54A96.13,96.13,0,0,1,218,268.33l-2.65,7.51Zm-32.62-98.94,2.55-3c.21,0,.43,0,.64,0a8,8,0,0,0,1.54-.15l10.14-2a2.91,2.91,0,0,1,1,0l5.35.77a10.9,10.9,0,0,0,5-.46l5.75-1.94a3.52,3.52,0,0,1,2.21,0l3.44,1.1a8.49,8.49,0,0,0,3.32.38l10.48-.88,1.9,1.82-3.65,2.28-1.07.67L159.06,238l-3.43.25-26.32,1.89Zm113.43,50c-3.29,23.54-12,56.28-15.48,69.1l-49.36-21L223,282.44l1.39-2.07,3.08-8.72c1.35-3.84,2.43-7.32,3.28-10.64a10.1,10.1,0,0,0,1.14.86A126.3,126.3,0,0,1,230.95,285.06Zm.28-155.22-.21,2.11-3-3.84-.41-2.69Zm-4.55-10.15-.44-2.86,5.61,6.48c-.06.71-.14,1.5-.22,2.34Zm5.49-.59-6.78-7.82-.91-6-3.77.58-4.59-5.3-2.27,2,6.26,7.22.38,2.5-2.31-2.77-2.31,1.92,5.49,6.6,3.11,20.35,4.94-.75-.54-3.51,1.7,2.14c-.74,7.11-1.57,14.87-2.16,20.2-3.67,20.72-9.07,45-11.75,49.94-6,2.71-23.77,11.59-25.15,12.28l-1.72.8L175,208l-1-.25c-1.53-.38-9.35-2.26-13.26-2.26h-8.26l.11-.07,2.65-3.52,10.7-4.29,1.57-2.25v-.19l7.63,7,3.38-3.68-10.82-9.93,0-1.66-.94-2L158.19,178l-3.12,3.9,7.62,6.09-.16,5.58-9.83,3.94-1.07.82-2.51,3.33-9.72,2.09a9.07,9.07,0,0,1-6.48-1.84l-.89-.68-1.52-.52h-7.79l-7.07-7.61-3.22-.38A41.67,41.67,0,0,0,99.1,209.49l4.56,2a38.73,38.73,0,0,1,9.9-13.32l6.25,6.72,1.83.8h8l.21.16c.27.21.56.4.85.59l-9.7.9-.37,0c-6.35,1.08-15.33,5.79-16.33,6.33l-.57.3L90.19,226.62c-10-1-22.92-23.65-29.29-40.5l-1.17-5.52-2-30.16,8.8-45.8,0-8.72h-5v6l-9.64,11.12-1.18-7.23L65.18,89.77l-2.23-2L50.22,102q-.19-1.71-.3-3.43L62.07,85.4l4.5.37C68.47,62.59,82.87,46.53,86.2,43.1l.86.28L88,40.52l-13.1-4.22a88.22,88.22,0,0,1,8.48-7.48L92.67,38.9l2.2-2L85.78,27q1.84-1.33,3.75-2.56l7.41,10.62,2.46-1.72-7.32-10.5q1.95-1.17,4-2.24l6.68,10.87,2.56-1.57L98.72,19.25q1.86-.91,3.78-1.74l5.22,11,2.71-1.29-5.15-10.87c1.15-.45,2.3-.89,3.47-1.3a90.79,90.79,0,0,1,20.51-4.58l-2.14,9.64,2.93.65,2.35-10.56c1.07-.07,2.13-.12,3.2-.16L133,21.45l2.93.65L138.66,10q2.86,0,5.71.19L142,22.81l2.95.55,2.39-12.9c1.48.15,2.95.34,4.42.56l-.89,5.39,3,.49.89-5.39a91.65,91.65,0,0,1,9.14,2.15l6,1.77.73.23-3.89,9.51,2.78,1.14,4-9.67c1.1.42,2.24.9,3.42,1.42l-3.7,6,2.56,1.57,3.88-6.31c1.2.59,2.43,1.23,3.7,1.92l-5,5.62,2.24,2L186,22.75l.76.43A91.66,91.66,0,0,1,202.3,34.57l-4.77,4.17,2,2.26,5-4.37a90.79,90.79,0,0,1,6.64,7.2L196.43,46l.45,3,16.43-2.47a92.56,92.56,0,0,1,14.6,28l-20-20.6L205.74,56,229.6,80.55a138.51,138.51,0,0,1,2,16.42L213.4,77.24l-1.61-5.12,13.89,14.64,2.18-2.06L209.74,65.61l-1.2-3.83-4.77,1.5,10.14,32.26,3.9-1.22,14.47,16.13C232.32,113.47,232.29,116.4,232.18,119.09Z" style="fill:#2724ad"/></g></g></svg>