<svg xmlns="http://www.w3.org/2000/svg" viewBox="0 0 303.56 399.7"><title>Сурайкин</title><g id="Layer_2" data-name="Layer 2"><g id="Layer_1-2" data-name="Layer 1"><path d="M158,224.75a3.45,3.45,0,0,1-1.38-.16l-3.44-1.1a8.48,8.48,0,0,0-5.34,0l-5.75,1.94a5.88,5.88,0,0,1-2.71.25l-5.35-.77a8,8,0,0,0-2.66.07l-10.14,2a3,3,0,0,1-1,0l-16-2.23-.69,5,16,2.23a7.81,7.81,0,0,0,1.1.08,8,8,0,0,0,1.54-.15l10.14-2a3,3,0,0,1,1,0l5.35.77a10.91,10.91,0,0,0,5-.46l5.75-1.94a3.5,3.5,0,0,1,2.22,0l3.44,1.1a8.57,8.57,0,0,0,3.32.38l23.39-2-.42-5Zm-41.45-88,.37-5-33-2.46-.8.07-9.74,2.46-1.32.83-6.35,7.71,3.86,3.18,5.83-7.07,8.55-2.16Zm44.26,102.16a7.51,7.51,0,0,1-4.52,2l-22,1.63a17.4,17.4,0,0,1-9.69-2.11l-8.28-4.55L114,240.18l8.28,4.55a22.36,22.36,0,0,0,10.8,2.78q.83,0,1.67-.06l22-1.63a12.52,12.52,0,0,0,7.55-3.28l5.91-5.47-3.4-3.67Zm-71-79.39-.76,2.9,7.35,1.92,1-.09,19.64-9-.63-1.36-.27-1.47-10.26,1.91a7,7,0,0,0,1.06-9.54l2-.23,8.48,4.78.47,3.25,3-.43c-1.73,11.52-12.54,15.57-13,15.74l.51,1.41.5,1.41c.13,0,10.35-3.82,14-14.1v9.16h5v-16.8l-.5-1.49-7-9.43-4,3,2.44,3.28-8-4.53-1.51-.31-14,1.6a12.47,12.47,0,0,0-9,5.47l-5.81,8.69L84.59,158l1.31-2,5.24,1.2a34.47,34.47,0,0,0,13.63.34l-8.09,3.72Zm2-5.2-4.12-.94,2.72-4.06a7.48,7.48,0,0,1,4.54-3.13,7,7,0,0,0,3,8.9A31.4,31.4,0,0,1,91.8,154.27Zm8.08-95.14a15.05,15.05,0,0,0,6.43,2.64,14.37,14.37,0,0,0,3.74.08l17.87-2-.54-5-17.87,2a9.36,9.36,0,0,1-2.44-.05,9.91,9.91,0,0,1-4.29-1.77,11.61,11.61,0,0,1-2.68-2.69L94.23,44.2l-4.06,2.92L96,55.29A16.58,16.58,0,0,0,99.89,59.14Zm13.67,139.08,6.25,6.72,1.83.8h8l.21.16a14.08,14.08,0,0,0,10.21,2.83l11-2.35,1.47-.94,2.65-3.52,10.7-4.29,1.57-2.25v-.19l7.63,7,3.38-3.68-10.82-9.93,0-1.66-.94-2L158.19,178l-3.12,3.9,7.62,6.09-.16,5.58-9.83,3.94-1.07.82-2.51,3.33-9.72,2.09a9,9,0,0,1-6.48-1.84l-.89-.68-1.52-.52h-7.79l-7.07-7.61-3.22-.38A41.68,41.68,0,0,0,99.1,209.49l4.56,2A38.73,38.73,0,0,1,113.56,198.22Zm-22,23.87,3.94,6.61,4.29-2.56-3.94-6.61Zm107.88-95.76-14-3h-1l-31.35,5.93.23,1.24-.08,0-3.58,8.56-5-6.11-3.88,3.16,4,4.9L143,151.2l0,1,5.06,21.8,4.87-1.13L148,151.57l.43-2.41,6.69,2.8,4-9.6,2.15,2.66,7.15-5.77,2.06-.13a7,7,0,0,0,2.73,9.2l-6.35-.3-.1,2-3.33-1.65-1.33,2.69,10.93,5.41.81.15,11.9-1.2-.3-3L174,153.62,169,151.11l4.27.2q.79,0,1.58,0a34.69,34.69,0,0,0,13.53-2.76l4.94-2.11,1.63,1.69,3.6-3.47-7.26-7.52a12.45,12.45,0,0,0-9.79-3.79l.16,2.5-.16-2.5-14.09.91-1.41.55-5.5,4.44,2.07-4.95-2.88-1.21,25.29-4.78,12.95,2.75,6.76,5.09,3-4-7.2-5.43ZM183.7,141a7,7,0,0,0-1.06-2.64,7.47,7.47,0,0,1,5,2.28l3.4,3.52-3.89,1.66a31.41,31.41,0,0,1-5.92,1.84A7,7,0,0,0,183.7,141ZM106.53,47.38,98.89,37.21l-4,3,7.64,10.17Zm31.41,14.57a17.73,17.73,0,0,0,4.84-1.39,22.93,22.93,0,0,0,9-7.6A32.61,32.61,0,0,0,156,44.8l2.77-7.73-4.71-1.69-2.77,7.73A27.56,27.56,0,0,1,147.75,50a18,18,0,0,1-7,6,12.71,12.71,0,0,1-3.47,1l-7,.95.68,5Zm59.75,6.53,4.64-1.86C192.9,43,171.79,32.41,170.89,32l-2.21,4.48C168.88,36.56,189,46.67,197.69,68.48Zm58.58,204.86-14.6-15c0-.12,0-.24,0-.36l-4.74-4.53-.13-.13a1,1,0,0,1,.49.15c-1.84-1.39-3.33-9.79-3.53-18.72,0-1.44,0-2.94,0-4.5.71-2.08,1.35-4.2,1.91-6.39,2.45-9.63,3.44-17.66,2.93-23.86l0-3.12.35.11a10,10,0,0,0,2.62.35,9.88,9.88,0,0,0,9.43-7l7.52-24a71.4,71.4,0,0,0,3.09-26.58l-.57-7.87a13.33,13.33,0,0,0-15.42-12.19,9.65,9.65,0,0,0-3.52,1.25c0-.47.06-.86.07-1.17.68-15-1.2-35.66-3.27-43.36a101.57,101.57,0,0,0-47-61.87,88.53,88.53,0,0,0-19.1-8.72l-6-1.77a100,100,0,0,0-61.25,1.56A98.6,98.6,0,0,0,44.52,66.44l-.11.32a82.61,82.61,0,0,0-3.54,40.58l3.57,21.72-.52.62c-.2,0-.39-.08-.6-.1-.36,0-.72-.05-1.09-.05a10.83,10.83,0,0,0-9,4.78A30.91,30.91,0,0,0,29.8,162l10.45,29a10.76,10.76,0,0,0,2.35,3.81l12.75,13.37,4.39,20.75a66.15,66.15,0,0,0,15.35,30.4l1.12,2L61,280.59l-28.73,8.83-.23.08L0,302.94a175.55,175.55,0,0,0,87.48,70.68L91,362.49c7.79-1.5,16.64-6,25.2-10.38,3.75-1.92,7.55-3.85,11.23-5.52l15.42,29.13-7.19,24,33.27-7.65L165,380.4l11.34-32L216,365.24l-.32,5.44a175.67,175.67,0,0,0,87.88-81.4Zm-14.43-111,6.12-7.91-8.55-6.62.16-1.5,7.48-9a1.76,1.76,0,0,1,2.28-.37,1.74,1.74,0,0,1,.82,1.49v11.19a43.3,43.3,0,0,1-1.82,12.44l-4.61,8.7,4.42,2.34,4.72-8.91a2.51,2.51,0,0,0,.18-.44,48.31,48.31,0,0,0,2.11-14.13V138.46a6.76,6.76,0,0,0-12-4.31l-2.3,2.77,1.25-8.56c1.4-2.5,2.28-3.4,4.25-3.72a8.33,8.33,0,0,1,9.63,7.62l.57,7.87a66.42,66.42,0,0,1-2.87,24.73l-7.52,24a4.87,4.87,0,0,1-7.66,2.42l-.16-31.6Zm-9.7-56.58L217.11,89l-1.6-5.1L232,101.73C232,103.09,232.09,104.45,232.14,105.8ZM102.25,17.62l1.65,4c-1,.41-2,.84-2.91,1.29l-2.27-3.7Q100.46,18.4,102.25,17.62Zm-6.21,3L98.3,24.3q-1.56.82-3.08,1.73l-2.95-3.29Q94.13,21.64,96,20.62Zm-6.35,3.72,2.95,3.29c-1,.66-2,1.36-3,2.07L86,26.87Q87.8,25.56,89.69,24.34ZM53.84,70.07l.11-.32A89.62,89.62,0,0,1,64.78,48.46l9,.44a52.56,52.56,0,0,0-6.7,6.95A67.49,67.49,0,0,0,62,63.25l-8.87,9.13Q53.44,71.22,53.84,70.07ZM58,93.32,50.22,102q-.19-1.71-.3-3.43l7.43-8Zm-6.46-15,5.65-5.81c-.75,1.69-1.48,3.41-2.16,5.21l-.11,1.42.27,1.25-4.1,4.31,2.18,2.06,2.69-2.83.65,3-6.79,7.35A72.74,72.74,0,0,1,51.51,78.31ZM49.84,187.88a.84.84,0,0,1-.18-.29l-10.45-29a20.88,20.88,0,0,1,2.32-18.69.82.82,0,0,1,.79-.37.84.84,0,0,1,.42.39l1.42,4.54-4.45,10,4.57,2,2.15-4.8,1.73,5.51L49.81,182l1.6,7.55Zm2.73-70.94,8.36-9.65-.49,2.53-7.55,9.07Zm1,5.87,5.74-6.9-3.71,19.31ZM111.61,343.2c-5.37,2.74-10.86,5.54-15.83,7.45,1.34-15.55.72-39.9,0-56.8a198.65,198.65,0,0,0,37.25,39.8C126.09,335.82,118.78,339.54,111.61,343.2Zm38.53-9.2A188.15,188.15,0,0,1,96.3,276.3l.91.63c10.66,7.43,27.84,10.82,39.3,10.82h.2l24.61-2,.31,0A59.1,59.1,0,0,0,169,284c24.26-6.83,42-17.57,53.48-32.54A96.16,96.16,0,0,1,218,268.33l-2.65,7.51Zm80.81-48.95c-3.29,23.54-12,56.28-15.48,69.1l-49.36-21L223,282.44l1.39-2.07,3.08-8.72c1.35-3.84,2.43-7.32,3.28-10.64a10,10,0,0,0,1.14.86A126.33,126.33,0,0,1,230.95,285.06Zm.28-155.22-.21,2.11-3-3.84-.41-2.69Zm-4.55-10.15-.44-2.86,5.61,6.48c-.06.71-.14,1.5-.22,2.34Zm5.49-.59-6.78-7.82-.91-6-3.77.58-4.59-5.3-2.27,2,6.26,7.22.38,2.5-2.31-2.77-2.31,1.92,5.49,6.6,3.11,20.35,4.94-.75-.54-3.51,1.7,2.14c-.74,7.18-1.59,15-2.18,20.37l0,.29.23,43.38,0,.41c.45,5.11-.44,12.08-2.64,20.73-5.85,23-20.81,38.69-46.64,48.7a13.56,13.56,0,0,0,2.59-3.86l-4.66-1.81c0,.11-4.65,10.51-28.9,11.7-23.91,1.17-27.59-9.63-27.63-9.74l-2.4.71-2.41.67c.09.34,1.49,4.93,7.66,8.65-7.6-1.44-15.45-4-20.68-7.69l-10.49-7.31a56.18,56.18,0,0,1-22.92-34.58L59.74,180.6l-2-30.16,8.8-45.8,0-8.72h-5v6l-9.64,11.12-1.18-7.23L65.18,89.77l-2.23-2-.86,1L61.5,86l7.63-8.25-2.2-2-6.2,6.71-.63-2.9L71.16,67.88,69,65.81l-6.3,6.64A68.81,68.81,0,0,1,71,59a46.91,46.91,0,0,1,6.62-6.78,25,25,0,0,1,6.23-4L83,45.85l-.85-2.35a23.06,23.06,0,0,0-4.69,2.57l-10.61-.51a88.21,88.21,0,0,1,5.71-6.84l14.69,4.73.92-2.86L74.88,36.31a88.22,88.22,0,0,1,8.6-7.57l11.48,8.82,1.83-2.38-3-2.28c.73-.51,1.47-1,2.21-1.48l2.8,3.12,2.24-2-2.42-2.71c.76-.44,1.52-.86,2.3-1.26l1.8,2.93,2.56-1.57-1.65-2.69q1.07-.5,2.17-1l.89,2.17,2.78-1.14L105,16.46c1.23-.49,2.47-1,3.72-1.4a89.93,89.93,0,0,1,43.37-4l-1.23,11.85,3,.31,1.21-11.66c3,.55,5.9,1.24,8.83,2.1l6,1.77.73.23-3.89,9.51,2.78,1.14,4-9.67c1.1.42,2.24.9,3.42,1.42l-3.7,6,2.56,1.57,3.88-6.31c1.2.59,2.43,1.23,3.7,1.92l-5,5.62,2.24,2L186,22.75l.76.43A91.66,91.66,0,0,1,202.3,34.57l-4.77,4.16,2,2.26,5-4.37a90.77,90.77,0,0,1,6.63,7.2L196.43,46l.45,3,16.43-2.47a92.56,92.56,0,0,1,14.6,28l-20-20.6L205.74,56,229.6,80.55a138.56,138.56,0,0,1,2,16.42L213.4,77.24l-1.61-5.12,13.89,14.64,2.18-2.06L209.94,65.81l-.1.1-1.3-4.14-4.77,1.5,10.14,32.26,3.9-1.22,14.47,16.13C232.32,113.47,232.29,116.4,232.18,119.09Z" style="fill:#2724ad"/></g></g></svg>