<svg xmlns="http://www.w3.org/2000/svg" width="160" height="160" viewBox="0 0 160 160">
    <g fill="none" fill-rule="nonzero">
        <circle cx="79.882" cy="79.882" r="79.882" fill="#4F55EC"/>
        <path fill="#9296F9" d="M130.317 108.869a21.772 21.772 0 0 0 5.506-6.292c2.631 2.944 6.184 11.17 8.354 18.267.166.523.48.986.903 1.335l1.688 1.374a101.097 101.097 0 0 0 2.945-4.8l-.422-.353c-1.433-4.506-6.341-18.788-11.995-21.723-5.409-2.817-10.543-14.34-11.514-22.773-1.06-9.187-9.384-16.54-13.743-19.818a27.288 27.288 0 0 0 5.89-18.307 2.71 2.71 0 0 0-.658-1.512c-6.871-8.01-16.687-11.779-29.654-11.406a34.7 34.7 0 0 0-13.516 3.465 10.798 10.798 0 0 0-3.279-4.73c-2.582-2.2-6.262-3.113-10.925-2.72-9.836.756-10.749 16.461-10.817 18.287a2.768 2.768 0 0 0 .353 1.473l2.17 3.926c-2.867 2.562-6.813 8.137-2.769 17.669.177.373.427.707.737.981.196.167 4.672 4.23 5.222 14.027.697 12.27 6.87 14.184 13.389 16.216l1.482.462c1.472.854 4.908 3.22 6.203 5.742-6.566 15.784-16.186 38.783-17.256 40.923-.199.316-.38.644-.54.981a20.8 20.8 0 0 1-10.051 10.1 118.785 118.785 0 0 1-3.632 1.748 78.144 78.144 0 0 0 6.675 2.945 26.297 26.297 0 0 0 11.995-12.329c.108-.196.186-.363.245-.471.353-.59 1.904-3.858 14.047-33.011 3.367 4.113 9 10.67 13.28 14.046l-3.14 6.126a2.778 2.778 0 0 0-.265 1.727 5.526 5.526 0 0 0 2.62 3.691c.61.358 1.273.62 1.964.775l3.268 6.116a2.78 2.78 0 0 0 4.908-2.611l-2.15-3.936.217-.07c7.087-2.286 7.322-10.993 6.35-15.773a2.395 2.395 0 0 0-.137-.452L89.698 80.795l1.767-3.926c3.151 1.266 11.504 5.369 15.313 14.37 4.81 11.328 13.143 15.43 16.098 16.57 2.366 3.573 10.385 15.263 18.729 22.743 1.178-1.433 2.287-2.945 3.367-4.427a120.216 120.216 0 0 1-14.655-17.256zM98.984 119.92c.187 1.237 1.06 7.98-2.64 9.178a7.764 7.764 0 0 1-3.024.491l3.377-6.586c.688-1.35.174-3-1.158-3.72-3.446-1.856-11.141-10.7-15.765-16.53.177-.423.354-.855.54-1.287.2.013.4.013.599 0a4.692 4.692 0 0 0 2.886-.981c2.257-1.728 3.337-5.497 3.259-11.17l11.926 30.605zm-6.282-59.16L82.454 83.436c-.903-1.06-1.659-1.964-2.052-2.553-.716-10.208-9.59-17.649-9.973-17.963a2.781 2.781 0 0 0-3.553 4.28c.079.059 7.764 6.577 7.941 14.537.01.336.076.668.196.982.167.412.61 1.521 6.047 7.637a2.788 2.788 0 0 0 2.081.932c.137.01.275.01.412 0a2.71 2.71 0 0 0 .727-.225c-.157 4.849-1.345 6.606-2.13 7.234a1.963 1.963 0 0 1-.668.373 2.807 2.807 0 0 0 0-1.816c-1.776-5.585-8.638-9.482-9.413-9.904a2.66 2.66 0 0 0-.481-.216l-1.806-.57c-6.184-1.914-9.002-2.797-9.483-11.21-.579-10.326-5.006-15.774-6.596-17.413-3.23-8.334 2.14-11.406 2.749-11.71.382-.197.717-.475.981-.815a21.134 21.134 0 0 0 7.666 3.926c.108.01.217.01.324 0h.197a9.531 9.531 0 0 0 7.852-7.519 1.394 1.394 0 0 0-2.728-.52 6.685 6.685 0 0 1-5.272 5.232 18.061 18.061 0 0 1-8.667-5.703l-2.12-3.809c.324-4.2 1.963-11.956 5.673-12.26 3.141-.265 5.448.216 6.871 1.414 1.188.981 1.885 2.69 2.072 4.976a2.778 2.778 0 0 0 4.319 2.13c.068 0 6.724-4.27 14.115-4.456 10.866-.265 18.955 2.591 24.677 8.775a22.724 22.724 0 0 1-6.527 15.5 2.945 2.945 0 0 0-.51.795 9.247 9.247 0 0 0-5.41-.903c-.76.097-1.3.79-1.207 1.55a1.374 1.374 0 0 0 1.551 1.208 7.009 7.009 0 0 1 7.127 4.025c-1.748 4.721-4.094 7.705-6.793 8.648a6.498 6.498 0 0 1-4.908-.334l2.11-4.633a2.778 2.778 0 0 0-1.384-3.681l-.284-.098c.832-3.674.903-7.48.206-11.18a1.413 1.413 0 0 0-1.492-1.09c-1.708.166-3.72.324-4.486.333a1.364 1.364 0 0 0-1.07.079c-.61.306-.925.997-.756 1.659.344 1.187.854 1.237 5.271.824.46 3.56.125 7.177-.981 10.592a1.963 1.963 0 0 0-.167.265zm20.073 30.203a25.066 25.066 0 0 1-.863-1.855c-4.545-10.719-14.027-15.597-18.14-17.276l.736-1.61a9.816 9.816 0 0 0 4.083.923 8.834 8.834 0 0 0 2.867-.471c3.71-1.276 6.645-4.908 8.736-10.906 4.123 3.397 9.335 8.923 10.012 14.783.492 3.89 1.482 7.7 2.945 11.338-2.18 1.865-6.577 3.818-10.376 5.074zm12.673 11.897c-.314-.088-6.528-1.963-11.269-9.433 2.847-.981 7.185-2.67 10.071-4.908a39.98 39.98 0 0 0 5.4 8.766 21.703 21.703 0 0 1-4.114 5.615l-.088-.04zm2.1 1.964a25.355 25.355 0 0 0 4.133-5.409 16.02 16.02 0 0 0 1.875 1.512 19.279 19.279 0 0 1-4.84 5.644c-.402-.56-.795-1.178-1.168-1.747z"/>
    </g>
</svg>
