<svg xmlns="http://www.w3.org/2000/svg" width="160" height="160" viewBox="0 0 160 160">
    <g fill="none" fill-rule="nonzero">
        <circle cx="79.911" cy="79.911" r="79.911" fill="#4F55EC"/>
        <path fill="#9296F9" d="M128.84 108.938a11.763 11.763 0 0 1-2.914-3.95 45.995 45.995 0 0 0-2.795-5.63 55.309 55.309 0 0 1-5.926-15.032 46.193 46.193 0 0 1-1.53-12.84c0-3.269 0-6.093-1.917-9.442a30.153 30.153 0 0 0-5.175-6.271c-2.726-2.746-5.55-5.58-7.566-10.746 0-.118-.108-.227-.158-.346 9.087-7.16 7.546-27.298 7.477-28.197a2.291 2.291 0 0 0-4.376-.74 27.21 27.21 0 0 1-8.276 9.876 24.405 24.405 0 0 0-8.148 9.59 30.406 30.406 0 0 0-2.578-.385 14.183 14.183 0 0 0-.721-7.645c-1.393-3.545-1.047-11.13-.79-13.758a2.301 2.301 0 0 0-1.185-2.222 2.262 2.262 0 0 0-2.509.207c-10.499 8.247-14.983 25.847-16 30.41-9.234 5.413-19.723 22.38-31.16 50.38-6.776 16.573-12 32.494-14.025 38.894a75.035 75.035 0 0 0 3.555 3.951c.8-2.607 6.637-21.393 14.707-41.116C48.089 66.33 58.46 49.54 66.795 45.373a2.262 2.262 0 0 0 1.225-1.62 77.936 77.936 0 0 1 3.23-11.022 30.499 30.499 0 0 0 0 11.595c.103.534.571.919 1.115.918h.228a1.146 1.146 0 0 0 .898-1.343c-1.876-9.382 2.124-18.854 5.136-24.316a28.533 28.533 0 0 0 1.343 9.324 10.054 10.054 0 0 1-.069 7.13c-.347.706-.31 1.54.099 2.213a2.33 2.33 0 0 0 1.975 1.037h1.146c.403.583.635 1.267.672 1.975.158 2.213-1.126 6.173-8.1 12.455C61.72 66.34 64.337 73.017 64.682 73.739c.183.382.564.63.988.641a1.165 1.165 0 0 0 1.057-1.61c0-.049-2.252-5.856 10.479-17.323 6.202-5.59 9.175-10.44 8.889-14.42a5.926 5.926 0 0 0-.296-1.422c3.693.583 9.037 2.262 10.923 7.091 2.37 6.045 5.67 9.373 8.583 12.306a26.143 26.143 0 0 1 4.454 5.314c1.304 2.291 1.304 4.128 1.304 7.17a50.548 50.548 0 0 0 1.689 14.015 59.042 59.042 0 0 0 6.41 16.119 41.481 41.481 0 0 1 2.538 5.096 15.872 15.872 0 0 0 3.95 5.442c2.292 2.321 4.1 4.148 3.2 10.716-1.323 9.56-3.2 13.827-11.456 15.388-4.158.79-7.003.592-8.702-.603-1.382-.987-2.261-2.795-2.706-5.57a2.242 2.242 0 0 0-.306-.731c-.296-.514-7.338-12.78-18.35-17.857-.4-.19-.847-.255-1.285-.187-.918.128-22.37 2.963-25.6-18.223a2.291 2.291 0 1 0-4.523.692c1.788 11.733 8.296 17.353 14.874 20-.494 5.827-2.37 26.785-5.422 42.726 1.491.276 2.963.513 4.533.7 2.963-15.436 4.77-35.021 5.363-42.034a36.089 36.089 0 0 0 10.696.741c8.435 4.178 14.4 13.501 15.536 15.378.682 3.822 2.163 6.489 4.514 8.148a11.753 11.753 0 0 0 6.963 1.906 28.642 28.642 0 0 0 5.234-.553c9.58-1.827 13.393-6.686 15.131-19.26 1.195-8.839-1.837-11.93-4.503-14.597zM94.193 37.58a19.901 19.901 0 0 0-2.242-1.037 19.832 19.832 0 0 1 4.345-5.55 32.593 32.593 0 0 0-1.215 3.456c-.355 1.255-.651 2.282-.888 3.131zm4.138 3.21a15.042 15.042 0 0 0-2.133-1.926l1.086-3.792a24.879 24.879 0 0 1 3.793-7.97 29.225 29.225 0 0 0 2.676-2.806c-.346 6.015-1.699 13.235-5.422 16.494z"/>
        <path fill="#9296F9" d="M118.104 127.457c.578.25 1.25-.01 1.51-.583.544-1.215 3.132-7.427.988-9.975-.582-.701-1.738-1.413-3.95-.86a8.889 8.889 0 0 0-5.709 4.721c-1.876 3.576-2.044 8.435-1.126 10.865.168.444.592.738 1.067.74.138.002.275-.021.405-.069.591-.221.891-.88.671-1.471a13.215 13.215 0 0 1 .988-9.027 6.578 6.578 0 0 1 4.237-3.566c.474-.109 1.314-.257 1.62.119.87.987-.217 5.056-1.333 7.575a1.156 1.156 0 0 0 .632 1.53zM54.42 98.765a1.156 1.156 0 0 0-1.452.731 251.111 251.111 0 0 0-8.83 41.58 1.136 1.136 0 0 0 .988 1.265h.128a1.156 1.156 0 0 0 1.136-.988 248.889 248.889 0 0 1 8.731-41.116 1.146 1.146 0 0 0-.701-1.472zM84.988 71.17a4.602 4.602 0 0 0-3.704-4.997 6.114 6.114 0 0 0-2.677 0c-.76-.158-1.6-.316-2.558-.435a1.146 1.146 0 0 0-1.284.988 1.156 1.156 0 0 0 .988 1.284h.119a5.323 5.323 0 0 0-.939 1.975 1.61 1.61 0 0 0 0 .306 6.765 6.765 0 0 0 2.173 4.939 9.66 9.66 0 0 0 6.163 2.074h.366a1.136 1.136 0 0 0 1.046-1.255 1.156 1.156 0 0 0-1.204-1.076h-.445a4.76 4.76 0 0 0 1.956-3.803zm-3.625 1.976a1.146 1.146 0 0 0-.988 1.254 5.304 5.304 0 0 1-1.748-.988 4.385 4.385 0 0 1-1.392-3.13 2.844 2.844 0 0 1 1.54-1.808c2.706.652 3.655 1.452 3.892 1.699.055.273.079.551.069.83-.09 1.175-.682 2.083-1.373 2.192v-.05z"/>
    </g>
</svg>
