<svg xmlns="http://www.w3.org/2000/svg" width="160" height="160" viewBox="0 0 160 160">
    <g fill="none" fill-rule="nonzero">
        <circle cx="79.911" cy="79.911" r="79.911" fill="#4F55EC"/>
        <path fill="#9296F9" d="M70.775 126.598a2.291 2.291 0 0 0-1.856-1.038 2.321 2.321 0 0 0-1.917.988l-4.404 6.074-10.41 10.677a1.146 1.146 0 0 0 1.62 1.62l8.286-8.544 3.516 22.163c1.56.29 3.14.527 4.74.711L66.5 134.973l2.232-3.072 17.975 27.655a78.504 78.504 0 0 0 5.087-.573l-21.018-32.385z"/>
        <path fill="#9296F9" d="M106.667 144.079a2.272 2.272 0 0 0-3.19.504l-5.196 7.16-8.098-48.938c13.432-20.573 24.089-50.746 25.373-54.41l8.83-12.148a2.291 2.291 0 0 0-3.714-2.667l-8.83 12.158c-3.101 2.311-28.484 21.778-43.882 40.968l-49.037 7.447 5.196-7.16a2.291 2.291 0 0 0-3.704-2.687L9.402 99.476l-1.975 2.736a2.291 2.291 0 0 0 1.254 3.556l38.262 10.272-2.232 3.071-31.071 4.938a1.511 1.511 0 0 0-.287.07c.988 1.54 2.114 3.041 3.24 4.503l-.05-.405 28.09-4.454-5.759 9.768a1.146 1.146 0 0 0 .978 1.728c.406 0 .781-.213.988-.563l7.713-13.086 4.05-5.57a2.301 2.301 0 0 0-1.265-3.556l-38.261-10.272 2.064-2.854 51.91-7.901-8.888 11.506a1.146 1.146 0 0 0 .909 1.847c.355.002.692-.162.908-.445l10.627-13.748c.14-.106.266-.229.376-.365a167.575 167.575 0 0 1 14.034-15.348c-1.738 4.573-1.55 8.602.84 10.33.797.551 1.748.835 2.716.81 2.281 0 5.057-1.303 7.753-3.614a169.877 169.877 0 0 1-10.252 18.222l-11.091 14.33a1.146 1.146 0 0 0 .197 1.6c.203.152.449.235.701.238.356.002.693-.162.91-.445l9.026-11.684 8.632 52.228-1.274 1.758c2.252-.386 4.474-.83 6.667-1.393l7.289-10.044a2.281 2.281 0 0 0-.464-3.161zM87.2 83.378c-2.044-1.482-1.274-7.329 3.13-13.452 0 0 0-.109.07-.158 6.914-6.38 13.55-11.94 18.173-15.674-2.074 5.452-5.225 13.323-9.067 21.679-.21.07-.396.2-.533.375-4.395 6.094-9.729 8.701-11.773 7.23z"/>
    </g>
</svg>
