<svg xmlns="http://www.w3.org/2000/svg" width="160" height="160" viewBox="0 0 160 160">
    <g fill="none" fill-rule="nonzero">
        <circle cx="79.882" cy="79.882" r="79.882" fill="#4F55EC"/>
        <path fill="#9296F9" d="M48.638 149.202c1.07-2.208.295-3.19-7.097-12.525a2.64 2.64 0 0 0-3.76-.55l-2.944 2.337-1.335-1.816 4.613-3.69 13.409 3.386c.75.19 1.548.023 2.16-.452l38.007-29.016a2.945 2.945 0 0 0 1.109-2.032 3.318 3.318 0 0 0-.618-2.346l-5.792-7.853 22.43-21.065 2.434 3.927-3.818 2.984a2.945 2.945 0 0 0-1.07 1.963c-.096.836.129 1.678.628 2.356l6.665 9.08c.616.9 1.706 1.35 2.778 1.148.387-.083.75-.254 1.06-.5L131.73 83.17c.42-.273.759-.652.982-1.1 1.06-2.208.284-3.19-7.097-12.525a2.65 2.65 0 0 0-3.77-.55l-4.112 3.289-2.886-4.476 9.04-8.491 7.794 15.283a3.004 3.004 0 0 0 1.865 1.57 2.542 2.542 0 0 0 2.248-.48l9.384-7.49a2.945 2.945 0 0 0 1.08-2.041 3.298 3.298 0 0 0-.629-2.317l-30.203-41.227a2.67 2.67 0 0 0-3.838-.638l-9.394 7.5a2.945 2.945 0 0 0-1.08 2.296c-.02.912.335 1.792.982 2.435l11.936 11.631-10.297 6.97-3.259-4.054 3.926-3.131a3.21 3.21 0 0 0 .51-4.25c-6.752-9.876-7.46-10.946-9.619-10.327-.409.119-.785.33-1.1.618L79.972 43.033c-.615.502-1 1.232-1.07 2.022-.086.82.13 1.644.608 2.317l6.665 9.08c.616.9 1.706 1.35 2.778 1.148a2.434 2.434 0 0 0 1.05-.51l4.035-3.22 2.856 3.543-25.237 17.031-5.89-8.059a2.64 2.64 0 0 0-3.926-.618L25.07 96.48a3.004 3.004 0 0 0-1.03 2.238l-.374 14.253-4.721 3.779-1.345-1.826 2.768-2.208a3.21 3.21 0 0 0 .51-4.25c-6.704-9.876-7.4-10.916-9.6-10.327a2.533 2.533 0 0 0-1.109.618l-6.478 5.183a64.115 64.115 0 0 0 2.199 5.998l5.89-4.692c.833 1.138 1.962 2.69 3.032 4.29l-6.763 5.31a71.473 71.473 0 0 0 2.945 5.379l.51-.403 1.257 1.826-.668.54a75.258 75.258 0 0 0 3.377 4.986l12.594-10.051a3.013 3.013 0 0 0 1.129-2.277l.363-14.283 33.649-28.093 5.507 7.52c-8.687 6.556-29.203 23.361-41.512 44.23a1.65 1.65 0 0 0 .079 1.757c.304.47.862.71 1.413.609h.128c.304-.099 29.379-9.66 52.024-30.067l5.212 7.107-34.66 26.503-13.457-3.504a2.542 2.542 0 0 0-2.219.48l-11.975 9.561a80.422 80.422 0 0 0 11.268 9.277l4.104-3.279a243.992 243.992 0 0 1 3.18 4.172l-2.572 2.061a83.36 83.36 0 0 0 5.782 3.073l2.199-1.748c.392-.256.713-.607.932-1.02zm-33.64-29.31l-1.334-1.826 1.737-1.384 1.335 1.826L15 119.892zm108.143-44.31a308.35 308.35 0 0 1 3.18 4.173l-10.1 8.098-3.112-4.23 10.032-8.04zm-7.666-1.57l-1.963 1.6-2.592-4.064 1.895-1.776 2.66 4.24zm-26.72-23.597l-3.11-4.231 10.11-8.069c.834 1.139 1.963 2.69 3.033 4.29l-10.032 8.01zm7.52 1.688l1.963-1.59 3.122 3.926-2.11 1.433-2.975-3.769zm23.912-3.082a2.945 2.945 0 0 0 1.246-2.307 3.318 3.318 0 0 0-.981-2.552l-12.143-11.838 4.535-3.632 26.66 36.319-4.574 3.7-7.853-15.528a3.023 3.023 0 0 0-1.963-1.59 2.552 2.552 0 0 0-2.307.638L91.151 81.914a32.324 32.324 0 0 0-7.48-8.294l36.516-24.6zm-88.295 73.168c12.437-19.122 31.166-34.209 38.91-40a9.894 9.894 0 0 0 1.6 7.42 10.287 10.287 0 0 0 6.528 4.555c-17.266 15.559-38.4 24.697-47.038 28.025zm49.443-31.058c-1.58.305-4.3.138-6.773-3.337-1.963-2.837-.795-6.45-.137-7.931l2.06-1.394a29.242 29.242 0 0 1 8.286 9.433l-3.436 3.23zM78.94 76.82l2.267-1.532a28.584 28.584 0 0 1 7.853 8.57l-2.228 2.09a32.609 32.609 0 0 0-7.892-9.128zm-48.03 64.785l-1.344-1.826 1.737-1.374 1.335 1.826-1.728 1.374z"/>
    </g>
</svg>
