<svg xmlns="http://www.w3.org/2000/svg" width="160" height="160" viewBox="0 0 160 160">
    <g fill="none" fill-rule="nonzero">
        <circle cx="79.882" cy="79.882" r="79.882" fill="#4F55EC"/>
        <path fill="#9296F9" d="M98.807 126.36c6.872-14.105 18.65-26.08 27.868-28.466 20.397-5.26 21.595-13.29 21.016-21.084a10.16 10.16 0 0 0-4.78-8.314 19.121 19.121 0 0 0-2.464-8.413c-.373-8.991-2.945-11.779-4.25-12.564-3.81-2.66-6.92-2.945-19.79-2.945h-1.511a40.412 40.412 0 0 1-12.339-1.963c-5.89-1.659-11.936-3.386-25.286-1.198C58.896 44.33 47.666 52.025 44.34 54.518l-.246-.216c-4.486-4.103-8.599-5.693-12.21-4.731-4.477 1.177-6.047 5.654-6.204 6.164l-.06.216a43.985 43.985 0 0 0-.981 14.478c-2.287 2.032-7.853 7.951-17.482 23.559a82.117 82.117 0 0 1-4.427 6.537 83.847 83.847 0 0 0 2.012 6.45 89.914 89.914 0 0 0 7.166-10.082c6.576-10.729 11.16-16.608 13.9-19.632 2.463 9.836 7.567 16.413 9 17.13a2.788 2.788 0 0 0 2.945-4.683A39.401 39.401 0 0 1 29.9 65.374c2.402 4.987 7.87 10.353 16.403 16.098a1.394 1.394 0 0 0 1.55-2.306C34.16 69.968 31.412 63.568 31.412 59.877A6.871 6.871 0 0 1 33.6 54.97c1.62-.225 3.985.982 6.704 3.485.56.51 5.556 5.036 11.102 5.3a2.788 2.788 0 1 0 .265-5.565 7.175 7.175 0 0 1-2.16-.471A72.707 72.707 0 0 1 78.165 46.92c12.123-1.963 17.335-.5 22.862 1.07a45.958 45.958 0 0 0 13.87 2.071h.068c14.008 0 15.706.314 18.11 2.022.197.236 1.257 1.708 1.67 6.322a13.566 13.566 0 0 0-5.556-.982 1.394 1.394 0 0 0 0 2.778 9.816 9.816 0 0 1 5.742 1.433c.1.404.295.778.57 1.09 0 0 1.717 2.189 1.874 7.607a2.778 2.778 0 0 0 2.062 2.602s2.385.736 2.64 4.23c.353 5.026.756 10.72-16.864 15.264-10.876 2.807-23.823 15.706-31.48 31.411a113.335 113.335 0 0 0-6.056 16.383c-2.209 7.087-4.319 13.742-8.334 19.455h.471c2.13 0 4.221-.108 6.302-.275 3.102-5.448 4.908-11.367 6.872-17.55a108.82 108.82 0 0 1 5.82-15.49z"/>
        <path fill="#9296F9" d="M35.337 111.391a4.211 4.211 0 0 0 3.132-1.708c1.462-1.727 2.493-4.74 1.531-6.87a3.642 3.642 0 0 0-3.485-2.14c-2.061-.05-3.484.51-4.22 1.707-1.12 1.797 0 4.035.157 4.29a1.394 1.394 0 0 0 2.454-1.306c-.226-.441-.432-1.227-.246-1.521.187-.295.658-.432 1.777-.393.815 0 .981.344.981.491.403.903-.127 2.798-1.119 3.926-.49.58-.903.737-1.04.707a1.394 1.394 0 1 0-.697 2.69c.252.074.513.117.775.127zM41.894 115.828a1.395 1.395 0 1 0-.422 2.759c.225.017.443.084.638.196.07.334-.785 1.767-3.229 2.601-.57.196-.982.324-1.325.403.177-.364.432-.874.834-1.561a1.394 1.394 0 1 0-2.424-1.374c-1.227 2.159-2.091 3.926-1.07 5.143a2.16 2.16 0 0 0 1.767.736 10.474 10.474 0 0 0 3.121-.716c3.19-1.1 5.29-3.348 5.104-5.478-.127-1.423-1.246-2.434-2.994-2.709zM62.645 110.812c0-.432-.265-1.894-2.454-2.228a1.394 1.394 0 0 0-.844 2.611c-.345.198-.715.35-1.1.452a1.394 1.394 0 0 0-2.473-1.227c-.677.981-1.6 2.395-.785 3.543.407.54 1.063.834 1.737.776a8.638 8.638 0 0 0 2.091-.364c2.366-.608 3.907-2.041 3.828-3.563zM65.512 125.517c-1.826-1.63-3.868-2.11-5.085-1.208-.353.265-1.433 1.276-.49 3.279a1.394 1.394 0 0 0 2.64-.746c.352.184.68.408.981.667a1.394 1.394 0 0 0 .354 2.739c1.207 0 2.866 0 3.376-1.325.51-1.325-.805-2.543-1.776-3.406zM23.283 112.432c-1.099-.5-2.944-.442-5.506 2.64-1.6 1.964-1.57 3.515-1.267 4.496.776 2.503 3.927 3.465 4.27 3.563.121.038.247.058.373.06a1.394 1.394 0 0 0 .393-2.73c-.667-.196-2.12-.873-2.375-1.717-.187-.6.304-1.355.746-1.895 1.187-1.423 1.963-1.816 2.228-1.865.317.845.365 1.767.137 2.64-.117.76.4 1.47 1.158 1.59a1.413 1.413 0 0 0 1.59-1.167c.491-2.876-.196-4.918-1.747-5.615zM93.085 58.081v-.697a20.025 20.025 0 0 1 5.997-2.228 1.394 1.394 0 0 0 .667-2.485 1.384 1.384 0 0 0-1.03-.273 21.517 21.517 0 0 0-6.302 2.198 4.29 4.29 0 0 0-3.092-2.69 2.778 2.778 0 0 0-2.62-.598c-3.034.913-4.634 7.598-5.184 10.434a1.384 1.384 0 0 0 1.1 1.63c.088.01.177.01.265 0a1.394 1.394 0 0 0 1.364-1.13c.216-1.118.5-2.247.805-3.287a1.394 1.394 0 0 0 1.443.981l5.281-.422a1.394 1.394 0 0 0 1.306-1.433zm-6.783-.893c-.261.018-.51.114-.717.275.678-1.964 1.404-3.328 1.875-3.485.107.05.201.124.275.216.25.277.61.428.982.412.402 0 1.128.58 1.452 2.268l-3.867.314z"/>
    </g>
</svg>
