<svg xmlns="http://www.w3.org/2000/svg" width="160" height="160" viewBox="0 0 160 160">
    <g fill="none" fill-rule="nonzero">
        <circle cx="79.882" cy="79.882" r="79.882" fill="#4F55EC"/>
        <path fill="#9296F9" d="M114.16 42.856a2.945 2.945 0 0 0-2.405-1.207l-49.198 1.345H60.947c-.185 0-.368.037-.54.108l-15.852.432a2.7 2.7 0 0 0-.786.137c-.324.098-7.921 2.582-11.052 8.736a12.76 12.76 0 0 0-.56 10.16c.051.16.117.314.196.461l38.685 71.323a5.89 5.89 0 0 0 1.306 3.445c3.67 4.732 15.067 7.107 34.041 7.107 6.194 0 13.232-.265 21.036-.766a82.68 82.68 0 0 0 7.44-6.272c-30.557 2.454-45.094.982-52.024-.736l.118-.471h.157l55.499-2.64c.893-.982 1.767-1.964 2.62-2.946l-57.51 2.739.53-2.022 60.858-5.82a83.37 83.37 0 0 0 2.062-3.063l-62.155 5.89.471-1.797 63.725-7.53a57.21 57.21 0 0 0 1.669-3.071l-64.5 7.607.579-2.16.431-.206c8.835-3.926 46.45-7.627 65.463-9.148a80.343 80.343 0 0 0 3.661-9.816L114.16 42.856zm-32.393 5.33a49.423 49.423 0 0 1 9.01 17.031c-3.17-3.033-7.587-7.264-8.47-8.147a1.413 1.413 0 0 0-1.708-.226 1.423 1.423 0 0 0-.687 1.59c.785 3.132-.403 7.686-1.404 9.914-1.531-3.798-6.292-11.19-7.853-13.585-1.688-2.581-3.053-4.584-4.181-6.154l15.293-.422zm.147 81.473a1.413 1.413 0 0 0-.216.854l-1.531 5.752c-2.503-.982-3.2-1.836-3.357-2.1.01-.095.01-.19 0-.285v-.128c0-.255.235-5.507 6.616-9.904l-1.512 5.81zm3.112-13.203c-6.39 2.877-9.816 6.715-11.71 10.042l-35.82-66.012a7.136 7.136 0 0 1 .295-5.517c1.748-3.445 6.126-5.31 7.372-5.781l17.816-.491c4.427 5.89 12.457 18.532 13.114 21.516.09.917.69 1.705 1.551 2.032.172.05.35.077.53.079a2.14 2.14 0 0 0 1.512-.668c1.462-1.384 3.033-5.89 3.269-9.953 3.445 3.318 8.834 8.461 9.148 8.756a1.423 1.423 0 0 0 2.405-1.149c0-.441-.893-9.973-9.237-21.212l25.11-.687 42.021 59.387c-14.743 1.177-56.883 4.898-67.406 9.629l.03.03z"/>
    </g>
</svg>
