<svg xmlns="http://www.w3.org/2000/svg" width="160" height="160" viewBox="0 0 160 160">
    <g fill="none" fill-rule="nonzero">
        <circle cx="79.902" cy="79.902" r="79.882" fill="#4F55EC"/>
        <path fill="#9296F9" d="M49.443 120.982c-.23-.001-.456-.058-.658-.167-5.781-3.122-3.975-18.278-3.75-19.995a1.396 1.396 0 0 1 2.769.363c-.697 5.242-.668 12.83 1.158 15.97 1.08-2.778 2.847-8.176 2.287-12.564a1.394 1.394 0 0 1 1.198-1.522c.742-.083 1.42.431 1.54 1.169.894 6.979-3.13 15.587-3.307 15.95a1.404 1.404 0 0 1-.825.727 1.59 1.59 0 0 1-.412.069zM94.596 52.555a.805.805 0 0 1-.216 0c-3.17-.51-5.398-1.787-6.606-3.809a7.853 7.853 0 0 1-.628-6.047 1.394 1.394 0 0 1 2.64.884 4.908 4.908 0 0 0 .383 3.75c.776 1.266 2.337 2.1 4.653 2.483a1.384 1.384 0 0 1-.226 2.758v-.02z"/>
        <path fill="#9296F9" d="M92.358 56.098h-.088c-4.83-.383-8.314-1.963-10.346-4.82a11.534 11.534 0 0 1-1.65-8.834 1.394 1.394 0 1 1 2.7.668 8.766 8.766 0 0 0 1.227 6.537c1.532 2.11 4.32 3.347 8.285 3.652a1.394 1.394 0 0 1-.108 2.778l-.02.02zM97.836 45.998a2.778 2.778 0 0 1-2.72-2.238l-.235-1.178a2.778 2.778 0 1 1 5.448-1.09l.235 1.178a2.778 2.778 0 0 1-2.179 3.278c-.181.031-.365.048-.55.05zM65.11 66.748a2.11 2.11 0 0 1-.982-3.985 6.744 6.744 0 0 0 1.187-1.07 17.669 17.669 0 0 1 8.305-5.104 1.394 1.394 0 1 1 .834 2.65 15.136 15.136 0 0 0-7.087 4.398 47.833 47.833 0 0 0 14.999-5.615 7.81 7.81 0 0 1 .628-.334 1.388 1.388 0 1 1 1.158 2.523l-.432.245a48.55 48.55 0 0 1-18.375 6.292h-.236zM80.933 79.568c-.111.015-.223.015-.334 0a1.384 1.384 0 0 1-.874-.658c-.127-.216-2.945-5.231 1.404-11.239a1.4 1.4 0 0 1 2.307 1.59 8.599 8.599 0 0 0-1.777 6.587c3.966-3.887 6.685-12.044 6.685-12.103a1.394 1.394 0 0 1 2.65.864c-.147.451-3.681 11.14-9.306 14.724a1.463 1.463 0 0 1-.755.235z"/>
        <path fill="#9296F9" d="M95.372 141.507a40.717 40.717 0 0 0 14.292-20.545 2.778 2.778 0 0 0-1.316-3.279c-.363-.206-9.099-4.829-21.487 4.104-3.789 2.728-9.747 2.807-15.558.196-9.541-4.28-15.95-13.84-17.158-25.58C52.81 83.297 68.19 76.465 87.666 67.827c15.608-6.97 33.306-14.822 45.281-27.936a4.692 4.692 0 0 0-3.092-7.853 2.788 2.788 0 0 0-4.015-2.837c-.088.05-8.942 4.408-21.997 2.827-10.425-1.266-39.98 1.885-59.877 19.485C30.969 63.01 24.334 78.46 24.147 97.434l-6.655 16.863a2.788 2.788 0 0 0 4.574 2.945l5.83-5.949c2.602 3.995 7.441 11.053 11.672 15.333.982 4.908 5.252 23.833 15.794 24.913a2.817 2.817 0 0 0 2.18-.727l9.5-8.834a2.778 2.778 0 0 0 .767-2.866l-.305-.982c1.963.609 4.467 2.15 6.175 5.89.863 1.884 1.55 3.72 2.208 5.497 1.355 3.622 2.68 7.136 5.232 10.287a80.797 80.797 0 0 0 7.598-.471c-4.33-3.004-5.733-6.734-7.618-11.78-.687-1.855-1.413-3.789-2.355-5.89-3.465-7.616-9.708-9.55-13.743-9.55a10.69 10.69 0 0 0-1.894.157 2.778 2.778 0 0 0-2.15 3.563l.982 3.19-7.146 6.646c-5.124-2.091-8.835-14.724-9.944-20.957a2.788 2.788 0 0 0-.844-1.57c-5.664-5.262-13.193-17.67-13.271-17.787a2.807 2.807 0 0 0-2.062-1.326 2.68 2.68 0 0 0-1.246.148l2.07-5.242c.124-.313.19-.645.197-.982 0-17.56 6.067-31.784 17.944-42.287 18.866-16.687 47.303-19.131 55.519-18.13 3.563.435 7.161.504 10.738.206a68.152 68.152 0 0 1-8.186 2.248 2.78 2.78 0 0 0 1.07 5.458c5.713-1.129 12.977-3.75 19.004-6.184C114.68 49.747 99.2 56.618 85.399 62.734 64.726 71.92 46.86 79.843 48.609 96.972c1.413 13.742 9.04 24.981 20.407 30.095 7.735 3.466 15.627 3.18 21.104-.765 6.067-4.378 10.71-4.702 13.281-4.358-4.623 11.553-13.094 16.255-13.153 16.294a2.788 2.788 0 0 0-.884 4.172c3.583 4.594 3.014 11.779 2.091 16.55a86.098 86.098 0 0 0 5.83-1.09c.698-4.85.776-11.16-1.913-16.363z"/>
    </g>
</svg>
