<svg xmlns="http://www.w3.org/2000/svg" width="160" height="160" viewBox="0 0 160 160">
    <g fill="none" fill-rule="nonzero">
        <circle cx="79.882" cy="79.882" r="79.882" fill="#4F55EC"/>
        <path fill="#9296F9" d="M141.595 51.593a2.807 2.807 0 0 0-1.423-1.63l-31.873-15.5a2.768 2.768 0 0 0-1.217-.284h-51.19c-.422.001-.838.098-1.217.285l-31.873 15.5a2.807 2.807 0 0 0-1.423 1.629 2.758 2.758 0 0 0 .177 2.16l11.2 21.535a2.758 2.758 0 0 0 2.464 1.502h11.003v75.583a77.331 77.331 0 0 0 5.566 2.336v-35.73h37.036v24.658a1.394 1.394 0 0 0 2.787 0V118.94h2.395v15.264a1.394 1.394 0 1 0 2.778 0V118.94h14.4v34.454a78.1 78.1 0 0 0 5.566-2.64V76.79h11.004c1.04 0 1.993-.579 2.473-1.502l11.2-21.536a2.798 2.798 0 0 0 .167-2.16zm-38.174-11.848L80.265 72.638 59.318 39.745h44.103zM49 71.225H36.908l-9.1-17.502 28.33-13.743 22.39 35.132-26.739 37.997V74.002a2.788 2.788 0 0 0-2.788-2.777zm77.065 0h-12.093a2.788 2.788 0 0 0-2.788 2.777v42.209H53.006l53.684-76.28 28.466 13.84-9.09 17.454z"/>
    </g>
</svg>
