<svg xmlns="http://www.w3.org/2000/svg" width="160" height="160" viewBox="0 0 160 160">
    <g fill="none" fill-rule="nonzero">
        <circle cx="79.882" cy="79.882" r="79.882" fill="#4F55EC"/>
        <path fill="#9296F9" d="M80.275 49.345c-2.552-2.238-5.468-3.151-8.216-2.562a9.178 9.178 0 0 0-6.292 5.36c-.43.944-.759 1.93-.982 2.944-1.56-2.474-2.945-4.78-3.926-6.518l.118-.294a10.022 10.022 0 0 0 3.367-3.927c1.266-3.16.255-4.76-.913-6.615l-.108-.167a2.798 2.798 0 0 0-3.838-.874L33.963 52.82a2.798 2.798 0 0 0-1.237 1.737 2.827 2.827 0 0 0 .364 2.1l.108.168c1.158 1.786 2.14 3.386 5.526 3.602a9.914 9.914 0 0 0 5.036-1.325h.323c1.13 1.649 2.621 3.877 4.182 6.36-1-.24-2.024-.374-3.053-.402a9.207 9.207 0 0 0-7.558 3.387c-1.718 2.228-2.15 5.261-1.237 8.52 2.071 7.381 21.38 31.99 23.558 34.768 8.51 12.201 29.91 33.139 42.209 44.82a93.085 93.085 0 0 0 5.998-1.964l-3.24-3.072 13.036-8.206c.52 1.59.982 3.092 1.443 4.447l-10.15 6.41a79.666 79.666 0 0 0 15.44-8.158c-4.907-15.391-15.44-46.733-23.253-60.486-1.698-3.455-15.45-31.165-21.183-36.181zm-9.473 5.124a3.789 3.789 0 0 1 2.425-2.248 4.23 4.23 0 0 1 3.386 1.305c2.258 1.964 7.019 10.042 11.691 18.65a18.866 18.866 0 0 0-11.622-1.501A43.504 43.504 0 0 1 70.4 63.42c-.52-1.502-.982-5.939.402-8.952zM53.988 89.787a19.858 19.858 0 0 0-.471 4.25c-5.753-7.912-10.965-15.706-11.78-18.543a4.24 4.24 0 0 1 .285-3.622 3.77 3.77 0 0 1 3.131-1.197 14.567 14.567 0 0 1 8.246 3.494 43.288 43.288 0 0 1 3.828 8.746 17.669 17.669 0 0 0-3.24 6.872zm48.873 59.75c-12.515-12.006-31.214-30.597-38.547-41.228-10.09-14.655-2.562-22.243-2.258-22.576.66-.615.982-1.511.864-2.405-1.08-8.491-13.605-26.395-15.028-28.467a2.768 2.768 0 0 0-2.042-1.168l-2.493-.206h-.167l12.938-8.157-.06.147-.883 2.336a2.739 2.739 0 0 0 .177 2.347c1.207 2.15 12.015 21.173 19.24 25.855a2.866 2.866 0 0 0 2.522.265c.422-.157 10.503-3.681 19.386 11.779 6.46 11.21 15.176 36.103 20.614 52.564l-14.263 8.913z"/>
        <path fill="#9296F9" d="M67.73 89.944c.26 0 .514-.072.736-.207l9.217-5.81a1.394 1.394 0 0 0-1.482-2.356l-9.188 5.791a1.384 1.384 0 0 0 .717 2.582zM84.957 84.584l-19.406 12.23a1.404 1.404 0 0 0-.442 1.964 1.394 1.394 0 0 0 1.963.432L86.44 86.93a1.388 1.388 0 1 0-1.482-2.346zM119.048 87.087a4.977 4.977 0 1 0 0 9.953 4.977 4.977 0 0 0 0-9.953zm0 7.156a2.189 2.189 0 1 1 2.189-2.189 2.189 2.189 0 0 1-2.19 2.18v.009zM128.059 75.004a4.977 4.977 0 1 0-.02 9.953 4.977 4.977 0 0 0 .02-9.953zm0 7.156a2.189 2.189 0 1 1 2.189-2.19 2.199 2.199 0 0 1-2.19 2.19zM119.813 59.77a4.977 4.977 0 1 0 .02-9.954 4.977 4.977 0 0 0-.02 9.953zm0-7.157a2.189 2.189 0 1 1-.02 4.378 2.189 2.189 0 0 1 .02-4.378zM111.617 24.157a4.977 4.977 0 1 0-9.953 0 4.977 4.977 0 0 0 9.953 0zm-7.165 0a2.199 2.199 0 1 1 4.397-.02 2.199 2.199 0 0 1-4.397.02zM121.934 71.46a8.265 8.265 0 1 0-16.53-.02 8.265 8.265 0 0 0 16.53.02zm-8.255 5.477a5.477 5.477 0 1 1-.02-10.954 5.477 5.477 0 0 1 .02 10.954z"/>
    </g>
</svg>
