<svg xmlns="http://www.w3.org/2000/svg" viewBox="0 0 301.89 376.71"><title>Титов</title><g id="Layer_2" data-name="Layer 2"><g id="Layer_1-2" data-name="Layer 1"><path d="M134.34,146.26c-.74-.32-18.28-7.77-28-5.69l.63,2.93c8.82-1.88,26,5.44,26.22,5.51Zm27.06-.3a2.5,2.5,0,0,0-.5.91l-2.26,7.42a2.5,2.5,0,0,0-.11.73V176.2h5V155.4l2-6.53c5-5.28,18.51-9.5,23.4-10.7l-1.19-4.86C186.92,133.5,168.13,138.19,161.4,146Zm24.18,85.9-25.62-3-1.17.37a12.76,12.76,0,0,1-4.68,2.42,6.74,6.74,0,0,1-4.9-1l-1.14-.25-24.12,4.45a1.5,1.5,0,0,0,.27,3l.27,0L148,233.45a9.39,9.39,0,0,0,6.84,1.14,15.93,15.93,0,0,0,5.36-2.64l25,2.89a1.5,1.5,0,1,0,.34-3Zm-15.39,8.29c-2.85.26-21.78,2-27.88,1.83s-9.12-1.67-9.15-1.68l-.72,1.31-.73,1.31c.14.08,3.52,1.93,10.55,2.06h.67c7.35,0,27-1.8,27.9-1.88l.67-.23,8.35-5.3-1.61-2.53ZM158,48.08l-4.45,2.29,11.75,22.88L169.72,71Zm19.08,19L175.5,59.9A50.28,50.28,0,0,0,190,73.5l2.1-2-3.78-6.95c7.54,7.18,17.8,15.53,29.18,20.78l2.1-4.54c-21.73-10-40-32.89-40.16-33.12l-3.92,3.1c.23.29,2.07,2.6,5.14,5.95l5.68,10.44A48.45,48.45,0,0,1,173.45,50.4l-2.86.88,2,9.22-8.44-12.12-2.46,1.71L174.34,68.3ZM210.74,198l1.92-1.91-3.52-3.55-1.92,1.91a16,16,0,0,0-4,16.27l5.32,16.92,4.77-1.5L208,209.21A11.06,11.06,0,0,1,210.74,198Zm-8.19,27-4.63-9.37-.26-.37L175.4,191.94l-2.52-3.6-4.1,2.87,5.46,7.79a3.88,3.88,0,0,1-2.89,6.1l-.53,0a16.82,16.82,0,0,0,.87-5.29,2.5,2.5,0,0,0-.21-1c-1.45-3.33-5.55-13-5.59-13.14l-4.61,1.94c0,.09,3.78,9,5.39,12.69a11.83,11.83,0,0,1-11.82,11.34c-6.28,0-10.83-5-10.83-11.83v-5.54h-5v5.54a18.35,18.35,0,0,0,1.56,7.48l-1.64-.25a4.27,4.27,0,0,1-3.13-6.23l2.86-5.37a2.5,2.5,0,0,0-3.73-3.16c-.48.37-11.8,9.21-24.46,30.34l4.29,2.57a139.57,139.57,0,0,1,15.58-21.44A9.27,9.27,0,0,0,138.2,212l6.57,1a15.35,15.35,0,0,0,10.09,3.67,16.82,16.82,0,0,0,12.83-5.93c.11-.12.2-.26.3-.39l3.74-.28a8.92,8.92,0,0,0,8.22-8.86c0-.07,0-.14,0-.22l12.27,12.83.53,22.51,3-.07-.45-19.22.06.06,4.37,8.85.17,26.15,3,0-.17-26.49ZM83.11,220.62l5.78,19.25,4.79-1.44L87.9,219.18ZM109.82,49c-19.56,14.75-47.32,22.9-47.59,23l1.39,4.8c1.17-.34,28.9-8.47,49.22-23.79ZM229.26,81.42l2.14-4.52C201.64,62.81,183.9,39,183.73,38.72l-4,3C180.44,42.69,198.31,66.76,229.26,81.42ZM215.43,63.15l2.33-4.42c-7.24-3.82-18.19-15.15-18.3-15.27l-3.6,3.47C196.33,47.41,207.48,58.95,215.43,63.15Zm-80.67,5.78,3,.14L141,50.81l-3-.53-1.23,6.84-.89-11.07-3-.22-5.49,23.23,2.92.69,3.3-14Zm3.88-49.51-20.13,2.71.4,3,20.72-2.79L129.29,32.89l3.58,3.49,8.84-9a53.31,53.31,0,0,0,6.06,28.24l4.43-2.32a48.53,48.53,0,0,1-5.55-22.12,40,40,0,0,0,10.95,12.13l3-4c-11.8-8.83-12.7-19-12.73-19.4l-2-.74.06-.49a47.09,47.09,0,0,0-34-.6l1,2.82A44.08,44.08,0,0,1,138.64,19.41Zm-20.45,148,6.37-1.42-.65-2.93-6.37,1.42a29.76,29.76,0,0,1-18.73-2l2.23-3.59,5.4-3,.84-.17a6.08,6.08,0,1,0,10.8.15l7,3,1.17-2.76-11.17-4.73a1.48,1.48,0,0,0-.88-.09l-8.58,1.74a1.51,1.51,0,0,0-.43.16l-5.94,3.3a1.5,1.5,0,0,0-.55.52l-4.28,6.91L97,165.52l.25-.41a32.7,32.7,0,0,0,21,2.33Zm80.71-13.5,4.08,6.57,2.55-1.58L201.24,152a1.5,1.5,0,0,0-.55-.52l-5.94-3.3a1.49,1.49,0,0,0-.6-.18l-8.58-.74a1.5,1.5,0,0,0-.81.16l-11.17,5.73,1.37,2.67,7.61-3.9a6,6,0,0,0,1.15,7.54h-1.48L176,158.1l-.65,2.93,6.37,1.42a1.49,1.49,0,0,0,.32,0l13.38,0h0a1.49,1.49,0,0,0,.63-.14l2.78-1.29-1.26-2.72-2.48,1.15h-3.47a6,6,0,0,0,.33-8.65l1.59.14Zm-31.09,95.95-.33-.14a24.77,24.77,0,0,0-10.6-2,23.79,23.79,0,0,0-8,1.63l-5.29,2.12-8.22-2.24a1.5,1.5,0,1,0-.79,2.89l8.7,2.38,1-.05,5.76-2.31a20.76,20.76,0,0,1,7-1.42,21.7,21.7,0,0,1,9.31,1.72l.33.14a1.5,1.5,0,1,0,1.2-2.75ZM87.55,130.31l20.72-6.42,34.6,4.22.36-3-34.92-4.26-.63.06-21,6.52Zm1.31-9.65,17.9-5.83,43,5.89h.46l38.33-6.52-.5-3L150,117.72l-43.13-5.91-.67.06-18.23,5.94Zm21.48-17.19-16.42,3.7.66,2.93,16.12-3.63,33.15,5.83.39,0,25.08-2.19-.26-3-24.88,2.17-33.25-5.85Zm27.74,40.74,2.95.57,2-10.25-2.95-.57Zm13.39-70.6-5.61-18.69-4.79,1.44,5.61,18.69ZM116.2,249.48l-2.67-10.25,2.63-8.07-4.75-1.55-2.85,8.77a2.5,2.5,0,0,0,0,1.4l2.85,11Zm-13.7-97.81,13.13-1.73-.39-3-13.13,1.73Zm82.14-8.5a1.49,1.49,0,0,0-.56.12l-10.41,4.51,1.19,2.75,10.14-4.4,5.77-.16-.08-3ZM120,62.61l-2.2,5.92,4.69,1.74,8.25-22.21-4.23-2.51c-20.65,23.81-52.87,32.1-53.19,32.18l1.21,4.85a125.3,125.3,0,0,0,30.48-13.07C86,84.71,68,89.31,67.72,89.37l.59,2.43.59,2.43C70.13,93.93,96.55,87.24,120,62.61Zm8.45-33.75-1.35-2.68L102.08,38.86l1.35,2.68Zm173.39,256L243.1,273.47l-22.5-16,11.48-17a51.14,51.14,0,0,0,8.62-24.89l.5-6.83c.27.08.54.16.81.22a9.93,9.93,0,0,0,2.21.25,9.78,9.78,0,0,0,9-6.07L257,194.1a2.5,2.5,0,0,0,.16-.57l2.53-16.2,5.88-15a2.5,2.5,0,0,0,.17-.91V145.3a8.85,8.85,0,0,0-10.58-8.68,59.75,59.75,0,0,0,1.87-18l-1-20.91a33.52,33.52,0,0,0-2-10l-9.88-26.87a80.28,80.28,0,0,0-25.2-35l-15-12A43.72,43.72,0,0,0,176,4.34l-20.35.31a39.94,39.94,0,0,1-15-2.66,30.41,30.41,0,0,0-19.44-.74L92.91,9.67A30.29,30.29,0,0,0,79.45,18L58.79,40A87.61,87.61,0,0,0,36,87.4L35.27,92a159.81,159.81,0,0,0-.85,39.71l1,9.45a35.85,35.85,0,0,0,6.19,16.67L40.21,168a23.27,23.27,0,0,0,.67,9.52L46.69,198a20.32,20.32,0,0,0,1.81,4.38l9.35,16.76a2.48,2.48,0,0,0,.29.42A8.12,8.12,0,0,0,66,222.22c.22,0,.43-.11.64-.17l1.1,5A50.94,50.94,0,0,0,79.6,250.11L55.08,270.64,0,281.76a175.52,175.52,0,0,0,94.51,78.32l2.54,16.63,9.89-1.51,25.28-38.57,18-6,.49,7.32,9.34,2.13L165.8,330h26.32a50.7,50.7,0,0,1,21.26,36.62l9.95-1a63.25,63.25,0,0,0-1.92-10.24A175.67,175.67,0,0,0,301.89,284.83ZM252.4,150.71a2.76,2.76,0,0,1,1.5,2.22l.38,3.9a24.12,24.12,0,0,1-3,14.19l-2.5,4.44a1.5,1.5,0,0,0,2.62,1.47l2.5-4.44a27.11,27.11,0,0,0,3.37-16l-.38-3.9a5.8,5.8,0,0,0-5.26-5.22l1.16-3.28,1.25-1.4a3.86,3.86,0,0,1,6.75,2.56V160.9L255,175.76a2.52,2.52,0,0,0-.14.52l-2.53,16.18-3.65,8.83a4.82,4.82,0,0,1-7.06,2.2l2.54-34.93,6.41-18.11A2.74,2.74,0,0,1,252.4,150.71Zm-5.32-31.6a50.06,50.06,0,0,1-.39,9.07l-14.5-13.31,9.32,3.76,1.65-2.42-13-13.73c5.49,3.16,12.61,8,16.75,13.89Zm-203-16.56A51.45,51.45,0,0,1,62.59,88.07a141.85,141.85,0,0,0-18.85,20.55C43.83,106.59,43.95,104.56,44.12,102.54Zm-.53,13.11a106.13,106.13,0,0,1,9.48-6.14l-9.45,8.73C43.6,117.38,43.59,116.51,43.59,115.65Zm.78,15c-.23-2.26-.4-4.53-.53-6.8l8.26-3.4a56.46,56.46,0,0,0-7.64,11.08Zm20.57,86.64a3.12,3.12,0,0,1-2.87-.85L52.87,200a15.32,15.32,0,0,1-1.37-3.3L45.7,176.17a18.31,18.31,0,0,1-.53-7.49l.77-5.67.36.37a48.27,48.27,0,0,1,3.53,4.12v9.81l.05.39,3.59,13.47,2.9-.77-3.54-13.28v-5.27a48.24,48.24,0,0,1,6,14.72l6.76,30.57A3.15,3.15,0,0,1,64.94,217.33ZM51.23,154A74.19,74.19,0,0,1,57,140L53.8,156.77l-.32-.34-1-1C52,154.94,51.63,154.47,51.23,154ZM77.5,224.87l-9-40.46A58.23,58.23,0,0,0,57.85,161.5l6-10.49-2.6-1.49-4.53,7.91,4.76-24.58-2.64-1.23c-.28.35-5.79,7.22-9.8,19.33a25.84,25.84,0,0,1-1.71-3.3c4.85-13.3,11.22-21.17,11.29-21.26l-2.32-1.9A77.79,77.79,0,0,0,45.86,143.1a25.45,25.45,0,0,1-.51-3l-.28-2.74a52.48,52.48,0,0,1,14.61-20.09l-1.48-2.58-11.49,4.72,16.61-15.35-1.63-2.47A121.15,121.15,0,0,0,46.43,110C59.69,92.71,71.6,84.71,71.73,84.62l-1.16-2.71a56.06,56.06,0,0,0-25.9,15.35c.15-1.27.31-2.53.5-3.79l.68-4.61a77.66,77.66,0,0,1,20.25-42l20.66-22a20.28,20.28,0,0,1,9-5.57l28.32-8.42a20.34,20.34,0,0,1,13,.5,49.72,49.72,0,0,0,18.73,3.32l20.35-.31a33.77,33.77,0,0,1,21.54,7.37l15,12a70.29,70.29,0,0,1,22.06,30.62l9.88,26.87a23.53,23.53,0,0,1,1.39,6.6,57.52,57.52,0,0,0-23.87-12.71l-1,4.89a53.64,53.64,0,0,1,25.29,15.24l.29,6.09c-8.51-9.25-22.28-15.21-23-15.51L222,98.19l14.24,15.08L225.65,109l-1.58,2.5,16.69,15.32L226,119.44l-1.34,2.68,21.16,10.58a50.33,50.33,0,0,1-1.59,5.52l-.23.65A41.51,41.51,0,0,0,231,127l-1.39,2.66a39.77,39.77,0,0,1,13.16,12.73l-1.68,4.76L234,136.4l-2.5,1.66,8.39,12.65-1.23,3.47c-2.1-5.6-4.72-8.13-4.88-8.29l-2,2.19s3.36,3.25,5.26,10.82l-2.69,7.61-3.52,48.39a41.13,41.13,0,0,1-6.93,20l-18.11,26.79a36.38,36.38,0,0,1-24.26,15.49l-8.37,1.35a37.28,37.28,0,0,1-5.93.48H145.89a42.15,42.15,0,0,1-15.32-2.87L118,271.28a31.28,31.28,0,0,1-8.68-5.63L88.69,245.16A41,41,0,0,1,77.5,224.87Zm27.79,134.6L93.42,284.74c7,15.49,16.75,33.51,29.3,48.14ZM190,320H162.88l-4.35,2.54-.05.09-5.25-3.52-22.69,7.57c-15.5-18-26.77-42.16-33.45-59.07l5.22,5.17a36.51,36.51,0,0,0,5.45,4.3c2,1.54,23.7,18.86,30.76,33.92l4.53,2.88c5.49,0,26.35-3.66,28.71-4.08L170,299.92c-7,1.24-18.27,3.08-24,3.7a89.45,89.45,0,0,0-12.07-16,52.16,52.16,0,0,0,12,1.39h21.24a47.39,47.39,0,0,0,7.53-.6l8.37-1.35A46.33,46.33,0,0,0,203,278.7Zm24.94,20.23A61.45,61.45,0,0,0,199.54,323l14.65-46.66A571.94,571.94,0,0,1,214.95,340.2Z" style="fill:#2724ad"/></g></g></svg>