<svg xmlns="http://www.w3.org/2000/svg" viewBox="0 0 288.01 368.91"><title>явлинский</title><g id="Layer_2" data-name="Layer 2"><g id="Layer_1-2" data-name="Layer 1"><path d="M171.34,255.13l-29.49-.55-5.39-2.8a1.5,1.5,0,0,0-1.38,2.66l5.7,3,.66.17,29.84.55h0a1.5,1.5,0,0,0,0-3ZM181,238.48,178.21,246l-5,.77-11.57-4.17-.87,0-6.22,1.53-3.67-2-.78-.17-12.1.61-.41.08-7,2.42.79-1.88-6.2-2.59-3.85,9.23,6.2,2.59,1.35-3.22,18.6,1.48.24-3-12.59-1,3.26-1.13,11.47-.58,3.81,2,1.06.13,6.33-1.56,11.5,4.15.74.07,5-.78,1.16,4.72,4.86-1.19-1.28-5.22,2.63-7.07Zm-43.33-67.7a2.51,2.51,0,0,0,0-.79l-.84-6.48H141v-5H136a1.47,1.47,0,0,0,.05-.17h0s0-.07,0-.11,0-.1,0-.15,0,0,0,0a1.46,1.46,0,0,0,0-.17s0-.08,0-.13a1.45,1.45,0,0,0,0-.16s0-.08,0-.12a1.54,1.54,0,0,0-.07-.14l-.06-.11-.11-.14-.07-.09-.14-.12-.08-.07-.15-.08-.11-.06-.14,0-.14,0h0l-16-3.29-.34,0-15.57.38a1.5,1.5,0,0,0,.07,3l12.44-.3-15.77,2.59a1.5,1.5,0,0,0,.24,3l.25,0,12.61-2.1a4.57,4.57,0,0,0,2.59,6l-12.58-1.17a1.5,1.5,0,1,0-.28,3l14.3,1.33.4,0L128.37,167c-2.72,1.82-7.17,3.68-13.81,3.52-12.19-.34-15.73-3.58-15.83-3.68a1.5,1.5,0,0,0-2.18,2.06c.4.43,4.32,4.24,17.93,4.62h1c8.95,0,14.27-3.47,16.89-5.85l.33,2.55c-.58,2.13-4.55,13.65-22.83,15a18.55,18.55,0,0,1-8.85-2.29,10.32,10.32,0,0,1-5.36-9.16l-2.49-.21-2.49-.23a15.26,15.26,0,0,0,7.76,13.89,23.51,23.51,0,0,0,11.38,3h.26C134,188.49,137.53,171.5,137.67,170.78ZM132.21,163l-.47.06,0,.3-12.23,2.14a4.6,4.6,0,0,0,1.67-6.32l11,.33Zm3,59.44a2.49,2.49,0,0,0,2.58.35l5.08-2.22c3.19,2,7.83,4.62,10.49,4.62l.39,0a13.09,13.09,0,0,0,2.91-.68l.15,11.7,3,0L159.66,223a13.09,13.09,0,0,0,2.76-2.52l1.21-1.48c4.27-.09,10.52-.73,12.35-3.56l.32-.5,4.25,9.71,4.58-2-10.72-24.46h0a2.49,2.49,0,0,0-1.4-1.34l-4.29-1.61-3.89-24.83,4.06-15.31L164,153.78l-4.2,15.82a2.5,2.5,0,0,0-.05,1l4.2,26.79a2.5,2.5,0,0,0,1.59,2L170,201l2.39,10.76-.53.83c-.95.72-5.37,1.38-9.4,1.38a2.5,2.5,0,0,0-1.93.91l-2,2.38a8,8,0,0,1-4.84,2.82v0a14.94,14.94,0,0,1-2.25-.52c-.94-.42-2.12-1-3.38-1.74a9.73,9.73,0,0,1-3.53-7.93l.5-9.64-3-.16-.5,9.59a13.89,13.89,0,0,0,1,5.6,2.47,2.47,0,0,0-.46.13l-4.91,2.14L134,214.93l4.1-9.81-2.31-1-2.15-1.27-18.92,32,4.3,2.55,11.27-19.05Zm51.28-67.78-12.68,7.95.52,1.2h-1.76v3h5.61v1l1.3,1.49,18.31,2.42.49,0,9-1.79-.59-2.94L198,168.71l-3.45-.46a4.57,4.57,0,0,0,1.52-5.6l12.87,1.66a1.5,1.5,0,1,0,.38-3L189,158.72l-.56,0L183.59,160l4.13-2.59,16.32.37a1.53,1.53,0,0,0,1.53-1.47,1.5,1.5,0,0,0-1.47-1.53l-16.77-.38Zm1.38,7.37a4.56,4.56,0,0,0,.29,5.43l-7-.92v-1.22L179.94,164ZM80.51,209.77l6.8,24.87,4.82-1.32-6.8-24.87ZM92.12,102.83c10-10.78,16-21.46,17.71-31.74l-4.93-.83c-3.76,22.31-29.89,41.4-30.16,41.59l2.92,4.06A108.5,108.5,0,0,0,92.12,102.83ZM186,186.77a9.88,9.88,0,0,1-8.44-6.57,16.43,16.43,0,0,1-1-6.05l-5-.3c-.32,5.44,2.14,16.18,13.76,17.87a53.73,53.73,0,0,0,7.67.59c13.55,0,22.16-6.16,24.55-17.8l-4.9-1C209.77,187.24,196.57,188.31,186,186.77ZM221.6,95.91c-6.94,1.33-10.73.67-12.75-.24A40.36,40.36,0,0,0,217.78,91L215,86.88c-9.31,6.28-15.45,5.75-18.59,4.63a33.58,33.58,0,0,0,6.95-5.2l-3.49-3.58c-7.76,7.57-18.46,9.06-26.08,9,11.86-6.4,16.56-12.6,16.83-13l-4-3c-.06.09-5.26,6.94-19,13.48-3.69-.47-6.14-1.67-7.26-3.59-1.78-3.06.08-7.34.1-7.38l-2.28-1-2.28-1c-.12.27-2.94,6.61.11,11.92a10.61,10.61,0,0,0,3.79,3.78c-4.21-.87-7-2.64-8.36-5.28-3-5.91,1.62-14.69,1.66-14.78l-2.2-1.18-2.2-1.19c-.24.45-5.91,11.14-1.73,19.4a13.56,13.56,0,0,0,5.87,5.83c-6.86,1.13-12.48-.47-15.93-4.55a15,15,0,0,1-2.14-15,16.37,16.37,0,0,1,6.95-8.1,22.86,22.86,0,0,0-3.91,12.59h5c0-9.71,8.69-15.84,8.78-15.9l-1.72-4.54c-9.49,1.16-16.69,6.31-19.75,14.13a20.83,20.83,0,0,0-1.16,10.92,9.82,9.82,0,0,1-5.6-3.26c-2.63-3.1-3.42-7.67-3.57-11.4a34,34,0,0,0,.34-6.9l-5-.27a38.54,38.54,0,0,0-.39,6.86c-2.4,14.81-14.64,28.87-14.78,29l3.75,3.31a81.25,81.25,0,0,0,13.18-21.64,17.24,17.24,0,0,0,2.6,4.23,15.34,15.34,0,0,0,11.06,5.31,17.75,17.75,0,0,0,7,7.74c-12.44.07-18.61-5.08-19-5.37l-3.31,3.74c.41.36,7.71,6.62,22.07,6.62a60.94,60.94,0,0,0,17.94-2.9c3.44-1.06,6.58-2.2,9.45-3.37a57,57,0,0,0,9.69.82,48.3,48.3,0,0,0,16.35-2.69,15.63,15.63,0,0,0,9.86,3.13,21,21,0,0,0,2.1-.11c1.32,1.88,4.5,4.56,11.87,4.56a42.16,42.16,0,0,0,7.91-.83ZM77.74,189.52l15.65,5.16L95,189.94l-15.65-5.16Zm50.08-143c-6.54,2-11,1.12-11.47.29l-4.77,1.49c1,3.13,4.56,4.44,8.93,4.44a30.25,30.25,0,0,0,8.81-1.45,28.18,28.18,0,0,0,9.5-4.91l-3.22-3.83A23.45,23.45,0,0,1,127.81,46.48ZM84.66,98.64l-2.86-4c-11.15,5.57-19.25,1.92-23.49-1.22l13.29-2.45V86l-21.24-4L49.46,87l8,1.49-4.88.9-1.52,4c.1.13,8.47,10.57,22.54,9A15.07,15.07,0,0,1,50.1,95.95l-4.67,1.79A20.06,20.06,0,0,0,78.12,105Zm2.45-52.42c9.62.34,12.21,9.17,12.31,9.54l4.83-1.3C103.05,50,98,41.59,87.28,41.22,74,40.73,69,53.69,68.81,54.24L73.5,56c0-.1,3.73-9.76,13.12-9.76Zm6.48,31.43a25,25,0,0,1-9.52,6.73L86,89C99.59,83.21,101.71,73,101.79,72.61l-3.53-2.73L86.05,75.7a52.16,52.16,0,0,0,6.47-22l-5-.2c0,.18-.9,18.42-12.51,27.51l2.62,4.23ZM121.09,40a29.5,29.5,0,0,0,4.91-.43c5.77-1,9.92-3.49,12.33-7.5,2.65-4.4,2.45-9.47,1.95-12.63A35.85,35.85,0,0,1,154.5,21.8l1.78-4.67a40.79,40.79,0,0,0-25.17-1.32l-10.67,2.83,1.28,4.83,10.67-2.83c1-.25,1.93-.46,2.89-.64.4,2.36.67,6.34-1.25,9.52-1.62,2.69-4.61,4.42-8.88,5.14-15.19,2.55-18.9-9.46-19-10l-2.4.69-2.41.68C102.77,31.26,108.7,40,121.09,40Zm56.71,31.88c.94.08,1.89.12,2.85.12,8.86,0,18.48-3.23,19.77-6.12L202,62.43l-3.8,0c-10.35-.12-17.73-2.67-22-7.59a17.13,17.13,0,0,1-3.81-12.42L169.91,42l-2.47-.37A21.93,21.93,0,0,0,172.34,58c3.53,4.16,8.67,6.95,15.33,8.35A30.85,30.85,0,0,1,173,65.91c-7.46-2.31-12.42-8.16-14.74-17.38l-4.85,1.22C157.64,66.68,169,71.14,177.79,71.91ZM182.89,200c.14.14,14,14.15,17.88,41l3-.43c-4-27.91-18.15-42.12-18.75-42.71ZM145.2,147.57l-3,.28.62,6.69,3-.28Zm58.35-2.67,9.21,4.71,1.37-2.67-9.21-4.71a24.59,24.59,0,0,0-14.45-2.46l.41,3A21.55,21.55,0,0,1,203.55,144.89Zm-102.91-.07a33.24,33.24,0,0,1,15.38-3.6v-3a36.26,36.26,0,0,0-16.77,3.94l-5.67,3L95,147.8Zm35.81-1.51-14.33-7.23-1.35,2.68L135.09,146Zm35.22,3.2,1.83,2.38,10.76-8.27-1.83-2.38ZM287,288.17l-63.07-28a30.74,30.74,0,0,0,2.66-6.82l12.14-33.78,3.73-1.1.29-.1a18.4,18.4,0,0,0,9.88-11.46l14.3-44.36a15,15,0,0,0-1.14-11.83c-.17-.29-.34-.58-.52-.84A10,10,0,0,0,257,145.2h0a9.59,9.59,0,0,0-1.44.12,191.32,191.32,0,0,0,7.36-51.56c0-7.86-4.72-19.63-11.33-25.57a42,42,0,0,0-8.66-23.49C236,35.8,196.18,7.87,183.17,4l-.24-.07a46.45,46.45,0,0,0-11.75-.85,56.7,56.7,0,0,1-6.79-.17c-2.49-.28-4.9-.76-7.45-1.28C152.42.73,147.73-.21,142.54,0a142.45,142.45,0,0,0-30.61,4.82l-.28.08c-.54.18-13.23,4.44-18.77,6.72-10,4.12-12.8,8.15-15.38,13a16.76,16.76,0,0,1-5.35,6.55C69.89,32.9,67.66,34.47,65.5,36,57.36,41.74,49.67,47.17,44,57.8a74.17,74.17,0,0,0-7.87,23.27l-2.7,16.72c-1.8,11.13-.38,20.19,4.89,31.12l5.08,26.77a10.88,10.88,0,0,0-10,4.63,14.38,14.38,0,0,0-1.09,14.75L55.59,220.5c6.47,14.89,9.94,15.92,12.26,15.92h.56c.15,0,.31,0,.47-.05l4.83,17L1,285.59l-1,3.73a178.66,178.66,0,0,0,88.77,65.95l2.49,13.65,26.13-29.24,35.52,14.4,28.54-17.33,47,22.23-2.31-15.11,5.23-2,.35-.16A179.5,179.5,0,0,0,288,291.93ZM253.52,151.58a5.17,5.17,0,0,1,3.41-1.38h0a5,5,0,0,1,4.16,2.42q.17.25.32.53a10,10,0,0,1,.74,7.83l-14.3,44.36a13.47,13.47,0,0,1-7,8.35l-.06,0,2.2-6.11.15-.49a31,31,0,0,0,.74-4.3l5.12-39,0-.16a20.86,20.86,0,0,1,3.42-9.55l.33-.49.2-.55C253.07,152.87,253.25,152.38,253.52,151.58ZM41.21,170.5a4.35,4.35,0,0,1,.25-4.28,1.61,1.61,0,0,1,.7-.58l10.9,7.09a20.89,20.89,0,0,1,3.11,7.48l6.36,31.93ZM97.43,347l-5.94-32.5-.09-25.42,18.76,43.67Zm79.37-19.13-24.77,15L119.8,329.85,109.14,305c7.81,8.62,18,17.09,30.26,21.11l3.12-9.5c-10.8-3.55-20-11.52-27-19.53a30.7,30.7,0,0,0,21.69,8.94h32.07a30.73,30.73,0,0,0,13.49-3.15Zm-66.3-36.94a11,11,0,0,1,1,1.3l.15.22ZM187,328.28l9-37.7,1.13-1.86a20.75,20.75,0,0,1,4.67-5.35l3.67-3.52,5.68,32.23,4.56,29.79Zm30-77.63a20.62,20.62,0,0,1-1.22,3.5c-.45-3-1.09-6.66-2-11.16l5.59-27.5-4.9-1-5.69,28a2.49,2.49,0,0,0,0,1c1.16,5.86,2.24,12.55,2.69,16.9a20.47,20.47,0,0,1-1.58,1.44l-14.54,13.92a30.72,30.72,0,0,0-6.75,7.78L187,286.06a20.92,20.92,0,0,1-17.77,10H137.2a20.74,20.74,0,0,1-17.35-9.33,21.19,21.19,0,0,0-10.48-8.22l-.22-.08c-3.68-19.09.62-43.74.67-44a2.5,2.5,0,0,0-4.92-.88c-.19,1.07-4.11,23.53-1.16,42.91a16.84,16.84,0,0,1-7.58-6.19l-5.43-8.07-9.49-22.1v3.22l-7.69-27L66,178.25a31,31,0,0,0-9.48-16.76l-2.24-2-.55-2.88a22.7,22.7,0,0,1,9.58,8.53l4.25-2.63A28,28,0,0,0,52.6,150.72l-2.29-12.05A44,44,0,0,1,68.9,152l3.92-3.1L58.22,129.53a19.09,19.09,0,0,1,6.24,5.37l4.38-2.3-5.19-15.06-4.73,1.63,2.15,6.23a27.39,27.39,0,0,0-9.44-3.33l-2.29,4,7.56,10A47.48,47.48,0,0,0,49.24,133l-1.38-7.3-.3-.61c-4.64-9.41-5.8-16.38-4.29-25.72L46,82.66c.3-1.86.69-3.71,1.15-5.53,2.41,3,6.24,4.71,11.42,5l1,0c7.8,0,14.59-4.54,19.68-13.18a52.19,52.19,0,0,0,5.42-13.29l-4.87-1.12c-.05.23-5.56,23.33-21,22.57-4-.2-6.74-1.41-8.15-3.6a8.5,8.5,0,0,1-1.2-3.69,64.39,64.39,0,0,1,3.35-7.29C57.36,54,63.5,49.65,71.27,44.16c2.23-1.57,4.53-3.2,6.93-5a26.54,26.54,0,0,0,8.12-9.8C88,26.24,89.18,24,96.68,20.91c4.94-2,16.61-6,18-6.44A132.47,132.47,0,0,1,143,10c4-.18,7.86.59,12,1.42,2.64.53,5.37,1.08,8.29,1.41a65.08,65.08,0,0,0,8,.23,39.4,39.4,0,0,1,9.12.54c11.1,3.41,48.82,29.82,54.49,37.18a32.23,32.23,0,0,1,6.65,19.87v2.71l2.27,1.48c4.63,3,9,13.21,9,18.9,0,4.53-.2,8.93-.54,13.15a16.32,16.32,0,0,1-12.13-1.27c-6-3.13-10-9.66-10.71-14.22a18.24,18.24,0,0,1,2.3-12.72l-4.07-2.9a23.26,23.26,0,0,0-3.17,16.42c.95,5.9,5.83,13.93,13.32,17.86a21.2,21.2,0,0,0,9.88,2.45,22.39,22.39,0,0,0,4.06-.39,188.64,188.64,0,0,1-4.62,25.49,25.14,25.14,0,0,0-10.36,4.67,15.56,15.56,0,0,1,4.42-6.94l-2.07-4.4-3.75.76,8.71-8.17-2.63-4.15c-.07,0-7.35,2.83-12.49.34a8.79,8.79,0,0,1-4.55-5.76l-4.78,1.46a13.69,13.69,0,0,0,7.18,8.81,16.89,16.89,0,0,0,7.6,1.5l-8.91,8.35,2.21,4.27,5.84-1.19a38.69,38.69,0,0,0-3.67,13.92l4.69,1.34a19.41,19.41,0,0,1,11-9.28c-.85,2.94-1.53,5-1.84,5.83a30.69,30.69,0,0,0-1.68,3,12.67,12.67,0,0,0-5.27,2.37c-3.5,2.7-5.49,7.15-5.9,13.25l5,.34c.31-4.54,1.62-7.75,3.88-9.55a30.66,30.66,0,0,0-.71,4.11l-5.12,39,0,.16a20.89,20.89,0,0,1-.45,2.73l-16.43,45.7Z" style="fill:#2724ad"/></g></g></svg>