<svg xmlns="http://www.w3.org/2000/svg" viewBox="0 0 162.77 162.77"><defs><style>.cls-1{fill:#4f55ec;}.cls-2{fill:#9296f9;}</style></defs><title>Asset 69</title><g id="Layer_2" data-name="Layer 2"><g id="Layer_1-2" data-name="Layer 1"><circle class="cls-1" cx="81.38" cy="81.38" r="81.38"/><path class="cls-1" d="M73.47,47.57l6,.29a6.41,6.41,0,0,0,.24-2.11,5.53,5.53,0,0,0-1.58-3.82,2.12,2.12,0,0,0-1.44-.6c-.92,0-1.82,1-2.29,2.32a2.84,2.84,0,0,1-1,1.33c0,.23.05.46.06.69A12,12,0,0,1,73.47,47.57Z"/><path class="cls-1" d="M91.42,48.43a6.58,6.58,0,0,0,.27-2.19,5.6,5.6,0,0,0-1.58-3.82,2.11,2.11,0,0,0-1.45-.61c-.91,0-1.81,1-2.28,2.32a2.84,2.84,0,0,1-1,1.31v.05a12.71,12.71,0,0,1-.16,2.64Z"/><path class="cls-1" d="M56.12,45.49a5.55,5.55,0,0,0-1.57-3.82,2.11,2.11,0,0,0-1.45-.61c-.91,0-1.81,1-2.29,2.32a2.76,2.76,0,0,1-1,1.32,14.05,14.05,0,0,1-.07,1.73l6.28.3A7.16,7.16,0,0,0,56.12,45.49Z"/><path class="cls-1" d="M67.78,47.29a7.43,7.43,0,0,0,.08-1.36,5.53,5.53,0,0,0-1.58-3.82,2.08,2.08,0,0,0-1.44-.6c-.92,0-1.81,1-2.29,2.32A2.74,2.74,0,0,1,61.77,45a1.94,1.94,0,0,0,0,.24,13.09,13.09,0,0,1,0,1.78Z"/><path class="cls-1" d="M134.79,120l-89,11.23-.18,0a1.43,1.43,0,0,1-1.34-1l-8.67-25.44,3.82,30.78,96.11-12.93-.7-2.27A3.1,3.1,0,0,1,134.79,120Z"/><path class="cls-1" d="M38.35,45.88l5.74.27a6.49,6.49,0,0,0,.09-1.42,5.53,5.53,0,0,0-1.58-3.82,2.12,2.12,0,0,0-1.44-.6c-.91,0-1.81.95-2.29,2.31a2.71,2.71,0,0,1-.67,1.06c.07.46.12.92.15,1.39C38.36,45.34,38.35,45.61,38.35,45.88Z"/><path class="cls-1" d="M139.08,111.59,53.23,125a3.25,3.25,0,0,1-.44,0,2.84,2.84,0,0,1-1.88-.71c-.41-.36-5.54-5.06-11.6-17.49l7.31,21.46L136.7,116.9l.05,0a2.88,2.88,0,0,1,1-.11L144,116A21.5,21.5,0,0,1,139.08,111.59Z"/><path class="cls-1" d="M102.77,49a6.44,6.44,0,0,0,.28-2.22,5.53,5.53,0,0,0-1.58-3.82,2.15,2.15,0,0,0-1.44-.61c-.92,0-1.82,1-2.29,2.32a2.77,2.77,0,0,1-.44.79c0,.18,0,.36,0,.54a13,13,0,0,1-.17,2.74Z"/><path class="cls-1" d="M113.91,49.51a6.76,6.76,0,0,0,.15-1.78,5.62,5.62,0,0,0-1.58-3.82A2.11,2.11,0,0,0,111,43.3c-.91.05-1.81,1-2.28,2.32l-.1.2c0,.22,0,.44.06.67a12.53,12.53,0,0,1-.17,2.76Z"/><path class="cls-1" d="M23.41,115.21a2.82,2.82,0,0,1,2.09,1.3l7.32,11.6L24.57,61.68l-9.39,60.25L21.09,116a2.83,2.83,0,0,1,2-.83A1.62,1.62,0,0,1,23.41,115.21Z"/><path class="cls-1" d="M32.68,45.6a2.26,2.26,0,0,0,0-.26,5.49,5.49,0,0,0-1.58-3.82,2,2,0,0,0-1.44-.61,2.43,2.43,0,0,0-1.8,1.3l.4,3.18Z"/><path class="cls-1" d="M30.21,55.76a2.58,2.58,0,0,1-.4,0c7.57,42.85,20.52,59.6,24,63.44l88.27-13.78q-10-6.61-18.95-24.59A168,168,0,0,1,114,57.67a7.78,7.78,0,0,1-2.22.48h-.15a2.83,2.83,0,0,1-2.83-2.69,2.24,2.24,0,0,1,0-.52l-3-.14a7.63,7.63,0,0,1-5.09,2.37h-.15a2.83,2.83,0,0,1-2.83-2.68s0-.05,0-.08l-3.27-.16a7.63,7.63,0,0,1-5.12,2.4h-.15A2.83,2.83,0,0,1,86.38,54s0-.07,0-.11l-3.75-.18a7.7,7.7,0,0,1-5.21,2.49h-.15a2.83,2.83,0,0,1-2.83-2.68c0-.07,0-.13,0-.2l-3.11-.15a7.79,7.79,0,0,1-5.82,3.21h-.15a2.84,2.84,0,0,1-2.83-2.68,3,3,0,0,1,.13-1l-3-.14a7.83,7.83,0,0,1-5.9,3.32h-.15a2.84,2.84,0,0,1-2.83-2.69A2.68,2.68,0,0,1,51,52.16L47.62,52a7.8,7.8,0,0,1-5.77,3.15H41.7a2.83,2.83,0,0,1-2.82-2.68,2.93,2.93,0,0,1,.1-.89l-2.11-.1a8,8,0,0,1-6.51,4.27ZM112,78.24a1.42,1.42,0,0,1,2-.15c.65.55,1.35,1.12,2.06,1.66.42-.63.8-1.2,1.1-1.62a1.42,1.42,0,1,1,2.31,1.65c-.29.4-.68,1-1.1,1.61a7.08,7.08,0,0,0,2.09,1.06,1.41,1.41,0,0,1-.15,2.82h-.15a8.91,8.91,0,0,1-3.34-1.5l-1.36,2.13a1.4,1.4,0,0,1-2,.43,1.41,1.41,0,0,1-.43-1.95c.05-.09.66-1.05,1.43-2.24-1-.77-1.88-1.49-2.35-1.89A1.42,1.42,0,0,1,112,78.24Zm-11.27.21a1.4,1.4,0,0,1,2-.16c.65.56,1.36,1.12,2.06,1.66.42-.63.81-1.2,1.1-1.61A1.42,1.42,0,0,1,108.22,80c-.29.41-.68,1-1.1,1.61a6.83,6.83,0,0,0,2.09,1.06,1.42,1.42,0,0,1-.15,2.83h-.15a9.25,9.25,0,0,1-3.34-1.5l-1.36,2.12a1.41,1.41,0,0,1-1.2.66,1.36,1.36,0,0,1-.75-.22,1.42,1.42,0,0,1-.44-2l1.43-2.23c-1-.78-1.88-1.5-2.34-1.9A1.41,1.41,0,0,1,100.76,78.45Zm-11.66.73a1.42,1.42,0,0,1,2-.15c.64.55,1.35,1.12,2.05,1.66.42-.63.81-1.2,1.1-1.62a1.43,1.43,0,0,1,2-.33,1.41,1.41,0,0,1,.33,2c-.29.41-.67,1-1.09,1.61a6.81,6.81,0,0,0,2.08,1.06,1.41,1.41,0,0,1-.15,2.82h-.15a9.1,9.1,0,0,1-3.34-1.49c-.75,1.16-1.34,2.1-1.36,2.12a1.43,1.43,0,0,1-1.19.66,1.4,1.4,0,0,1-.76-.22,1.42,1.42,0,0,1-.44-2l1.43-2.24c-1-.77-1.88-1.49-2.34-1.89A1.42,1.42,0,0,1,89.1,79.18Zm-11.69.22a1.41,1.41,0,0,1,2-.15c.65.55,1.35,1.12,2.06,1.66.41-.63.8-1.2,1.1-1.62a1.42,1.42,0,1,1,2.31,1.65c-.29.4-.68,1-1.1,1.61a6.73,6.73,0,0,0,2.09,1,1.42,1.42,0,0,1-.15,2.83h-.16a9,9,0,0,1-3.33-1.5c-.76,1.17-1.35,2.1-1.36,2.12a1.42,1.42,0,0,1-2.4-1.51c.06-.09.67-1.06,1.44-2.24-1-.77-1.88-1.49-2.35-1.89A1.42,1.42,0,0,1,77.41,79.4Zm-12.31.78a1.42,1.42,0,0,1,2-.15c.64.55,1.35,1.12,2.05,1.66.42-.63.81-1.2,1.11-1.62a1.42,1.42,0,1,1,2.3,1.65c-.29.4-.67,1-1.09,1.61a7.18,7.18,0,0,0,2.08,1.06,1.41,1.41,0,0,1-.14,2.82h-.16a9,9,0,0,1-3.33-1.49c-.76,1.16-1.35,2.1-1.37,2.12a1.42,1.42,0,0,1-2.39-1.52l1.43-2.24c-1-.77-1.87-1.49-2.34-1.89A1.42,1.42,0,0,1,65.1,80.18Zm-12.61.41a1.42,1.42,0,0,1,2-.15c.65.55,1.35,1.12,2.06,1.66.42-.63.8-1.2,1.1-1.62a1.41,1.41,0,0,1,2-.33,1.43,1.43,0,0,1,.33,2c-.29.4-.68,1-1.1,1.61A6.73,6.73,0,0,0,61,84.79a1.42,1.42,0,0,1-.15,2.83h-.15a8.91,8.91,0,0,1-3.34-1.5L56,88.23a1.41,1.41,0,1,1-2.39-1.51c0-.09.66-1.06,1.43-2.24-1-.77-1.88-1.49-2.35-1.89A1.42,1.42,0,0,1,52.49,80.59Zm-12,.62a1.42,1.42,0,0,1,2-.15c.65.55,1.35,1.12,2.06,1.66.42-.63.8-1.2,1.1-1.62A1.42,1.42,0,1,1,48,82.75c-.29.4-.68,1-1.1,1.61A7.08,7.08,0,0,0,49,85.42a1.41,1.41,0,0,1-.15,2.82h-.15a9,9,0,0,1-3.34-1.49L44,88.86a1.4,1.4,0,0,1-2,.43,1.41,1.41,0,0,1-.43-2c0-.09.66-1,1.43-2.24-1-.77-1.88-1.49-2.34-1.89A1.41,1.41,0,0,1,40.49,81.21Z"/><path class="cls-2" d="M33.66,140.07a2.83,2.83,0,0,0,2.16,1.31,2.82,2.82,0,0,0,1.18.26l.38,0,102.25-13.75a2.85,2.85,0,0,0,2-1.28,2.81,2.81,0,0,0,.32-2.36l-1.51-5,8.92-1.12a1.42,1.42,0,0,0,0-2.81c-.17,0-3.43-.63-7-4.29l12.27-1.91a2.84,2.84,0,0,0,2.39-3.05,2.87,2.87,0,0,0-2.87-2.59H154c-17.42,0-31-34.74-35.45-50.18a11.93,11.93,0,0,0,1.17-5.87,11.14,11.14,0,0,0-3.43-7.75,7.66,7.66,0,0,0-5.55-2.07,7.55,7.55,0,0,0-4.63,2,8.53,8.53,0,0,0-.83-.87A7.41,7.41,0,0,0,94.7,39a9.86,9.86,0,0,0-.78-.8,7.64,7.64,0,0,0-5.55-2.07A7.72,7.72,0,0,0,83,38.83a8.78,8.78,0,0,0-1-1.1,7.61,7.61,0,0,0-5.55-2.06,7.73,7.73,0,0,0-5.61,3,10.46,10.46,0,0,0-.74-.75,7.47,7.47,0,0,0-10.83.53,8.45,8.45,0,0,0-.91-1,7.46,7.46,0,0,0-10.8.51,9.75,9.75,0,0,0-1.14-1.26,7.63,7.63,0,0,0-5.55-2.06,7.75,7.75,0,0,0-5.61,3c-.12-.11-.22-.23-.34-.34a7.67,7.67,0,0,0-5.55-2.06A7.91,7.91,0,0,0,23.21,39a2.79,2.79,0,0,0-1.13,1.84l-.13.86a2.13,2.13,0,0,0-.07.44L9.74,120a80.22,80.22,0,0,0,6,9.4l6.89-6.88Zm5.8-4.45-3.82-30.78,8.67,25.44a1.43,1.43,0,0,0,1.34,1l.18,0,89-11.23a3.1,3.1,0,0,0,.08.42l.7,2.27ZM144,116l-6.21.79a2.88,2.88,0,0,0-1,.11l-.05,0L46.62,128.28l-7.31-21.46c6.06,12.43,11.19,17.13,11.6,17.49a2.84,2.84,0,0,0,1.88.71,3.25,3.25,0,0,0,.44,0l85.85-13.4A21.5,21.5,0,0,0,144,116ZM108.65,45.82l.1-.2c.47-1.36,1.37-2.27,2.28-2.32a2.11,2.11,0,0,1,1.45.61,5.62,5.62,0,0,1,1.58,3.82,6.76,6.76,0,0,1-.15,1.78l-5.37-.26a12.53,12.53,0,0,0,.17-2.76C108.7,46.26,108.67,46,108.65,45.82ZM97.3,45.43a2.77,2.77,0,0,0,.44-.79c.47-1.36,1.37-2.27,2.29-2.32a2.15,2.15,0,0,1,1.44.61,5.53,5.53,0,0,1,1.58,3.82,6.44,6.44,0,0,1-.28,2.22l-5.59-.26A13,13,0,0,0,97.35,46C97.34,45.79,97.32,45.61,97.3,45.43Zm-11.88,0a2.84,2.84,0,0,0,1-1.31c.47-1.36,1.37-2.27,2.28-2.32a2.11,2.11,0,0,1,1.45.61,5.6,5.6,0,0,1,1.58,3.82,6.58,6.58,0,0,1-.27,2.19l-6.16-.3a12.71,12.71,0,0,0,.16-2.64Zm-11-1.79c.47-1.37,1.37-2.28,2.29-2.32a2.12,2.12,0,0,1,1.44.6,5.53,5.53,0,0,1,1.58,3.82,6.41,6.41,0,0,1-.24,2.11l-6-.29a12,12,0,0,0,0-1.9c0-.23,0-.46-.06-.69A2.84,2.84,0,0,0,74.45,43.65ZM61.79,45.22a1.94,1.94,0,0,1,0-.24,2.74,2.74,0,0,0,.78-1.15c.48-1.37,1.37-2.28,2.29-2.32a2.08,2.08,0,0,1,1.44.6,5.53,5.53,0,0,1,1.58,3.82,7.43,7.43,0,0,1-.08,1.36l-6-.29A13.09,13.09,0,0,0,61.79,45.22ZM49.85,44.7a2.76,2.76,0,0,0,1-1.32c.48-1.36,1.38-2.27,2.29-2.32a2.11,2.11,0,0,1,1.45.61,5.55,5.55,0,0,1,1.57,3.82,7.16,7.16,0,0,1-.06,1.24l-6.28-.3A14.05,14.05,0,0,0,49.85,44.7Zm-11-2.08c.48-1.36,1.38-2.27,2.29-2.31a2.12,2.12,0,0,1,1.44.6,5.53,5.53,0,0,1,1.58,3.82,6.49,6.49,0,0,1-.09,1.42l-5.74-.27c0-.27,0-.54,0-.81,0-.47-.08-.93-.15-1.39A2.71,2.71,0,0,0,38.87,42.62Zm-2,8.86,2.11.1a2.93,2.93,0,0,0-.1.89,2.83,2.83,0,0,0,2.82,2.68h.15A7.8,7.8,0,0,0,47.62,52l3.35.16a2.68,2.68,0,0,0-.15,1.06,2.84,2.84,0,0,0,2.83,2.69h.15a7.83,7.83,0,0,0,5.9-3.32l3,.14a3,3,0,0,0-.13,1,2.84,2.84,0,0,0,2.83,2.68h.15a7.79,7.79,0,0,0,5.82-3.21l3.11.15c0,.07,0,.13,0,.2a2.83,2.83,0,0,0,2.83,2.68h.15a7.7,7.7,0,0,0,5.21-2.49l3.75.18s0,.08,0,.11a2.83,2.83,0,0,0,2.83,2.69h.15a7.63,7.63,0,0,0,5.12-2.4l3.27.16s0,.05,0,.08a2.83,2.83,0,0,0,2.83,2.68h.15a7.63,7.63,0,0,0,5.09-2.37l3,.14a2.24,2.24,0,0,0,0,.52,2.83,2.83,0,0,0,2.83,2.69h.15a7.78,7.78,0,0,0,2.22-.48,168,168,0,0,0,9.17,23.12q8.87,17.94,18.95,24.59L53.8,119.16c-3.47-3.84-16.42-20.59-24-63.44a2.58,2.58,0,0,0,.4,0h.15A8,8,0,0,0,36.87,51.48ZM29.66,40.91a2,2,0,0,1,1.44.61,5.49,5.49,0,0,1,1.58,3.82,2.26,2.26,0,0,1,0,.26l-4.42-.21-.4-3.18A2.43,2.43,0,0,1,29.66,40.91Zm-14.48,81,9.39-60.25,8.25,66.43-7.32-11.6a2.82,2.82,0,0,0-2.09-1.3,1.62,1.62,0,0,0-.31,0,2.83,2.83,0,0,0-2,.83Z"/><path class="cls-2" d="M91.59,83.07l-1.43,2.24a1.42,1.42,0,0,0,.44,2,1.4,1.4,0,0,0,.76.22,1.43,1.43,0,0,0,1.19-.66s.61-1,1.36-2.12a9.1,9.1,0,0,0,3.34,1.49h.15a1.41,1.41,0,0,0,.15-2.82,6.81,6.81,0,0,1-2.08-1.06c.42-.63.8-1.2,1.09-1.61a1.41,1.41,0,0,0-.33-2,1.43,1.43,0,0,0-2,.33c-.29.42-.68,1-1.1,1.62-.7-.54-1.41-1.11-2.05-1.66a1.42,1.42,0,0,0-1.85,2.15C89.71,81.58,90.58,82.3,91.59,83.07Z"/><path class="cls-2" d="M79.91,83.29c-.77,1.18-1.38,2.15-1.44,2.24A1.42,1.42,0,0,0,80.87,87s.6-1,1.36-2.12a9,9,0,0,0,3.33,1.5h.16a1.42,1.42,0,0,0,.15-2.83,6.73,6.73,0,0,1-2.09-1c.42-.64.81-1.21,1.1-1.61a1.42,1.42,0,1,0-2.31-1.65c-.3.42-.69,1-1.1,1.62-.71-.54-1.41-1.11-2.06-1.66a1.42,1.42,0,0,0-1.85,2.15C78,81.8,78.89,82.52,79.91,83.29Z"/><path class="cls-2" d="M55,84.48c-.77,1.18-1.38,2.15-1.43,2.24A1.41,1.41,0,1,0,56,88.23l1.36-2.12a8.91,8.91,0,0,0,3.34,1.5h.15A1.42,1.42,0,0,0,61,84.79a6.73,6.73,0,0,1-2.09-1.05c.42-.64.81-1.21,1.1-1.61a1.43,1.43,0,0,0-.33-2,1.41,1.41,0,0,0-2,.33c-.3.42-.68,1-1.1,1.62-.71-.54-1.41-1.11-2.06-1.66a1.42,1.42,0,1,0-1.85,2.15C53.11,83,54,83.71,55,84.48Z"/><path class="cls-2" d="M43,85.1c-.77,1.19-1.38,2.15-1.43,2.24a1.41,1.41,0,0,0,.43,2,1.4,1.4,0,0,0,2-.43l1.36-2.12a9,9,0,0,0,3.34,1.49h.15A1.41,1.41,0,0,0,49,85.42a7.08,7.08,0,0,1-2.09-1.06c.42-.63.81-1.21,1.1-1.61a1.42,1.42,0,1,0-2.31-1.65c-.3.42-.68,1-1.1,1.62-.71-.54-1.41-1.11-2.06-1.66a1.41,1.41,0,1,0-1.84,2.15C41.11,83.61,42,84.33,43,85.1Z"/><path class="cls-2" d="M67.59,84.07l-1.43,2.24a1.42,1.42,0,1,0,2.39,1.52s.61-1,1.37-2.12a9,9,0,0,0,3.33,1.49h.16a1.41,1.41,0,0,0,.14-2.82,7.18,7.18,0,0,1-2.08-1.06c.42-.63.8-1.21,1.09-1.61a1.42,1.42,0,1,0-2.3-1.65c-.3.42-.69,1-1.11,1.62-.7-.54-1.41-1.11-2.05-1.66a1.42,1.42,0,0,0-1.85,2.15C65.72,82.58,66.58,83.3,67.59,84.07Z"/><path class="cls-2" d="M103.25,82.34l-1.43,2.23a1.42,1.42,0,0,0,.44,2,1.36,1.36,0,0,0,.75.22,1.41,1.41,0,0,0,1.2-.66L105.57,84a9.25,9.25,0,0,0,3.34,1.5h.15a1.42,1.42,0,0,0,.15-2.83,6.83,6.83,0,0,1-2.09-1.06c.42-.63.81-1.2,1.1-1.61a1.42,1.42,0,0,0-2.31-1.64c-.29.41-.68,1-1.1,1.61-.7-.54-1.41-1.1-2.06-1.66a1.41,1.41,0,0,0-1.84,2.15C101.37,80.84,102.24,81.56,103.25,82.34Z"/><path class="cls-2" d="M114.53,82.13c-.77,1.19-1.38,2.15-1.43,2.24a1.41,1.41,0,0,0,.43,1.95,1.4,1.4,0,0,0,2-.43l1.36-2.13a8.91,8.91,0,0,0,3.34,1.5h.15a1.41,1.41,0,0,0,.15-2.82,7.08,7.08,0,0,1-2.09-1.06c.42-.63.81-1.21,1.1-1.61a1.42,1.42,0,1,0-2.31-1.65c-.3.42-.68,1-1.1,1.62-.71-.54-1.41-1.11-2.06-1.66a1.42,1.42,0,1,0-1.85,2.15C112.65,80.64,113.51,81.36,114.53,82.13Z"/></g></g></svg>