<svg xmlns="http://www.w3.org/2000/svg" viewBox="0 0 162.77 162.77"><defs><style>.cls-1{fill:#4f55ec;}.cls-2{fill:#9296f9;}</style></defs><title>Asset 44</title><g id="Layer_2" data-name="Layer 2"><g id="Layer_1-2" data-name="Layer 1"><circle class="cls-1" cx="81.38" cy="81.38" r="81.38"/><path class="cls-1" d="M78.33,122.93a2.84,2.84,0,0,1,.86-3.43c2.77-2.11,5.11-4,7.13-5.68a11.06,11.06,0,0,0-3.3-.29A28.71,28.71,0,0,1,79,116.71c-3.57,2.28-7.33,7.39-9.71,11.1l5.41-.59,1.12-.12c18.17-2,25.13-4,27.75-5.17a11.51,11.51,0,0,0-3.21-.75h0c-1.45,0-10.71,1.7-18.83,3.35A2.83,2.83,0,0,1,78.33,122.93Z"/><path class="cls-1" d="M85.56,40.8a3,3,0,0,1,.23.69c1.56,3,5.4,8.58,11.79,7.28a78.19,78.19,0,0,0,2.91-8,0,0,0,0,1,0,0,3,3,0,0,1,.08-.59c2-7.51-1.22-11.24-3.35-12.8C94,25,89.5,24.72,86.47,26.68c-.86.56-3.5,2.27-2.7,8A23,23,0,0,0,85.56,40.8Z"/><path class="cls-1" d="M58.44,114.83A133.75,133.75,0,0,0,75.51,95.7a2.82,2.82,0,0,1,4.75.22c1.55,2.66,6.28,4.34,7.81,4.72a3.42,3.42,0,0,1,.34.13,60.47,60.47,0,0,1,8.09-12,1.41,1.41,0,1,1,2.15,1.84,56.56,56.56,0,0,0-8.46,13,2.78,2.78,0,0,1-.28,1.05c0,.06-.24.45-.59,1,0,.07,0,.11,0,.12a1.36,1.36,0,0,1-.38.56,35.59,35.59,0,0,1-3.25,4.4,7.53,7.53,0,0,1,3,1,58.07,58.07,0,0,0,11-12.36,53.11,53.11,0,0,1,4.92-6.35c3.6-3.92,4.42-8.26,3.37-10.52-.66-1.41-4.47-2.06-6.82-2a2.83,2.83,0,0,1-2.06-.77c-1.52,1.5-5.13,4-12.52,4A52.94,52.94,0,0,1,70.89,81c-5.4,5.54-14,24.36-17,31.19a2.93,2.93,0,0,1-1.22,1.36c-7.79,4.39-16.46,12.56-23.65,20.24a11,11,0,0,1,5.17,2.29c5.14-5.21,11.1-10.2,16.61-14.8C53.58,119,56.17,116.85,58.44,114.83Z"/><path class="cls-1" d="M97.58,77.25a1.47,1.47,0,0,1,.87-.62,2.75,2.75,0,0,1,.53-.82A38.54,38.54,0,0,0,107.65,60a2.84,2.84,0,0,1,4.4-1.68c3.47,2.45,13.55,6.5,17.15,7.86a2.82,2.82,0,0,1,1.58,1.49c4.4,9.78,9.18,13.74,11.43,15.16.69-.71.93-1.27.89-1.61-.14-1.08-2.35-2.62-3.88-3.25A2.83,2.83,0,0,1,137.47,75c.23-2.2-4.11-11.15-6-12.44a21,21,0,0,0-2.73-1.35c-3-1.32-7-3.13-10.18-7.08a14.37,14.37,0,0,0-7-4.66,9.31,9.31,0,0,1-2.41-1.14c-.83-.63-4.53-3.17-6.62-4.6-1,3-2.53,6.57-2.62,6.77a1.4,1.4,0,0,1-.93.81,12.2,12.2,0,0,1-3.24.45c-5.26,0-9.13-3.65-11.46-7.24a2.82,2.82,0,0,1-1.25.31,19.61,19.61,0,0,0-9.86,3.25c-5.32,3.79-20.71,11.77-21.36,12.11-2.7,1.34-8.31,9.33-11.45,14.59a2.78,2.78,0,0,1-.8.87c-3.83,2.68-3.92,4-3.92,4,.21.55,2.1,1.46,4.29,2,2.67-2.87,2.34-5.24,2.33-5.35a2.72,2.72,0,0,1,1.08-2.78c4.21-3.16,12.36-11.74,12.44-11.83a2.82,2.82,0,0,1,.92-.64c15-6.59,19.52-5.14,21.62-3.48a4.93,4.93,0,0,1,1.87,4.34,26.36,26.36,0,0,1-7,16.86C92.7,84.48,97.53,77.33,97.58,77.25Z"/><path class="cls-2" d="M52.56,148.29a4.15,4.15,0,0,0-.26-4.23c-3.08-4.7-9.16-4.67-14.57-3.42,5.06-5.21,11.16-10.31,16.75-15,2.77-2.31,5.38-4.5,7.72-6.57A131.22,131.22,0,0,0,78,101.83a20.63,20.63,0,0,0,5.11,3.07,27.29,27.29,0,0,1-7.2,7c-7.05,4.52-13.31,15.94-13.58,16.43,0,0,0,.09,0,.13-3.33.3-6.49.52-8.49.52a2.84,2.84,0,0,0,0,5.67c5.16,0,17-1.33,21.51-1.82l1.11-.13c31.78-3.48,34.25-7.37,34.06-11.06-.26-5-8.83-6.15-10.12-6.16h0a79.81,79.81,0,0,0-8.8,1.31c7.65-6.65,10.37-10.59,12.84-14.17a48.6,48.6,0,0,1,4.42-5.74c4.82-5.24,6.56-12,4.34-16.74-1.26-2.71-4-4-6.58-4.67a45.37,45.37,0,0,0,5.51-10.61c4.71,2.48,11.43,5.15,14,6.17,3.76,8,7.8,12.49,10.84,15l0,18.59a2.83,2.83,0,0,0,2.83,2.84h0a2.85,2.85,0,0,0,2.84-2.83l0-15.6a2.87,2.87,0,0,0,1.68-.54c3.3-2.43,4.79-5.11,4.43-8-.43-3.52-3.66-5.85-5.71-7-.84-5.22-5.43-13.64-8.42-15.64A24.62,24.62,0,0,0,131,56.07c-2.7-1.21-5.76-2.57-8.08-5.46a20.15,20.15,0,0,0-9.44-6.42c-.37-.14-.82-.3-1-.39-1-.73-4.06-2.85-6-4.18,1.27-7-.87-13.17-5.94-16.87s-12.18-4.07-17.18-.82c-4.27,2.76-6.08,7.46-5.24,13.58a26.6,26.6,0,0,0,.94,4.15,24,24,0,0,0-9.22,3.84c-5,3.56-20.51,11.62-20.62,11.67-4.79,2.37-11.49,13-13.44,16.23-2.16,1.54-6.76,5.17-5.69,9.6l0,.07-27.21,22c.54,2,1.14,3.9,1.83,5.81L33.84,85.38a20,20,0,0,0,6.63,2.13,2.8,2.8,0,0,0,2.27-.68c3.87-3.43,5.07-7.17,5.2-9.72,4.11-3.39,10-9.44,11.56-11.1,10.4-4.51,14-4.3,15-4.08-.33,9.12-7.21,14.7-7.28,14.75a2.73,2.73,0,0,0-.25.23c-6.59,6.59-15.89,27.57-17.9,32.21-10,5.92-21,17-28.85,25.94q1.89,2.16,3.91,4.17c.82-.92,1.66-1.87,2.54-2.84a9.77,9.77,0,0,1,5.59,1.76q-2.21,2.37-4.1,4.79,2.89,2.51,6,4.73c4.35-1.62,9.83-2.94,12.4-1.4-1.8.94-5.47,1.91-10.34,2.84a82.14,82.14,0,0,0,7.06,4.21C49.81,151.57,51.74,149.89,52.56,148.29Zm47.75-27.11h0a11.51,11.51,0,0,1,3.21.75c-2.62,1.14-9.58,3.18-27.75,5.17l-1.12.12-5.41.59c2.38-3.71,6.14-8.82,9.71-11.1A28.71,28.71,0,0,0,83,113.53a11.06,11.06,0,0,1,3.3.29c-2,1.69-4.36,3.57-7.13,5.68a2.83,2.83,0,0,0,2.29,5C89.6,122.88,98.86,121.18,100.31,121.18ZM86.47,26.68c3-2,7.55-1.69,10.76.65,2.13,1.56,5.4,5.29,3.35,12.8a3,3,0,0,0-.08.59,0,0,0,0,0,0,0,78.19,78.19,0,0,1-2.91,8c-6.39,1.3-10.23-4.28-11.79-7.28a3,3,0,0,0-.23-.69,23,23,0,0,1-1.79-6.07C83,29,85.61,27.24,86.47,26.68ZM80.19,61.91a4.93,4.93,0,0,0-1.87-4.34c-2.1-1.66-6.63-3.11-21.62,3.48a2.82,2.82,0,0,0-.92.64c-.08.09-8.23,8.67-12.44,11.83a2.72,2.72,0,0,0-1.08,2.78c0,.11.34,2.48-2.33,5.35-2.19-.5-4.08-1.41-4.29-2,0,0,.09-1.32,3.92-4a2.78,2.78,0,0,0,.8-.87c3.14-5.26,8.75-13.25,11.45-14.59.65-.34,16-8.32,21.36-12.11A19.61,19.61,0,0,1,83,44.87a2.82,2.82,0,0,0,1.25-.31c2.33,3.59,6.2,7.24,11.46,7.24A12.2,12.2,0,0,0,99,51.35a1.4,1.4,0,0,0,.93-.81c.09-.2,1.6-3.76,2.62-6.77,2.09,1.43,5.79,4,6.62,4.6a9.31,9.31,0,0,0,2.41,1.14,14.37,14.37,0,0,1,7,4.66c3.18,3.95,7.23,5.76,10.18,7.08a21,21,0,0,1,2.73,1.35c1.92,1.29,6.26,10.24,6,12.44A2.83,2.83,0,0,0,139.22,78c1.53.63,3.74,2.17,3.88,3.25,0,.34-.2.9-.89,1.61-2.25-1.42-7-5.38-11.43-15.16a2.82,2.82,0,0,0-1.58-1.49c-3.6-1.36-13.68-5.41-17.15-7.86a2.84,2.84,0,0,0-4.4,1.68A38.54,38.54,0,0,1,99,75.81a19.19,19.19,0,0,0-1.4,1.44c0,.08-4.88,7.23-24.38,1.52A26.36,26.36,0,0,0,80.19,61.91Zm-51.12,71.9c7.19-7.68,15.86-15.85,23.65-20.24a2.93,2.93,0,0,0,1.22-1.36c2.9-6.83,11.55-25.65,17-31.19a52.94,52.94,0,0,0,15.69,2.8c7.39,0,11-2.5,12.52-4a2.83,2.83,0,0,0,2.06.77c2.35-.09,6.16.56,6.82,2,1,2.26.23,6.6-3.37,10.52a53.11,53.11,0,0,0-4.92,6.35,58.07,58.07,0,0,1-11,12.36,7.53,7.53,0,0,0-3-1,35.59,35.59,0,0,0,3.25-4.4,1.36,1.36,0,0,0,.38-.56s0,0,0-.12c.35-.6.56-1,.59-1a2.78,2.78,0,0,0,.28-1.05,56.56,56.56,0,0,1,8.46-13,1.41,1.41,0,1,0-2.15-1.84,60.47,60.47,0,0,0-8.09,12,3.42,3.42,0,0,0-.34-.13c-1.53-.38-6.26-2.06-7.81-4.72a2.82,2.82,0,0,0-4.75-.22,133.75,133.75,0,0,1-17.07,19.13c-2.27,2-4.86,4.18-7.59,6.47-5.51,4.6-11.47,9.59-16.61,14.8A11,11,0,0,0,29.07,133.81Z"/></g></g></svg>