<svg xmlns="http://www.w3.org/2000/svg" viewBox="0 0 162.77 162.77"><defs><style>.cls-1{fill:#4f55ec;}.cls-2{fill:#9296f9;}</style></defs><title>Asset 43</title><g id="Layer_2" data-name="Layer 2"><g id="Layer_1-2" data-name="Layer 1"><circle class="cls-1" cx="81.38" cy="81.38" r="81.38"/><path class="cls-1" d="M27.59,77.19a32.1,32.1,0,0,0,4.35,10.24l4.7-43.89C28.18,55.25,25.13,66.54,27.59,77.19Z"/><polygon class="cls-1" points="89.34 131.71 144.42 121.93 144.42 93.05 89.34 102.83 89.34 131.71"/><polygon class="cls-1" points="41.65 103.17 41.65 95.99 36.16 96.79 41.65 103.17"/><polygon class="cls-1" points="47.32 126.94 83.67 131.85 83.67 103 47.32 99.07 47.32 126.94"/><path class="cls-2" d="M145.17,127.55l2.58-.46a2.78,2.78,0,0,0,1.47-.76c.25-.37.48-.74.71-1.1a2.84,2.84,0,0,0,.16-.93V89.67a2.83,2.83,0,0,0-3.33-2.79l-.83.15-24.57-1.77a1.51,1.51,0,0,0-.48.06,9.08,9.08,0,0,0-2.53-1.62c-.62-.31-1.27-.62-1.37-.91s-.14-.72.65-2.31a7.55,7.55,0,0,0,.49-6.18c-1.51-4-6.32-6.07-6.52-6.16a1.42,1.42,0,0,0-1.52,2.34,4.42,4.42,0,0,1,1.67,3.32A5,5,0,0,1,110,77a1.42,1.42,0,1,0,1.77,2.22A7.91,7.91,0,0,0,114.58,74a1,1,0,0,0,0-.17,5.6,5.6,0,0,1,.87,1.52,4.7,4.7,0,0,1-.37,3.92c-.94,1.88-1.19,3.31-.8,4.48a4.72,4.72,0,0,0,2.83,2.55c1.47.71,2.63,1.27,2.71,3.62a1.41,1.41,0,0,0,1.41,1.37h.05a1.42,1.42,0,0,0,1.37-1.46,8.42,8.42,0,0,0-.2-1.6l12.07.87L86.41,97.6l-32.7-3.54,21.9-3.58a10.07,10.07,0,0,0,6,5.17,1.34,1.34,0,0,0,.35,0,1.42,1.42,0,0,0,.35-2.79s-5.48-1.5-5.3-9a9.2,9.2,0,0,1,2.7-6.58A11.55,11.55,0,0,0,82,73.81c.9,2.63,1.3,5.14.4,6.17a3.09,3.09,0,0,0-.7,3.48c.81,1.71,3.14,2.42,5.13,2.36A5.78,5.78,0,0,0,92,82.93a4.55,4.55,0,0,0,1.75-2.76c.46-2.22-.57-4.84-3.06-7.81-2.86-3.41-2.13-4.15-.37-5.93a10.06,10.06,0,0,0,2.75-4c1.79-5.35-.1-7.79-4.84-12.1a5.51,5.51,0,0,1-1.49-5,12.91,12.91,0,0,0,5.39,4.74c8.86,4.66,12.21,7.38,10,12.15-.53,1.12-1.08,2.17-1.61,3.18-1.68,3.23-3.14,6-2.32,8.6a6.43,6.43,0,0,0,3.5,3.65l.13.07c5.76,3,8.65,4.49,5.79,11.28a1.42,1.42,0,1,0,2.61,1.1c3.88-9.21-1.45-12-7.09-14.89L103,75.2a3.86,3.86,0,0,1-2.1-2c-.46-1.46.74-3.76,2.14-6.42.54-1,1.1-2.13,1.65-3.31,3.73-8-4.22-12.16-11.23-15.85-6.54-3.45-4.9-7.44-4.7-7.88a1.41,1.41,0,0,0-.58-1.87,1.42,1.42,0,0,0-1.9.51c-.22.37-5.42,9.11,0,14.09C91,56.68,91.58,58,90.41,61.58a7.64,7.64,0,0,1-2.08,2.86c-2.36,2.38-4,4.75.21,9.74C91,77.11,91.14,78.8,91,79.54a1.73,1.73,0,0,1-.74,1.16,1.46,1.46,0,0,0-.69.74c-.45,1.15-1.84,1.55-3,1.55h0a3,3,0,0,1-2.29-.72s0-.14.26-.43c3.46-4-1.55-13.19-2.59-15a1.42,1.42,0,0,0-2.62,1c1,4.37-.16,5.74-1.76,7.64a12,12,0,0,0-3.36,8.35,14.89,14.89,0,0,0,.39,3.92l-31.22,5.1L37,93.81,43.05,37l58.42-4.08L98.24,47.26a2.85,2.85,0,0,0,2.14,3.39,3.38,3.38,0,0,0,.63.07,2.84,2.84,0,0,0,2.76-2.22l4.07-18.06a2.84,2.84,0,0,0-.62-2.47,2.8,2.8,0,0,0-2.35-1L40.33,31.5h-.11a3,3,0,0,0-.43.08l-.16.05a1.85,1.85,0,0,0-.33.12l-.15.07-.34.22-.09.06a2.58,2.58,0,0,0-.34.32l0,0h0C26.23,45.92,20.46,59.28,21.17,72.17a37.11,37.11,0,0,0,11,24.44,2,2,0,0,0,.28.21l9.21,10.69v21.9a2.84,2.84,0,0,0,2.46,2.81l4.78.65L43.1,153.21c1.69.9,3.42,1.73,5.18,2.52l6.29-22.09L79.14,137l-.35,25.74c.86,0,1.72.07,2.59.07,1,0,2.06,0,3.08-.08l.33-25,1.33.18a2.06,2.06,0,0,0,.35,0h0a2.92,2.92,0,0,0,.5-.05l22.72-4,2.18,23q2.79-1.12,5.47-2.45l-2.05-21.53,24.22-4.3,2.3,7.31c1.51-1.68,2.94-3.41,4.31-5.21ZM31.94,87.43a32.1,32.1,0,0,1-4.35-10.24c-2.46-10.65.59-21.94,9.05-33.65Zm9.71,15.74-5.49-6.38,5.49-.8Zm42,28.68-36.35-4.91V99.07L83.67,103Zm60.75-9.92-55.08,9.78V102.83l55.08-9.78Z"/></g></g></svg>