<svg xmlns="http://www.w3.org/2000/svg" viewBox="0 0 162.77 162.77"><defs><style>.cls-1{fill:#4f55ec;}.cls-2{fill:#9296f9;}</style></defs><title>Asset 56</title><g id="Layer_2" data-name="Layer 2"><g id="Layer_1-2" data-name="Layer 1"><circle class="cls-1" cx="81.38" cy="81.38" r="81.38"/><path class="cls-1" d="M39.1,117.39h84.2V88H39.1Zm76.21-20.47a1.42,1.42,0,1,1,2.83,0v16.19a1.42,1.42,0,1,1-2.83,0Zm-6.13,0a1.42,1.42,0,1,1,2.83,0v16.19a1.42,1.42,0,1,1-2.83,0Zm-8.43,15.77,3.06-15.89a1.42,1.42,0,0,1,2.78.54l-3.06,15.89a1.41,1.41,0,0,1-1.39,1.15,1.24,1.24,0,0,1-.27,0A1.41,1.41,0,0,1,100.75,112.69ZM96.12,96.92a1.42,1.42,0,1,1,2.84,0v16.19a1.42,1.42,0,0,1-2.84,0Zm-8.44-1a1.42,1.42,0,0,1,1.79.91l5,15.4a1.42,1.42,0,0,1-.91,1.78,1.39,1.39,0,0,1-.44.07,1.42,1.42,0,0,1-1.35-1l-5-15.4A1.42,1.42,0,0,1,87.68,96Zm-4.61-2a1.42,1.42,0,0,1,2.84,0v18.86a1.42,1.42,0,1,1-2.84,0Zm-6.92,2.91a1.42,1.42,0,1,1,2.83,0v16.19a1.42,1.42,0,1,1-2.83,0Zm-6.13,0a1.42,1.42,0,1,1,2.83,0v16.19a1.42,1.42,0,1,1-2.83,0Zm-13.17-1a1.41,1.41,0,0,1,1.76.95l4.64,15.51a1.43,1.43,0,0,1-1,1.77,1.51,1.51,0,0,1-.41.06,1.43,1.43,0,0,1-1.36-1L55.89,97.67A1.43,1.43,0,0,1,56.85,95.9Zm-6-1.89a1.42,1.42,0,1,1,2.83,0v18.86a1.42,1.42,0,1,1-2.83,0ZM45.1,94a1.42,1.42,0,1,1,2.84,0v18.86a1.42,1.42,0,1,1-2.84,0Z"/><path class="cls-1" d="M39.1,148h84.2V123.06H39.1Zm74.47-2.95,3.54-15.79a1.42,1.42,0,0,1,2.77.62l-3.54,15.8a1.43,1.43,0,0,1-1.39,1.1l-.31,0A1.42,1.42,0,0,1,113.57,145.05Zm-4.39-15.68a1.42,1.42,0,0,1,2.83,0v16.19a1.42,1.42,0,1,1-2.83,0Zm-8.43,15.78,3.06-15.9a1.42,1.42,0,0,1,2.78.54l-3.06,15.89a1.41,1.41,0,0,1-1.39,1.15l-.27,0A1.41,1.41,0,0,1,100.75,145.15Zm-4.63-15.78a1.42,1.42,0,0,1,2.84,0v16.19a1.42,1.42,0,1,1-2.84,0Zm-4.42-2.91a1.42,1.42,0,0,1,2.84,0v18.87a1.42,1.42,0,0,1-2.84,0Zm-8.56,18.27,5-15.4a1.42,1.42,0,0,1,2.7.88l-5,15.39a1.42,1.42,0,0,1-1.35,1,1.35,1.35,0,0,1-.44-.07A1.42,1.42,0,0,1,83.14,144.73Zm-7-15.36a1.42,1.42,0,0,1,2.83,0v16.19a1.42,1.42,0,1,1-2.83,0Zm-7.87,15.68,3.55-15.79a1.42,1.42,0,0,1,2.77.62L71,145.68a1.42,1.42,0,0,1-1.38,1.1,1.63,1.63,0,0,1-.31,0A1.41,1.41,0,0,1,68.28,145.05Zm-11.43-16.7a1.43,1.43,0,0,1,1.76,1l4.64,15.51a1.41,1.41,0,0,1-1,1.76,1.51,1.51,0,0,1-.41.06,1.43,1.43,0,0,1-1.36-1l-4.64-15.51A1.43,1.43,0,0,1,56.85,128.35Zm-6-1.89a1.42,1.42,0,1,1,2.83,0v18.87a1.42,1.42,0,0,1-2.83,0Zm-8.21,18.15,5-18.19a1.42,1.42,0,1,1,2.73.76l-5,18.18a1.43,1.43,0,0,1-1.37,1,1.28,1.28,0,0,1-.38-.05A1.43,1.43,0,0,1,42.63,144.61Z"/><path class="cls-1" d="M39.1,82.3h84.2V49.37H39.1Zm76.21-24.83a1.42,1.42,0,1,1,2.83,0V76.34a1.42,1.42,0,1,1-2.83,0Zm-5.74,0a1.42,1.42,0,1,1,2.84,0V76.34a1.42,1.42,0,1,1-2.84,0ZM100,75.83l4.63-15.51a1.42,1.42,0,0,1,2.72.81l-4.64,15.51a1.42,1.42,0,0,1-1.36,1,1.39,1.39,0,0,1-.4-.06A1.41,1.41,0,0,1,100,75.83ZM90.39,60.39a1.42,1.42,0,1,1,2.83,0V76.57a1.42,1.42,0,1,1-2.83,0Zm-6.13,0a1.42,1.42,0,1,1,2.83,0V76.57a1.42,1.42,0,1,1-2.83,0Zm-6.92-2.92a1.42,1.42,0,1,1,2.83,0V76.34a1.42,1.42,0,1,1-2.83,0ZM68.78,75.74l5-15.4a1.42,1.42,0,1,1,2.69.88l-5,15.4a1.41,1.41,0,0,1-1.35,1,1.61,1.61,0,0,1-.43-.07A1.42,1.42,0,0,1,68.78,75.74ZM64.29,60.39a1.42,1.42,0,1,1,2.83,0V76.57a1.42,1.42,0,1,1-2.83,0Zm-6.52-1.25a1.42,1.42,0,0,1,1.66,1.12l3.06,15.9a1.41,1.41,0,0,1-1.12,1.66,1.24,1.24,0,0,1-.27,0,1.43,1.43,0,0,1-1.39-1.15L56.65,60.8A1.41,1.41,0,0,1,57.77,59.14Zm-6.54,1.25a1.42,1.42,0,0,1,2.84,0V76.57a1.42,1.42,0,0,1-2.84,0Zm-6.13,0a1.42,1.42,0,1,1,2.84,0V76.57a1.42,1.42,0,1,1-2.84,0Z"/><path class="cls-2" d="M126.13,43.7H36.27a2.84,2.84,0,0,0-2.84,2.83v100.6A81.65,81.65,0,0,0,44,153.67h74.77a83.07,83.07,0,0,0,10.2-6.28V46.53A2.84,2.84,0,0,0,126.13,43.7ZM123.3,148H39.1V123.06h84.2Zm0-30.61H39.1V88h84.2Zm0-35.09H39.1V49.37h84.2Z"/><path class="cls-2" d="M52.65,78a1.42,1.42,0,0,0,1.42-1.42V60.39a1.42,1.42,0,0,0-2.84,0V76.57A1.42,1.42,0,0,0,52.65,78Z"/><path class="cls-2" d="M46.52,78a1.42,1.42,0,0,0,1.42-1.42V60.39a1.42,1.42,0,1,0-2.84,0V76.57A1.42,1.42,0,0,0,46.52,78Z"/><path class="cls-2" d="M65.7,78a1.41,1.41,0,0,0,1.42-1.42V60.39a1.42,1.42,0,1,0-2.83,0V76.57A1.41,1.41,0,0,0,65.7,78Z"/><path class="cls-2" d="M59.71,76.7a1.43,1.43,0,0,0,1.39,1.15,1.24,1.24,0,0,0,.27,0,1.41,1.41,0,0,0,1.12-1.66l-3.06-15.9a1.42,1.42,0,1,0-2.78.54Z"/><path class="cls-2" d="M78.75,77.76a1.42,1.42,0,0,0,1.42-1.42V57.47a1.42,1.42,0,1,0-2.83,0V76.34A1.42,1.42,0,0,0,78.75,77.76Z"/><path class="cls-2" d="M116.72,77.76a1.42,1.42,0,0,0,1.42-1.42V57.47a1.42,1.42,0,1,0-2.83,0V76.34A1.42,1.42,0,0,0,116.72,77.76Z"/><path class="cls-2" d="M111,77.76a1.43,1.43,0,0,0,1.42-1.42V57.47a1.42,1.42,0,1,0-2.84,0V76.34A1.43,1.43,0,0,0,111,77.76Z"/><path class="cls-2" d="M69.69,77.53a1.61,1.61,0,0,0,.43.07,1.41,1.41,0,0,0,1.35-1l5-15.4a1.42,1.42,0,1,0-2.69-.88l-5,15.4A1.42,1.42,0,0,0,69.69,77.53Z"/><path class="cls-2" d="M101,77.59a1.39,1.39,0,0,0,.4.06,1.42,1.42,0,0,0,1.36-1l4.64-15.51a1.42,1.42,0,0,0-2.72-.81L100,75.83A1.41,1.41,0,0,0,101,77.59Z"/><path class="cls-2" d="M85.68,78a1.41,1.41,0,0,0,1.41-1.42V60.39a1.42,1.42,0,1,0-2.83,0V76.57A1.41,1.41,0,0,0,85.68,78Z"/><path class="cls-2" d="M110.59,114.53a1.42,1.42,0,0,0,1.42-1.42V96.92a1.42,1.42,0,1,0-2.83,0v16.19A1.42,1.42,0,0,0,110.59,114.53Z"/><path class="cls-2" d="M97.54,114.53A1.43,1.43,0,0,0,99,113.11V96.92a1.42,1.42,0,1,0-2.84,0v16.19A1.43,1.43,0,0,0,97.54,114.53Z"/><path class="cls-2" d="M101.87,114.35a1.24,1.24,0,0,0,.27,0,1.41,1.41,0,0,0,1.39-1.15l3.06-15.89a1.42,1.42,0,0,0-2.78-.54l-3.06,15.89A1.41,1.41,0,0,0,101.87,114.35Z"/><path class="cls-2" d="M84.49,114.29a1.42,1.42,0,0,0,1.42-1.42V94a1.42,1.42,0,0,0-2.84,0v18.86A1.42,1.42,0,0,0,84.49,114.29Z"/><path class="cls-2" d="M46.52,114.29a1.42,1.42,0,0,0,1.42-1.42V94a1.42,1.42,0,1,0-2.84,0v18.86A1.42,1.42,0,0,0,46.52,114.29Z"/><path class="cls-2" d="M52.25,114.29a1.41,1.41,0,0,0,1.42-1.42V94a1.42,1.42,0,1,0-2.83,0v18.86A1.41,1.41,0,0,0,52.25,114.29Z"/><path class="cls-2" d="M91.77,113.15a1.42,1.42,0,0,0,1.35,1,1.39,1.39,0,0,0,.44-.07,1.42,1.42,0,0,0,.91-1.78l-5-15.4a1.42,1.42,0,0,0-2.7.87Z"/><path class="cls-2" d="M71.44,114.53a1.42,1.42,0,0,0,1.41-1.42V96.92a1.42,1.42,0,1,0-2.83,0v16.19A1.42,1.42,0,0,0,71.44,114.53Z"/><path class="cls-2" d="M60.53,113.18a1.43,1.43,0,0,0,1.36,1,1.51,1.51,0,0,0,.41-.06,1.43,1.43,0,0,0,1-1.77L58.61,96.85a1.41,1.41,0,0,0-1.76-.95,1.43,1.43,0,0,0-1,1.77Z"/><path class="cls-2" d="M77.57,114.53A1.42,1.42,0,0,0,79,113.11V96.92a1.42,1.42,0,1,0-2.83,0v16.19A1.42,1.42,0,0,0,77.57,114.53Z"/><path class="cls-2" d="M110.59,147a1.42,1.42,0,0,0,1.42-1.42V129.37a1.42,1.42,0,0,0-2.83,0v16.19A1.42,1.42,0,0,0,110.59,147Z"/><path class="cls-2" d="M114.64,146.75l.31,0a1.43,1.43,0,0,0,1.39-1.1l3.54-15.8a1.42,1.42,0,0,0-2.77-.62l-3.54,15.79A1.42,1.42,0,0,0,114.64,146.75Z"/><path class="cls-2" d="M101.87,146.81l.27,0a1.41,1.41,0,0,0,1.39-1.15l3.06-15.89a1.42,1.42,0,0,0-2.78-.54l-3.06,15.9A1.41,1.41,0,0,0,101.87,146.81Z"/><path class="cls-2" d="M43.62,146.35a1.28,1.28,0,0,0,.38.05,1.43,1.43,0,0,0,1.37-1l5-18.18a1.42,1.42,0,1,0-2.73-.76l-5,18.19A1.43,1.43,0,0,0,43.62,146.35Z"/><path class="cls-2" d="M52.25,146.74a1.41,1.41,0,0,0,1.42-1.41V126.46a1.42,1.42,0,1,0-2.83,0v18.87A1.41,1.41,0,0,0,52.25,146.74Z"/><path class="cls-2" d="M69.35,146.75a1.63,1.63,0,0,0,.31,0,1.42,1.42,0,0,0,1.38-1.1l3.56-15.8a1.42,1.42,0,0,0-2.77-.62l-3.55,15.79A1.41,1.41,0,0,0,69.35,146.75Z"/><path class="cls-2" d="M60.53,145.63a1.43,1.43,0,0,0,1.36,1,1.51,1.51,0,0,0,.41-.06,1.41,1.41,0,0,0,1-1.76l-4.64-15.51a1.42,1.42,0,1,0-2.72.81Z"/><path class="cls-2" d="M77.57,147A1.42,1.42,0,0,0,79,145.56V129.37a1.42,1.42,0,0,0-2.83,0v16.19A1.42,1.42,0,0,0,77.57,147Z"/></g></g></svg>