<svg xmlns="http://www.w3.org/2000/svg" viewBox="0 0 162.77 162.77"><defs><style>.cls-1{fill:#4f55ec;}.cls-2{fill:#9296f9;}</style></defs><title>Asset 58</title><g id="Layer_2" data-name="Layer 2"><g id="Layer_1-2" data-name="Layer 1"><circle class="cls-1" cx="81.38" cy="81.38" r="81.38"/><path class="cls-2" d="M55.14,73.43A2.68,2.68,0,0,1,54,73.2a2.83,2.83,0,0,1-1.51-3.71A30.89,30.89,0,0,1,68.71,53.15,2.83,2.83,0,1,1,71,58.35,25.2,25.2,0,0,0,57.75,71.7,2.82,2.82,0,0,1,55.14,73.43Z"/><path class="cls-2" d="M107.52,75a2.86,2.86,0,0,1-2.68-1.89A25.16,25.16,0,0,0,93,59.3a2.84,2.84,0,0,1,2.7-5,30.93,30.93,0,0,1,14.47,16.92A2.85,2.85,0,0,1,107.52,75Z"/><path class="cls-2" d="M91.26,110.53a2.84,2.84,0,0,1-1-5.48,25.49,25.49,0,0,0,14.89-15.94,2.84,2.84,0,0,1,5.41,1.7,31.21,31.21,0,0,1-18.24,19.52A2.69,2.69,0,0,1,91.26,110.53Z"/><path class="cls-2" d="M70.76,110.52a2.9,2.9,0,0,1-1-.2A31.08,31.08,0,0,1,52.31,93a2.83,2.83,0,1,1,5.26-2.11A25.37,25.37,0,0,0,71.8,105a2.84,2.84,0,0,1-1,5.48Z"/><path class="cls-2" d="M41.77,84.91c-9.34,0-9.73-.16-10.17-.33a2.84,2.84,0,0,1,1.54-5.43c2,.15,19.39.06,30,0h0a2.84,2.84,0,0,1,0,5.67C53.17,84.87,46.38,84.91,41.77,84.91ZM33.66,79.3h0Zm0,0Z"/><path class="cls-2" d="M109.33,84.91c-9.33,0-9.72-.16-10.15-.33a2.83,2.83,0,0,1,1.53-5.43c2,.15,19.39.06,30,0a2.84,2.84,0,0,1,0,5.67C120.73,84.87,113.94,84.91,109.33,84.91Zm-8.1-5.61h0Zm0,0Z"/><path class="cls-2" d="M81.64,133.9a2.88,2.88,0,0,1-1-.19,2.83,2.83,0,0,1-1.76-3.14c.15-2,.05-19.4,0-30a2.84,2.84,0,0,1,5.67-.06c.28,30.41.06,31-.19,31.62A2.84,2.84,0,0,1,81.64,133.9ZM79,130h0Zm0,0Z"/><path class="cls-2" d="M81.64,66.33a2.88,2.88,0,0,1-1-.19A2.84,2.84,0,0,1,78.85,63c.15-2,.05-19.4,0-30a2.85,2.85,0,0,1,2.81-2.86h0a2.84,2.84,0,0,1,2.83,2.81c.28,30.41.06,31-.19,31.62A2.84,2.84,0,0,1,81.64,66.33ZM79,62.47Zm0,0Z"/></g></g></svg>