<svg xmlns="http://www.w3.org/2000/svg" viewBox="0 0 162.77 162.77"><defs><style>.cls-1{fill:#4f55ec;}.cls-2{fill:#9296f9;}</style></defs><title>Asset 46</title><g id="Layer_2" data-name="Layer 2"><g id="Layer_1-2" data-name="Layer 1"><path class="cls-1" d="M117.74,74.76a8.27,8.27,0,0,0,1.49-.14h0a9.11,9.11,0,0,0-1.49-18.1,2.88,2.88,0,0,1-1.1-.22l-.28.17a1.29,1.29,0,0,1-.16.09,2.57,2.57,0,0,1-.6.23,9.11,9.11,0,0,0,2.14,18Z"/><path class="cls-1" d="M47.51,93.2,65,111.64c.77.23,1.53.47,2.26.71,1,.34,2,.66,3,.91l.19,0c5.62,1.47,16.09,4.21,29.4-8,7.91-7.23,13.82-16.37,16.29-25-.38,0-.76-.11-1.13-.18l-.22,0c-.46-.1-.92-.22-1.37-.36l-.39-.14c-.31-.1-.62-.21-.92-.34l-.49-.22-.77-.37-.5-.29c-.23-.14-.46-.27-.69-.42l-.48-.35c-.22-.15-.43-.3-.63-.46l-.46-.4c-.2-.17-.39-.33-.57-.51s-.29-.29-.43-.44-.35-.37-.51-.56-.27-.32-.39-.48-.31-.4-.46-.61l-.35-.51c-.14-.21-.27-.43-.4-.66l-.3-.53c-.12-.23-.23-.47-.34-.71s-.17-.36-.25-.55-.19-.51-.28-.76-.13-.37-.19-.56-.14-.55-.21-.83-.09-.36-.13-.55-.1-.63-.15-.94c0-.16,0-.32-.06-.48a14.13,14.13,0,0,1-.08-1.46c0-.39,0-.78,0-1.16,0-.12,0-.24,0-.36,0-.27.06-.54.1-.8s0-.26.07-.39.1-.52.16-.78.06-.23.08-.34c.1-.36.21-.72.33-1.07a1,1,0,0,0,0-.1c.11-.32.24-.63.37-.94,0-.11.1-.22.16-.33s.22-.46.33-.68.13-.23.19-.34.27-.45.41-.68l.18-.27a9.57,9.57,0,0,1,.64-.89,1.27,1.27,0,0,1,.1-.12c.2-.25.41-.49.62-.73l.25-.25.55-.55.27-.25c.21-.18.42-.36.64-.53l.22-.18c.3-.23.61-.45.93-.65l.12-.08c.22-.14.44-.28.67-.41a38.83,38.83,0,0,0-2.69-2.94c-6-5.89-13-8.79-20.78-8.57-14.58.38-28.09,11-33.77,17.27C43.7,69,41,81.6,46.28,90.67A16.29,16.29,0,0,1,47.51,93.2Z"/><path class="cls-1" d="M81.38,0A81.37,81.37,0,0,0,14.54,127.79l22.91-20,.21-.17c.85-.62,8.29-6.34,3.73-14.13C34.8,82.28,37.81,67,49,54.71c6.29-6.9,21.33-18.7,37.81-19.13,9.43-.26,17.81,3.19,24.92,10.21a42.61,42.61,0,0,1,4.64,5.41,2.75,2.75,0,0,1,1.33-.35,14.78,14.78,0,0,1,4.35,28.9c-3.33,14.65-13.91,25.64-18.46,29.79C88.05,123.78,75.17,120.42,69,118.8l-.18,0c-1.14-.3-2.24-.66-3.31-1-4.57-1.49-7.87-2.57-12,.94-5.27,4.46-19.33,20.27-23.9,25.46A81.38,81.38,0,1,0,81.38,0Z"/><path class="cls-1" d="M25.34,140.36C29.82,135.28,43,120.47,49,115l-5.12-5.43a18.13,18.13,0,0,1-2.83,2.58L18,132.34A80.16,80.16,0,0,0,25.34,140.36Z"/><path class="cls-1" d="M60.19,110.71,48.54,98.4a15.9,15.9,0,0,1-2.87,8.95l5.57,5.91A13.55,13.55,0,0,1,60.19,110.71Z"/><path class="cls-2" d="M53.47,118.68c4.14-3.51,7.44-2.43,12-.94,1.07.35,2.17.71,3.31,1l.18,0c6.2,1.62,19.08,5,34.66-9.26,4.55-4.15,15.13-15.14,18.46-29.79a14.78,14.78,0,0,0-4.35-28.9,2.75,2.75,0,0,0-1.33.35,42.61,42.61,0,0,0-4.64-5.41c-7.11-7-15.49-10.47-24.92-10.21C70.37,36,55.33,47.81,49,54.71,37.81,67,34.8,82.28,41.39,93.53c4.56,7.79-2.88,13.51-3.73,14.13l-.21.17-22.91,20c1.08,1.56,2.22,3.07,3.41,4.55l23.12-20.15a18.13,18.13,0,0,0,2.83-2.58L49,115c-6.05,5.43-19.2,20.24-23.68,25.32,1.37,1.31,2.77,2.58,4.23,3.78C34.14,139,48.2,123.14,53.47,118.68ZM115.6,56.79a2.57,2.57,0,0,0,.6-.23,1.29,1.29,0,0,0,.16-.09l.28-.17a2.88,2.88,0,0,0,1.1.22,9.11,9.11,0,0,1,1.49,18.1h0a8.27,8.27,0,0,1-1.49.14,9.11,9.11,0,0,1-2.14-18ZM53.23,58.52C58.91,52.29,72.42,41.63,87,41.25c7.8-.22,14.81,2.68,20.78,8.57a38.83,38.83,0,0,1,2.69,2.94c-.23.13-.45.27-.67.41l-.12.08c-.32.2-.63.42-.93.65l-.22.18c-.22.17-.43.35-.64.53l-.27.25-.55.55-.25.25c-.21.24-.42.48-.62.73a1.27,1.27,0,0,0-.1.12,9.57,9.57,0,0,0-.64.89l-.18.27c-.14.23-.28.45-.41.68s-.12.23-.19.34-.23.45-.33.68-.11.22-.16.33c-.13.31-.26.62-.37.94a1,1,0,0,1,0,.1c-.12.35-.23.71-.33,1.07,0,.11,0,.23-.08.34s-.12.52-.16.78,0,.26-.07.39-.08.53-.1.8c0,.12,0,.24,0,.36,0,.38,0,.77,0,1.16A14.13,14.13,0,0,0,103,67.1c0,.16,0,.32.06.48,0,.31.09.63.15.94s.09.37.13.55.13.56.21.83.13.37.19.56.18.51.28.76.17.37.25.55.22.48.34.71l.3.53c.13.23.26.45.4.66l.35.51c.15.21.3.41.46.61s.25.32.39.48.33.38.51.56.28.3.43.44.37.34.57.51l.46.4c.2.16.41.31.63.46l.48.35c.23.15.46.28.69.42l.5.29.77.37.49.22c.3.13.61.24.92.34l.39.14c.45.14.91.26,1.37.36l.22,0c.37.07.75.14,1.13.18-2.47,8.65-8.38,17.79-16.29,25-13.31,12.16-23.78,9.42-29.4,8l-.19,0c-1-.25-2-.57-3-.91-.73-.24-1.49-.48-2.26-.71L47.51,93.2a16.29,16.29,0,0,0-1.23-2.53C41,81.6,43.7,69,53.23,58.52Zm-7.56,48.83a15.9,15.9,0,0,0,2.87-8.95l11.65,12.31a13.55,13.55,0,0,0-8.95,2.55Z"/></g></g></svg>