<svg xmlns="http://www.w3.org/2000/svg" viewBox="0 0 162.77 162.77"><defs><style>.cls-1{fill:#4f55ec;}.cls-2{fill:#9296f9;}</style></defs><title>Asset 57</title><g id="Layer_2" data-name="Layer 2"><g id="Layer_1-2" data-name="Layer 1"><circle class="cls-1" cx="81.38" cy="81.38" r="81.38"/><path class="cls-1" d="M79.62,48.36c.52,1.23,1.2,2.87,2,4.76A24.53,24.53,0,0,1,87.46,53c-.72-1.64-1.42-3.18-2.08-4.6h0C84.68,48,82.46,48,79.62,48.36Z"/><path class="cls-1" d="M76.43,108.16l6.07,11.66,4.92-.74-4-13.1A38.22,38.22,0,0,1,76.43,108.16Z"/><path class="cls-1" d="M85.5,63.13c.62,1.68,1.21,3.35,1.75,4.95a28.54,28.54,0,0,1,5.88-.25c-.52-1.61-1.07-3.19-1.62-4.72C90.76,62.73,88.44,62.78,85.5,63.13Z"/><path class="cls-1" d="M88.14,70.85a46.59,46.59,0,0,1,1.21,4.61,42.12,42.12,0,0,1,5.86-.5c-.07-.25-.14-.49-.21-.75l-.47-1.69c-.15-.54-.31-1.07-.47-1.61l-.08,0C93.3,70.48,91,70.52,88.14,70.85Z"/><path class="cls-1" d="M82.7,55.87c.58,1.44,1.17,3,1.77,4.51a31.47,31.47,0,0,1,5.9-.32c-.52-1.35-1.05-2.66-1.57-3.93a1.34,1.34,0,0,1-1-.15C87.13,55.62,85.22,55.62,82.7,55.87Z"/><path class="cls-1" d="M90.22,87.19a8.08,8.08,0,0,1,0,6.44A11.21,11.21,0,0,1,89,95.7a11.06,11.06,0,0,0,4.37-4.76,5.29,5.29,0,0,0,.13-4.06,1.42,1.42,0,0,1,2.52-1.3A8,8,0,0,1,96.37,91c1.81-3,1.16-7.28-.4-13.26a40.58,40.58,0,0,0-6.66.55,2.82,2.82,0,0,1-2.23,1.62l-.33,0a2.83,2.83,0,0,1-2-.83c-2.33.49-4.65,1.06-6.63,1.69a22.48,22.48,0,0,0-8,4.6,1.4,1.4,0,0,1-1,.41,1.44,1.44,0,0,1-1-.43,1.42,1.42,0,0,1,0-2,25,25,0,0,1,9.11-5.27c1.46-.46,3.84-1.08,6.5-1.65a46,46,0,0,0-1.3-4.75,72.53,72.53,0,0,0-7.84,1.93,22.77,22.77,0,0,0-8,4.6,1.38,1.38,0,0,1-1,.4,1.41,1.41,0,0,1-1-2.43A25,25,0,0,1,73.78,71,78.5,78.5,0,0,1,81.58,69c-.55-1.59-1.16-3.27-1.8-5a71.84,71.84,0,0,0-7.55,1.87,22.59,22.59,0,0,0-8,4.61,1.45,1.45,0,0,1-1,.4,1.42,1.42,0,0,1-1-2.44,25.28,25.28,0,0,1,9.12-5.27c1.67-.53,4.4-1.24,7.38-1.85-.61-1.59-1.23-3.15-1.83-4.65a72.21,72.21,0,0,0-8.51,2.06,22.49,22.49,0,0,0-8,4.6,1.42,1.42,0,1,1-2-2,25,25,0,0,1,9.12-5.27,79.35,79.35,0,0,1,8.28-2c-.75-1.84-1.44-3.47-2-4.77A69.58,69.58,0,0,0,66,51.17a22.59,22.59,0,0,0-8,4.61,1.45,1.45,0,0,1-1,.4,1.42,1.42,0,0,1-1-2.44,25.28,25.28,0,0,1,9.12-5.27,82.11,82.11,0,0,1,8.27-2A2.79,2.79,0,0,1,75,44.72a2.83,2.83,0,0,1,3.39.91,32.85,32.85,0,0,1,5.55-.31c-.35-.73-.69-1.42-1-2-.66-1.37-1.21-2.5-1.59-3.35a4.74,4.74,0,0,0-2-2.2,7.06,7.06,0,0,1,.6,2.29,1.42,1.42,0,0,1-1.35,1.48H78.5a1.43,1.43,0,0,1-1.42-1.34,5.24,5.24,0,0,0-2.21-3.53c-.31,0-.61-.06-.93-.06a19.37,19.37,0,0,0-2.24.14,7.9,7.9,0,0,1,2.35,4.81A1.42,1.42,0,0,1,72.7,43h-.07a1.41,1.41,0,0,1-1.41-1.34,5.61,5.61,0,0,0-3.37-4.25c-1,.24-2,.54-3,.88a8,8,0,0,1,2.5,5A1.42,1.42,0,0,1,66,44.74H66a1.43,1.43,0,0,1-1.42-1.34,5.41,5.41,0,0,0-2.76-3.91,51.88,51.88,0,0,0-10,5.7C45,50.17,43.1,54,44.65,62l6.07-4.55a1.42,1.42,0,1,1,1.71,2.27L45.34,65c.38,1.5.85,3.13,1.4,4.92l6.33-4.75a1.42,1.42,0,1,1,1.7,2.27L47.64,72.8c.48,1.49,1,3.08,1.58,4.79l6.2-4.66a1.42,1.42,0,1,1,1.7,2.27l-7,5.22.24.71c.43,1.3.89,2.66,1.35,4.06l6-4.51A1.42,1.42,0,1,1,59.47,83L52.7,88a36.5,36.5,0,0,0,1.91,4.53l5.51-4.13a1.42,1.42,0,0,1,1.7,2.27L56.05,95a17.16,17.16,0,0,0,8.24,7,16.18,16.18,0,0,0,3.9.94l.22-.09C77,100.05,80,96.69,80.93,94.36a5.27,5.27,0,0,0,.12-4.06A1.42,1.42,0,1,1,83.57,89a8,8,0,0,1,0,6.43A10.93,10.93,0,0,1,82,98.08c3.4-2,4.93-3.93,5.58-5.45a5.27,5.27,0,0,0,.14-4.16,1.42,1.42,0,0,1,.64-1.89A1.4,1.4,0,0,1,90.22,87.19Z"/><path class="cls-1" d="M106.23,42.81l19.13-12.18a2.84,2.84,0,1,1,3,4.78L109.27,47.59a2.83,2.83,0,0,1-3-4.78Zm.94,19.72a2.83,2.83,0,0,1-1-5.48l19.72-7.54a2.84,2.84,0,0,1,2,5.3l-19.72,7.54A3,3,0,0,1,107.17,62.53Zm11,6.5a2.83,2.83,0,1,1-1.15-5.55l20.67-4.29a2.83,2.83,0,1,1,1.15,5.55Z"/><path class="cls-2" d="M93.53,119.72l-4.84-16.07a59.18,59.18,0,0,0,9.4-6.22c7.67-5.81,5-15.43,2.37-24.75L100,71c-3.58-12.94-9-24.17-12-30.2-.63-1.31-1.16-2.39-1.52-3.2a11,11,0,0,0-7.62-6.09C71,29.44,58.8,33.08,48.47,40.6,34.31,50.9,37.23,59.62,45,82.93l2.1,6.29c3.08,9.35,8.18,15.44,15.16,18.09a22.91,22.91,0,0,0,8.08,1.45.3.3,0,0,0,0,.08l7.71,14.82,1.41,39.06c.62,0,1.24.05,1.86.05,1.28,0,2.55,0,3.81-.1l-1.35-37.32,4.63-.7,1.6,37.65c1.91-.2,3.78-.49,5.64-.82L94,121.14A2.75,2.75,0,0,0,93.53,119.72Zm.53-48.81c.16.54.32,1.07.47,1.61L95,74.21c.07.26.14.5.21.75a42.12,42.12,0,0,0-5.86.5,46.59,46.59,0,0,0-1.21-4.61c2.9-.33,5.16-.37,5.84,0Zm-.93-3.08a28.54,28.54,0,0,0-5.88.25c-.54-1.6-1.13-3.27-1.75-4.95,2.94-.35,5.26-.4,6,0C92.06,64.64,92.61,66.22,93.13,67.83ZM88.8,56.13c.52,1.27,1,2.58,1.57,3.93a31.47,31.47,0,0,0-5.9.32c-.6-1.55-1.19-3.07-1.77-4.51,2.52-.25,4.43-.25,5,.11A1.34,1.34,0,0,0,88.8,56.13ZM85.35,48.4h0c.66,1.42,1.36,3,2.08,4.6a24.53,24.53,0,0,0-5.87.11c-.77-1.89-1.45-3.53-2-4.76C82.46,48,84.68,48,85.35,48.4ZM82.5,119.82l-6.07-11.66a38.22,38.22,0,0,0,7-2.18l4,13.1Zm5.83-33.24a1.42,1.42,0,0,0-.64,1.89,5.27,5.27,0,0,1-.14,4.16c-.65,1.52-2.18,3.49-5.58,5.45a10.93,10.93,0,0,0,1.58-2.64,8,8,0,0,0,0-6.43,1.42,1.42,0,1,0-2.52,1.29,5.27,5.27,0,0,1-.12,4.06c-1,2.33-3.91,5.69-12.52,8.5l-.22.09a16.18,16.18,0,0,1-3.9-.94,17.16,17.16,0,0,1-8.24-7l5.77-4.33a1.42,1.42,0,0,0-1.7-2.27l-5.51,4.13A36.5,36.5,0,0,1,52.7,88L59.47,83a1.42,1.42,0,1,0-1.7-2.27l-6,4.51c-.46-1.4-.92-2.76-1.35-4.06l-.24-.71,7-5.22a1.42,1.42,0,1,0-1.7-2.27l-6.2,4.66c-.57-1.71-1.1-3.3-1.58-4.79l7.13-5.35a1.42,1.42,0,1,0-1.7-2.27l-6.33,4.75c-.55-1.79-1-3.42-1.4-4.92l7.09-5.31a1.42,1.42,0,1,0-1.71-2.27L44.65,62C43.1,54,45,50.17,51.8,45.19a51.88,51.88,0,0,1,10-5.7,5.41,5.41,0,0,1,2.76,3.91A1.43,1.43,0,0,0,66,44.74H66a1.42,1.42,0,0,0,1.35-1.48,8,8,0,0,0-2.5-5c1-.34,2-.64,3-.88a5.61,5.61,0,0,1,3.37,4.25A1.41,1.41,0,0,0,72.63,43h.07a1.42,1.42,0,0,0,1.35-1.48,7.9,7.9,0,0,0-2.35-4.81,19.37,19.37,0,0,1,2.24-.14c.32,0,.62,0,.93.06a5.24,5.24,0,0,1,2.21,3.53,1.43,1.43,0,0,0,1.42,1.34h.06A1.42,1.42,0,0,0,79.91,40a7.06,7.06,0,0,0-.6-2.29,4.74,4.74,0,0,1,2,2.2c.38.85.93,2,1.59,3.35.3.61.64,1.3,1,2a32.85,32.85,0,0,0-5.55.31A2.83,2.83,0,0,0,75,44.72a2.79,2.79,0,0,0-1.56,1.72,82.11,82.11,0,0,0-8.27,2A25.28,25.28,0,0,0,56,53.74a1.42,1.42,0,0,0,1,2.44,1.45,1.45,0,0,0,1-.4,22.59,22.59,0,0,1,8-4.61,69.58,69.58,0,0,1,7.83-1.92c.55,1.3,1.24,2.93,2,4.77a79.35,79.35,0,0,0-8.28,2,25,25,0,0,0-9.12,5.27,1.42,1.42,0,0,0,2,2,22.49,22.49,0,0,1,8-4.6,72.21,72.21,0,0,1,8.51-2.06c.6,1.5,1.22,3.06,1.83,4.65-3,.61-5.71,1.32-7.38,1.85a25.28,25.28,0,0,0-9.12,5.27,1.42,1.42,0,0,0,1,2.44,1.45,1.45,0,0,0,1-.4,22.59,22.59,0,0,1,8-4.61A71.84,71.84,0,0,1,79.78,64c.64,1.71,1.25,3.39,1.8,5A78.5,78.5,0,0,0,73.78,71a25,25,0,0,0-9.11,5.27,1.41,1.41,0,0,0,1,2.43,1.38,1.38,0,0,0,1-.4,22.77,22.77,0,0,1,8-4.6,72.53,72.53,0,0,1,7.84-1.93,46,46,0,0,1,1.3,4.75c-2.66.57-5,1.19-6.5,1.65a25,25,0,0,0-9.11,5.27,1.42,1.42,0,0,0,0,2,1.44,1.44,0,0,0,1,.43,1.4,1.4,0,0,0,1-.41,22.48,22.48,0,0,1,8-4.6c2-.63,4.3-1.2,6.63-1.69a2.83,2.83,0,0,0,2,.83l.33,0a2.82,2.82,0,0,0,2.23-1.62A40.58,40.58,0,0,1,96,77.77c1.56,6,2.21,10.3.4,13.26a8,8,0,0,0-.31-5.45,1.42,1.42,0,0,0-2.52,1.3,5.29,5.29,0,0,1-.13,4.06A11.06,11.06,0,0,1,89,95.7a11.21,11.21,0,0,0,1.16-2.07,8.08,8.08,0,0,0,0-6.44A1.4,1.4,0,0,0,88.33,86.58Z"/><path class="cls-2" d="M107.75,48a2.82,2.82,0,0,0,1.52-.44l19.14-12.18a2.84,2.84,0,1,0-3-4.78L106.23,42.81A2.83,2.83,0,0,0,107.75,48Z"/><path class="cls-2" d="M129.53,51.15a2.83,2.83,0,0,0-3.66-1.64l-19.72,7.54a2.83,2.83,0,0,0,1,5.48,3,3,0,0,0,1-.18l19.72-7.54A2.83,2.83,0,0,0,129.53,51.15Z"/><path class="cls-2" d="M141.07,61.39a2.83,2.83,0,0,0-3.35-2.2l-20.67,4.29A2.83,2.83,0,1,0,118.2,69l20.67-4.29A2.84,2.84,0,0,0,141.07,61.39Z"/></g></g></svg>