<svg xmlns="http://www.w3.org/2000/svg" width="108" height="118" viewBox="0 0 108 118">
    <g fill="#3E43C8" fill-rule="nonzero">
        <path d="M61.19 56.023l-4.696-2.935 1.33-5.443a1.747 1.747 0 0 0-.61-1.785 1.675 1.675 0 0 0-1.85-.154l-4.844 2.672-3.966-3.893a1.678 1.678 0 0 0-1.824-.356 1.73 1.73 0 0 0-1.055 1.554l-.15 5.607-5.295 1.55c-.647.19-1.124.75-1.214 1.43-.091.678.22 1.348.794 1.707l4.696 2.935-1.33 5.443a1.747 1.747 0 0 0 .61 1.785c.532.42 1.257.48 1.85.154l4.844-2.673 3.966 3.894a1.683 1.683 0 0 0 1.824.356 1.73 1.73 0 0 0 1.055-1.554l.15-5.607 5.295-1.55a1.721 1.721 0 0 0 1.214-1.43 1.74 1.74 0 0 0-.794-1.707zm-7.851 1.711a1.725 1.725 0 0 0-1.23 1.616l-.078 2.95-2.087-2.048a1.683 1.683 0 0 0-1.99-.276l-2.549 1.406.7-2.864a1.744 1.744 0 0 0-.76-1.892l-2.471-1.544 2.786-.816a1.725 1.725 0 0 0 1.23-1.616l.078-2.95 2.087 2.049a1.677 1.677 0 0 0 1.99.275l2.549-1.406-.7 2.865a1.744 1.744 0 0 0 .76 1.892l2.471 1.544-2.786.815zM33.794 48.722l-17.438-5.631c-.93-.3-1.942.17-2.26 1.05-.318.88.179 1.836 1.11 2.137l17.438 5.631c.19.062.384.091.575.091.74 0 1.432-.44 1.685-1.14.318-.88-.179-1.838-1.11-2.138zM46.93 37.822l-6.487-21.595c-.271-.903-1.246-1.421-2.177-1.159-.931.263-1.467 1.208-1.196 2.11l6.487 21.595c.223.744.924 1.227 1.685 1.227.163 0 .328-.022.492-.068.931-.263 1.467-1.208 1.196-2.11zM76.336 21.355a1.726 1.726 0 0 0-2.403.302L59.359 40.269c-.58.74-.443 1.803.305 2.376.312.24.681.355 1.048.355.512 0 1.018-.226 1.355-.657l14.574-18.611c.58-.74.443-1.804-.305-2.377z"/>
        <path d="M57.63 21.043a1.75 1.75 0 0 0-2.091 1.346L51.042 42.84a1.774 1.774 0 0 0 1.329 2.117c.128.029.256.043.382.043.803 0 1.526-.562 1.708-1.389l4.497-20.451a1.774 1.774 0 0 0-1.329-2.117zM39.57 42.187l-8.598-9.62a1.708 1.708 0 0 0-2.401-.14 1.683 1.683 0 0 0-.142 2.386l8.6 9.62A1.7 1.7 0 0 0 38.3 45c.402 0 .805-.14 1.129-.427.702-.62.765-1.689.142-2.386zM34.994 57.876c-.078-1.121-.946-1.957-1.94-1.87l-10.392.927c-.993.089-1.735 1.07-1.656 2.19C21.08 60.19 21.87 61 22.802 61c.048 0 .096-.002.144-.007l10.392-.926c.993-.089 1.735-1.07 1.656-2.19zM40.955 4.805a5.464 5.464 0 0 0-2.089-3.656 5.507 5.507 0 0 0-7.717.981 5.507 5.507 0 0 0 .981 7.717 5.458 5.458 0 0 0 4.062 1.108 5.464 5.464 0 0 0 3.655-2.089 5.465 5.465 0 0 0 1.108-4.061zm-3.88 1.915c-.326.42-.797.69-1.325.757a1.982 1.982 0 0 1-1.473-.402 1.981 1.981 0 0 1-.757-1.325 1.993 1.993 0 0 1 3.2-1.828c.42.326.69.797.757 1.325a1.981 1.981 0 0 1-.402 1.473zM10.955 39.807a5.464 5.464 0 0 0-2.088-3.655 5.462 5.462 0 0 0-4.06-1.107 5.463 5.463 0 0 0-3.655 2.088 5.462 5.462 0 0 0-1.107 4.06 5.464 5.464 0 0 0 2.088 3.655 5.457 5.457 0 0 0 4.06 1.107 5.463 5.463 0 0 0 3.655-2.088 5.462 5.462 0 0 0 1.107-4.06zM7.077 41.72c-.326.42-.797.69-1.325.757a1.982 1.982 0 0 1-1.473-.402 1.979 1.979 0 0 1-.757-1.325 1.98 1.98 0 0 1 .402-1.472 1.98 1.98 0 0 1 1.58-.773c.44 0 .864.144 1.217.418.421.326.69.796.757 1.324a1.98 1.98 0 0 1-.401 1.473zM85.87 10.153a5.464 5.464 0 0 0-4.062-1.108 5.464 5.464 0 0 0-3.655 2.089 5.464 5.464 0 0 0-1.108 4.061 5.463 5.463 0 0 0 2.088 3.656c1 .774 2.185 1.149 3.362 1.149a5.495 5.495 0 0 0 4.355-2.13 5.507 5.507 0 0 0-.98-7.717zm-1.792 5.57a1.997 1.997 0 0 1-3.555-.97 1.982 1.982 0 0 1 .402-1.472 1.981 1.981 0 0 1 1.58-.773 1.997 1.997 0 0 1 1.573 3.216zM71.7 84.38L61.343 69.761c-.553-.78-1.683-.997-2.523-.484-.84.514-1.073 1.562-.52 2.343l10.357 14.617c.35.494.931.762 1.523.762.344 0 .691-.09 1-.278.84-.514 1.073-1.562.52-2.343zM91.342 55.836L68.762 55c-.946-.032-1.732.868-1.761 2.018-.029 1.15.713 2.11 1.657 2.145l22.58.835.054.001c.92 0 1.68-.891 1.707-2.019.029-1.15-.713-2.11-1.657-2.145zM81.808 39.962a1.754 1.754 0 0 0-2.364-.769l-18.485 9.472a1.767 1.767 0 0 0-.767 2.373 1.756 1.756 0 0 0 2.364.769l18.485-9.472a1.767 1.767 0 0 0 .767-2.373zM78.008 68.546l-12.353-6.344a1.822 1.822 0 0 0-2.454.792c-.46.898-.105 2 .791 2.46l12.353 6.344a1.823 1.823 0 0 0 2.454-.793c.46-.897.105-1.999-.791-2.459zM55.975 83.017l-1.667-9.62a1.669 1.669 0 0 0-1.93-1.371 1.688 1.688 0 0 0-1.353 1.957l1.667 9.619c.143.82.846 1.398 1.64 1.398a1.688 1.688 0 0 0 1.643-1.983zM105.87 53.152a5.465 5.465 0 0 0-4.062-1.107 5.465 5.465 0 0 0-3.655 2.088 5.461 5.461 0 0 0-1.108 4.06 5.461 5.461 0 0 0 2.089 3.655 5.46 5.46 0 0 0 4.061 1.107 5.466 5.466 0 0 0 3.656-2.088 5.505 5.505 0 0 0-.981-7.715zm-1.792 5.57c-.326.42-.797.689-1.325.756a1.983 1.983 0 0 1-1.473-.401 1.98 1.98 0 0 1-.757-1.325 1.98 1.98 0 0 1 .401-1.472 1.981 1.981 0 0 1 1.581-.774 1.995 1.995 0 0 1 1.573 3.215zM78.87 91.15a5.51 5.51 0 0 0-7.72.98 5.506 5.506 0 0 0 .98 7.717 5.46 5.46 0 0 0 4.064 1.108 5.466 5.466 0 0 0 3.656-2.089 5.506 5.506 0 0 0-.98-7.716zm-1.793 5.57c-.326.42-.797.69-1.325.757a1.996 1.996 0 0 1-.503-3.957 1.996 1.996 0 0 1 1.829 3.2zM38.47 68.49a1.744 1.744 0 0 0-2.465.04c-.866.893-21.325 22.173-30.89 47.106A1.74 1.74 0 0 0 6.744 118c.7 0 1.362-.425 1.627-1.118 9.304-24.254 29.932-45.716 30.14-45.93a1.74 1.74 0 0 0-.04-2.462z"/>
    </g>
</svg>
