<svg xmlns="http://www.w3.org/2000/svg" width="89" height="135" viewBox="0 0 89 135">
    <g fill="#3E43C8" fill-rule="nonzero">
        <path d="M18.94 65.027l5.447-3.424-1.542-6.35a2.045 2.045 0 0 1 .706-2.083c.618-.49 1.46-.56 2.146-.18l5.62 3.118 4.6-4.542a1.938 1.938 0 0 1 2.116-.416 2.018 2.018 0 0 1 1.224 1.814l.173 6.541 6.143 1.808c.75.22 1.303.875 1.409 1.668a2.035 2.035 0 0 1-.922 1.992l-5.447 3.424 1.542 6.35a2.045 2.045 0 0 1-.706 2.083c-.617.49-1.46.56-2.146.18l-5.62-3.118-4.6 4.542a1.933 1.933 0 0 1-2.115.416 2.018 2.018 0 0 1-1.225-1.814l-.173-6.541-6.143-1.808a2.005 2.005 0 0 1-1.409-1.668 2.035 2.035 0 0 1 .922-1.992zm9.107 1.996a2.01 2.01 0 0 1 1.426 1.885l.091 3.443 2.42-2.39a1.932 1.932 0 0 1 2.308-.322l2.958 1.64-.811-3.341a2.04 2.04 0 0 1 .881-2.208l2.867-1.801-3.233-.952a2.01 2.01 0 0 1-1.426-1.885l-.091-3.442-2.421 2.39c-.619.61-1.553.74-2.308.322l-2.957-1.64.811 3.341a2.04 2.04 0 0 1-.881 2.207l-2.866 1.802 3.232.951zM50.378 55.994l19.929-6.883a2.03 2.03 0 0 1 2.583 1.283 2.064 2.064 0 0 1-1.268 2.613l-19.929 6.882c-.218.075-.44.111-.658.111a2.037 2.037 0 0 1-1.925-1.394 2.064 2.064 0 0 1 1.268-2.612zM36.078 43.473l7.135-25.05c.298-1.047 1.37-1.649 2.394-1.344 1.025.305 1.614 1.4 1.315 2.447l-7.134 25.051A1.939 1.939 0 0 1 37.934 46a1.89 1.89 0 0 1-.541-.08c-1.025-.304-1.614-1.4-1.315-2.447zM.775 24.42a1.996 1.996 0 0 1 2.804.357L20.58 46.772A2.004 2.004 0 0 1 19.003 50a1.994 1.994 0 0 1-1.582-.776L.42 27.228a2.005 2.005 0 0 1 .356-2.809zM22.542 24.048a1.97 1.97 0 0 1 2.352 1.514l5.058 23.008c.237 1.076-.432 2.142-1.494 2.382a1.941 1.941 0 0 1-.43.048 1.977 1.977 0 0 1-1.922-1.562L21.048 26.43c-.237-1.076.432-2.142 1.494-2.382zM43.5 48.754l10.033-11.1a2.008 2.008 0 0 1 2.8-.162c.82.716.894 1.949.166 2.754l-10.032 11.1a1.994 1.994 0 0 1-1.484.654c-.468 0-.939-.163-1.317-.493a1.928 1.928 0 0 1-.165-2.753zM49.007 66.876c.09-1.121 1.081-1.957 2.217-1.87l11.876.927c1.136.089 1.983 1.07 1.893 2.19a2.052 2.052 0 0 1-2.217 1.87L50.9 69.067c-1.136-.089-1.983-1.07-1.893-2.19zM42.053 5.678a6.457 6.457 0 0 1 2.468-4.32 6.509 6.509 0 0 1 9.12 1.16 6.509 6.509 0 0 1-1.159 9.12 6.45 6.45 0 0 1-4.8 1.309 6.458 6.458 0 0 1-4.32-2.468 6.458 6.458 0 0 1-1.309-4.8zm4.586 2.263c.385.498.941.816 1.566.895.624.08 1.243-.089 1.74-.474.498-.386.816-.942.895-1.566a2.355 2.355 0 0 0-3.781-2.16 2.341 2.341 0 0 0-.895 1.565c-.08.625.089 1.243.475 1.74zM76.053 45.68a6.457 6.457 0 0 1 2.468-4.318 6.455 6.455 0 0 1 4.799-1.309 6.456 6.456 0 0 1 4.318 2.468 6.456 6.456 0 0 1 1.309 4.799 6.457 6.457 0 0 1-2.468 4.318 6.449 6.449 0 0 1-4.799 1.309 6.456 6.456 0 0 1-4.318-2.468 6.456 6.456 0 0 1-1.309-4.799zm4.584 2.263c.385.497.941.815 1.566.894a2.342 2.342 0 0 0 1.74-.474c.497-.385.815-.942.894-1.566a2.34 2.34 0 0 0-.474-1.74 2.34 2.34 0 0 0-1.868-.914c-.519 0-1.02.171-1.438.494a2.34 2.34 0 0 0-.895 1.566 2.34 2.34 0 0 0 .475 1.74zM-9.482 11.362a6.458 6.458 0 0 1 4.8-1.309 6.458 6.458 0 0 1 4.32 2.468 6.457 6.457 0 0 1 1.309 4.8 6.456 6.456 0 0 1-2.468 4.32A6.469 6.469 0 0 1-5.495 23a6.494 6.494 0 0 1-5.146-2.518 6.508 6.508 0 0 1 1.159-9.12zm2.117 6.584a2.36 2.36 0 0 0 3.307.42c.497-.385.815-.941.895-1.566a2.343 2.343 0 0 0-.475-1.74 2.341 2.341 0 0 0-1.868-.915 2.36 2.36 0 0 0-1.859 3.8zM6.343 96.943L18.18 79.889c.632-.91 1.922-1.163 2.882-.564.96.599 1.227 1.822.595 2.732L9.82 99.111c-.4.577-1.063.889-1.74.889-.393 0-.79-.105-1.142-.325-.96-.599-1.227-1.822-.595-2.732zM-16.087 63.836L9.968 63c1.09-.032 1.998.868 2.031 2.018.033 1.15-.823 2.11-1.912 2.145l-26.055.835-.06.001c-1.062 0-1.939-.891-1.971-2.019-.033-1.15.823-2.11 1.912-2.145zM-4.781 45.036c.501-.934 1.704-1.305 2.686-.828l21.006 10.2c.982.477 1.372 1.622.87 2.556-.353.657-1.053 1.036-1.78 1.036a2.07 2.07 0 0 1-.906-.208l-21.006-10.2c-.982-.477-1.372-1.621-.87-2.556zM-.884 78.2l13.897-6.978c1.008-.507 2.244-.116 2.76.872.517.988.12 2.199-.889 2.705L.987 81.78c-.3.15-.619.221-.934.221-.745 0-1.464-.4-1.827-1.094a1.991 1.991 0 0 1 .89-2.705zM24.03 94.712l2-11.1c.192-1.06 1.23-1.769 2.316-1.582 1.088.186 1.815 1.198 1.623 2.258l-2 11.099C27.8 96.334 26.955 97 26.002 97c-.115 0-.231-.01-.348-.03-1.088-.186-1.815-1.198-1.623-2.258zM-1.482 104.359a6.511 6.511 0 0 1 9.123 1.159 6.507 6.507 0 0 1-1.16 9.12 6.453 6.453 0 0 1-4.801 1.309 6.46 6.46 0 0 1-4.321-2.469 6.507 6.507 0 0 1 1.16-9.12zm2.118 6.582c.386.498.942.816 1.567.895.624.08 1.243-.089 1.74-.474a2.359 2.359 0 0 0-1.146-4.202 2.36 2.36 0 0 0-2.161 3.781zM45.608 78.559a2.01 2.01 0 0 1 2.827.045c.994 1.019 24.462 25.277 35.432 53.7a1.98 1.98 0 0 1-1.151 2.564 2 2 0 0 1-2.582-1.143C69.463 106.076 45.8 81.61 45.563 81.365a1.975 1.975 0 0 1 .045-2.806z"/>
    </g>
</svg>
