<svg xmlns="http://www.w3.org/2000/svg" width="153" height="181" viewBox="0 0 153 181">
    <g fill="#7371E9" fill-rule="nonzero">
        <path d="M2.38 180.93h-.223a3.004 3.004 0 0 1-2.035-3.725c13.506-45.939 46.457-76.177 47.856-77.426a3.006 3.006 0 0 1 4.241.201 2.992 2.992 0 0 1-.201 4.232c-.33.307-33.12 30.419-46.129 74.686a3.001 3.001 0 0 1-3.51 2.031zM68.937 95.947h-.064a2.29 2.29 0 0 1-1.787-2.044l-.743-9.589-9.547-2.265a2.302 2.302 0 0 1-1.789-2.047 2.283 2.283 0 0 1 1.445-2.294l9.084-3.656-.743-9.588a2.283 2.283 0 0 1 1.441-2.292 2.37 2.37 0 0 1 2.671.638l6.361 7.322 9.074-3.666a2.38 2.38 0 0 1 2.68.642c.658.753.741 1.837.204 2.677L82.08 77.97l6.361 7.323c.651.746.743 1.816.23 2.658a2.356 2.356 0 0 1-2.5 1.062h-.065l-9.547-2.266-5.145 8.187a2.357 2.357 0 0 1-2.476 1.012zM59.65 79.626l7.91 1.886a2.302 2.302 0 0 1 1.787 2.044l.614 7.955 4.305-6.796a2.39 2.39 0 0 1 2.54-1.054l7.922 1.886-5.285-6.08a2.248 2.248 0 0 1-.204-2.686l4.305-6.786-7.534 3.035a2.358 2.358 0 0 1-2.67-.632l-5.274-6.08.614 7.955c.086.99-.5 1.919-1.442 2.287l-7.588 3.066zM80.326 49.934a2.935 2.935 0 0 1-1.853-1.292 3.015 3.015 0 0 1-.408-2.244l7.083-33.896a2.977 2.977 0 0 1 1.954-2.341 2.914 2.914 0 0 1 2.957.638c.794.748 1.12 1.88.845 2.944L83.811 47.64a2.979 2.979 0 0 1-1.274 1.88 2.9 2.9 0 0 1-2.211.414zM96.386 63.942a2.949 2.949 0 0 1-1.69-1.049 2.94 2.94 0 0 1 .405-4.194l26.97-22.018a3.044 3.044 0 0 1 2.97-.494 2.982 2.982 0 0 1 1.917 2.291 2.95 2.95 0 0 1-1.052 2.785L98.936 63.28a3.026 3.026 0 0 1-2.55.66zM105.389 81.938a3.028 3.028 0 0 1-2.387-3.054A3.033 3.033 0 0 1 105.593 76l35.029-4.981c1.635-.175 3.115.966 3.347 2.579.232 1.613-.868 3.117-2.487 3.402l-35.019 4.97c-.357.05-.72.04-1.074-.031zM90.218 53.964a1.343 1.343 0 0 1-.565-.242 1.457 1.457 0 0 1-.352-2.104l12.96-17.988c.31-.434.832-.672 1.368-.624a1.507 1.507 0 0 1 1.232.857 1.47 1.47 0 0 1-.137 1.481l-12.96 18.052a1.525 1.525 0 0 1-1.546.568zM111.16 66.962a1.497 1.497 0 0 1-1.143-1.247 1.522 1.522 0 0 1 .728-1.54l19.05-10.982a1.46 1.46 0 0 1 2.009.575c.197.347.248.76.142 1.148-.106.386-.36.713-.704.905l-19.051 11.003c-.317.17-.682.219-1.03.138zM59.335 143.934c-1.589-.342-2.605-1.923-2.272-3.536l7.085-33.896a2.977 2.977 0 0 1 1.953-2.341 2.915 2.915 0 0 1 2.958.638c.794.748 1.12 1.88.845 2.944L62.82 141.64a2.979 2.979 0 0 1-1.274 1.88 2.9 2.9 0 0 1-2.211.414zM97.272 142.895c-1.024-.212-1.868-.907-2.245-1.848l-10.782-26.914a2.884 2.884 0 0 1 .426-3.012 3.147 3.147 0 0 1 2.953-1.075c1.114.19 2.03.953 2.388 1.987l10.781 26.914a2.897 2.897 0 0 1-.53 3.002 3.164 3.164 0 0 1-2.99.988v-.042zM118.392 113.935a3.132 3.132 0 0 1-.883-.34l-21.906-12.914A3.015 3.015 0 0 1 94 98.045a3.016 3.016 0 0 1 1.545-2.672 2.958 2.958 0 0 1 3.062.113l21.906 12.914a3.015 3.015 0 0 1 1.29 3.673 2.967 2.967 0 0 1-3.39 1.862h-.021zM79.04 129.97c-.677-.143-1.184-.662-1.268-1.298L75.01 106.66c-.065-.529.18-1.05.644-1.367a1.726 1.726 0 0 1 1.604-.168c.528.212.894.669.96 1.198l2.773 22.013c.054.478-.141.952-.527 1.274a1.728 1.728 0 0 1-1.425.36zM113.207 131.964a1.409 1.409 0 0 1-.825-.505L98.34 114.447a1.503 1.503 0 0 1-.247-1.474 1.479 1.479 0 1 1 2.535-.43l14.032 17.012a1.501 1.501 0 0 1-.199 2.104 1.445 1.445 0 0 1-1.254.305zM12.429 96.904a3.01 3.01 0 0 1-2.427-2.816 3.001 3.001 0 0 1 2.19-2.998l33.893-9.964c1.611-.474 3.307.43 3.787 2.017.48 1.588-.435 3.26-2.046 3.733L13.944 96.904a3.028 3.028 0 0 1-1.515 0zM38.252 66.857h-.223l-28.007-8.11c-1.52-.52-2.354-2.117-1.897-3.629.456-1.512 2.044-2.407 3.607-2.033l27.997 8.109c1.61.4 2.586 2.003 2.178 3.581-.408 1.578-2.044 2.534-3.655 2.134v-.052zM53.316 55.946a3.069 3.069 0 0 1-1.855-1.213L36.637 33.83a2.958 2.958 0 0 1-.371-3.059 3.043 3.043 0 0 1 2.565-1.765 3.059 3.059 0 0 1 2.79 1.395l14.835 20.86a2.967 2.967 0 0 1-.76 4.167 3.126 3.126 0 0 1-2.38.517zM25.14 76.145c-.735-.19-1.22-.94-1.129-1.742.091-.803.73-1.406 1.486-1.403l22.058.809c.824.028 1.47.765 1.444 1.646-.026.88-.715 1.572-1.539 1.544l-22.057-.82a.986.986 0 0 1-.263-.034zM37.201 53.967a1.57 1.57 0 0 1-.546-.247L18.566 40.725a1.552 1.552 0 0 1-.295-2.075 1.471 1.471 0 0 1 2.008-.42l18.089 12.994c.578.418.79 1.194.508 1.858a1.485 1.485 0 0 1-1.675.885zM68.313 45.936c-.605-.144-1.052-.702-1.102-1.375L64.003 1.615c-.046-.827.524-1.543 1.281-1.61.758-.067 1.425.538 1.503 1.363l3.208 43c.03.402-.088.8-.328 1.106-.24.307-.582.496-.95.526a1.68 1.68 0 0 1-.404-.064zM151.172 102.927h-.16l-40.844-13.009a1.5 1.5 0 0 1-1.126-1.095 1.456 1.456 0 0 1 .495-1.472 1.552 1.552 0 0 1 1.572-.235l40.844 12.999c.766.244 1.203 1.028.995 1.786-.207.759-.987 1.227-1.776 1.068v-.042zM49.01 7.96c-1.194-.111-2.23-.78-2.72-1.756-.488-.975-.354-2.108.352-2.972.706-.864 1.876-1.327 3.07-1.216.887.003 1.733.329 2.34.902.613.567.953 1.324.948 2.11C53 6.669 51.503 8 49.657 8a4.605 4.605 0 0 1-.647-.04zm.87-3.784h-.19c-.404-.02-.782.18-.954.506a.808.808 0 0 0 .174.976c.276.263.705.35 1.082.22.378-.13.63-.45.634-.81.014-.411-.297-.774-.746-.872v-.02zM2.361 75.957a2.993 2.993 0 0 1-1.568-.924 2.915 2.915 0 0 1-.79-2.15 3.007 3.007 0 0 1 3.132-2.88 3.01 3.01 0 0 1 2.862 3.15 3.02 3.02 0 0 1-1.185 2.237 2.982 2.982 0 0 1-2.46.537l.01.03zm.83-3.738h-.15a.87.87 0 0 0-.93.804.807.807 0 0 0 .23.603.897.897 0 0 0 .62.281c.23.02.457-.055.631-.206a.866.866 0 0 0 .297-.598.883.883 0 0 0-.699-.884zM79.361 151.938a2.96 2.96 0 0 1-1.567-.887 3.03 3.03 0 0 1 .14-4.233 3.028 3.028 0 0 1 2.14-.817 3.012 3.012 0 0 1 2.734 1.938 2.971 2.971 0 0 1-.774 3.242 2.927 2.927 0 0 1-2.15.817c-.176 0-.351-.02-.523-.06zm.653-3.815a.807.807 0 0 0-.602.229.843.843 0 0 0-.272.627.862.862 0 0 0 .231.638.817.817 0 0 0 1.176 0 .933.933 0 0 0 .281-.628.852.852 0 0 0-.217-.62.867.867 0 0 0-.597-.286v.04zM131.38 121.93a2.836 2.836 0 0 1-1.471-.806 2.973 2.973 0 0 1-.694-3.248A3.002 3.002 0 0 1 131.97 116a2.9 2.9 0 0 1 2.121.876 2.973 2.973 0 0 1 .692 3.252A3.002 3.002 0 0 1 132.02 122a2.747 2.747 0 0 1-.64-.07zm.78-3.8h-.17a.868.868 0 0 0-.84.885c.004.236.1.46.27.627.148.161.36.252.58.249a.863.863 0 0 0 .606-.269.853.853 0 0 0 .235-.617.893.893 0 0 0-.68-.875zM117.373 16.9a3.025 3.025 0 0 1-1.488-.805 3.029 3.029 0 0 1-.885-2.11c0-1.63 1.32-2.958 2.966-2.985a2.961 2.961 0 0 1 2.121.876 2.963 2.963 0 0 1 .697 3.248A3.016 3.016 0 0 1 118.016 17a3.44 3.44 0 0 1-.643-.1zm.784-3.8a.528.528 0 0 0-.171 0 .869.869 0 0 0-.61.268.85.85 0 0 0-.235.617.871.871 0 0 0 .262.637c.156.158.37.248.593.249a.87.87 0 0 0 .834-.896.851.851 0 0 0-.261-.627.775.775 0 0 0-.412-.248zM148.025 47.984c-1.84-.16-3.187-1.625-3.01-3.274.179-1.648 1.814-2.855 3.654-2.696 1.84 0 3.331 1.336 3.331 2.985 0 1.648-1.491 2.985-3.331 2.985-.214.021-.43.021-.644 0zm.666-3.82c-.53.02-.945.419-.933.895-.039.322.131.636.437.808.307.172.696.172 1.003 0 .306-.172.476-.486.437-.808.006-.476-.413-.87-.944-.886v-.01z"/>
    </g>
</svg>
