<svg xmlns="http://www.w3.org/2000/svg" width="85" height="104" viewBox="0 0 85 104">
    <g fill="#7371E9" fill-rule="nonzero">
        <path d="M76.85 103.993h.124c.44-.072.831-.313 1.09-.672.259-.358.363-.803.29-1.238-4.424-26.15-20.684-44.946-21.37-45.702a1.695 1.695 0 0 0-2.311-.103 1.652 1.652 0 0 0-.23 2.277c.166.188 16.337 18.908 20.6 44.102a1.685 1.685 0 0 0 1.807 1.336zM44.796 51.807l-2.226-4.894-5.282.638h-.035a1.263 1.263 0 0 1-1.267-.756c-.22-.5-.102-1.087.294-1.46l3.905-3.666-2.232-4.895c-.224-.5-.109-1.09.287-1.466a1.251 1.251 0 0 1 1.462-.195l4.663 2.63 3.9-3.664c.403-.37.993-.44 1.47-.173.475.267.73.812.634 1.355l-1.037 5.29 4.663 2.637c.48.272.73.826.623 1.372-.107.546-.55.959-1.095 1.023l-5.282.65-1.031 5.29c-.108.547-.55.96-1.096 1.023h-.035a1.268 1.268 0 0 1-1.283-.739zm3.498-9.92a1.295 1.295 0 0 1-.635-1.37l.856-4.387-3.235 3.039c-.403.379-1.001.45-1.48.177l-3.848-2.181 1.877 4.06a1.278 1.278 0 0 1-.291 1.479l-3.235 3.038 4.377-.526a1.268 1.268 0 0 1 1.3.739l1.848 4.061.863-4.392a1.266 1.266 0 0 1 1.09-1.023l4.384-.532-3.871-2.181zM42.67 26.547a1.62 1.62 0 0 0 1.106-.59c.277-.338.412-.775.373-1.214l-1.692-19.27a1.67 1.67 0 0 0-.922-1.434 1.608 1.608 0 0 0-1.675.154c-.488.363-.74.97-.656 1.58l1.693 19.264c.082.916.875 1.591 1.773 1.51zM33.272 33.183a1.651 1.651 0 0 0 1.395-1.059 1.637 1.637 0 0 0-.35-1.71L21.068 16.554a1.66 1.66 0 0 0-2.338-.06 1.64 1.64 0 0 0-.061 2.325l13.254 13.858c.345.369.844.556 1.349.505zM27.17 42.039a1.66 1.66 0 0 0 1.525-1.505 1.653 1.653 0 0 0-1.242-1.741L8.723 33.8a1.677 1.677 0 0 0-1.61.427 1.644 1.644 0 0 0-.433 1.597 1.66 1.66 0 0 0 1.178 1.17l18.73 4.98c.189.055.386.077.583.064zM37.31 28.21a.861.861 0 0 0 .672-.447.847.847 0 0 0 .003-.801l-6.02-11.028a.86.86 0 0 0-1.159-.343.844.844 0 0 0-.346 1.149l6.02 11.028c.163.299.49.472.83.441zM24.633 33.737a.818.818 0 0 0 .587-.331.815.815 0 0 0-.176-1.164l-9.964-7.22a.839.839 0 0 0-1.121.211.82.82 0 0 0 .14 1.122l9.965 7.248c.166.114.37.161.57.134zM48.195 79.651c.43-.037.827-.25 1.103-.59.277-.34.41-.779.37-1.22l-1.72-19.343a1.669 1.669 0 0 0-.935-1.365 1.586 1.586 0 0 0-1.617.15 1.688 1.688 0 0 0-.682 1.516l1.698 19.343c.04.444.251.852.586 1.136.335.283.765.418 1.197.373zM27.236 76.88a1.687 1.687 0 0 0 1.346-.891l7.704-14.431a1.684 1.684 0 0 0-.759-2.168 1.704 1.704 0 0 0-2.232.586l-7.71 14.467c-.435.823-.12 1.84.706 2.277.292.145.621.201.945.16zM17.402 59.169c.177-.014.35-.057.514-.127l13.09-5.558a1.627 1.627 0 0 0 .868-2.157c-.369-.83-1.355-1.211-2.203-.85l-13.084 5.528a1.631 1.631 0 0 0-1.081 1.95c.213.827 1.038 1.355 1.896 1.214zM38.441 70.803a.824.824 0 0 0 .691-.643l2.8-12.172c.085-.445-.183-.88-.607-.986a.809.809 0 0 0-.97.593l-2.8 12.172c-.102.444.15.894.572 1.018.103.023.209.03.314.018zM19.106 69.146a.822.822 0 0 0 .49-.224l8.819-8.293a.815.815 0 0 0-.313-1.407.823.823 0 0 0-.814.222l-8.818 8.298a.815.815 0 0 0 .636 1.404zM76.861 56.973a1.66 1.66 0 0 0 1.494-1.395 1.67 1.67 0 0 0-.98-1.8l-17.659-7.726a1.645 1.645 0 0 0-1.645.192 1.676 1.676 0 0 0 .33 2.873l17.66 7.726c.252.109.527.153.8.13zM64.754 38.703h.13l15.963-2.724a1.68 1.68 0 0 0 1.37-1.937 1.671 1.671 0 0 0-1.924-1.38l-15.97 2.724a1.678 1.678 0 0 0-1.387 1.875 1.67 1.67 0 0 0 1.818 1.454v-.012zM57.56 31.525a1.668 1.668 0 0 0 1.09-.546l9.422-10.563a1.669 1.669 0 0 0-.185-2.29 1.66 1.66 0 0 0-2.292.071l-9.423 10.564a1.663 1.663 0 0 0-.248 1.857c.307.61.956.97 1.636.907zM71.578 44.255a.84.84 0 0 0 .727-.841.84.84 0 0 0-.727-.841l-12.176-1.08a.832.832 0 0 0-.893.772.841.841 0 0 0 .753.916l12.17 1.062.146.012zM66.045 31.528a.762.762 0 0 0 .321-.097l11.015-6.025a.87.87 0 0 0 .342-1.167.836.836 0 0 0-1.144-.348l-11.01 6.025a.87.87 0 0 0-.338 1.163.823.823 0 0 0 .814.449zM49.52 24.891a.852.852 0 0 0 .77-.667L55.183.974a.84.84 0 0 0-.682-.957.87.87 0 0 0-1.018.621l-4.893 23.25a.84.84 0 0 0 .673.992c.085.013.17.017.257.011zM.925 51.425h.089l23.197-4.47a.81.81 0 0 0 .61-.943.834.834 0 0 0-.94-.642L.69 49.84a.813.813 0 0 0-.682.911.83.83 0 0 0 .917.691v-.017zM62.902 5.523c-.742-.075-1.36-.545-1.565-1.19-.205-.645.045-1.337.633-1.752a1.93 1.93 0 0 1 1.343-.358c1.017.012 1.83.762 1.817 1.675-.014.912-.849 1.642-1.866 1.63-.12.007-.241.005-.362-.005zm-.11-2.033a.467.467 0 0 0-.197.33c-.015.253.198.469.478.487.28.018.525-.169.55-.42.026-.25-.178-.474-.457-.501h-.098a.564.564 0 0 0-.3.104h.024zM83.226 45.915c-.907-.063-1.594-.862-1.534-1.786.079-.92.872-1.602 1.776-1.528.903.066 1.585.86 1.529 1.78a1.69 1.69 0 0 1-.55 1.12c-.26.221-.58.358-.918.392-.1.013-.202.021-.303.022zm-.368-1.68a.495.495 0 1 0 .814.392.433.433 0 0 0 .159-.313.487.487 0 0 0-.12-.35.47.47 0 0 0-.33-.16h-.083a.482.482 0 0 0-.44.415v.017zM36.266 82.426a1.642 1.642 0 0 1-1.114-.59 1.67 1.67 0 0 1-.373-1.208 1.666 1.666 0 0 1 1.794-1.517c.435.046.835.26 1.113.596.404.47.51 1.122.276 1.694-.234.57-.77.966-1.39 1.025h-.306zm.19-2.146a.483.483 0 0 0-.513.447.498.498 0 0 0 .112.364c.08.093.194.153.317.165.122.011.243-.029.334-.11a.49.49 0 0 0 .173-.336.51.51 0 0 0-.112-.364.458.458 0 0 0-.311-.166zM9.725 62.497a1.65 1.65 0 1 1-.795-2.951c.342-.274.78-.397 1.215-.341a1.65 1.65 0 1 1 .795 2.951 1.598 1.598 0 0 1-1.215.341zM9.66 60.46a.495.495 0 0 0-.188.33.478.478 0 0 0 .403.551.448.448 0 0 0 .337-.094.512.512 0 0 0 .182-.33.473.473 0 0 0-.397-.55.266.266 0 0 0-.094 0 .442.442 0 0 0-.243.093zM24.091 5.515a1.656 1.656 0 1 1 1.838-1.441c-.055.434-.276.83-.618 1.104-.25.197-.55.318-.867.348-.118.01-.236.007-.353-.01zm-.066-2.038a.497.497 0 0 0-.182.332.48.48 0 0 0 .397.552.474.474 0 0 0 .342-.1.514.514 0 0 0 .182-.33.48.48 0 0 0-.397-.553.469.469 0 0 0-.342.1zM5.32 20.999a1.658 1.658 0 0 1-1.443-1.852 1.666 1.666 0 0 1 1.868-1.431c.438.06.833.29 1.099.64.265.35.378.792.314 1.225a1.649 1.649 0 0 1-1.49 1.44 1.875 1.875 0 0 1-.348-.022zm.276-2.118a.493.493 0 0 0-.504.219.484.484 0 0 0 .017.545.493.493 0 0 0 .884-.217.473.473 0 0 0-.397-.547z"/>
    </g>
</svg>
