<svg xmlns="http://www.w3.org/2000/svg" width="152" height="182" viewBox="0 0 152 182">
    <g fill="#7371E9" fill-rule="nonzero">
        <path d="M2.413 181.935l-.224-.053a3.019 3.019 0 0 1-2.07-3.748c13.386-46.414 46.418-77.058 47.815-78.339a3.021 3.021 0 0 1 4.272.187 3.029 3.029 0 0 1-.187 4.276c-.33.3-33.192 30.836-46.086 75.553a3.018 3.018 0 0 1-3.52 2.124zM68.982 95.944h-.065a2.3 2.3 0 0 1-1.786-2.043l-.785-9.575-9.544-2.243a2.301 2.301 0 0 1-1.794-2.043 2.282 2.282 0 0 1 1.44-2.297l9.059-3.686-.786-9.585a2.26 2.26 0 0 1 1.431-2.297c.933-.38 2.01-.129 2.668.622l6.38 7.352 9.06-3.697a2.368 2.368 0 0 1 2.68.618c.662.756.748 1.843.214 2.69l-5.11 8.204 6.39 7.29c.653.742.75 1.81.242 2.653a2.354 2.354 0 0 1-2.49 1.075h-.065l-9.554-2.223-5.11 8.205a2.368 2.368 0 0 1-2.475.98zm-9.35-16.263l7.93 1.843a2.29 2.29 0 0 1 1.786 2.044l.656 7.942 4.239-6.805a2.388 2.388 0 0 1 2.539-1.053l7.919 1.843-5.304-6.024a2.258 2.258 0 0 1-.216-2.686l4.24-6.805-7.532 3.065a2.368 2.368 0 0 1-2.679-.621l-5.293-6.046.645 7.942a2.27 2.27 0 0 1-1.43 2.296l-7.5 3.065zM79.378 49.938a2.976 2.976 0 0 1-1.892-1.289 2.994 2.994 0 0 1-.421-2.255L84.1 12.38a2.981 2.981 0 0 1 3.528-2.316 2.99 2.99 0 0 1 2.308 3.54l-7.035 34.013a2.987 2.987 0 0 1-3.523 2.321zM95.403 63.94a2.992 2.992 0 0 1-2.314-2.185 2.93 2.93 0 0 1 1.003-2.995l26.954-22.072a3.063 3.063 0 0 1 2.975-.506 2.98 2.98 0 0 1 1.934 2.276 2.936 2.936 0 0 1-1.04 2.783l-26.954 22.05a3.057 3.057 0 0 1-2.558.65zM105.384 80.94c-1.426-.307-2.427-1.565-2.383-2.995.045-1.43 1.122-2.627 2.564-2.848l34.79-5.036a3.068 3.068 0 0 1 2.953 1.022c.715.85.891 2.019.458 3.036a3.029 3.029 0 0 1-2.525 1.816l-34.8 5.036c-.352.047-.71.037-1.057-.031zM89.228 52.975a1.46 1.46 0 0 1-.56-.242 1.48 1.48 0 0 1-.645-.973 1.456 1.456 0 0 1 .269-1.13l12.981-18.064a1.553 1.553 0 0 1 2.077-.295c.663.455.847 1.337.42 2.01L90.757 52.364c-.344.478-.941.716-1.529.61zM110.218 66.978c-.624-.13-1.1-.62-1.2-1.232a1.484 1.484 0 0 1 .755-1.53l19.818-10.955a1.578 1.578 0 0 1 1.61-.076c.51.272.818.798.798 1.362a1.497 1.497 0 0 1-.89 1.308l-19.817 10.912a1.543 1.543 0 0 1-1.074.211zM59.377 143.938a2.977 2.977 0 0 1-1.888-1.285 2.994 2.994 0 0 1-.426-2.25l7.037-34.019a2.981 2.981 0 0 1 3.523-2.321 2.99 2.99 0 0 1 2.314 3.535l-7.036 34.019a2.987 2.987 0 0 1-3.524 2.321zM97.295 142.937a3.06 3.06 0 0 1-2.235-1.836L84.21 114.079c-.617-1.539.165-3.273 1.747-3.874 1.582-.6 3.364.16 3.981 1.7l10.849 27.01c.298.741.281 1.566-.046 2.295-.328.728-.94 1.3-1.7 1.59a3.206 3.206 0 0 1-1.747.137zM118.421 113.941a2.82 2.82 0 0 1-.885-.342l-22.04-12.939c-1.43-.836-1.92-2.69-1.096-4.141a2.962 2.962 0 0 1 4.079-1.113l22.05 12.938a3.062 3.062 0 0 1 1.273 3.702 2.986 2.986 0 0 1-3.38 1.895zM78.082 129.968c-.664-.135-1.164-.651-1.245-1.286l-2.826-22.005a1.46 1.46 0 0 1 .626-1.377 1.677 1.677 0 0 1 1.581-.18c.523.21.888.667.956 1.198l2.815 22.006c.06.478-.127.956-.505 1.282-.378.326-.9.461-1.402.362zM113.216 131.964a1.432 1.432 0 0 1-.822-.497l-14.06-17.018a1.514 1.514 0 0 1 .197-2.1 1.463 1.463 0 0 1 2.072.178l14.05 17.019a1.503 1.503 0 0 1-.188 2.111 1.431 1.431 0 0 1-1.249.307zM12.438 96.935c-1.378-.272-2.385-1.432-2.436-2.806-.051-1.373.867-2.602 2.221-2.97l33.854-10.03c1.608-.476 3.305.412 3.792 1.984.486 1.572-.423 3.232-2.03 3.708L13.942 96.87a3.051 3.051 0 0 1-1.504.064zM38.465 66.904l-.234-.053-28.063-8.038a2.987 2.987 0 0 1-2.082-2.144 2.936 2.936 0 0 1 .845-2.847c.779-.732 1.895-1 2.928-.703L39.91 61.2c1.507.481 2.38 2.027 2 3.542-.38 1.514-1.885 2.481-3.446 2.215v-.052zM52.295 55.93a3.009 3.009 0 0 1-1.875-1.228L35.472 33.634a3.002 3.002 0 0 1 .814-4.077 3.07 3.07 0 0 1 4.154.588l14.991 21.078a2.996 2.996 0 0 1 .065 3.42 3.063 3.063 0 0 1-3.201 1.286zM24.14 76.2c-.735-.194-1.22-.956-1.129-1.773.091-.817.73-1.43 1.485-1.427l22.044.731c.83.026 1.483.778 1.46 1.68-.024.902-.715 1.614-1.544 1.588l-22.044-.731a1.047 1.047 0 0 1-.273-.069zM36.195 53.965a1.617 1.617 0 0 1-.544-.238L17.59 40.76a1.567 1.567 0 0 1-.325-2.1 1.458 1.458 0 0 1 2.021-.417l18.06 12.967c.332.232.559.592.63 1 .07.406-.02.825-.253 1.162-.353.49-.95.723-1.529.594zM68.088 44.964c-.686-.13-1.199-.67-1.255-1.327L63 1.499C62.999.72 63.632.07 64.457.005c.824-.066 1.565.474 1.704 1.24l3.833 42.14c.037.393-.095.785-.366 1.088a1.615 1.615 0 0 1-1.54.491zM150.172 102.969h-.15l-40.899-13.027a1.507 1.507 0 0 1-1.084-1.107c-.126-.538.058-1.1.479-1.464a1.536 1.536 0 0 1 1.536-.275l40.9 12.985a1.493 1.493 0 0 1 .994 1.807 1.52 1.52 0 0 1-1.776 1.08zM48.014 8.874c-1.84-.19-3.181-1.878-2.997-3.771.184-1.894 1.824-3.275 3.663-3.086a3.186 3.186 0 0 1 2.342 1.029 3.483 3.483 0 0 1 .977 2.526c0 1.893-1.491 3.428-3.33 3.428a3.007 3.007 0 0 1-.655-.126zm.843-4.365h-.177a.985.985 0 0 0-.951.586c-.171.378-.1.824.177 1.127.277.303.706.401 1.082.248.376-.154.624-.528.624-.944a.964.964 0 0 0-.277-.72.829.829 0 0 0-.478-.297zM2.39 76.937a2.994 2.994 0 0 1-1.578-.894 2.95 2.95 0 0 1-.81-2.149 3.006 3.006 0 0 1 3.118-2.892 3.009 3.009 0 0 1 2.878 3.133 3.003 3.003 0 0 1-3.128 2.862 4.406 4.406 0 0 1-.48-.06zm.81-3.746h-.15a.87.87 0 0 0-.92.814.785.785 0 0 0 .23.592.886.886 0 0 0 1.54-.522.843.843 0 0 0-.7-.884zM79.361 151.94a3.003 3.003 0 0 1-1.56-.886 2.975 2.975 0 0 1-.799-2.139c.02-.786.35-1.533.92-2.078A2.927 2.927 0 0 1 80.05 146c1.222.02 2.309.776 2.748 1.91a2.974 2.974 0 0 1-.749 3.252 2.927 2.927 0 0 1-2.13.836 4.62 4.62 0 0 1-.559-.06zm.63-3.82a.812.812 0 0 0-.59.228.933.933 0 0 0-.28.627c0 .237.085.466.24.647.15.162.359.255.58.258.22.01.434-.073.59-.228.17-.167.27-.39.28-.627a.867.867 0 0 0-.82-.905zM130.405 120.966a3.013 3.013 0 1 1-.748-5.641 3.025 3.025 0 0 1 3.457.516 3.012 3.012 0 0 1-2.064 5.145 2.3 2.3 0 0 1-.645-.02zm.776-3.838H131a.875.875 0 0 0-.836.904c0 .237.095.464.262.633.156.16.37.25.594.251a.885.885 0 0 0 .845-.904.914.914 0 0 0-.271-.633.776.776 0 0 0-.443-.251h.03zM116.394 15.938a2.92 2.92 0 0 1-1.495-.797 2.968 2.968 0 0 1-.899-2.102c-.028-1.643 1.294-3 2.96-3.038a2.96 2.96 0 0 1 2.14.856c.57.556.894 1.312.9 2.102.028 1.643-1.294 3-2.96 3.038-.217.01-.434-.01-.646-.06zm.768-3.806h-.172a.872.872 0 0 0-.838.897.85.85 0 0 0 .262.627.844.844 0 0 0 .596.25.907.907 0 0 0 .781-.581.888.888 0 0 0-.205-.944.81.81 0 0 0-.424-.249zM147.023 47.985c-1.832-.154-3.18-1.615-3.008-3.264.17-1.65 1.795-2.862 3.628-2.708 1.832-.02 3.335 1.302 3.357 2.951.021 1.65-1.447 3.002-3.28 3.021-.232.02-.465.02-.697 0zm.653-3.832c-.403-.016-.776.19-.942.52a.82.82 0 0 0 .19.98c.28.261.708.342 1.081.205.373-.138.615-.466.611-.829a.811.811 0 0 0-.267-.615 1.005 1.005 0 0 0-.673-.26z"/>
    </g>
</svg>
