<svg xmlns="http://www.w3.org/2000/svg" width="151" height="171" viewBox="0 0 151 171">
    <g fill="#3E43C8" fill-rule="nonzero">
        <path d="M86.945 71.092l-7.28-2.38-.043-7.769a2.428 2.428 0 0 0-1.415-2.199 2.307 2.307 0 0 0-2.532.412l-5.598 5.215-6.623-3.914a2.311 2.311 0 0 0-2.564.13 2.399 2.399 0 0 0-.893 2.446l1.68 7.594-6.578 3.855a2.384 2.384 0 0 0-1.149 2.33 2.417 2.417 0 0 0 1.639 2.032l7.279 2.38.044 7.768c.005.95.56 1.813 1.415 2.2a2.307 2.307 0 0 0 2.532-.413l5.598-5.215 6.623 3.914a2.306 2.306 0 0 0 2.564-.13 2.399 2.399 0 0 0 .893-2.445l-1.681-7.595 6.579-3.855a2.384 2.384 0 0 0 1.148-2.329 2.417 2.417 0 0 0-1.638-2.032zm-9.95 4.926a2.391 2.391 0 0 0-1.106 2.586l.885 3.996-3.485-2.059a2.305 2.305 0 0 0-2.76.294l-2.946 2.744-.023-4.088a2.422 2.422 0 0 0-1.654-2.292l-3.83-1.252 3.462-2.029a2.391 2.391 0 0 0 1.106-2.585l-.885-3.997 3.485 2.06a2.31 2.31 0 0 0 2.76-.294l2.945-2.744.024 4.088a2.422 2.422 0 0 0 1.653 2.292l3.83 1.252-3.461 2.028zM47.796 69.31l-24.67-1.949c-1.317-.104-2.48.862-2.597 2.157-.118 1.295.854 2.43 2.17 2.534L47.37 74c.27.021.534-.003.783-.065.967-.241 1.722-1.062 1.815-2.092.118-1.296-.854-2.43-2.17-2.534zM61.095 51.426l-15.518-26.88c-.649-1.123-2.07-1.507-3.174-.858-1.104.65-1.473 2.086-.824 3.21l15.517 26.88a2.322 2.322 0 0 0 2.567 1.107 2.28 2.28 0 0 0 .607-.249c1.104-.65 1.473-2.086.825-3.21zM96.036 18.497a2.405 2.405 0 0 0-3.152 1.222L79.447 49.898a2.355 2.355 0 0 0 1.218 3.122 2.394 2.394 0 0 0 1.539.128 2.395 2.395 0 0 0 1.613-1.35L97.254 21.62a2.356 2.356 0 0 0-1.218-3.123zM71.185 24.24c-1.364.047-2.452 1.147-2.431 2.457l.438 28.019c.02 1.31 1.142 2.334 2.505 2.287.185-.006.365-.032.538-.075 1.1-.274 1.91-1.25 1.893-2.382l-.438-28.019c-.02-1.31-1.142-2.333-2.505-2.287zM54.142 59.319L39.53 49.074a2.277 2.277 0 0 0-3.218.599 2.407 2.407 0 0 0 .622 3.29l14.613 10.245a2.277 2.277 0 0 0 3.217-.6 2.407 2.407 0 0 0-.622-3.29zM51.95 81.89c-.443-1.342-1.83-2.079-3.102-1.648l-13.287 4.513c-1.27.431-1.94 1.868-1.497 3.208.421 1.276 1.699 2.006 2.915 1.702.063-.015.125-.034.187-.055l13.287-4.512c1.27-.431 1.94-1.868 1.497-3.209zM42.764 8.927a7.487 7.487 0 0 0-3.988-4.167c-3.804-1.674-8.26.059-9.935 3.862-1.674 3.804.059 8.26 3.863 9.935a7.479 7.479 0 0 0 5.766.126 7.487 7.487 0 0 0 4.168-3.988 7.488 7.488 0 0 0 .126-5.768zM38.24 12.76a2.714 2.714 0 0 1-1.51 1.447 2.716 2.716 0 0 1-2.091-.046 2.714 2.714 0 0 1-1.446-1.511 2.73 2.73 0 0 1 3.648-3.491c.668.294 1.181.83 1.446 1.51.264.681.248 1.423-.047 2.091zM14.704 65.115a7.486 7.486 0 0 0-3.987-4.166 7.483 7.483 0 0 0-5.766-.126A7.485 7.485 0 0 0 .785 64.81a7.484 7.484 0 0 0-.126 5.765 7.486 7.486 0 0 0 3.987 4.166 7.477 7.477 0 0 0 5.766.127 7.485 7.485 0 0 0 4.166-3.988c.81-1.842.855-3.89.126-5.765zm-4.522 3.83a2.714 2.714 0 0 1-1.51 1.446 2.716 2.716 0 0 1-2.09-.046 2.712 2.712 0 0 1-1.447-1.51 2.714 2.714 0 0 1 .046-2.09 2.714 2.714 0 0 1 1.845-1.552 2.71 2.71 0 0 1 1.756.152c.668.294 1.182.83 1.446 1.51s.248 1.423-.046 2.09zM104.43.693a7.487 7.487 0 0 0-5.768-.127 7.487 7.487 0 0 0-4.167 3.989 7.486 7.486 0 0 0-.126 5.767 7.485 7.485 0 0 0 3.988 4.167 7.5 7.5 0 0 0 4.85.414 7.529 7.529 0 0 0 5.084-4.276c1.675-3.803-.058-8.26-3.861-9.934zm-.536 8a2.736 2.736 0 0 1-3.602 1.4 2.714 2.714 0 0 1-1.446-1.51 2.716 2.716 0 0 1 .046-2.092 2.715 2.715 0 0 1 1.846-1.552 2.736 2.736 0 0 1 3.157 3.754zM110.256 104.518l-18.46-16.422c-.985-.877-2.532-.802-3.456.167-.924.968-.874 2.464.111 3.34l18.46 16.423a2.475 2.475 0 0 0 2.245.535 2.508 2.508 0 0 0 1.21-.702c.925-.969.875-2.465-.11-3.341zM126.244 59.43l-29.89 6.371c-1.25.271-2.008 1.625-1.697 3.036.312 1.41 1.577 2.338 2.826 2.071l29.89-6.37.07-.017c1.207-.3 1.933-1.635 1.627-3.019-.311-1.41-1.577-2.338-2.826-2.072zM109.502 41.21a2.418 2.418 0 0 0-3.394-.225L84.63 59.544a2.375 2.375 0 0 0-.242 3.368 2.41 2.41 0 0 0 2.398.743c.357-.089.7-.26.997-.518L109.26 44.58a2.375 2.375 0 0 0 .242-3.368zM113.12 80.873l-18.019-4.13a2.445 2.445 0 0 0-2.925 1.806 2.4 2.4 0 0 0 1.81 2.892l18.018 4.13c.388.09.777.08 1.14-.01a2.436 2.436 0 0 0 1.785-1.796 2.4 2.4 0 0 0-1.809-2.892zM89.5 108.01l-5.494-12.518c-.525-1.197-1.892-1.743-3.052-1.22-1.16.522-1.675 1.916-1.15 3.112l5.495 12.518c.469 1.068 1.607 1.618 2.671 1.352.129-.032.256-.076.38-.132 1.161-.523 1.676-1.916 1.15-3.113zM145.673 51.895a7.488 7.488 0 0 0-5.767-.126 7.488 7.488 0 0 0-4.167 3.988 7.483 7.483 0 0 0-.127 5.765 7.483 7.483 0 0 0 3.988 4.166 7.48 7.48 0 0 0 5.768.126 7.489 7.489 0 0 0 4.167-3.988c1.674-3.802-.058-8.258-3.862-9.931zm-.536 7.997a2.716 2.716 0 0 1-1.51 1.446 2.717 2.717 0 0 1-2.092-.046 2.714 2.714 0 0 1-1.446-1.51 2.713 2.713 0 0 1 .046-2.09 2.715 2.715 0 0 1 1.846-1.552 2.734 2.734 0 0 1 3.157 3.753zM122.179 110.82c-3.805-1.673-8.263.06-9.938 3.863-1.675 3.804.058 8.26 3.862 9.935a7.482 7.482 0 0 0 5.77.126 7.49 7.49 0 0 0 4.168-3.99c1.675-3.803-.058-8.26-3.862-9.933zm-.536 8a2.715 2.715 0 0 1-1.512 1.446 2.735 2.735 0 0 1-1.98-5.094 2.713 2.713 0 0 1 2.092.046 2.735 2.735 0 0 1 1.4 3.602zM60.279 94.897a2.396 2.396 0 0 0-3.255.867c-.856 1.462-21.006 36.235-25.508 72.213a2.355 2.355 0 0 0 2.07 2.628 2.382 2.382 0 0 0 2.656-2.064c4.378-34.998 24.693-70.067 24.898-70.417a2.348 2.348 0 0 0-.861-3.227z"/>
    </g>
</svg>
