<svg xmlns="http://www.w3.org/2000/svg" width="320" height="380" viewBox="0 0 320 380">
    <g fill="#1FB38C" fill-rule="nonzero">
        <path d="M150.388 10.898l4.617 2.652-2.177 5.304a2.12 2.12 0 0 0 .694 2.792 2.2 2.2 0 0 0 2.816-.39l4.157-3.22 4.176 3.22c.403.47.993.741 1.615.744.418.001.826-.122 1.173-.354a2.12 2.12 0 0 0 .694-2.792l-2.177-5.304 4.608-2.652a2.119 2.119 0 0 0 1.36-2.476 2.15 2.15 0 0 0-.938-1.321 2.145 2.145 0 0 0-1.445-.289l-5.734.14-1.201-5.026A2.133 2.133 0 0 0 160.496 0a2.142 2.142 0 0 0-2.112 1.926l-1.192 5.026-5.734-.14a2.117 2.117 0 0 0-1.445.289 2.116 2.116 0 0 0-1.002 2.02 2.125 2.125 0 0 0 1.396 1.777h-.02zm8.878-1.257l1.22-5.118 1.22 5.118 6.006-.149-5.096 2.923 2.374 5.77-4.523-3.49-4.486 3.48 2.403-5.76-5.096-2.923 5.978.15zM301.005 296c-1.652 0-2.994 1.183-3 2.645v5.543c-.066.984.49 1.92 1.444 2.43.954.51 2.148.51 3.102 0 .954-.51 1.51-1.446 1.444-2.43v-5.543c0-.701-.315-1.374-.876-1.87-.56-.496-1.32-.775-2.114-.775zM246.005 296c-1.652 0-2.994 1.183-3 2.645v5.543c-.066.984.49 1.92 1.444 2.43.954.51 2.148.51 3.102 0 .954-.51 1.51-1.446 1.444-2.43v-5.543c0-.701-.315-1.374-.876-1.87-.56-.496-1.32-.775-2.114-.775zM19.995 296c-1.651 0-2.99 1.184-2.99 2.645v5.543c-.066.984.49 1.92 1.444 2.43.954.51 2.148.51 3.102 0 .954-.51 1.51-1.446 1.444-2.43v-5.543c-.006-1.462-1.348-2.645-3-2.645z"/>
        <path d="M319.191 270.55a2.63 2.63 0 0 0-1.86-.772c-7.112 0-13.202 2.79-16.503 6.968-3.291-4.205-9.381-6.968-16.494-6.968a2.63 2.63 0 0 0-1.86.772 2.606 2.606 0 0 0-.771 1.86v29.652h-17.257l.047-29.651a2.634 2.634 0 0 0-2.632-2.643c-7.112 0-13.202 2.792-16.503 6.969-3.292-4.205-9.382-6.969-16.494-6.969a2.63 2.63 0 0 0-2.64 2.643l.055 29.651h-7.922v-43.728a2.641 2.641 0 0 0-2.64-2.642h-12.961v-55.498a2.641 2.641 0 0 0-2.632-2.642h-13.63v-46.11a2.641 2.641 0 0 0-2.64-2.642h-5.068V110.47a2.641 2.641 0 0 0-2.631-2.643h-5.077l-4.277-54.455v-9.304a2.641 2.641 0 0 0-2.64-2.633h-1.45V24.8a2.643 2.643 0 0 0-4.002-2.418 2.643 2.643 0 0 0-1.27 2.418v16.672h-1.451a2.632 2.632 0 0 0-2.575 2.633v9.304l-4.138 54.418h-5.095a2.641 2.641 0 0 0-2.64 2.643v38.294h-5.068a2.641 2.641 0 0 0-2.631 2.642v46.11H120.2a2.641 2.641 0 0 0-2.631 2.642v55.46h-12.961a2.64 2.64 0 0 0-2.64 2.643v43.728h-8.276v-29.652a2.632 2.632 0 0 0-2.575-2.558c-7.113 0-13.203 2.79-16.494 6.968-3.292-4.205-9.382-6.968-16.495-6.968a2.63 2.63 0 0 0-2.64 2.642l.046 29.651H38.214l.055-29.651a2.634 2.634 0 0 0-2.64-2.642c-7.113 0-13.203 2.79-16.494 6.968-3.329-4.242-9.382-6.968-16.504-6.968A2.63 2.63 0 0 0 0 272.42l.056 32.284V380h5.272v-75.296l-.056-29.484c6.294.828 11.213 4.56 11.213 8.867a2.65 2.65 0 1 0 5.3 0c0-4.308 4.909-8.039 11.157-8.867v29.484c.004.698.281 1.365.772 1.861a2.64 2.64 0 0 0 1.86.772h22.583a2.64 2.64 0 0 0 1.86-.772c.49-.496.767-1.163.772-1.86V275.22c6.294.828 11.157 4.56 11.157 8.867a2.65 2.65 0 1 0 5.3 0c0-4.308 4.909-8.039 11.157-8.867v29.484c-.003.16.012.319.046.475v.158c0 .056.056.205.093.307l.084.177c.04.087.086.171.14.25.03.056.064.109.102.16l.186.222.13.14.242.195.13.103c.102.061.208.117.316.167l.111.056c.142.066.293.113.447.14h.056c.262.036.528.036.79 0h10.6v72.653h5.271V260.818h105.938v119.089h5.272v-72.56h10.562a2.63 2.63 0 0 0 1.86-.773c.49-.495.767-1.163.772-1.86V275.23c6.294.828 11.203 4.559 11.203 8.866a2.65 2.65 0 1 0 5.3 0c0-4.307 4.919-8.038 11.213-8.866l-.046 29.484a2.625 2.625 0 0 0 .762 1.86c.495.49 1.163.768 1.86.773h22.584a2.63 2.63 0 0 0 2.631-2.643l-.046-29.484c6.294.828 11.203 4.56 11.203 8.867a2.67 2.67 0 0 0 2.669 2.642 2.641 2.641 0 0 0 2.64-2.642c0-4.308 4.91-8.039 11.158-8.867V380h5.272L320 272.41a2.634 2.634 0 0 0-.809-1.86zm-183.23-24.58a1.31 1.31 0 0 0-1.32 1.32v8.216h-11.8v-21.79h20.79a1.31 1.31 0 0 0 1.311-1.321 19.43 19.43 0 0 1 8.368-15.816 38.181 38.181 0 0 0 6.741-5.425 37.642 37.642 0 0 0 6.732 5.425 18.443 18.443 0 0 1 8.368 15.816c0 .73.59 1.321 1.32 1.321h21.013v21.79h-11.632v-8.216a1.32 1.32 0 1 0-2.64 0v8.216h-12.543v-8.216a1.321 1.321 0 1 0-2.631 0v8.216h-15.555v-8.216a1.32 1.32 0 1 0-2.64 0v8.216h-12.571v-8.216a1.312 1.312 0 0 0-1.311-1.32zm37.553-97.207h-12.198v-35.662h12.198v35.662zm-14.876-95.131v-6.886h2.91v6.932l4.258 54.148h-11.25l4.082-54.194zm-11.827 59.47h11.873v35.661h-11.873v-35.662zm-10.348 89.725v6.764a1.321 1.321 0 1 0 2.631 0v-9.303a.466.466 0 0 0 0-.112v-46.1h4.575c.163.014.328.014.492 0h31.975c.161.013.323.013.484 0h4.583v46.118c-.004.081-.004.162 0 .242v9.155a1.32 1.32 0 1 0 2.641 0v-6.764h13.64v28.256h-19.749a21.132 21.132 0 0 0-9.483-16.747c-5.783-3.935-6.76-5.582-6.9-5.88a1.35 1.35 0 0 0-.287-.707 1.376 1.376 0 0 0-2.055 0c-.158.205-.258.45-.288.707-.14.298-1.125 1.954-6.9 5.88a22.072 22.072 0 0 0-9.474 16.747h-19.525v-28.256h13.64z"/>
        <path d="M76.005 296c-1.652 0-2.994 1.183-3 2.645v5.543c-.066.984.49 1.92 1.444 2.43.954.51 2.148.51 3.102 0 .954-.51 1.51-1.446 1.444-2.43v-5.543c0-.701-.315-1.374-.876-1.87-.56-.496-1.32-.775-2.114-.775zM160.495 229c.828 0 1.5-.572 1.5-1.278v-5.337c.047-.48-.227-.943-.709-1.195a1.725 1.725 0 0 0-1.572 0c-.482.252-.756.715-.709 1.195v5.337c0 .702.665 1.273 1.49 1.278zM201.671 348.515H188.17C187.571 332.57 176.342 322 159.846 322c-16.496 0-27.734 10.57-28.323 26.515h-14.194a1.33 1.33 0 0 0-1.329 1.331 1.33 1.33 0 0 0 1.329 1.332h14.166V380h2.657v-29.844a.77.77 0 0 1 0-.338c0-17.398 12.903-25.192 25.694-25.192 12.791 0 25.694 7.794 25.694 25.192a1.542 1.542 0 0 0 0 .207.555.555 0 0 0 0 .13v29.817h2.657V351.15h13.474a1.33 1.33 0 0 0 1.329-1.332 1.33 1.33 0 0 0-1.329-1.332v.029zM195.567 290.995c.497.047.975-.227 1.237-.709a1.673 1.673 0 0 0 0-1.572c-.262-.482-.74-.756-1.237-.709h-16.355c-.685.066-1.212.715-1.212 1.495 0 .78.527 1.43 1.212 1.495h16.355zM166.694 300c.718 0 1.3-.608 1.306-1.362v-17.266c-.005-.756-.587-1.367-1.306-1.372h-13.397c-.718.005-1.297.618-1.297 1.372v17.227c0 .361.137.708.38.963.243.256.573.4.917.4l13.397.038zm-12.092-17.217h10.787v14.492h-10.787v-14.492zM140.785 290.995c.687-.066 1.215-.715 1.215-1.495 0-.78-.528-1.43-1.215-1.495h-16.348c-.499-.047-.978.227-1.24.709a1.67 1.67 0 0 0 0 1.572c.262.482.741.756 1.24.709h16.348zM158.748 178.678c.241.208.558.322.886.322h.112c.36-.017.697-.17.932-.426l5.969-6.5c.33-.333.44-.808.283-1.237-.157-.43-.553-.744-1.033-.82-.48-.075-.965.1-1.265.457l-5.073 5.528-3.376-2.886a1.394 1.394 0 0 0-1.834.105 1.175 1.175 0 0 0 .044 1.712l4.355 3.745z"/>
        <path d="M159.5 195a16.5 16.5 0 1 0-16.5-16.49c.01 9.106 7.393 16.485 16.5 16.49zm0-30.402c7.672 0 13.892 6.22 13.892 13.893 0 7.673-6.22 13.893-13.892 13.893-7.673 0-13.893-6.22-13.893-13.893.015-7.663 6.23-13.87 13.893-13.874v-.019z"/>
    </g>
</svg>
