<svg xmlns="http://www.w3.org/2000/svg" viewBox="0 0 162.77 162.77"><defs><style>.cls-1{fill:#4f55ec;}.cls-2{fill:#9296f9;}</style></defs><title>Asset 76</title><g id="Layer_2" data-name="Layer 2"><g id="Layer_1-2" data-name="Layer 1"><circle class="cls-1" cx="81.38" cy="81.38" r="81.38"/><path class="cls-2" d="M82.55,21.86a58.63,58.63,0,1,0,58.63,58.63A58.7,58.7,0,0,0,82.55,21.86Zm0,5.67a52.92,52.92,0,0,1,42.8,21.82c-3.32,1.38-4.64,5.08-4.85,7.28-.23,2-1,3.83-1.34,4,0,0-.31,0-.92-.74-4-4.52-8.36-6.44-10.58-4.66-.57.46-2.21,2.26.62,6.17,1.26,1.74,2.48,4.28,1.1,6.5-1.5,2.43-5.45,3.56-9.83,2.83-2.22-.36-3.74-.15-4.77.68a4.71,4.71,0,0,0-1.4,3.76c0,.64-.08,1.44-.32,1.63s-.64.39-2.66,0c-5-1-6.34-5-7.59-8.79a14.92,14.92,0,0,0-2.25-4.92,6.17,6.17,0,0,0-5-2.37c-4.88.18-9.76,5.87-11.39,8a4.17,4.17,0,0,1-1.84-1.48c-1.06-1.48-2-4.48-.35-10.44,1.36-5,1-9.93-1-12.59a4,4,0,0,0-3.21-1.81c-2.62,0-4.34.64-5.23,2.07-1.27,2.06,0,4.58.13,4.86a1.31,1.31,0,0,0,.19.27c.32.38.68,1.09.54,1.41s-1.16,1-4,1.11c-1.79.08-1.89-.41-2.09-1.39a2.29,2.29,0,0,0-1.33-1.93c-1.08-.38-2.11.35-3.07,1.14-3.68,3-2.34,5.69-1.54,7.28.67,1.33.63,1.4,0,1.9a18.84,18.84,0,0,1-2.38,1.48c-2.64,1.46-5.36,3-5.92,9.77A12,12,0,0,1,29.65,78,53,53,0,0,1,82.55,27.53ZM96.73,131.25a3.33,3.33,0,0,1-1.65-2.83c-.42-5.67-5.64-6.09-9.1-6.36-.69-.06-1.36-.11-2-.2-.15,0-.4-.29-.61-.83a7.4,7.4,0,0,1,1.19-6.63,4,4,0,0,1,4.18-1.18,6.35,6.35,0,0,0,5.28-1.35c2-1.29,4.18-2.74,10.93-.64a2.7,2.7,0,0,1,1.48,1.2,3.64,3.64,0,0,1,0,2.8c-1.12,3.68.79,4.66,1.4,4.87,2.06.71,4.67-1.22,6-4.44a5.82,5.82,0,0,1,.29,1.86,12.68,12.68,0,0,1-2.35,7,52.64,52.64,0,0,1-14.79,6.84ZM116.58,121a11,11,0,0,0,0-6.31c-.55-1.53-1.53-2.42-2.69-2.44-.55,0-1.77.18-2.51,2.07a5.26,5.26,0,0,1-2.4,3,4.09,4.09,0,0,1,.22-1.3,6.29,6.29,0,0,0-.28-5,5.5,5.5,0,0,0-3.15-2.52c-8-2.48-11-.48-13.28,1-1.3.85-1.93,1.21-3.13,1a6.85,6.85,0,0,0-6.93,2.1A10.23,10.23,0,0,0,80.75,122a3.71,3.71,0,0,0,2.86,2.65c.68.1,1.39.15,2.14.21,3.9.31,6.28.72,6.5,3.74a6.42,6.42,0,0,0,1.39,3.65,52.92,52.92,0,0,1-64-50.56,14.37,14.37,0,0,0,6.21-11.14c.43-5.29,2-6.18,4.46-7.51A20.43,20.43,0,0,0,43,61.32c2.52-2,1.44-4.11.79-5.4-.75-1.49-1.12-2.23.81-3.81l0,0c.4,1.24,1.45,3,4.8,2.83,3.62-.17,5.74-1.1,6.48-2.84s-.43-3.63-.88-4.2a2.47,2.47,0,0,1-.17-2c.3-.49,1.31-.75,2.75-.73a1.46,1.46,0,0,1,1,.68c1.17,1.57,1.84,5.41.55,10.14-2.71,9.9.74,13.57,3,14.89.41.23,2.51,1.35,3.56.27a1,1,0,0,0,.13-.16c1.47-2,6.08-7.33,9.7-7.46a3.27,3.27,0,0,1,2.78,1.37,13.33,13.33,0,0,1,1.72,4c1.3,3.95,3.07,9.36,9.73,10.69,2.32.47,3.9.3,5-.53,1.27-1,1.35-2.5,1.41-3.72,0-.69.07-1.47.34-1.69s.68-.4,2.53-.09c5.59.93,10.58-.69,12.71-4.13,1-1.61,2.16-5-1.21-9.66a4.55,4.55,0,0,1-1.09-2.31c.62-.13,3.23.5,6.63,4.34,1.6,1.8,3,1.85,3.85,1.57,2.52-.8,3.2-5.12,3.35-6.44.37-3.59,2.33-4.75,3.72-5.12A52.83,52.83,0,0,1,116.58,121Z"/><path class="cls-2" d="M97.4,86c-.57-1.5-2.36-2.32-4.35-2a8.47,8.47,0,0,1-4.14-.42c-.86-.26-2.46-.74-3.1.75h0c-.85,2,1.87,4.68,4,5.61a5.73,5.73,0,0,0,2.3.46,8.06,8.06,0,0,0,4-1.14A2.67,2.67,0,0,0,97.4,86ZM91,87.36a4.67,4.67,0,0,1-1-.57,10.07,10.07,0,0,0,3.53,0,1.77,1.77,0,0,1,1.08.09A4.49,4.49,0,0,1,91,87.36Z"/><path class="cls-2" d="M100.89,92.73a4.24,4.24,0,0,1-2.73-.48c-.52-.25-1.92-.92-2.83.36a4.39,4.39,0,0,0-.69,4c.55,1.34,1.91,2.21,4.06,2.58a9.36,9.36,0,0,0,1.61.14,7.36,7.36,0,0,0,3.41-.7A2.82,2.82,0,0,0,105,95.17,3.75,3.75,0,0,0,100.89,92.73Zm-1.71,3.7c-1.24-.22-1.81-.59-1.92-.87a.87.87,0,0,1,0-.59,6.9,6.9,0,0,0,4,.56.83.83,0,0,1,.74.25.75.75,0,0,1,.24.42A6.27,6.27,0,0,1,99.18,96.43Z"/><path class="cls-2" d="M111.1,98.34h0a3.13,3.13,0,0,0-3.28,2.46c-.3,1.56.6,3.72,3.28,4.81a12,12,0,0,1,4.63,3.53c.6.68,1.43,1.62,2.41,1.62a1.77,1.77,0,0,0,1-.35h0c1.9-1.33,1.16-5.84-.77-8.6S112.9,98.34,111.1,98.34Zm1.06,4.64c-1.31-.53-1.63-1.34-1.57-1.64s.45-.17.51-.17c.94,0,3.66.41,5,2.27a8,8,0,0,1,1.28,3.27A14.17,14.17,0,0,0,112.16,103Z"/><path class="cls-2" d="M39.42,73.35c-1.52.4-3.08,2.16-2.88,5.05a12,12,0,0,1-1.16,5.7c-.46,1.11-1.16,2.8.36,3.64h0a2.27,2.27,0,0,0,1.1.27c2.08,0,4.93-2.25,6.3-4.71,1.63-2.94.72-6.46-.06-8.08A3.13,3.13,0,0,0,39.42,73.35Zm1.24,8.57a8,8,0,0,1-2.39,2.59,14.13,14.13,0,0,0,1.1-6.3c-.1-1.41.5-2,.78-2.13h0c.15,0,.31.32.35.38C40.94,77.31,41.76,79.93,40.66,81.92Z"/><path class="cls-2" d="M108.68,83.38c-.94-3.07-3.39-4.94-5.56-4.28s-3.15,3.59-2.21,6.66a7.45,7.45,0,0,0,2,3.33,4,4,0,0,0,2.61,1.08,3,3,0,0,0,.9-.13C108.65,89.37,109.62,86.44,108.68,83.38Zm-3,4c-.15,0-.45-.06-.8-.37a4.47,4.47,0,0,1-1.22-2c-.51-1.69-.07-3,.33-3.12H104c.45,0,1.44.83,1.93,2.41S106,87.2,105.64,87.33Z"/></g></g></svg>