<svg xmlns="http://www.w3.org/2000/svg" viewBox="0 0 162.77 162.77"><defs><style>.cls-1{fill:#4f55ec;}.cls-2{fill:#9296f9;}</style></defs><title>Asset 74</title><g id="Layer_2" data-name="Layer 2"><g id="Layer_1-2" data-name="Layer 1"><circle class="cls-1" cx="81.38" cy="81.38" r="81.38"/><path class="cls-2" d="M119.23,104.13l.75-.86c9.11-11.16,12.1-23.82,8.64-36.62-5.12-19-22.46-33.17-33.13-37.17A2.83,2.83,0,0,0,92.4,34c.31.34,30.83,34.34,15.45,53.44a22.14,22.14,0,0,1-2.12,2.3L81.55,63.83l11.44-9a2.83,2.83,0,0,0,.48-4L90,46.43a2.83,2.83,0,0,0-3.48-.8c-8.07,3.95-14.06.31-14.29.17a2.81,2.81,0,0,0-3.39.23L44.65,66.91a2.83,2.83,0,0,0-.4,3.87l9.41,12.28a2.83,2.83,0,0,0,4,.51l8.54-6.69,19,21.24C68.44,100,50.56,94.7,50.29,94.62h0l-.2,0-.33,0h-.52l-.19,0-.32.07-.2.07-.29.13-.18.1-.29.2-.11.08L28.92,111.48a2.83,2.83,0,0,0-.12,4.16l7.4,7.26a2.82,2.82,0,0,0,3.87.1L59,106.2a101.17,101.17,0,0,0,15.26,6.36,61.42,61.42,0,0,0,18.41,3.14,40.19,40.19,0,0,0,8-.78l0,.06L112,126.87a2.83,2.83,0,0,0,4,.12l10.9-10.24a2.84,2.84,0,0,0,.17-4ZM91.7,97l-23-25.82a2.83,2.83,0,0,0-3.86-.35l-8.38,6.56-6.05-7.88L71.11,51.55a21,21,0,0,0,15.77.1l.38.48L75.62,61.28a2.84,2.84,0,0,0-.32,4.16l25.88,27.77A34.35,34.35,0,0,1,91.72,97S91.71,97,91.7,97ZM38.28,117,35,113.74,49.7,100.89c1,.64,2.34,1.47,4,2.43Zm28.38-13.45c2.09.24,4.3.43,6.57.54,18,.87,31.47-3.64,39-13,11.91-14.8,2.4-35.3-6.16-48.32,7.18,6.13,14.24,15,17,25.41,3,11.12.46,21.73-7.56,31.55C102.71,115.45,81.26,110.05,66.66,103.55Zm47.48,17.37-7.38-7.82a32.21,32.21,0,0,0,8.42-5l5.78,6.42Z"/></g></g></svg>