<svg xmlns="http://www.w3.org/2000/svg" viewBox="0 0 162.77 162.77"><defs><style>.cls-1{fill:#4f55ec;}.cls-2{fill:#9296f9;}</style></defs><title>Asset 73</title><g id="Layer_2" data-name="Layer 2"><g id="Layer_1-2" data-name="Layer 1"><circle class="cls-1" cx="81.38" cy="81.38" r="81.38"/><path class="cls-1" d="M97.87,90.45c-1.79-1.42-3.46-2-5-1.84A5.45,5.45,0,0,0,89.42,91l-.09.13-.18.24C91.57,91.5,95.4,91.43,97.87,90.45Z"/><path class="cls-1" d="M59,53.92a1.42,1.42,0,0,1,.37,1.51c-.08.22-7.5,22.22,9.52,39.76a40.55,40.55,0,0,1,4.84-7.08c5-5.82,10.87-9.06,17.12-9.42.76-.51,3-2.06,7.18-5.1A1.94,1.94,0,0,0,99,72c.07-2.63-3.91-6.94-6.44-9.05a1.41,1.41,0,0,1-.18-2l-.07-.06a2.84,2.84,0,0,1,.25-4c2.68-2.36,9.81-5.26,17.68.65a2.83,2.83,0,1,1-3.4,4.53c-6.19-4.64-10.48-1-10.53-.93a2.74,2.74,0,0,1-.9.53c2.12,1.95,6.54,6.48,6.42,10.4a4.75,4.75,0,0,1-2,3.77c-1.63,1.2-3,2.16-4,2.93A32.73,32.73,0,0,1,114.11,87c1.31-4.17,3.72-13.86,1-21.69a1.43,1.43,0,0,1-.08-.58c0-.11.79-10.45-1.74-19.26l-.34-.12a2.89,2.89,0,0,1-1.52-1.23C111.4,44,105.29,33.84,99,29.44,96.62,28.28,71.88,16.79,56,42.06a2.88,2.88,0,0,1-1.31,1.1A13.59,13.59,0,0,0,59,53.92Zm8.8,5.47c7.22-3.69,12.37-4.85,15.75-3.57a4.85,4.85,0,0,1,2.91,2.64,2.84,2.84,0,0,1-5,2.65c-.53-.16-3.32-.65-11.11,3.33a2.88,2.88,0,0,1-1.29.31,2.83,2.83,0,0,1-1.29-5.36Z"/><path class="cls-1" d="M46,97.59a2.83,2.83,0,0,1,.75,2.93c0,.1-3.35,11,3.43,20.14S71.38,134.33,93,134.05c1.42,0,2.79-.07,4.13-.13-1-8.88-5.54-17.52-5.59-17.61a1.42,1.42,0,0,1,.59-1.92A1.41,1.41,0,0,1,94,115c.22.42,4.92,9.32,5.92,18.78,1.7-.12,3.31-.29,4.86-.49-1-8.85-5.52-17.43-5.57-17.53a1.42,1.42,0,0,1,2.5-1.33c.21.41,4.8,9.11,5.87,18.44a52.72,52.72,0,0,0,6.31-1.42c-1.51-8.59-5.64-16.11-7.42-19.35a11.49,11.49,0,0,1-1-2,1.42,1.42,0,0,1,2.71-.82c.08.19.43.83.76,1.44,1.83,3.32,6,10.94,7.65,19.82,5.28-2,8.87-4.76,10.6-8.31,4.89-10.07-5.61-24-5.71-24.14a2.85,2.85,0,0,1,.24-3.73c3.89-3.9,14.06-15.58,15.05-23.3-.28-2.19-2.83-16.82-20.23-24.36.19.84.37,1.68.52,2.51.84.18,2.44,1.26,6.65,5.15a68.78,68.78,0,0,1,9.09,9.94,1.41,1.41,0,0,1-1.17,2.22,1.39,1.39,0,0,1-1.16-.61c-3.32-4.77-10-10.87-12.89-13.11.11,1,.19,1.95.25,2.87,1,.5,2.67,1.81,6,4.9A69.35,69.35,0,0,1,133,70.49a1.41,1.41,0,0,1-.36,2,1.38,1.38,0,0,1-.8.25,1.44,1.44,0,0,1-1.17-.6C127.42,67.48,121,61.6,118,59.21c0,2.67-.06,4.67-.11,5.41,3.68,11.19-1.64,24.87-1.87,25.46a1.42,1.42,0,0,1-2.39.4,30.23,30.23,0,0,0-22.24-9C77.8,82,70.69,98,70.62,98.14a1.4,1.4,0,0,1-1,.82,1.43,1.43,0,0,1-.29,0,1.4,1.4,0,0,1-1-.39C53.38,84.46,54.2,67.11,55.64,59c-4,2.67-12.53,9.14-16.65,14.08a1.45,1.45,0,0,1-1.09.51,1.42,1.42,0,0,1-1.09-2.33c3.32-4,8.82-8.4,11.81-10.68,4.52-3.46,6.67-4.8,7.8-5.3A15.66,15.66,0,0,1,55,53.54c-3.14,1.89-13.27,9.33-17.88,14.85A1.4,1.4,0,0,1,36,68.9a1.42,1.42,0,0,1-1.09-2.33c3.33-4,8.83-8.4,11.81-10.68a69.5,69.5,0,0,1,6.8-4.78,16.9,16.9,0,0,1-1.61-6.72C45.75,47.3,31.08,55.86,29,71.76,29.09,73,30.48,82.92,46,97.59Zm14.24,2.7a1.41,1.41,0,0,1,2-.43c.49.31,11.8,7.12,24.88-10.35a8.21,8.21,0,0,1,5.52-3.71c2.78-.38,5.69.9,8.66,3.8,3.86,3.76,9.91,5.67,14.07,4.43,2.94-.87,4.85-3.13,5.67-6.74a1.42,1.42,0,1,1,2.77.63c-1.33,5.83-4.89,8-7.64,8.83-4.7,1.39-10.18-.28-14.2-3a2.83,2.83,0,0,1-1.61,1.84,25.23,25.23,0,0,1-9.32,1.5,39.82,39.82,0,0,1-4-.19A2.82,2.82,0,0,1,85.17,96c-6.35,6.47-12.29,8.15-16.74,8.15a15.76,15.76,0,0,1-7.81-1.92A1.42,1.42,0,0,1,60.19,100.29Z"/><path class="cls-2" d="M45.53,124c7.74,10.46,23,15.75,45.53,15.75h2c21.36-.29,34.57-5.36,39.27-15,5.16-10.66-1.77-23.22-4.92-28,4.05-4.36,14.14-16.09,15.07-25.3a2.35,2.35,0,0,0,0-.53c-.08-.9-2.23-21.74-26.71-30.52C114,37.48,108.29,28.94,102,24.66a2.61,2.61,0,0,0-.28-.17c-10.67-5.56-34.67-9.73-50,13.75C47,40.17,26,49.82,23.32,71.31a2.17,2.17,0,0,0,0,.36c0,.49.26,12,17.55,28.88a31.23,31.23,0,0,0,.69,15.59c-4.74,2.4-17.52,9-25.49,13.77,1.14,1.53,2.35,3,3.59,4.46,7-4.17,18-9.88,24.19-13A28.67,28.67,0,0,0,45.53,124Zm9.2-80.82A2.88,2.88,0,0,0,56,42.06C71.88,16.79,96.62,28.28,99,29.44c6.32,4.4,12.43,14.53,12.49,14.64A2.89,2.89,0,0,0,113,45.31l.34.12c2.53,8.81,1.75,19.15,1.74,19.26a1.43,1.43,0,0,0,.08.58c2.69,7.83.28,17.52-1,21.69A32.73,32.73,0,0,0,95.7,78.8c1.08-.77,2.42-1.73,4-2.93a4.75,4.75,0,0,0,2-3.77c.12-3.92-4.3-8.45-6.42-10.4a2.74,2.74,0,0,0,.9-.53s4.34-3.71,10.53.93a2.83,2.83,0,1,0,3.4-4.53c-7.87-5.91-15-3-17.68-.65a2.84,2.84,0,0,0-.25,4l.07.06a1.41,1.41,0,0,0,.18,2C95.05,65.07,99,69.38,99,72a1.94,1.94,0,0,1-.89,1.58c-4.14,3-6.42,4.59-7.18,5.1-6.25.36-12.16,3.6-17.12,9.42a40.55,40.55,0,0,0-4.84,7.08c-17-17.54-9.6-39.54-9.52-39.76A1.42,1.42,0,0,0,59,53.92,13.59,13.59,0,0,1,54.73,43.16ZM29,71.76c2.1-15.9,16.77-24.46,22.91-27.37a16.9,16.9,0,0,0,1.61,6.72,69.5,69.5,0,0,0-6.8,4.78c-3,2.28-8.48,6.71-11.81,10.68A1.42,1.42,0,0,0,36,68.9a1.4,1.4,0,0,0,1.09-.51c4.61-5.52,14.74-13,17.88-14.85a15.66,15.66,0,0,0,1.47,1.77c-1.13.5-3.28,1.84-7.8,5.3-3,2.28-8.49,6.7-11.81,10.68a1.42,1.42,0,0,0,1.09,2.33A1.45,1.45,0,0,0,39,73.11C43.11,68.17,51.63,61.7,55.64,59,54.2,67.11,53.38,84.46,68.35,98.6a1.4,1.4,0,0,0,1,.39,1.43,1.43,0,0,0,.29,0,1.4,1.4,0,0,0,1-.82C70.69,98,77.8,82,91.41,81.49a30.23,30.23,0,0,1,22.24,9,1.42,1.42,0,0,0,2.39-.4c.23-.59,5.55-14.27,1.87-25.46,0-.74.16-2.74.11-5.41,3,2.39,9.4,8.27,12.61,12.9a1.44,1.44,0,0,0,1.17.6,1.38,1.38,0,0,0,.8-.25,1.41,1.41,0,0,0,.36-2,69.35,69.35,0,0,0-9.08-9.94c-3.35-3.09-5-4.4-6-4.9-.06-.92-.14-1.88-.25-2.87,2.85,2.24,9.57,8.34,12.89,13.11a1.39,1.39,0,0,0,1.16.61,1.41,1.41,0,0,0,1.17-2.22,68.78,68.78,0,0,0-9.09-9.94c-4.21-3.89-5.81-5-6.65-5.15-.15-.83-.33-1.67-.52-2.51,17.4,7.54,20,22.17,20.23,24.36-1,7.72-11.16,19.4-15.05,23.3a2.85,2.85,0,0,0-.24,3.73c.1.14,10.6,14.07,5.71,24.14-1.73,3.55-5.32,6.33-10.6,8.31C115,121.64,110.8,114,109,110.7c-.33-.61-.68-1.25-.76-1.44a1.42,1.42,0,0,0-2.71.82,11.49,11.49,0,0,0,1,2c1.78,3.24,5.91,10.76,7.42,19.35a52.72,52.72,0,0,1-6.31,1.42c-1.07-9.33-5.66-18-5.87-18.44a1.42,1.42,0,0,0-2.5,1.33c0,.1,4.57,8.68,5.57,17.53-1.55.2-3.16.37-4.86.49-1-9.46-5.7-18.36-5.92-18.78a1.41,1.41,0,0,0-1.91-.58,1.42,1.42,0,0,0-.59,1.92c0,.09,4.6,8.73,5.59,17.61-1.34.06-2.71.11-4.13.13-21.6.28-36-4.21-42.85-13.39s-3.46-20-3.43-20.14A2.83,2.83,0,0,0,46,97.59C30.48,82.92,29.09,73,29,71.76Z"/><path class="cls-2" d="M60.62,102.25a15.76,15.76,0,0,0,7.81,1.92c4.45,0,10.39-1.68,16.74-8.15a2.82,2.82,0,0,0,1.75.89,39.82,39.82,0,0,0,4,.19,25.23,25.23,0,0,0,9.32-1.5,2.83,2.83,0,0,0,1.61-1.84c4,2.71,9.5,4.38,14.2,3,2.75-.81,6.31-3,7.64-8.83a1.42,1.42,0,1,0-2.77-.63c-.82,3.61-2.73,5.87-5.67,6.74-4.16,1.24-10.21-.67-14.07-4.43-3-2.9-5.88-4.18-8.66-3.8A8.21,8.21,0,0,0,87,89.51C73.94,107,62.63,100.17,62.14,99.86a1.42,1.42,0,0,0-1.52,2.39Zm28.71-11.1.09-.13a5.45,5.45,0,0,1,3.5-2.41c1.49-.21,3.16.42,5,1.84-2.47,1-6.3,1-8.72.94Z"/><path class="cls-2" d="M69.13,64.75a2.88,2.88,0,0,0,1.29-.31c7.79-4,10.58-3.49,11.11-3.33a2.84,2.84,0,0,0,5-2.65,4.85,4.85,0,0,0-2.91-2.64c-3.38-1.28-8.53-.12-15.75,3.57a2.83,2.83,0,0,0,1.29,5.36Z"/></g></g></svg>