<svg xmlns="http://www.w3.org/2000/svg" viewBox="0 0 162.77 162.77"><defs><style>.cls-1{fill:#4f55ec;}.cls-2{fill:none;}.cls-3{fill:#9296f9;}</style></defs><title>Asset 29</title><g id="Layer_2" data-name="Layer 2"><g id="Layer_1-2" data-name="Layer 1"><circle class="cls-1" cx="81.38" cy="81.38" r="81.38"/><path class="cls-2" d="M89.39,142.93a115.46,115.46,0,0,1,6.17-16.69c7.8-16,21-29.15,32.07-32,18-4.63,17.54-10.43,17.18-15.55-.26-3.56-2.66-4.3-2.69-4.31a2.83,2.83,0,0,1-2.1-2.65c-.16-5.52-1.89-7.73-1.91-7.75a2.64,2.64,0,0,1-.58-1.11,10,10,0,0,0-5.85-1.46h0a1.42,1.42,0,0,1,0-2.83,13.82,13.82,0,0,1,5.66,1c-.42-4.7-1.5-6.2-1.7-6.44h0c-2.46-1.74-4.18-2.08-18.45-2.06h-.07a46.82,46.82,0,0,1-14.12-2.25C97.3,47.19,92,45.68,79.64,47.7a74.07,74.07,0,0,0-29.19,11,7.31,7.31,0,0,0,2.2.48,2.84,2.84,0,1,1-.27,5.67c-5.65-.27-10.74-4.88-11.31-5.4-2.77-2.54-5.18-3.78-6.83-3.55A7,7,0,0,0,32,61C32,64.76,34.8,71.28,48.75,80.67A1.42,1.42,0,0,1,47.17,83q-13-8.77-16.63-16.42a40.14,40.14,0,0,0,8,24.79,2.84,2.84,0,0,1-3,4.77c-1.42-.73-6.66-7.43-9.2-17.52-2.79,3.13-7.46,9.12-14.16,20A91.6,91.6,0,0,1,4.8,109m20.7,11.3a1.44,1.44,0,0,1-1.62,1.19,1.42,1.42,0,0,1-1.18-1.62,4.45,4.45,0,0,0-.14-2.69c-.27,0-1.06.45-2.27,1.9-.45.55-.95,1.32-.76,1.93.26.86,1.74,1.55,2.42,1.75a1.42,1.42,0,0,1-.4,2.78,1.31,1.31,0,0,1-.38-.06c-.36-.1-3.56-1.08-4.35-3.63-.31-1-.34-2.61,1.29-4.58,2.6-3.14,4.49-3.2,5.61-2.69C25.3,115.25,26,117.33,25.5,120.26Zm8.7-8.61a1.42,1.42,0,0,1,1.73-1c.14,0,.56-.13,1.06-.72,1-1.2,1.55-3.13,1.14-4-.07-.15-.21-.48-1-.5-1.14,0-1.68.19-1.81.4s0,1.1.25,1.55a1.42,1.42,0,0,1-2.5,1.33c-.14-.26-1.3-2.54-.16-4.37.75-1.22,2.2-1.79,4.3-1.74a3.71,3.71,0,0,1,3.55,2.18c1,2.19-.07,5.26-1.56,7A4.29,4.29,0,0,1,36,113.48a3.22,3.22,0,0,1-.75-.1A1.42,1.42,0,0,1,34.2,111.65Zm6.33,14.69a10.67,10.67,0,0,1-3.18.73,2.2,2.2,0,0,1-1.8-.75c-1-1.25-.16-3,1.09-5.24a1.42,1.42,0,1,1,2.47,1.4c-.41.7-.67,1.22-.85,1.59.33-.08.77-.21,1.35-.41,2.49-.85,3.36-2.31,3.29-2.65a1.55,1.55,0,0,0-.65-.2,1.42,1.42,0,0,1,.43-2.81c1.78.28,2.92,1.31,3,2.76C45.92,122.93,43.78,125.22,40.53,126.34Zm17.26-9.45A2,2,0,0,1,56,116.1c-.83-1.17.11-2.58.8-3.61a1.42,1.42,0,0,1,2.52,1.25,4.68,4.68,0,0,0,1.12-.46,1.42,1.42,0,0,1,.86-2.66c2.23.34,2.48,1.83,2.5,2.27.08,1.55-1.49,3-3.9,3.63A8.8,8.8,0,0,1,57.79,116.89Zm10.77,14.45c-.52,1.34-2.21,1.35-3.44,1.35h0a1.42,1.42,0,0,1-.36-2.79,5.24,5.24,0,0,0-1-.68,1.42,1.42,0,0,1-2.69.76c-1-2,.14-3.07.5-3.34,1.24-.92,3.32-.43,5.18,1.23C67.73,128.75,69.08,130,68.56,131.34ZM86.68,60.09c-.31,1.06-.6,2.21-.82,3.35a1.42,1.42,0,0,1-1.39,1.15,1.24,1.24,0,0,1-.27,0,1.41,1.41,0,0,1-1.12-1.66c.56-2.89,2.19-9.7,5.28-10.63a2.83,2.83,0,0,1,2.67.61,4.37,4.37,0,0,1,3.07,2.74,21.92,21.92,0,0,1,6.42-2.24,1.41,1.41,0,0,1,1.59,1.22,1.42,1.42,0,0,1-1.22,1.59,20.4,20.4,0,0,0-6.11,2.27c0,.23,0,.46,0,.71a1.42,1.42,0,0,1-1.3,1.48l-5.38.43A1.42,1.42,0,0,1,86.68,60.09Z"/><path class="cls-2" d="M90.37,55.63a1.27,1.27,0,0,1-1-.42A.79.79,0,0,0,89.1,55c-.48.16-1.22,1.59-1.91,3.55a1.34,1.34,0,0,1,.73-.28l3.93-.32C91.52,56.22,90.78,55.66,90.37,55.63Z"/><path class="cls-3" d="M100.66,128.73c7-14.37,19-26.57,28.39-29,20.78-5.36,22-13.54,21.41-21.48a10.35,10.35,0,0,0-4.87-8.47,19.48,19.48,0,0,0-2.51-8.57c-.38-9.16-3-12-4.33-12.8-3.88-2.71-7.05-3-20.16-3-.5,0-1,0-1.54,0a41.17,41.17,0,0,1-12.57-2c-6-1.69-12.16-3.45-25.76-1.22C60,45.16,48.56,53,45.17,55.54l-.25-.22c-4.57-4.18-8.76-5.8-12.44-4.82-4.56,1.2-6.16,5.76-6.32,6.28L26.1,57a44.81,44.81,0,0,0-1,14.75c-2.33,2.07-8,8.1-17.81,24-1.49,2.44-3,4.65-4.51,6.66q.9,3.35,2.05,6.57a91.6,91.6,0,0,0,7.3-10.27c6.7-10.93,11.37-16.92,14.16-20C28.8,88.73,34,95.43,35.46,96.16a2.84,2.84,0,0,0,3-4.77,40.14,40.14,0,0,1-8-24.79Q34.13,74.22,47.17,83a1.42,1.42,0,0,0,1.58-2.35C34.8,71.28,32,64.76,32,61a7,7,0,0,1,2.23-5c1.65-.23,4.06,1,6.83,3.55.57.52,5.66,5.13,11.31,5.4a2.84,2.84,0,1,0,.27-5.67,7.31,7.31,0,0,1-2.2-.48,74.07,74.07,0,0,1,29.19-11c12.35-2,17.66-.51,23.29,1.09A46.82,46.82,0,0,0,117.05,51h.07c14.27,0,16,.32,18.45,2.06h0c.2.24,1.28,1.74,1.7,6.44a13.82,13.82,0,0,0-5.66-1,1.42,1.42,0,0,0,0,2.83h0a10,10,0,0,1,5.85,1.46,2.64,2.64,0,0,0,.58,1.11s1.75,2.23,1.91,7.75a2.83,2.83,0,0,0,2.1,2.65s2.43.75,2.69,4.31c.36,5.12.77,10.92-17.18,15.55-11.08,2.86-24.27,16-32.07,32a115.46,115.46,0,0,0-6.17,16.69c-2.25,7.22-4.4,14-8.49,19.82l.48,0c2.17,0,4.3-.11,6.42-.28,3.16-5.55,5-11.58,7-17.88A110.86,110.86,0,0,1,100.66,128.73Z"/><path class="cls-3" d="M36,113.48a4.29,4.29,0,0,0,3.19-1.74c1.49-1.76,2.54-4.83,1.56-7a3.71,3.71,0,0,0-3.55-2.18c-2.1-.05-3.55.52-4.3,1.74-1.14,1.83,0,4.11.16,4.37a1.42,1.42,0,0,0,2.5-1.33c-.23-.45-.44-1.25-.25-1.55s.67-.44,1.81-.4c.83,0,1,.35,1,.5.41.92-.13,2.85-1.14,4-.5.59-.92.75-1.06.72a1.42,1.42,0,1,0-.71,2.74A3.22,3.22,0,0,0,36,113.48Z"/><path class="cls-3" d="M42.68,118a1.42,1.42,0,0,0-.43,2.81,1.55,1.55,0,0,1,.65.2c.07.34-.8,1.8-3.29,2.65-.58.2-1,.33-1.35.41.18-.37.44-.89.85-1.59a1.42,1.42,0,1,0-2.47-1.4c-1.25,2.2-2.13,4-1.09,5.24a2.2,2.2,0,0,0,1.8.75,10.67,10.67,0,0,0,3.18-.73c3.25-1.12,5.39-3.41,5.2-5.58C45.6,119.31,44.46,118.28,42.68,118Z"/><path class="cls-3" d="M63.82,112.89c0-.44-.27-1.93-2.5-2.27a1.42,1.42,0,0,0-.86,2.66,4.68,4.68,0,0,1-1.12.46,1.42,1.42,0,0,0-2.52-1.25c-.69,1-1.63,2.44-.8,3.61a2,2,0,0,0,1.77.79,8.8,8.8,0,0,0,2.13-.37C62.33,115.9,63.9,114.44,63.82,112.89Z"/><path class="cls-3" d="M66.74,127.87c-1.86-1.66-3.94-2.15-5.18-1.23-.36.27-1.46,1.3-.5,3.34a1.42,1.42,0,0,0,2.69-.76,5.24,5.24,0,0,1,1,.68,1.42,1.42,0,0,0,.36,2.79h0c1.23,0,2.92,0,3.44-1.35S67.73,128.75,66.74,127.87Z"/><path class="cls-3" d="M23.72,114.54c-1.12-.51-3-.45-5.61,2.69-1.63,2-1.6,3.58-1.29,4.58.79,2.55,4,3.53,4.35,3.63a1.31,1.31,0,0,0,.38.06,1.42,1.42,0,0,0,.4-2.78c-.68-.2-2.16-.89-2.42-1.75-.19-.61.31-1.38.76-1.93,1.21-1.45,2-1.85,2.27-1.9a4.45,4.45,0,0,1,.14,2.69,1.42,1.42,0,0,0,1.18,1.62,1.44,1.44,0,0,0,1.62-1.19C26,117.33,25.3,115.25,23.72,114.54Z"/><path class="cls-3" d="M94.83,59.17c0-.25,0-.48,0-.71a20.4,20.4,0,0,1,6.11-2.27,1.42,1.42,0,0,0,1.22-1.59,1.41,1.41,0,0,0-1.59-1.22,21.92,21.92,0,0,0-6.42,2.24A4.37,4.37,0,0,0,91,52.88a2.83,2.83,0,0,0-2.67-.61c-3.09.93-4.72,7.74-5.28,10.63a1.41,1.41,0,0,0,1.12,1.66,1.24,1.24,0,0,0,.27,0,1.42,1.42,0,0,0,1.39-1.15c.22-1.14.51-2.29.82-3.35a1.42,1.42,0,0,0,1.47,1l5.38-.43A1.42,1.42,0,0,0,94.83,59.17Zm-6.91-.91a1.34,1.34,0,0,0-.73.28c.69-2,1.43-3.39,1.91-3.55a.79.79,0,0,1,.28.22,1.27,1.27,0,0,0,1,.42c.41,0,1.15.59,1.48,2.31Z"/></g></g></svg>