<svg xmlns="http://www.w3.org/2000/svg" viewBox="0 0 161.82 161.82"><defs><style>.cls-1{fill:#4f55ec;}.cls-2{fill:none;}.cls-3{fill:#9296f9;}</style></defs><title>Asset 26</title><g id="Layer_2" data-name="Layer 2"><g id="Layer_1-2" data-name="Layer 1"><circle class="cls-1" cx="80.91" cy="80.91" r="80.91"/><path class="cls-2" d="M84.07,80.26a15,15,0,0,0-10.85-.19c2.6,9.66,5.34,19.65,7.67,27.65a21.93,21.93,0,0,0,3.92-2.13c4.81-3.26,7.74-7.91,7.67-12.15C92.36,87.36,89.22,82.43,84.07,80.26Z"/><path class="cls-2" d="M87.6,109.7a28.59,28.59,0,0,1-5.29,2.81c.84,2.79,1.6,5.19,2.24,7,1.62,4.72,2.89,11.22-.24,15.38-1.17,1.55-3.43,3.35-7.62,3.35l-.76,0a2.48,2.48,0,0,1,.24-5c3,.15,3.89-1,4.17-1.36,1.38-1.84,1.2-5.87-.48-10.79-.66-1.93-1.44-4.39-2.3-7.24A28.27,28.27,0,0,1,61,112.25c-8.29-3.47-13.8-9.65-15.54-17.4C43.23,85,47.32,73.66,57,63l2.5-2.76q1.38-1.5,2.61-2.88c-1.6-6.14-2.7-10.42-2.93-11.31-.49-1.43-4.65-14.46,1.8-20.89a8.94,8.94,0,0,1,10.83-1.3c3.82,2.08,7.67,7.37,5.94,15.43C75.89,47.71,72.37,53,67.53,58.63c1.27,4.84,2.78,10.59,4.4,16.63A19.83,19.83,0,0,1,86,75.69c7,3,11.28,9.55,11.43,17.66C97.54,99.24,93.78,105.5,87.6,109.7Z"/><path class="cls-2" d="M63.91,44.69c0,.13.82,3.19,2.07,8a33,33,0,0,0,6.87-14.49c1.16-5.38-1.14-8.77-3.47-10a4.82,4.82,0,0,0-2.32-.64,3.65,3.65,0,0,0-2.63,1.1c-3.73,3.72-1.69,12.7-.59,15.84A1.72,1.72,0,0,1,63.91,44.69Z"/><path class="cls-2" d="M66.47,84.24c-5,4.73-4.21,8.67-3.28,10.6,1.1,2.3,3.07,3.32,3.79,3.2a2.48,2.48,0,1,1,.7,4.91c-3.3.47-7.07-2-9-6-2.55-5.29-.92-11.41,4.35-16.37a25.11,25.11,0,0,1,4.28-3.26c-1.36-5.07-2.65-10-3.79-14.3l-.44.48c-.8.88-1.63,1.78-2.48,2.74-8.53,9.46-12.21,19.22-10.37,27.48,1.38,6.13,5.86,11.07,12.61,13.91a23.36,23.36,0,0,0,13.26,1.47c-2.27-7.78-4.91-17.38-7.44-26.74A22.31,22.31,0,0,0,66.47,84.24Z"/><path class="cls-3" d="M86,75.69a19.83,19.83,0,0,0-14.07-.43c-1.62-6-3.13-11.79-4.4-16.63C72.37,53,75.89,47.71,77.7,39.26c1.73-8.06-2.12-13.35-5.94-15.43a8.94,8.94,0,0,0-10.83,1.3c-6.45,6.43-2.29,19.46-1.8,20.89.23.89,1.33,5.17,2.93,11.31q-1.23,1.38-2.61,2.88L57,63C47.32,73.66,43.23,85,45.43,94.85c1.74,7.75,7.25,13.93,15.54,17.4a28.27,28.27,0,0,0,16.59,1.68c.86,2.85,1.64,5.31,2.3,7.24,1.68,4.92,1.86,9,.48,10.79-.28.37-1.13,1.51-4.17,1.36a2.48,2.48,0,0,0-.24,5l.76,0c4.19,0,6.45-1.8,7.62-3.35,3.13-4.16,1.86-10.66.24-15.38-.64-1.86-1.4-4.26-2.24-7a28.59,28.59,0,0,0,5.29-2.81c6.18-4.2,9.94-10.46,9.83-16.35C97.28,85.24,93,78.64,86,75.69Zm-21.57-47a3.65,3.65,0,0,1,2.63-1.1,4.82,4.82,0,0,1,2.32.64c2.33,1.27,4.63,4.66,3.47,10A33,33,0,0,1,66,52.71c-1.25-4.83-2-7.89-2.07-8a1.72,1.72,0,0,0-.07-.21C62.74,41.34,60.7,32.36,64.43,28.64Zm-1.55,79c-6.75-2.84-11.23-7.78-12.61-13.91-1.84-8.26,1.84-18,10.37-27.48.85-1,1.68-1.86,2.48-2.74l.44-.48c1.14,4.34,2.43,9.23,3.79,14.3a25.11,25.11,0,0,0-4.28,3.26c-5.27,5-6.9,11.08-4.35,16.37,1.89,3.92,5.66,6.42,9,6A2.48,2.48,0,1,0,67,98c-.72.12-2.69-.9-3.79-3.2-.93-1.93-1.74-5.87,3.28-10.6a22.31,22.31,0,0,1,2.23-1.83c2.53,9.36,5.17,19,7.44,26.74A23.36,23.36,0,0,1,62.88,107.68Zm21.93-2.09a21.93,21.93,0,0,1-3.92,2.13c-2.33-8-5.07-18-7.67-27.65a15,15,0,0,1,10.85.19c5.15,2.17,8.29,7.1,8.41,13.18C92.55,97.68,89.62,102.33,84.81,105.59Z"/><path class="cls-3" d="M97.85,76.32a1.23,1.23,0,0,0,1.24,1.18h0c12.63-.53,39.55-2.9,61-13.17-.18-.85-.39-1.7-.6-2.55C147.27,67.79,128,73.81,99,75A1.23,1.23,0,0,0,97.85,76.32Z"/><path class="cls-3" d="M106.38,90.44a1.24,1.24,0,0,0,1.24,1.19h0A176.66,176.66,0,0,0,161.81,80.4c0-.87,0-1.74-.07-2.62C144.48,84.69,124,88.46,107.57,89.15A1.24,1.24,0,0,0,106.38,90.44Z"/><path class="cls-3" d="M107.8,105.39a1.24,1.24,0,0,0,1.24,1.19h.06c10.72-.45,31.77-2.22,51-9,.2-1,.39-1.91.56-2.87-12.07,4.56-28.84,8.48-51.66,9.44A1.25,1.25,0,0,0,107.8,105.39Z"/><path class="cls-3" d="M107.8,121.32a1.24,1.24,0,0,0,1.24,1.19h.06c9.61-.4,27.52-1.87,45-7.09.47-1,.91-2,1.34-3-11.55,3.74-26.73,6.78-46.42,7.6A1.25,1.25,0,0,0,107.8,121.32Z"/><path class="cls-3" d="M85.5,64a1.24,1.24,0,0,0,1.24,1.19h.05c14.08-.6,45.91-3.47,68.07-17-.34-.78-.68-1.56-1.05-2.33-11.42,7-32.18,15.42-67.12,16.89A1.23,1.23,0,0,0,85.5,64Z"/></g></g></svg>