<svg xmlns="http://www.w3.org/2000/svg" viewBox="0 0 162.77 162.77"><defs><style>.cls-1{fill:#4f55ec;}.cls-2{fill:#9296f9;}</style></defs><title>Asset 30</title><g id="Layer_2" data-name="Layer 2"><g id="Layer_1-2" data-name="Layer 1"><circle class="cls-1" cx="81.38" cy="81.38" r="81.38"/><path class="cls-2" d="M144.25,52.56a2.86,2.86,0,0,0-1.45-1.66L110.33,35.11a2.82,2.82,0,0,0-1.24-.29H56.94a2.82,2.82,0,0,0-1.24.29L23.23,50.9a2.86,2.86,0,0,0-1.45,1.66,2.81,2.81,0,0,0,.18,2.2L33.37,76.7a2.81,2.81,0,0,0,2.51,1.53H47.09v77c1.85.86,3.74,1.66,5.67,2.38v-36.4H90.49v25.12a1.42,1.42,0,0,0,2.84,0V121.17h2.44v15.55a1.42,1.42,0,1,0,2.83,0V121.17h14.67v35.1c1.94-.82,3.82-1.73,5.67-2.69V78.23h11.21a2.84,2.84,0,0,0,2.52-1.53l11.41-21.94A2.85,2.85,0,0,0,144.25,52.56ZM105.36,40.49,81.77,74,60.43,40.49ZM49.92,72.56H37.6L28.33,54.73l28.86-14L80,76.52,52.76,115.23V75.39A2.84,2.84,0,0,0,49.92,72.56Zm78.51,0H116.11a2.84,2.84,0,0,0-2.84,2.83v43H54l54.69-77.71,29,14.1Z"/></g></g></svg>