<svg xmlns="http://www.w3.org/2000/svg" viewBox="0 0 161.82 161.82"><defs><style>.cls-1{fill:#4f55ec;}.cls-2{fill:none;}.cls-3{fill:#9296f9;}</style></defs><title>Asset 27</title><g id="Layer_2" data-name="Layer 2"><g id="Layer_1-2" data-name="Layer 1"><circle class="cls-1" cx="80.91" cy="80.91" r="80.91"/><path class="cls-2" d="M67.35,136.64l3.9,24.58a81.08,81.08,0,0,0,9.66.6c2.33,0,4.62-.13,6.9-.32l-18.2-28Z"/><path class="cls-2" d="M100.21,77.1a1.14,1.14,0,0,1,.54-.38c3.89-8.46,7.08-16.43,9.18-21.95-4.68,3.78-11.43,9.41-18.4,15.87,0,0,0,.11-.07.16C87,77,86.22,82.92,88.29,84.42S95.76,83.27,100.21,77.1Z"/><path class="cls-3" d="M71.66,128.18a2.32,2.32,0,0,0-1.88-1.05,2.35,2.35,0,0,0-1.94,1l-4.46,6.15L52.84,145.09a1.16,1.16,0,0,0,0,1.64,1.16,1.16,0,0,0,1.64,0l8.39-8.65,3.56,22.44q2.37.44,4.8.72l-3.9-24.58,2.26-3.11,18.2,28c1.73-.14,3.45-.33,5.15-.58Z"/><path class="cls-3" d="M108,145.88a2.3,2.3,0,0,0-3.23.51l-5.26,7.25-8.2-49.55C104.91,83.26,115.7,52.71,117,49l8.94-12.3A2.32,2.32,0,0,0,122.18,34l-8.94,12.31C110.1,48.65,84.4,68.36,68.81,87.79L19.16,95.33l5.26-7.25a2.32,2.32,0,0,0-3.75-2.72L9.52,100.72h0l-2,2.77a2.32,2.32,0,0,0,1.27,3.6l38.74,10.4-2.26,3.11-31.46,5a1.53,1.53,0,0,0-.29.07c1,1.56,2.14,3.08,3.28,4.56l-.05-.41,28.44-4.51-5.83,9.89a1.16,1.16,0,0,0,.41,1.59,1.1,1.1,0,0,0,.58.16,1.16,1.16,0,0,0,1-.57l7.81-13.25,4.1-5.64a2.33,2.33,0,0,0-1.28-3.6L13.24,103.49l2.09-2.89,52.56-8-9,11.65a1.16,1.16,0,0,0,.92,1.87,1.15,1.15,0,0,0,.92-.45L71.49,91.75a2.22,2.22,0,0,0,.38-.37A169.67,169.67,0,0,1,86.08,75.84c-1.76,4.63-1.57,8.71.85,10.46a4.63,4.63,0,0,0,2.75.82c2.31,0,5.12-1.32,7.85-3.66a172,172,0,0,1-10.38,18.45L75.92,116.42a1.16,1.16,0,0,0,.2,1.62,1.21,1.21,0,0,0,.71.24,1.15,1.15,0,0,0,.92-.45L86.89,106l8.74,52.88-1.29,1.78c2.28-.39,4.53-.84,6.75-1.41l7.38-10.17A2.31,2.31,0,0,0,108,145.88ZM88.29,84.42C86.22,82.92,87,77,91.46,70.8c0,0,0-.11.07-.16,7-6.46,13.72-12.09,18.4-15.87-2.1,5.52-5.29,13.49-9.18,21.95a1.14,1.14,0,0,0-.54.38C95.76,83.27,90.36,85.91,88.29,84.42Z"/></g></g></svg>