<svg xmlns="http://www.w3.org/2000/svg" viewBox="0 0 162.77 162.77"><defs><style>.cls-1{fill:#4f55ec;}.cls-2{fill:none;}.cls-3{fill:#9296f9;}</style></defs><title>Asset 41</title><g id="Layer_2" data-name="Layer 2"><g id="Layer_1-2" data-name="Layer 1"><circle class="cls-1" cx="81.38" cy="81.38" r="81.38"/><path class="cls-2" d="M95.61,50.82c-4.5.42-5,.37-5.37-.84A1.48,1.48,0,0,1,91,48.29a1.39,1.39,0,0,1,1.09-.08c.78,0,2.83-.17,4.57-.34A1.44,1.44,0,0,1,98.19,49a28.05,28.05,0,0,1-.29,11.41l.29.1a2.83,2.83,0,0,1,1.41,3.75L97.45,69a6.62,6.62,0,0,0,5,.34c2.75-1,5.14-4,6.92-8.81a7.14,7.14,0,0,0-7.26-4.1,1.4,1.4,0,0,1-1.58-1.23,1.42,1.42,0,0,1,1.23-1.58,9.42,9.42,0,0,1,5.51.92,3,3,0,0,1,.52-.81,23.15,23.15,0,0,0,6.65-15.79c-5.83-6.3-14.07-9.21-25.14-8.94C81.8,29.15,75,33.46,75,33.5a2.83,2.83,0,0,1-4.36-2.16c-.19-2.33-.9-4-2.11-5.07-1.44-1.22-3.79-1.71-7-1.44C57.75,25.14,56,33,55.71,37.32l2.16,3.88A18.4,18.4,0,0,0,66.7,47a6.81,6.81,0,0,0,5.35-5.33,1.42,1.42,0,0,1,2.78.53,9.71,9.71,0,0,1-8,7.66l-.2,0a1.86,1.86,0,0,1-.33,0,21.53,21.53,0,0,1-7.81-4,3,3,0,0,1-1,.83c-.62.32-6.09,3.44-2.75,11.89,1.62,1.67,6.13,7.22,6.72,17.74.49,8.57,3.36,9.47,9.66,11.42l1.84.58a2.71,2.71,0,0,1,.49.22c.79.43,7.78,4.4,9.59,10.09a2.86,2.86,0,0,1,0,1.85,2,2,0,0,0,.68-.38c.8-.64,2-2.43,2.17-7.37a2.76,2.76,0,0,1-.74.23,3,3,0,0,1-.42,0A2.84,2.84,0,0,1,82.58,92c-5.54-6.23-6-7.36-6.16-7.78a3,3,0,0,1-.2-1c-.18-8.11-8-14.75-8.09-14.81a2.83,2.83,0,1,1,3.62-4.36c.39.32,9.43,7.93,10.11,18.25.4.56,1.17,1.52,2.09,2.6L94.44,61.9a2,2,0,0,1,.16-.29A24.74,24.74,0,0,0,95.61,50.82Z"/><path class="cls-2" d="M126.58,90.18c-2.94,2.28-7.36,4-10.26,5,4.83,7.58,11.16,9.52,11.48,9.61l.09,0a22.11,22.11,0,0,0,4.19-5.72A40.73,40.73,0,0,1,126.58,90.18Z"/><path class="cls-2" d="M85.37,102.39a4.78,4.78,0,0,1-2.94,1,5,5,0,0,1-.61,0c-.19.44-.37.88-.55,1.31,4.71,5.94,12.55,14.95,16.06,16.84a2.84,2.84,0,0,1,1.18,3.79L95.07,132a7.91,7.91,0,0,0,3.08-.5c3.77-1.22,2.88-8.09,2.69-9.35L88.69,91C88.77,96.79,87.67,100.63,85.37,102.39Z"/><path class="cls-2" d="M136.06,102.82a16.32,16.32,0,0,1-1.91-1.54,25.83,25.83,0,0,1-4.21,5.51c.38.58.78,1.17,1.19,1.78A19.64,19.64,0,0,0,136.06,102.82Z"/><path class="cls-2" d="M122.47,75.94c-.69-6-6-11.6-10.2-15.06h0c-2.13,6.08-5.12,9.81-8.9,11.11a9,9,0,0,1-2.92.48,10,10,0,0,1-4.16-.94l-.75,1.64c4.19,1.71,13.85,6.68,18.48,17.6.28.67.57,1.29.88,1.89,3.87-1.28,8.35-3.27,10.55-5.18A46.66,46.66,0,0,1,122.47,75.94Z"/><path class="cls-3" d="M132.76,110.91a22.18,22.18,0,0,0,5.61-6.41c2.68,3,6.3,11.38,8.51,18.61a2.9,2.9,0,0,0,.92,1.36l1.72,1.4q1.56-2.39,3-4.89l-.43-.36c-1.46-4.59-6.46-19.14-12.22-22.13-5.51-2.87-10.74-14.61-11.73-23.2-1.08-9.36-9.56-16.85-14-20.19a27.8,27.8,0,0,0,6-18.65,2.76,2.76,0,0,0-.67-1.54c-7-8.16-17-12-30.21-11.62a35.35,35.35,0,0,0-13.77,3.53A11,11,0,0,0,72.15,22c-2.63-2.24-6.38-3.17-11.13-2.77C51,20,50.07,36,50,37.86a2.82,2.82,0,0,0,.36,1.5l2.21,4c-2.92,2.61-6.94,8.29-2.82,18a3.11,3.11,0,0,0,.75,1c.2.17,4.76,4.31,5.32,14.29.71,12.5,7,14.45,13.64,16.52l1.51.47c1.5.87,5,3.28,6.32,5.85C70.6,115.57,60.8,139,59.71,141.18a9.72,9.72,0,0,0-.55,1,21.19,21.19,0,0,1-10.24,10.29c-1.27.64-2.51,1.23-3.7,1.78q3.31,1.65,6.8,3a26.79,26.79,0,0,0,12.22-12.56c.11-.2.19-.37.25-.48v0c.36-.6,1.94-3.93,14.31-33.63,3.43,4.19,9.17,10.87,13.53,14.31l-3.2,6.24a2.83,2.83,0,0,0-.27,1.76,5.63,5.63,0,0,0,2.67,3.76,7,7,0,0,0,2,.79l3.33,6.23a2.83,2.83,0,1,0,5-2.66L99.67,137l.22-.07c7.22-2.33,7.46-11.2,6.47-16.07a2.44,2.44,0,0,0-.14-.46L91.38,82.31l1.8-4c3.21,1.29,11.72,5.47,15.6,14.64,4.9,11.54,13.39,15.72,16.4,16.88,2.41,3.64,10.58,15.55,19.08,23.17,1.2-1.46,2.33-3,3.43-4.51A122.47,122.47,0,0,1,132.76,110.91Zm-31.92,11.26c.19,1.26,1.08,8.13-2.69,9.35a7.91,7.91,0,0,1-3.08.5l3.44-6.71a2.84,2.84,0,0,0-1.18-3.79c-3.51-1.89-11.35-10.9-16.06-16.84.18-.43.36-.87.55-1.31a5,5,0,0,0,.61,0,4.78,4.78,0,0,0,2.94-1c2.3-1.76,3.4-5.6,3.32-11.38ZM94.44,61.9,84,85c-.92-1.08-1.69-2-2.09-2.6C81.18,72,72.14,64.42,71.75,64.1a2.83,2.83,0,1,0-3.62,4.36c.08.06,7.91,6.7,8.09,14.81a3,3,0,0,0,.2,1c.17.42.62,1.55,6.16,7.78A2.84,2.84,0,0,0,84.7,93a3,3,0,0,0,.42,0,2.76,2.76,0,0,0,.74-.23c-.16,4.94-1.37,6.73-2.17,7.37a2,2,0,0,1-.68.38,2.86,2.86,0,0,0,0-1.85c-1.81-5.69-8.8-9.66-9.59-10.09a2.71,2.71,0,0,0-.49-.22l-1.84-.58c-6.3-1.95-9.17-2.85-9.66-11.42-.59-10.52-5.1-16.07-6.72-17.74C51.42,50.13,56.89,47,57.51,46.69a3,3,0,0,0,1-.83,21.53,21.53,0,0,0,7.81,4,1.86,1.86,0,0,0,.33,0l.2,0a9.71,9.71,0,0,0,8-7.66,1.42,1.42,0,0,0-2.78-.53A6.81,6.81,0,0,1,66.7,47a18.4,18.4,0,0,1-8.83-5.81l-2.16-3.88c.33-4.28,2-12.18,5.78-12.49,3.2-.27,5.55.22,7,1.44,1.21,1,1.92,2.74,2.11,5.07A2.83,2.83,0,0,0,75,33.5c.07,0,6.85-4.35,14.38-4.54,11.07-.27,19.31,2.64,25.14,8.94a23.15,23.15,0,0,1-6.65,15.79,3,3,0,0,0-.52.81,9.42,9.42,0,0,0-5.51-.92,1.42,1.42,0,0,0-1.23,1.58,1.4,1.4,0,0,0,1.58,1.23,7.14,7.14,0,0,1,7.26,4.1c-1.78,4.81-4.17,7.85-6.92,8.81a6.62,6.62,0,0,1-5-.34l2.15-4.72a2.83,2.83,0,0,0-1.41-3.75l-.29-.1A28.05,28.05,0,0,0,98.19,49a1.44,1.44,0,0,0-1.52-1.11c-1.74.17-3.79.33-4.57.34a1.39,1.39,0,0,0-1.09.08A1.48,1.48,0,0,0,90.24,50c.35,1.21.87,1.26,5.37.84a24.74,24.74,0,0,1-1,10.79A2,2,0,0,0,94.44,61.9Zm20.45,30.77c-.31-.6-.6-1.22-.88-1.89-4.63-10.92-14.29-15.89-18.48-17.6l.75-1.64a10,10,0,0,0,4.16.94,9,9,0,0,0,2.92-.48c3.78-1.3,6.77-5,8.9-11.11h0c4.2,3.46,9.51,9.09,10.2,15.06a46.66,46.66,0,0,0,3,11.55C123.24,89.4,118.76,91.39,114.89,92.67Zm12.91,12.12c-.32-.09-6.65-2-11.48-9.61,2.9-1,7.32-2.72,10.26-5a40.73,40.73,0,0,0,5.5,8.93,22.11,22.11,0,0,1-4.19,5.72Zm2.14,2a25.83,25.83,0,0,0,4.21-5.51,16.32,16.32,0,0,0,1.91,1.54,19.64,19.64,0,0,1-4.93,5.75C130.72,108,130.32,107.37,129.94,106.79Z"/></g></g></svg>