<svg xmlns="http://www.w3.org/2000/svg" viewBox="0 0 162.79 162.79"><defs><style>.cls-1{fill:#4f55ec;}.cls-2{fill:#9296f9;}.cls-3{fill:none;}</style></defs><title>Asset 42</title><g id="Layer_2" data-name="Layer 2"><g id="Layer_1-2" data-name="Layer 1"><circle class="cls-1" cx="81.4" cy="81.4" r="81.38"/><path class="cls-2" d="M50.37,123.25a1.42,1.42,0,0,1-.67-.17c-5.89-3.18-4.05-18.62-3.82-20.37a1.42,1.42,0,0,1,2.82.37c-.71,5.34-.68,13.07,1.18,16.27,1.1-2.83,2.9-8.33,2.33-12.8A1.42,1.42,0,0,1,53.43,105,1.43,1.43,0,0,1,55,106.19c.91,7.11-3.19,15.88-3.37,16.25a1.43,1.43,0,0,1-.84.74A1.62,1.62,0,0,1,50.37,123.25Z"/><path class="cls-2" d="M96.37,53.54a.82.82,0,0,1-.22,0c-3.23-.52-5.5-1.82-6.73-3.88a8,8,0,0,1-.64-6.16,1.42,1.42,0,0,1,2.69.9,5,5,0,0,0,.39,3.82c.79,1.29,2.38,2.14,4.74,2.53a1.41,1.41,0,0,1-.23,2.81Z"/><path class="cls-2" d="M94.09,57.15H94c-4.92-.39-8.47-2-10.54-4.91a11.75,11.75,0,0,1-1.68-9,1.42,1.42,0,1,1,2.75.68h0a8.93,8.93,0,0,0,1.25,6.66c1.56,2.15,4.4,3.41,8.44,3.72a1.42,1.42,0,0,1-.11,2.83Z"/><path class="cls-2" d="M99.67,46.86a2.83,2.83,0,0,1-2.77-2.28l-.24-1.2a2.83,2.83,0,1,1,5.55-1.11l.24,1.2a2.83,2.83,0,0,1-2.22,3.34A3.53,3.53,0,0,1,99.67,46.86Z"/><path class="cls-2" d="M66.33,68a2.15,2.15,0,0,1-1-4.06,6.87,6.87,0,0,0,1.21-1.09A18,18,0,0,1,75,57.65a1.42,1.42,0,1,1,.85,2.7,15.42,15.42,0,0,0-7.22,4.48h0a48.73,48.73,0,0,0,15.28-5.72c.32-.18.54-.3.64-.34a1.41,1.41,0,1,1,1.18,2.57l-.44.25A49.46,49.46,0,0,1,66.57,68Z"/><path class="cls-2" d="M82.45,81.06a1.27,1.27,0,0,1-.34,0,1.41,1.41,0,0,1-.89-.67c-.13-.22-3-5.33,1.43-11.45A1.42,1.42,0,1,1,85,70.56a8.76,8.76,0,0,0-1.81,6.71C87.23,73.31,90,65,90,64.94a1.42,1.42,0,0,1,2.7.88c-.15.46-3.75,11.35-9.48,15A1.49,1.49,0,0,1,82.45,81.06Z"/><path class="cls-3" d="M91,145.08a2.84,2.84,0,0,1,.9-4.25c.08,0,8.69-4.86,13.4-16.6-2.62-.35-7.35,0-13.53,4.44-5.58,4-13.62,4.31-21.5.78C58.73,124.24,51,112.78,49.52,98.79,47.74,81.34,65.94,73.27,87,63.91c14-6.23,29.82-13.23,41.13-23.93-6.18,2.5-13.54,5.17-19.32,6.29a2.83,2.83,0,1,1-1.09-5.56,69.43,69.43,0,0,0,8.34-2.29,53.58,53.58,0,0,1-10.94-.21c-8.37-1-37.34,1.47-56.56,18.47-12.1,10.7-18.25,25.19-18.28,43.08a2.87,2.87,0,0,1-.2,1L28,106.14a2.73,2.73,0,0,1,1.27-.15,2.86,2.86,0,0,1,2.1,1.35c.08.13,7.75,12.76,13.52,18.12a2.84,2.84,0,0,1,.86,1.6c1.09,6.36,4.91,19.22,10.13,21.35l7.28-6.77-1-3.25a2.83,2.83,0,0,1,2.19-3.63,10.89,10.89,0,0,1,1.93-.16c4.09,0,10.45,2,14,9.73,1,2.1,1.7,4.07,2.4,6,1.92,5.13,3.35,8.93,7.76,12,.93-.11,1.87-.21,2.79-.34C94.11,157.13,94.69,149.76,91,145.08Z"/><path class="cls-2" d="M97.16,144.16a41.48,41.48,0,0,0,14.56-20.93,2.83,2.83,0,0,0-1.34-3.34c-.37-.21-9.27-4.92-21.89,4.18-3.86,2.78-9.93,2.86-15.85.2-9.72-4.36-16.25-14.1-17.48-26.06C53.8,84.86,69.47,77.9,89.31,69.1,105.21,62,123.24,54,135.44,40.64a4.78,4.78,0,0,0-3.15-8A2.88,2.88,0,0,0,132,31a2.84,2.84,0,0,0-3.8-1.25c-.09.05-9.11,4.49-22.41,2.88-10.62-1.29-40.73,1.92-61,19.85-13.24,11.71-20,27.45-20.19,46.78l-6.78,17.18a2.84,2.84,0,0,0,4.66,3l5.94-6.06C31.07,117.45,36,124.64,40.31,129c1,5,5.35,24.28,16.09,25.38a2.87,2.87,0,0,0,2.22-.74l9.68-9a2.83,2.83,0,0,0,.78-2.92l-.31-1c2,.62,4.55,2.19,6.29,6,.88,1.92,1.58,3.79,2.25,5.6,1.38,3.69,2.73,7.27,5.33,10.48q3.92-.06,7.74-.48c-4.41-3.06-5.84-6.86-7.76-12-.7-1.89-1.44-3.86-2.4-6-3.53-7.76-9.89-9.73-14-9.73a10.89,10.89,0,0,0-1.93.16,2.83,2.83,0,0,0-2.19,3.63l1,3.25-7.28,6.77c-5.22-2.13-9-15-10.13-21.35a2.84,2.84,0,0,0-.86-1.6c-5.77-5.36-13.44-18-13.52-18.12a2.86,2.86,0,0,0-2.1-1.35,2.73,2.73,0,0,0-1.27.15l2.11-5.34a2.87,2.87,0,0,0,.2-1c0-17.89,6.18-32.38,18.28-43.08,19.22-17,48.19-19.49,56.56-18.47a53.58,53.58,0,0,0,10.94.21,69.43,69.43,0,0,1-8.34,2.29,2.83,2.83,0,1,0,1.09,5.56C114.6,45.15,122,42.48,128.14,40,116.83,50.68,101.06,57.68,87,63.91,65.94,73.27,47.74,81.34,49.52,98.79c1.44,14,9.21,25.45,20.79,30.66,7.88,3.53,15.92,3.24,21.5-.78,6.18-4.46,10.91-4.79,13.53-4.44C100.63,136,92,140.79,91.94,140.83a2.84,2.84,0,0,0-.9,4.25c3.65,4.68,3.07,12,2.13,16.86,2-.3,4-.68,5.94-1.11C99.82,155.89,99.9,149.46,97.16,144.16Z"/></g></g></svg>