<svg xmlns="http://www.w3.org/2000/svg" viewBox="0 0 162.77 162.77"><defs><style>.cls-1{fill:#4f55ec;}.cls-2{fill:none;}.cls-3{fill:#9296f9;}</style></defs><title>Asset 33</title><g id="Layer_2" data-name="Layer 2"><g id="Layer_1-2" data-name="Layer 1"><circle class="cls-1" cx="81.38" cy="81.38" r="81.38"/><path class="cls-2" d="M111.32,157.06l-1.09.43.16.15Z"/><path class="cls-2" d="M122.06,58.06a2.23,2.23,0,1,0-2.24-2.23A2.23,2.23,0,0,0,122.06,58.06Z"/><path class="cls-2" d="M78.53,77.71A2.92,2.92,0,0,1,76,77.44C68.64,72.67,57.63,53.29,56.4,51.09a2.79,2.79,0,0,1-.18-2.39l.9-2.38.06-.15L44,54.48h.17l2.54.21a2.82,2.82,0,0,1,2.08,1.19C50.24,58,63,76.24,64.13,84.9a2.84,2.84,0,0,1-.88,2.45c-.31.3-8,8,2.3,23,7.47,10.86,26.52,29.8,39.27,42l14.46-9.12c-5.54-16.77-14.42-42.13-21-53.55C89.23,74,79,77.55,78.53,77.71ZM68.27,89l9.39-5.92a1.42,1.42,0,0,1,1.51,2.4l-9.39,5.92a1.44,1.44,0,0,1-.75.21A1.41,1.41,0,0,1,68.27,89Zm19.79-.46L68.29,101a1.42,1.42,0,0,1-2-.44,1.43,1.43,0,0,1,.45-2L86.55,86.17a1.41,1.41,0,1,1,1.51,2.39Z"/><path class="cls-2" d="M130.46,79.24a2.23,2.23,0,1,0,2.23,2.23A2.24,2.24,0,0,0,130.46,79.24Z"/><path class="cls-2" d="M46,72a3.84,3.84,0,0,0-3.12,1.24,4.32,4.32,0,0,0-.29,3.69c.82,2.94,6.13,10.83,12,18.89A20.23,20.23,0,0,1,55,91.47a18,18,0,0,1,3.24-7,44.1,44.1,0,0,0-3.9-8.91A14.84,14.84,0,0,0,46,72Z"/><path class="cls-2" d="M122.06,50.76A5.07,5.07,0,1,1,117,55.83,5.07,5.07,0,0,1,122.06,50.76ZM103.58,24.61a5.07,5.07,0,1,1,5.07,5.07A5.08,5.08,0,0,1,103.58,24.61Zm3.81,48.19a8.42,8.42,0,1,1,8.42,8.41A8.42,8.42,0,0,1,107.39,72.8Zm13.89,26.05a5.07,5.07,0,1,1,5.07-5.07A5.07,5.07,0,0,1,121.28,98.85Zm9.18-12.31a5.07,5.07,0,1,1,5.06-5.07A5.07,5.07,0,0,1,130.46,86.54Z"/><path class="cls-2" d="M121.66,150.53c-.44-1.38-.94-2.91-1.47-4.53l-13.26,8.36,3.3,3.13,1.09-.43Z"/><path class="cls-2" d="M78.12,72A19.22,19.22,0,0,1,90,73.55c-4.76-8.79-9.61-17-11.91-19A4.31,4.31,0,0,0,74.6,53.2a3.86,3.86,0,0,0-2.47,2.29c-1.41,3.07-.94,7.59-.41,9.11A44.32,44.32,0,0,0,78.12,72Z"/><path class="cls-2" d="M110.88,24.61a2.24,2.24,0,1,0-2.23,2.23A2.23,2.23,0,0,0,110.88,24.61Z"/><path class="cls-2" d="M121.28,91.55a2.23,2.23,0,1,0,2.23,2.23A2.23,2.23,0,0,0,121.28,91.55Z"/><circle class="cls-2" cx="115.81" cy="72.8" r="5.58"/><path class="cls-3" d="M81.78,50.27c-2.6-2.28-5.57-3.21-8.37-2.61A9.35,9.35,0,0,0,67,53.12a15.08,15.08,0,0,0-1,3c-1.59-2.52-3-4.87-4-6.64l.12-.3a10.21,10.21,0,0,0,3.43-4c1.29-3.22.26-4.85-.93-6.74l-.11-.17a2.85,2.85,0,0,0-3.91-.89l-26,16.43a2.85,2.85,0,0,0-1.26,1.77,2.88,2.88,0,0,0,.37,2.14l.11.17C35,59.71,36,61.34,39.45,61.56a10.1,10.1,0,0,0,5.13-1.35l.33,0c1.15,1.68,2.67,3.95,4.26,6.48a15.08,15.08,0,0,0-3.11-.41,9.38,9.38,0,0,0-7.7,3.45c-1.75,2.27-2.19,5.36-1.26,8.68,2.11,7.52,21.78,32.59,24,35.42h0c8.67,12.43,30.47,33.76,43,45.66,2.07-.6,4.11-1.27,6.11-2l-3.3-3.13L120.19,146c.53,1.62,1,3.15,1.47,4.53l-10.34,6.53a81.16,81.16,0,0,0,15.73-8.31c-5-15.68-15.73-47.61-23.69-61.62C101.63,83.61,87.62,55.38,81.78,50.27Zm-9.65,5.22A3.86,3.86,0,0,1,74.6,53.2a4.31,4.31,0,0,1,3.45,1.33c2.3,2,7.15,10.23,11.91,19A19.22,19.22,0,0,0,78.12,72a44.32,44.32,0,0,1-6.4-7.39C71.19,63.08,70.72,58.56,72.13,55.49ZM55,91.47a20.23,20.23,0,0,0-.48,4.33c-5.86-8.06-11.17-16-12-18.89a4.32,4.32,0,0,1,.29-3.69A3.84,3.84,0,0,1,46,72a14.84,14.84,0,0,1,8.4,3.56,44.1,44.1,0,0,1,3.9,8.91A18,18,0,0,0,55,91.47Zm49.79,60.87c-12.75-12.23-31.8-31.17-39.27-42-10.28-14.93-2.61-22.66-2.3-23a2.84,2.84,0,0,0,.88-2.45C63,76.24,50.24,58,48.79,55.89a2.82,2.82,0,0,0-2.08-1.19l-2.54-.21H44l13.18-8.31-.06.15-.9,2.38a2.79,2.79,0,0,0,.18,2.39C57.63,53.29,68.64,72.67,76,77.44a2.92,2.92,0,0,0,2.57.27c.43-.16,10.7-3.75,19.75,12,6.58,11.42,15.46,36.78,21,53.55Z"/><path class="cls-3" d="M69,91.63a1.44,1.44,0,0,0,.75-.21l9.39-5.92a1.42,1.42,0,0,0-1.51-2.4L68.27,89A1.41,1.41,0,0,0,69,91.63Z"/><path class="cls-3" d="M86.55,86.17,66.78,98.63a1.43,1.43,0,0,0-.45,2,1.42,1.42,0,0,0,2,.44L88.06,88.56a1.41,1.41,0,1,0-1.51-2.39Z"/><path class="cls-3" d="M121.28,88.72a5.07,5.07,0,1,0,5.07,5.06A5.07,5.07,0,0,0,121.28,88.72Zm0,7.29a2.23,2.23,0,1,1,2.23-2.23A2.23,2.23,0,0,1,121.28,96Z"/><path class="cls-3" d="M130.46,76.41a5.07,5.07,0,1,0,5.06,5.06A5.07,5.07,0,0,0,130.46,76.41Zm0,7.29a2.23,2.23,0,1,1,2.23-2.23A2.24,2.24,0,0,1,130.46,83.7Z"/><path class="cls-3" d="M122.06,60.89A5.07,5.07,0,1,0,117,55.83,5.07,5.07,0,0,0,122.06,60.89Zm0-7.29a2.23,2.23,0,1,1-2.24,2.23A2.23,2.23,0,0,1,122.06,53.6Z"/><path class="cls-3" d="M113.71,24.61a5.07,5.07,0,1,0-5.06,5.07A5.07,5.07,0,0,0,113.71,24.61Zm-7.3,0a2.24,2.24,0,1,1,2.24,2.23A2.24,2.24,0,0,1,106.41,24.61Z"/><path class="cls-3" d="M124.22,72.8a8.42,8.42,0,1,0-8.41,8.41A8.42,8.42,0,0,0,124.22,72.8Zm-8.41,5.58a5.58,5.58,0,1,1,5.57-5.58A5.58,5.58,0,0,1,115.81,78.38Z"/></g></g></svg>