<svg xmlns="http://www.w3.org/2000/svg" viewBox="0 0 162.77 162.77"><defs><style>.cls-1{fill:#4f55ec;}.cls-2{fill:none;}.cls-3{fill:#9296f9;}</style></defs><title>Asset 78</title><g id="Layer_2" data-name="Layer 2"><g id="Layer_1-2" data-name="Layer 1"><circle class="cls-1" cx="81.38" cy="81.38" r="81.38"/><path class="cls-2" d="M141.53,136.18l-.47.51,1.11,0Z"/><path class="cls-1" d="M54.32,120.92A7.83,7.83,0,0,0,55,124c0,.08,0,.15.08.21a2.89,2.89,0,0,1,1.1-.06c8.49,1.23,17,2,25.24,2.38v-9.79C74.8,115.69,59.92,114.15,54.32,120.92Z"/><path class="cls-1" d="M66,42.8A36.57,36.57,0,0,1,68,37.6C55.69,49.75,49.39,66.43,49.25,87.4a121.75,121.75,0,0,0,4,30.58c7-6.51,21.28-5.2,28.18-4.1v-1.4C70.17,91.5,59.4,63.75,66,42.8Z"/><path class="cls-1" d="M84.21,117.29v9.4c4.26.18,8.41.27,12.37.29l-12.29-9.67Z"/><path class="cls-1" d="M84.21,36.36v73.77l29.43-3.78C96.57,81.82,88,52.9,84.21,36.36Z"/><path class="cls-3" d="M135,125.25c-.24,0-14.36,1.61-33.86,1.73l-13.8-10.86L124.25,111a1.42,1.42,0,0,0-.39-2.81l-38.68,5.34-.35-.65,31.51-4a1.41,1.41,0,0,0,1-2.23C91.12,70.33,84.47,23,84.4,22.53a1.34,1.34,0,0,0-.19-.55V16.5s0,0,0,0a2.83,2.83,0,0,0-2-3.46A12.85,12.85,0,0,0,70,17.23c-2.2,2.35-3.64,2.59-5.26,2.21A2.83,2.83,0,1,0,63.42,25a10.53,10.53,0,0,0,2.47.3c3.85,0,6.49-2.28,8.24-4.16,3.1-3.31,6.45-2.64,6.66-2.59a3,3,0,0,0,.59.08v87.75C71.44,86.62,62.91,62.25,68.63,43.78,71.24,35.32,76,31,78.37,29.38c.47-.3.95-.61,1.44-.9A1.42,1.42,0,0,0,78.45,26a14.68,14.68,0,0,0-1.91,1.2C57,40,46.57,60.74,46.41,87.46a121.1,121.1,0,0,0,6.05,38,1.42,1.42,0,0,0,.57.7,2,2,0,0,0-.08.31,46.7,46.7,0,0,0-10.56-7.68,2.84,2.84,0,0,0-2.79,4.94c8.48,4.79,11.38,8.4,13.12,12.34a2.55,2.55,0,0,0,.23.43c.72,1.07.84,1.26,9.15,2.69,4,.69,10.41,1.69,18.44,2.6a294.27,294.27,0,0,0,32.2,1.93,179.12,179.12,0,0,0,19.15-.95l3.08-.16a83.11,83.11,0,0,0,6.09-5.93c-4.76.16-9.24.42-9.57.43l-.14,0c-30.37,3.3-67.14-3.1-74-4.61a23.33,23.33,0,0,0-1.59-2.68c35.54,5.08,72,1.84,78.83,1.15l7,5.18c1.28-1.4,2.52-2.83,3.7-4.32L137,125.79A2.88,2.88,0,0,0,135,125.25Zm-53.65,1.31c-8.19-.41-16.75-1.15-25.24-2.38a2.89,2.89,0,0,0-1.1.06c0-.06,0-.13-.08-.21a7.83,7.83,0,0,1-.64-3.11c5.6-6.77,20.48-5.23,27.06-4.15Zm0-12.68c-6.9-1.1-21.22-2.41-28.18,4.1a121.75,121.75,0,0,1-4-30.58c.14-21,6.44-37.65,18.78-49.8A36.57,36.57,0,0,0,66,42.8c-6.56,21,4.21,48.7,15.42,69.68Zm2.83-77.52c3.8,16.54,12.36,45.46,29.43,70l-29.43,3.78Zm0,90.33v-9.4l.08,0L96.58,127C92.62,127,88.47,126.87,84.21,126.69Z"/></g></g></svg>