<svg xmlns="http://www.w3.org/2000/svg" viewBox="0 0 162.77 162.77"><defs><style>.cls-1{fill:#4f55ec;}.cls-2{fill:#9296f9;}</style></defs><title>Asset 67</title><g id="Layer_2" data-name="Layer 2"><g id="Layer_1-2" data-name="Layer 1"><circle class="cls-1" cx="81.38" cy="81.38" r="81.38"/><polygon class="cls-1" points="87.42 68.7 93.32 73.72 98.68 67.92 92.78 62.9 87.42 68.7"/><path class="cls-1" d="M63.32,76.41l7.33,6.26L76,76.93,66,68.54A51.7,51.7,0,0,0,63.32,76.41Z"/><path class="cls-1" d="M72,67.11a16.92,16.92,0,0,1-3.86-.46l9.7,8.19,5.45-5.9-4.07-3.46A16.91,16.91,0,0,1,72,67.11Z"/><polygon class="cls-1" points="94.71 60.82 100.61 65.84 105.95 60.06 100.12 54.96 94.71 60.82"/><polygon class="cls-1" points="80.05 76.67 85.97 81.68 91.4 75.81 85.5 70.78 80.05 76.67"/><path class="cls-1" d="M66.73,97.26a15.12,15.12,0,0,0,2.73,2.3s0,0,0,0l7.29-7.89-5.9-5-6.65,7.2A16.47,16.47,0,0,0,66.73,97.26Z"/><path class="cls-1" d="M88.92,98.25l3.91,3.33A45.29,45.29,0,0,0,100.9,98l-6.6-5.57Z"/><path class="cls-1" d="M84.84,98.49l-5.9-5L72,101a24.85,24.85,0,0,0,8.7,2Z"/><path class="cls-1" d="M84.52,103c1.19,0,2.42-.13,3.7-.27.44-.07.87-.15,1.3-.25L87,100.33Z"/><polygon class="cls-1" points="92.14 90.59 86.21 85.59 80.86 91.38 86.76 96.41 92.14 90.59"/><polygon class="cls-1" points="99.46 82.67 93.56 77.65 88.14 83.51 94.06 88.51 99.46 82.67"/><polygon class="cls-1" points="102.04 52.88 107.88 57.98 113.44 51.96 107.67 46.79 102.04 52.88"/><path class="cls-1" d="M26.43,141.39c5.26-5.4,11.84-12,18.64-18.54L43.52,121l-19,18.58C25.12,140.17,25.78,140.78,26.43,141.39Z"/><polygon class="cls-1" points="121.31 59.03 115.54 53.86 110.01 59.84 115.84 64.94 121.31 59.03"/><polygon class="cls-1" points="106.75 74.78 100.84 69.76 95.48 75.56 101.39 80.58 106.75 74.78"/><polygon class="cls-1" points="113.92 67.03 108.09 61.93 102.77 67.68 108.67 72.7 113.92 67.03"/><polygon class="cls-1" points="72.81 84.51 78.71 89.54 84.05 83.76 78.12 78.76 72.81 84.51"/><path class="cls-1" d="M81.86,64l3.4,2.89,5.36-5.8-3.53-3A17.27,17.27,0,0,1,81.86,64Z"/><path class="cls-1" d="M72,61.44a11.34,11.34,0,0,0,4.7-1c-2.52-1.81-2.93-4.73-3.27-7.24-.4-2.9-.74-5.4-3.53-7-3.35-1.92-6.85-.25-8.94,1.2A11.32,11.32,0,0,0,72,61.44Z"/><path class="cls-1" d="M71.35,43.71c4,2.29,4.51,6,4.92,9.08.39,2.82.69,4.9,3.18,5.89a11.37,11.37,0,1,0-16.4-15.57A9.65,9.65,0,0,1,71.35,43.71Z"/><path class="cls-1" d="M88.25,55.32,92.55,59,98,53.1l-9.84-8.61a16.84,16.84,0,0,1,.11,10.83Z"/><path class="cls-1" d="M68.73,84.75l-6.08-5.18c0,.19-.08.38-.11.57-.26,1.59-.55,3.11-.85,4.59A26,26,0,0,0,63,91Z"/><path class="cls-1" d="M105.56,44.89l-7.17-6.44a33.75,33.75,0,0,0-9,3.38L99.91,51Z"/><path class="cls-1" d="M96.23,90.34l7.24,6.12A59.64,59.64,0,0,0,110,91.64l-8.38-7.13Z"/><path class="cls-1" d="M76,105.18a20.91,20.91,0,0,1-11.36-6,20.65,20.65,0,0,1-4.54-7.82c-4.64,17.08-11.69,25-14.51,27.66l1.55,1.87C56.93,112.06,68.32,107.46,76,105.18Z"/><path class="cls-1" d="M110.83,74.54l8.48,7.22a49.84,49.84,0,0,0,4.1-6.44l-7.36-6.43Z"/><path class="cls-1" d="M118,66.81l6.71,5.87c.27-.6.53-1.21.76-1.81a32.67,32.67,0,0,0,1.79-6.5l-3.83-3.44Z"/><path class="cls-1" d="M103.55,82.42l8.59,7.31A61.15,61.15,0,0,0,117.56,84l-8.65-7.37Z"/><path class="cls-1" d="M127.57,60.85a21.7,21.7,0,0,0-.31-4.08l-1.92,2.08Z"/><path class="cls-1" d="M115.36,49.88l4.6-5a2,2,0,0,1,.25-.18,27.78,27.78,0,0,0-6.5-4.46l-4.11,4.45Z"/><path class="cls-1" d="M110.92,39.1a22.85,22.85,0,0,0-8.85-1.16l5.42,4.87Z"/><path class="cls-1" d="M123.23,57l3.17-3.43a19.86,19.86,0,0,0-4.25-6.87c0,.06-.06.12-.1.18l-4.58,5Z"/><path class="cls-2" d="M49.86,126.12C64.36,112.3,84,109,85.56,108.76c17.4-1.06,38.06-17.44,45.18-35.85,4.59-11.87,2.82-22.79-5-30.73C114.19,30.42,99.13,29,84.31,38.25A17,17,0,1,0,62,63.79a56.23,56.23,0,0,0-5,15.43c-4.52,27.45-15.79,36.19-15.89,36.26a2.61,2.61,0,0,0-.31.27L20.58,135.44c1.25,1.41,2.55,2.79,3.9,4.11l19-18.58,1.55,1.88c-6.8,6.52-13.38,13.14-18.64,18.54,1.4,1.27,2.83,2.52,4.31,3.7C36.14,139.55,42.91,132.74,49.86,126.12ZM86.21,85.59l5.92,5-5.37,5.82-5.9-5Zm-7.5,4-5.9-5,5.31-5.75,5.93,5Zm9.43-6,5.42-5.86,5.9,5-5.4,5.84Zm7.34-8,5.36-5.8,5.91,5-5.36,5.8Zm7.29-7.88,5.32-5.75,5.83,5.1-5.25,5.67ZM110,59.84l5.53-6L121.31,59l-5.47,5.91ZM107.88,58,102,52.88l5.63-6.09L113.43,52ZM106,60.06l-5.34,5.78-5.9-5L100.12,55Zm-7.27,7.86-5.36,5.8-5.9-5,5.36-5.8ZM91.4,75.81,86,81.68l-5.92-5,5.45-5.89Zm-13.52-1-9.7-8.19a16.67,16.67,0,0,0,11.08-1.17l4.07,3.46ZM76,76.93l-5.31,5.74-7.33-6.26A51.7,51.7,0,0,1,66,68.54Zm-5.08,9.66,5.9,5-7.29,7.89s0,0,0,0a15.12,15.12,0,0,1-2.73-2.3,16.47,16.47,0,0,1-2.5-3.47Zm8.06,6.87,5.9,5L80.7,103a24.85,24.85,0,0,1-8.7-2Zm9.28,9.28c-1.28.14-2.51.23-3.7.27L87,100.33l2.53,2.16C89.09,102.59,88.66,102.67,88.22,102.74Zm4.61-1.16-3.91-3.33,5.38-5.82L100.9,98A45.29,45.29,0,0,1,92.83,101.58Zm10.64-5.12-7.24-6.12,5.39-5.83L110,91.64A59.64,59.64,0,0,1,103.47,96.46Zm8.67-6.73-8.59-7.31,5.36-5.8L117.56,84A61.15,61.15,0,0,1,112.14,89.73Zm7.17-8-8.48-7.22,5.22-5.65,7.36,6.43A49.84,49.84,0,0,1,119.31,81.76Zm6.14-10.89c-.23.6-.49,1.21-.76,1.81L118,66.81l5.43-5.88,3.83,3.44A32.67,32.67,0,0,1,125.45,70.87Zm2.12-10-2.23-2,1.92-2.08A21.7,21.7,0,0,1,127.57,60.85Zm-5.42-14.2a19.86,19.86,0,0,1,4.25,6.87L123.23,57l-5.76-5.17,4.58-5C122.09,46.77,122.11,46.71,122.15,46.65Zm-1.94-1.93a2,2,0,0,0-.25.18l-4.6,5-5.76-5.17,4.11-4.45A27.78,27.78,0,0,1,120.21,44.72Zm-9.29-5.62-3.43,3.71-5.42-4.87A22.85,22.85,0,0,1,110.92,39.1Zm-12.53-.65,7.17,6.44L99.91,51l-10.5-9.18A33.75,33.75,0,0,1,98.39,38.45ZM98,53.1,92.55,59l-4.3-3.66a16.84,16.84,0,0,0-.11-10.83Zm-10.89,5,3.53,3-5.36,5.8L81.86,64A17.27,17.27,0,0,0,87.09,58.06ZM72,38.68a11.37,11.37,0,0,1,7.41,20c-2.49-1-2.79-3.07-3.18-5.89-.41-3-.92-6.79-4.92-9.08a9.65,9.65,0,0,0-8.3-.6A11.34,11.34,0,0,1,72,38.68ZM60.66,50.06A11.39,11.39,0,0,1,61,47.37c2.09-1.45,5.59-3.12,8.94-1.2,2.79,1.6,3.13,4.1,3.53,7,.34,2.51.75,5.43,3.27,7.24A11.35,11.35,0,0,1,60.66,50.06Zm1.88,30.08c0-.19.07-.38.11-.57l6.08,5.18L63,91a26,26,0,0,1-1.29-6.23C62,83.25,62.28,81.73,62.54,80.14ZM60.11,91.38a20.65,20.65,0,0,0,4.54,7.82,20.91,20.91,0,0,0,11.36,6c-7.69,2.28-19.08,6.88-28.86,15.73L45.6,119C48.42,116.41,55.47,108.46,60.11,91.38Z"/></g></g></svg>