<svg xmlns="http://www.w3.org/2000/svg" viewBox="0 0 162.77 162.77"><defs><style>.cls-1{fill:#4f55ec;}.cls-2{fill:#9296f9;}</style></defs><title>Asset 77</title><g id="Layer_2" data-name="Layer 2"><g id="Layer_1-2" data-name="Layer 1"><circle class="cls-1" cx="81.38" cy="81.38" r="81.38"/><path class="cls-1" d="M85.77,98.54c2.76,0,5-3,5-6.58s-2.25-6.58-5-6.58-5,3-5,6.58S83,98.54,85.77,98.54Z"/><path class="cls-1" d="M92.29,97.19a9,9,0,0,1-1,1.46,7.18,7.18,0,0,1,1.84.14A10.51,10.51,0,0,1,92.29,97.19Z"/><path class="cls-1" d="M76.05,64.25a2.8,2.8,0,0,1-2.33-.79,1.37,1.37,0,0,1-.19-.23,8.38,8.38,0,0,1,.06,2.65l.36-.11a7.62,7.62,0,0,1,7.23,2.58,20.26,20.26,0,0,1,1.2-3.85c0-.1.08-.21.12-.32A26,26,0,0,0,76.05,64.25Z"/><path class="cls-1" d="M81.52,114.4a3.22,3.22,0,0,0-1.33-.29,5.46,5.46,0,0,0-4.53,3.39,6.23,6.23,0,0,0-.5,4A3.54,3.54,0,0,0,77,124h0c2,.93,4.62-.46,5.86-3.1S83.51,115.34,81.52,114.4Z"/><path class="cls-1" d="M79.62,106.33c1.38-2.94.7-6.19-1.53-7.23s-5.16.48-6.54,3.42-.71,6.19,1.52,7.24S78.23,109.27,79.62,106.33Z"/><path class="cls-1" d="M75.43,68.44a3.67,3.67,0,0,0-.86.1c-2.69.61-4.23,4-3.42,7.52s3.66,5.91,6.34,5.31,4.23-4,3.43-7.53C80.2,70.68,77.85,68.44,75.43,68.44Z"/><path class="cls-1" d="M88.87,113.38A10.1,10.1,0,0,1,86.72,111a9.72,9.72,0,0,1-1.53-6.24,7.25,7.25,0,0,1,1.24-3.38c-.22,0-.44,0-.66,0a6.78,6.78,0,0,1-3-.72,9.5,9.5,0,0,1-.57,6.89A10,10,0,0,1,79,111.43a6,6,0,0,1,3.78.41A6.2,6.2,0,0,1,86,115.66a6.35,6.35,0,0,1,1.8-1.74A6.07,6.07,0,0,1,88.87,113.38Z"/><path class="cls-1" d="M69.67,61.66a4.31,4.31,0,0,0-3.09-1.18l-.63,0a8,8,0,0,0-6.74,6.74A4.48,4.48,0,0,0,60.36,71c2,2,5.63,1.45,8.2-1.11S71.62,63.62,69.67,61.66Z"/><path class="cls-1" d="M42.84,71.49a4.35,4.35,0,0,0-1.09-.14c-.94,0-1.63.32-1.77.74a2.46,2.46,0,0,0,.72,2.71c1.12,1,2.91.93,4.81,0,.32-.16.63-.33.91-.49A5.43,5.43,0,0,0,42.84,71.49Z"/><path class="cls-1" d="M69.59,83.31a4,4,0,0,0-2.21-.64,5.56,5.56,0,0,0-1.66.28,8,8,0,0,0-5.19,8,4.45,4.45,0,0,0,1.9,3.39c2.32,1.5,5.81.25,7.79-2.79a7.59,7.59,0,0,0,1.27-4.85A4.4,4.4,0,0,0,69.59,83.31Z"/><path class="cls-1" d="M76.65,33.17a4.16,4.16,0,0,1-.12,4.3,1.61,1.61,0,0,0,0,1.76A4.48,4.48,0,0,0,79.57,41c-.24-1.53-.29-3.25.45-4.22A2.07,2.07,0,0,1,81.69,36h0a6.18,6.18,0,0,1,1.41.23c1.22.29,2.15.46,3-.1,1.06-.68,1.93-2.37,2.55-4.92-1.25-.65-3.68-1.47-5.33.83a1.39,1.39,0,0,1-1.27.59,2.28,2.28,0,0,1-1.92-1.43c-.56-1.43.27-3.26,2.71-5.93,1-1.15.92-1.26-.56-2.66a11.89,11.89,0,0,1-2-2.24,9.25,9.25,0,0,1-2.35,1c-1.81.55-1.94.69-1.72,1.82.9,4.62-.6,5.74-1.58,6-.73.19-2.58.22-3.83-3.64a5.42,5.42,0,0,0-1.46-2.62,5.07,5.07,0,0,0-.22,5.61,2.58,2.58,0,0,1,0,2.62,4.35,4.35,0,0,1-2.82,1.75c1,1.62,2.2,2.86,2.76,2.86,0,0,.26-.11.57-.79,1.35-2.89,3.07-3.39,4-3.43h.15A3.23,3.23,0,0,1,76.65,33.17Z"/><path class="cls-1" d="M86.73,39a7.07,7.07,0,0,1-4.29,0l-.19,0a13,13,0,0,0,.47,3.27,1.48,1.48,0,0,1,0,.66A12.85,12.85,0,0,1,89.59,48a3.24,3.24,0,0,1,.27.6,7.37,7.37,0,0,1,.66.48,2.56,2.56,0,0,0,2.61.51c.09,0,.58-.26.61-.6s-.55-1.79-3.07-3.42C87.13,43.27,86.56,40.74,86.73,39Z"/><path class="cls-1" d="M93.73,40.78c5.29,3.41,5.82,6.91,5.66,8.7a6.4,6.4,0,0,1-4.09,5.33,8.2,8.2,0,0,1-8.4-1.39,3.1,3.1,0,0,0-3.37-.53c-1.6.65-3.32,2.52-4.3,5.44h.63c2.86,0,5.88.44,7.45,2a4.11,4.11,0,0,1,1.17,3.52,12.2,12.2,0,0,1-.82,2.7c-.9,2.29-1.47,4-.62,5.9,1,2.22,4.06,4.37,8.83,6.25a12.94,12.94,0,0,0,1.58-3,6.43,6.43,0,0,0-1.78-7.5,2.82,2.82,0,0,1-.81-2.67,4.52,4.52,0,0,1,3.32-3.4c3-.72,6.32,1.4,10.9,6.88,1.93,2.31,2.12,2.16,5.27-.38a23.43,23.43,0,0,1,4.85-3.26A19.58,19.58,0,0,1,118,60.54c-.59-3.67-.79-3.91-3-3.79-9.29.52-11.08-2.73-11.32-4.72-.17-1.49.27-5.12,8.17-6.55,3.36-.61,4.82-1.52,5.43-2.1-2.78-3-7.28-3.19-10.8-1.89a5.16,5.16,0,0,1-5.16-.61c-1.73-1.33-2.42-3.73-2.67-5.94-3.73,1.76-6.2,3.74-6.22,4.57C92.37,39.51,92.51,40,93.73,40.78Z"/><path class="cls-1" d="M105.72,73.71a13.23,13.23,0,0,1-1-1.08c-.44-.53-.85-1-1.24-1.43a10.45,10.45,0,0,1,.13,1.49c0,.44,0,.88,0,1.31A7.9,7.9,0,0,1,105.72,73.71Z"/><path class="cls-1" d="M99.91,89a5.51,5.51,0,0,0-1.41-.2,4.09,4.09,0,0,0-2.44.76,4.47,4.47,0,0,0-1.71,3.5,8,8,0,0,0,5.62,7.69,4.46,4.46,0,0,0,3.85-.56c2.23-1.63,2.31-5.34.17-8.27A7.57,7.57,0,0,0,99.91,89Z"/><path class="cls-1" d="M91.69,101.46a3.58,3.58,0,0,0-2,.54A4,4,0,0,0,88,105a6.92,6.92,0,0,0,1.11,4.41c1.76,2.77,4.89,3.94,7,2.61a4,4,0,0,0,1.73-3,6.86,6.86,0,0,0-1.11-4.41A6.29,6.29,0,0,0,91.69,101.46Z"/><path class="cls-1" d="M91.22,115.77a3.59,3.59,0,0,0-2,.55,4,4,0,0,0-1.74,3,6.91,6.91,0,0,0,1.11,4.41c1.76,2.77,4.89,3.94,7,2.62a4,4,0,0,0,1.73-3,6.86,6.86,0,0,0-1.11-4.41A6.32,6.32,0,0,0,91.22,115.77Z"/><ellipse class="cls-1" cx="85.45" cy="135.06" rx="4.44" ry="6.15"/><path class="cls-1" d="M106.3,76.58l-.63,0a4.27,4.27,0,0,0-2.89,1,19.11,19.11,0,0,1-1.36,2.94,5.8,5.8,0,0,0,0,.93,7.66,7.66,0,0,0,2.26,4.48c2.56,2.56,6.24,3.06,8.19,1.11s1.46-5.63-1.1-8.2A7.68,7.68,0,0,0,106.3,76.58Z"/><path class="cls-2" d="M47.41,48.16c-2.82,1.44-5.64,3.3-7.28,5.53a6.69,6.69,0,0,0-1.33,5.52,7,7,0,0,0,4,4.58c6.32,3.22,7.27,5.46,7.27,6.5a3.37,3.37,0,0,1-1.3,2.32,8.41,8.41,0,0,0-5.27-3.88c-2.91-.7-5.52.35-6.21,2.49A5.3,5.3,0,0,0,38.87,77c2,1.71,5,1.82,7.94.3.16-.08.32-.16.47-.25a12.92,12.92,0,0,1-.11,3.68,5.42,5.42,0,0,1-4.11,4.49c-3.68.76-5,3.1-4.92,4.87A4.1,4.1,0,0,0,41.78,94a5.73,5.73,0,0,1,4.37,3.37,3.44,3.44,0,0,1-1,3.49,1.42,1.42,0,0,0,.74,2.62,1.38,1.38,0,0,0,.75-.21,6.18,6.18,0,0,0,2.11-7,8.62,8.62,0,0,0-6.51-5.09C41.48,91,41,90.58,41,90c0-.75.81-1.67,2.66-2.06C49.22,86.8,50,81.28,50,81.1a14.8,14.8,0,0,0-.11-5.73c2-1.57,3-3.25,3-5.09,0-3-2.89-6-8.82-9a4.39,4.39,0,0,1-2.52-2.7,3.93,3.93,0,0,1,.85-3.19c2.09-2.85,6.79-5.1,10.3-6.46a30.58,30.58,0,0,0,6.08-.4l.17,0c6.17-1.4,15.73-2.31,21.53-.41-4.13,2.15-7,7.07-7.61,13.09a1.2,1.2,0,0,0,0,.19,6.58,6.58,0,0,0-1.21-1.68,7.24,7.24,0,0,0-6-2A10.88,10.88,0,0,0,56.39,67a7.24,7.24,0,0,0,2,6,7.07,7.07,0,0,0,5.09,2,9.63,9.63,0,0,0,4.67-1.27,10.88,10.88,0,0,0,.26,3,11.07,11.07,0,0,0,1.55,3.63,7.46,7.46,0,0,0-5.09-.06,10.83,10.83,0,0,0-7.13,11,7.21,7.21,0,0,0,3.18,5.49,6.81,6.81,0,0,0,3.73,1.08,9.81,9.81,0,0,0,8-4.71,10.41,10.41,0,0,0,1.72-6.68,7.83,7.83,0,0,0-.85-2.9,7.19,7.19,0,0,0,3.2.78,6.66,6.66,0,0,0,1.46-.16h0a7.82,7.82,0,0,0,5.65-6.45c2.42,2.76,6.42,5.09,12.12,7.08a2.72,2.72,0,0,0,.93.16A2.83,2.83,0,0,0,98.87,84l.21-.23a10.56,10.56,0,0,0,1.2,2.4,7.14,7.14,0,0,0-5.89,1.09,6.91,6.91,0,0,0-1.31,1.28c-1.14-3.52-4-6-7.31-6-4.33,0-7.85,4.22-7.85,9.41a10.82,10.82,0,0,0,.91,4.38c-3.55-1.33-7.88.81-9.85,5-2,4.35-.76,9.29,2.88,11a6.22,6.22,0,0,0,2.67.59,7,7,0,0,0,1.5-.18,9.17,9.17,0,0,0-2.93,3.56,9,9,0,0,0-.69,5.9,6.28,6.28,0,0,0,3.39,4.36,5.73,5.73,0,0,0,2.5.55,8.1,8.1,0,0,0,6.78-4.38,10.65,10.65,0,0,0,1.17,2.55,9.28,9.28,0,0,0,.73,1,6.06,6.06,0,0,0-1.53-.2c-4,0-7.28,4-7.28,9s3.27,9,7.28,9,7.28-4,7.28-9A10.3,10.3,0,0,0,91,129.19a7.71,7.71,0,0,0,2.76.55,6.35,6.35,0,0,0,3.43-1,6.75,6.75,0,0,0,3-5.1,9.72,9.72,0,0,0-1.53-6.24A10.13,10.13,0,0,0,96.5,115a6.34,6.34,0,0,0,4.15-5.64,9.66,9.66,0,0,0-1.27-5.8,8.36,8.36,0,0,0,2,.26,6.81,6.81,0,0,0,4.09-1.31c3.36-2.45,3.81-7.62,1.1-11.74a9.38,9.38,0,0,0,2.21.29,7.09,7.09,0,0,0,5.09-2c3.06-3.06,2.56-8.53-1.11-12.2-.23-.23-.46-.44-.7-.64,2.35-.38,4.34-2,5.83-3.18,1.86-1.5,3.62-2.92,5.82-3.13a3.14,3.14,0,0,0,1.57-5.65c-1-.78-1.35-2.26-1.73-4.61-.54-3.35-1.43-9-8.95-8.54-.84,0-1.57.06-2.2,0l.38-.07c10.69-1.94,10.55-7.67,10.49-8.31a2.75,2.75,0,0,0-.43-1.31c-4.29-6.69-12.23-7.49-18.26-5.32a14,14,0,0,1-.37-5.09,2.83,2.83,0,0,0-3.73-3,37.5,37.5,0,0,0-9.26,4.58c.16-.58.31-1.19.45-1.85a1.43,1.43,0,0,0-.56-1.43,9.14,9.14,0,0,0-6-1.6,5.31,5.31,0,0,0-.81.19c.2-.24.43-.5.68-.78,2.92-3.21.65-5.35-.7-6.63a5.84,5.84,0,0,1-2-2.74A1.57,1.57,0,0,0,81,16.61a1.54,1.54,0,0,0-1.59.8c-.32.59-1.05.85-2.21,1.2-1.64.5-4.4,1.34-3.67,5.07A11.53,11.53,0,0,1,73.68,25c0-.11-.09-.23-.13-.36-1.7-5.23-4.55-4.76-4.88-4.7a1.42,1.42,0,0,0-.61.31c-3.07,2.62-2.92,6.67-1.41,9.55a7.21,7.21,0,0,1-2.57.55,1.42,1.42,0,0,0-1.22,2c.73,1.45,3.33,6.17,6.31,6.17h0c.91,0,2.18-.44,3.1-2.42.65-1.4,1.29-1.79,1.54-1.8a.6.6,0,0,1,.36.28A1.31,1.31,0,0,1,74.12,36,4.41,4.41,0,0,0,74,40.65a7.11,7.11,0,0,0,.5.72,66.84,66.84,0,0,0-16.75,1.56c-9.33,1.51-17-2.11-22.74-10.77A47.43,47.43,0,0,1,29.17,19q-2.43,2-4.7,4.26C27.53,32.74,34.76,45,47.41,48.16Zm-1.9,26.59c-1.9,1-3.69,1-4.81,0A2.46,2.46,0,0,1,40,72.09c.14-.42.83-.74,1.77-.74a4.35,4.35,0,0,1,1.09.14,5.43,5.43,0,0,1,3.58,2.77C46.14,74.42,45.83,74.59,45.51,74.75Zm23.05-4.89C66,72.42,62.32,72.92,60.36,71a4.48,4.48,0,0,1-1.15-3.72A8,8,0,0,1,66,60.51l.63,0a4.31,4.31,0,0,1,3.09,1.18C71.62,63.62,71.12,67.29,68.56,69.86Zm1.66,21.69c-2,3-5.47,4.29-7.79,2.79A4.45,4.45,0,0,1,60.53,91a8,8,0,0,1,5.19-8,5.56,5.56,0,0,1,1.66-.28,4,4,0,0,1,2.21.64,4.4,4.4,0,0,1,1.9,3.39A7.59,7.59,0,0,1,70.22,91.55Zm7.27-10.18c-2.68.6-5.54-1.77-6.34-5.31s.73-6.91,3.42-7.52a3.67,3.67,0,0,1,.86-.1c2.42,0,4.77,2.24,5.49,5.4C81.72,77.38,80.18,80.75,77.49,81.37ZM82.38,64.5a20.26,20.26,0,0,0-1.2,3.85A7.62,7.62,0,0,0,74,65.77l-.36.11a8.38,8.38,0,0,0-.06-2.65,1.37,1.37,0,0,0,.19.23,2.8,2.8,0,0,0,2.33.79,26,26,0,0,1,6.45-.07C82.46,64.29,82.41,64.4,82.38,64.5Zm9.91,32.69a10.51,10.51,0,0,0,.82,1.6,7.18,7.18,0,0,0-1.84-.14A9,9,0,0,0,92.29,97.19ZM85.77,85.38c2.76,0,5,3,5,6.58s-2.25,6.58-5,6.58-5-3-5-6.58S83,85.38,85.77,85.38Zm-12.7,24.38c-2.23-1.05-2.91-4.3-1.52-7.24s4.33-4.47,6.54-3.42,2.91,4.29,1.53,7.23S75.29,110.81,73.07,109.76Zm9.79,11.13c-1.24,2.64-3.88,4-5.86,3.1h0a3.54,3.54,0,0,1-1.84-2.46,6.23,6.23,0,0,1,.5-4,5.46,5.46,0,0,1,4.53-3.39,3.22,3.22,0,0,1,1.33.29C83.51,115.34,84.11,118.25,82.86,120.89ZM86,115.66a6.2,6.2,0,0,0-3.22-3.82,6,6,0,0,0-3.78-.41,10,10,0,0,0,3.23-3.89,9.5,9.5,0,0,0,.57-6.89,6.78,6.78,0,0,0,3,.72c.22,0,.44,0,.66,0a7.25,7.25,0,0,0-1.24,3.38A9.72,9.72,0,0,0,86.72,111a10.1,10.1,0,0,0,2.15,2.43,6.07,6.07,0,0,0-1.12.54A6.35,6.35,0,0,0,86,115.66Zm-.5,25.55c-2.45,0-4.44-2.76-4.44-6.15s2-6.15,4.44-6.15,4.45,2.76,4.45,6.15S87.9,141.21,85.45,141.21Zm11.91-17.87a4,4,0,0,1-1.73,3c-2.1,1.32-5.23.15-7-2.62a6.91,6.91,0,0,1-1.11-4.41,4,4,0,0,1,1.74-3,3.59,3.59,0,0,1,2-.55,6.32,6.32,0,0,1,5,3.16A6.86,6.86,0,0,1,97.36,123.34ZM97.83,109a4,4,0,0,1-1.73,3c-2.1,1.33-5.23.16-7-2.61A6.92,6.92,0,0,1,88,105a4,4,0,0,1,1.74-3,3.58,3.58,0,0,1,2-.54,6.29,6.29,0,0,1,5,3.16A6.86,6.86,0,0,1,97.83,109Zm6-8.81a4.46,4.46,0,0,1-3.85.56,8,8,0,0,1-5.62-7.69,4.47,4.47,0,0,1,1.71-3.5,4.09,4.09,0,0,1,2.44-.76,5.51,5.51,0,0,1,1.41.2A7.57,7.57,0,0,1,104,92C106.13,94.88,106.05,98.59,103.82,100.22ZM111.88,87c-1.95,1.95-5.63,1.45-8.19-1.11a7.66,7.66,0,0,1-2.26-4.48,5.8,5.8,0,0,1,0-.93,19.11,19.11,0,0,0,1.36-2.94,4.27,4.27,0,0,1,2.89-1l.63,0a7.68,7.68,0,0,1,4.48,2.26C113.34,81.41,113.84,85.08,111.88,87ZM103.49,71.2c.39.43.8.9,1.24,1.43a13.23,13.23,0,0,0,1,1.08,7.9,7.9,0,0,0-2.14.29c0-.43,0-.87,0-1.31A10.45,10.45,0,0,0,103.49,71.2Zm-4.9-36.26c.25,2.21.94,4.61,2.67,5.94a5.16,5.16,0,0,0,5.16.61c3.52-1.3,8-1.14,10.8,1.89-.61.58-2.07,1.49-5.43,2.1-7.9,1.43-8.34,5.06-8.17,6.55.24,2,2,5.24,11.32,4.72,2.24-.12,2.44.12,3,3.79a19.58,19.58,0,0,0,1.23,4.81,23.43,23.43,0,0,0-4.85,3.26c-3.15,2.54-3.34,2.69-5.27.38-4.58-5.48-7.94-7.6-10.9-6.88a4.52,4.52,0,0,0-3.32,3.4,2.82,2.82,0,0,0,.81,2.67,6.43,6.43,0,0,1,1.78,7.5,12.94,12.94,0,0,1-1.58,3c-4.77-1.88-7.8-4-8.83-6.25-.85-1.85-.28-3.61.62-5.9a12.2,12.2,0,0,0,.82-2.7,4.11,4.11,0,0,0-1.17-3.52c-1.57-1.58-4.59-2-7.45-2h-.63c1-2.92,2.7-4.79,4.3-5.44a3.1,3.1,0,0,1,3.37.53,8.2,8.2,0,0,0,8.4,1.39,6.4,6.4,0,0,0,4.09-5.33c.16-1.79-.37-5.29-5.66-8.7-1.22-.79-1.36-1.27-1.36-1.27C92.39,38.68,94.86,36.7,98.59,34.94ZM93.74,49c0,.34-.52.56-.61.6a2.56,2.56,0,0,1-2.61-.51,7.37,7.37,0,0,0-.66-.48,3.24,3.24,0,0,0-.27-.6,12.85,12.85,0,0,0-6.85-5.12,1.48,1.48,0,0,0,0-.66,13,13,0,0,1-.47-3.27l.19,0a7.07,7.07,0,0,0,4.29,0c-.17,1.78.4,4.31,3.94,6.59C93.19,47.18,93.78,48.5,93.74,49ZM73.85,31.48H73.7c-.9,0-2.62.54-4,3.43-.31.68-.54.78-.57.79-.56,0-1.71-1.24-2.76-2.86a4.35,4.35,0,0,0,2.82-1.75,2.58,2.58,0,0,0,0-2.62,5.07,5.07,0,0,1,.22-5.61,5.42,5.42,0,0,1,1.46,2.62c1.25,3.86,3.1,3.83,3.83,3.64,1-.25,2.48-1.37,1.58-6-.22-1.13-.09-1.27,1.72-1.82a9.25,9.25,0,0,0,2.35-1,11.89,11.89,0,0,0,2,2.24c1.48,1.4,1.6,1.51.56,2.66-2.44,2.67-3.27,4.5-2.71,5.93a2.28,2.28,0,0,0,1.92,1.43A1.39,1.39,0,0,0,83.36,32c1.65-2.3,4.08-1.48,5.33-.83-.62,2.55-1.49,4.24-2.55,4.92-.88.56-1.81.39-3,.1A6.18,6.18,0,0,0,81.7,36h0a2.07,2.07,0,0,0-1.67.82c-.74,1-.69,2.69-.45,4.22a4.48,4.48,0,0,1-3.08-1.8,1.61,1.61,0,0,1,0-1.76,4.16,4.16,0,0,0,.12-4.3A3.23,3.23,0,0,0,73.85,31.48Z"/></g></g></svg>