<svg xmlns="http://www.w3.org/2000/svg" width="120" height="80" viewBox="0 0 120 80">
    <g fill="#7371E9" fill-rule="evenodd">
        <path d="M49.656 18.103c.237 0 .456.095.617.268a.83.83 0 0 1-.047 1.18c-1.021.937-2.09 1.63-3.176 2.059l-.693.273v1.61c0 3.622 1.42 7.032 4 9.6A13.579 13.579 0 0 0 60 37.076c7.522 0 13.642-6.094 13.642-13.584v-4.714l-1.228.147c-1.399.167-2.793.252-4.144.252-4.403 0-10.592-.936-15.07-5.394a.828.828 0 0 1-.244-.59.835.835 0 0 1 .838-.835c.223 0 .434.087.592.245 1.853 1.845 6.115 4.94 13.847 4.94 2.054 0 4.243-.226 6.506-.671.563-.111.972-.615.972-1.199v-.42c0-7.49-6.12-13.584-13.643-13.584h-4.137c-7.522 0-13.642 6.094-13.642 13.584v3.812c0 .247.053.48.155.676l.336.649.732-.062a1.41 1.41 0 0 0 .233-.04c1.118-.291 2.242-.952 3.343-1.964a.838.838 0 0 1 .568-.221zm2.907 21.25a4.94 4.94 0 0 1-.702 2.528l-.436.73L60 51.148l8.575-8.537-.436-.73a4.937 4.937 0 0 1-.702-2.528v-2.428l-1.522.637A15.237 15.237 0 0 1 60 38.745a15.24 15.24 0 0 1-5.914-1.184l-1.523-.637v2.429zM76.55 82a.837.837 0 0 1-.839-.835V63.127c0-1.873.733-3.634 2.064-4.96l6.94-6.909-.748-.772a7.39 7.39 0 0 0-2.328-1.629l-11.746-5.198-9.055 9.016v28.49a.837.837 0 0 1-1.676 0v-28.49l-9.054-9.016-11.746 5.198a7.399 7.399 0 0 0-2.329 1.628l-.747.772 6.94 6.91a6.952 6.952 0 0 1 2.063 4.96v18.038a.837.837 0 0 1-1.677 0V63.127c0-1.427-.558-2.77-1.572-3.779l-6.809-6.78-.24 2.278c-.031.291-.046.538-.046.777v25.542a.837.837 0 0 1-1.676 0V55.623a9.08 9.08 0 0 1 5.412-8.291l11.247-4.977a3.287 3.287 0 0 0 1.959-3.002V35.75l-.413-.329c-3.682-2.92-5.793-7.268-5.793-11.93v-1.505l-.579-.31c-.13-.069-.256-.15-.372-.239-.71-.546-1.118-1.411-1.118-2.373v-3.812C42.612 6.843 49.484 0 57.932 0h4.137c8.447 0 15.319 6.843 15.319 15.253v.42a2.894 2.894 0 0 1-1.502 2.534l-.567.312v4.973c0 4.662-2.111 9.01-5.793 11.931l-.413.328v3.602c0 1.297.769 2.475 1.959 3.002l11.247 4.977a9.082 9.082 0 0 1 5.412 8.292v25.541a.837.837 0 0 1-1.676 0V55.623c0-.24-.015-.488-.046-.778l-.243-2.274-6.806 6.777a5.298 5.298 0 0 0-1.572 3.78v18.037c0 .46-.376.835-.838.835zM19.796 18.158c1.342 0 2.67.193 3.949.573l1.205.359.221-1.203c.057-.311.086-.628.086-.942 0-2.918-2.45-5.292-5.461-5.292-3.012 0-5.462 2.374-5.462 5.292 0 .298.03.605.093.941l.222 1.201 1.204-.357a13.835 13.835 0 0 1 3.943-.572zm-4.148 10.2a.86.86 0 0 1 .62.33c.163.206 3.926 4.884 10.365 4.884 1.36 0 2.755-.21 4.15-.623l.789-.235v-1.491c0-6.293-5.283-11.412-11.776-11.412-6.33 0-11.608 4.988-11.769 11.12l-.04 1.535 1.506-.48c1.357-.433 3.411-1.372 5.49-3.387a.875.875 0 0 1 .665-.24zm-.884 2.65c-2.278 1.776-4.454 2.527-5.878 2.844l-.866.193v1.257c0 6.292 5.282 11.41 11.776 11.41 6.253 0 11.417-4.736 11.757-10.784l.081-1.444-1.452.332a15.92 15.92 0 0 1-3.54.412c-2.442 0-4.794-.59-6.991-1.75a16.5 16.5 0 0 1-3.42-2.414l-.708-.647-.759.591zm-.43 20.13c0 .417-.057.84-.169 1.257l-.162.6 5.793 5.613 5.793-5.613-.163-.6a4.84 4.84 0 0 1-.169-1.258v-3.801l-1.45.439c-1.293.392-2.643.59-4.011.59-1.368 0-2.718-.198-4.012-.59l-1.45-.44v3.802zM19.796 81a.84.84 0 0 1-.853-.826V60.12l-5.829-5.649-.775.568c-.26.19-.53.354-.803.486l-6.811 3.3a5.51 5.51 0 0 0-1.18.773l-.935.8.962.846-.011-.011 4.465 4.326c1.353 1.312 2.099 3.056 2.099 4.911v9.703a.84.84 0 0 1-.853.827.84.84 0 0 1-.853-.827V70.47a5.178 5.178 0 0 0-1.6-3.742l-5.113-4.956v18.401A.84.84 0 0 1 .853 81 .84.84 0 0 1 0 80.173V63.56c0-2.648 1.518-5.028 3.962-6.213l6.81-3.3c1.146-.554 1.856-1.67 1.856-2.91v-4.763l-.48-.322c-3.653-2.449-5.834-6.467-5.834-10.75v-4.079c0-4.445 2.311-8.547 6.182-10.973l.713-.447-.254-.785a6.731 6.731 0 0 1-.326-2.072c0-3.83 3.215-6.945 7.167-6.945s7.167 3.116 7.167 6.945c0 .7-.11 1.397-.328 2.073l-.252.784.712.446c3.87 2.427 6.182 6.53 6.182 10.974v4.08c0 4.282-2.18 8.3-5.833 10.75l-.48.322v4.764c0 1.24.71 2.354 1.855 2.909l1.878.91a.83.83 0 0 1 .428.478.797.797 0 0 1-.047.63.853.853 0 0 1-.764.458.861.861 0 0 1-.38-.088l-1.878-.91a5.213 5.213 0 0 1-.803-.486l-.775-.569-5.83 5.65v20.054a.84.84 0 0 1-.852.826z"/>
        <path d="M94.013 16.655c-5.308 0-9.626 4.209-9.626 9.382v3.277l1.458-.467c1.352-.434 3.4-1.375 5.472-3.394a.862.862 0 0 1 1.071-.103c.06.038 5.452 3.427 14.27 3.891l1.17.062v-3.266c0-5.173-4.318-9.382-9.626-9.382h-4.19zm-2.541 10.91a15.58 15.58 0 0 1-4.292 2.555l-.698.272v3.814c0 5.173 4.318 9.382 9.626 9.382 5.307 0 9.626-4.209 9.626-9.382v-3.352l-1-.098c-5.901-.58-10.07-2.334-12.028-3.328l-.664-.336-.57.473zm-.8 18.41c0 .42-.057.843-.169 1.26l-.16.6 5.765 5.62 5.765-5.62-.161-.6a4.841 4.841 0 0 1-.169-1.26V44.01l-1.498.544c-1.261.457-2.586.689-3.937.689a11.51 11.51 0 0 1-3.937-.69l-1.5-.543v1.966zM96.108 82a.84.84 0 0 1-.85-.827V54.969l-5.801-5.656-.772.57a5.17 5.17 0 0 1-.799.486.856.856 0 0 1-.378.088.848.848 0 0 1-.76-.458.803.803 0 0 1-.047-.632.83.83 0 0 1 .426-.478c1.14-.555 1.847-1.671 1.847-2.913V42.78l-.373-.323c-2.426-2.099-3.817-5.107-3.817-8.252v-3.303l-1.154.043a3.15 3.15 0 0 1-.093.003.84.84 0 0 1-.848-.827v-4.084C82.69 19.95 87.77 15 94.013 15h4.19c6.243 0 11.323 4.951 11.323 11.038v4.084a.84.84 0 0 1-.849.827l-.135-.001h-1.11v3.258c0 3.145-1.392 6.153-3.817 8.252l-.374.323v3.195c0 1.241.708 2.357 1.847 2.912l10.97 5.347c2.431 1.185 3.942 3.568 3.942 6.219v20.718a.84.84 0 0 1-.849.827.84.84 0 0 1-.849-.827V60.454c0-.451-.06-.905-.179-1.35l-.489-1.83-4.421 4.31a5.198 5.198 0 0 0-1.593 3.747v15.841a.84.84 0 0 1-.848.827.84.84 0 0 1-.85-.827v-15.84c0-1.858.743-3.604 2.09-4.917l4.31-4.201-11.993-5.846a5.121 5.121 0 0 1-.799-.486l-.772-.57-5.801 5.656v26.205a.84.84 0 0 1-.85.827z"/>
    </g>
</svg>
