<svg xmlns="http://www.w3.org/2000/svg" viewBox="0 0 162.77 162.77"><defs><style>.cls-1{fill:#4f55ec;}.cls-2{fill:#9296f9;}</style></defs><title>Asset 60</title><g id="Layer_2" data-name="Layer 2"><g id="Layer_1-2" data-name="Layer 1"><circle class="cls-1" cx="81.38" cy="81.38" r="81.38"/><path class="cls-2" d="M56.92,118.58a2.83,2.83,0,0,1-2.69-3.71L63.09,87.6,39.89,70.74a2.84,2.84,0,0,1,1.66-5.13H70.23L79.1,38.34a2.82,2.82,0,0,1,2.69-2h0a2.84,2.84,0,0,1,2.7,2l8.86,27.27H122a2.83,2.83,0,0,1,1.66,5.13L100.49,87.6l8.87,27.27A2.84,2.84,0,0,1,105,118l-23.2-16.86L58.59,118A2.84,2.84,0,0,1,56.92,118.58Zm-6.64-47.3L68.09,84.22a2.84,2.84,0,0,1,1,3.17l-6.81,20.94L80.13,95.39a2.81,2.81,0,0,1,3.33,0l17.81,12.94L94.46,87.39a2.85,2.85,0,0,1,1-3.17L113.3,71.28h-22a2.84,2.84,0,0,1-2.7-2l-6.8-20.94L75,69.32a2.84,2.84,0,0,1-2.7,2Z"/></g></g></svg>