<svg xmlns="http://www.w3.org/2000/svg" viewBox="0 0 162.77 162.77"><defs><style>.cls-1{fill:#4f55ec;}.cls-2{fill:#9296f9;}</style></defs><title>Asset 59</title><g id="Layer_2" data-name="Layer 2"><g id="Layer_1-2" data-name="Layer 1"><circle class="cls-1" cx="81.38" cy="81.38" r="81.38"/><path class="cls-2" d="M92.34,96.45l-.44,5.19a1.39,1.39,0,0,0,.48,1.18,1.41,1.41,0,0,0,.93.36,1.53,1.53,0,0,0,.3,0l13.17-2.82a1.41,1.41,0,0,0,1-.75c1.75-3.43.44-7.21-.43-9.71a10.19,10.19,0,0,1-.52-1.71v0a8.24,8.24,0,0,0-1.05-4.83c12.45-7.4,12.44-24.06,12.43-24.78a1.43,1.43,0,0,0-.63-1.16,1.4,1.4,0,0,0-1.3-.14c-13.47,5.24-16.17,16.41-16.7,21v0A13.75,13.75,0,0,0,98,77.7a1.61,1.61,0,0,0-.35-.39,21.54,21.54,0,0,1-8.48-19.55,30.94,30.94,0,0,1,9.29,9.94,1.42,1.42,0,1,0,2.48-1.37A34.15,34.15,0,0,0,88.67,54.1a1.42,1.42,0,0,0-2.08,1c-1.72,11.13,2.94,18.29,6.69,22.12-5.63.32-10.22,3.83-10.69,8.52a8.84,8.84,0,0,0,3,7.33A13.45,13.45,0,0,0,92.34,96.45Zm13.13,1.26L94.89,100l.27-3.24h.1a13.52,13.52,0,0,0,7.16-2,10.08,10.08,0,0,0,2.71-2.46A8.91,8.91,0,0,1,105.47,97.71Zm-3.11-19.19a22.37,22.37,0,0,1,12.85-17.76C114.76,65.38,112.78,76,104,81.05c-.07-.06-.12-.13-.19-.2a13.67,13.67,0,0,0-1.9-1.46A1.39,1.39,0,0,0,102.36,78.52Zm-17,7.53c.35-3.47,4.14-6,8.71-6,.42,0,.83,0,1.26.06a11.06,11.06,0,0,1,6.48,2.8,6.09,6.09,0,0,1,2.11,5h0a6.06,6.06,0,0,1-3.06,4.48A11.63,11.63,0,0,1,87.53,91,6.07,6.07,0,0,1,85.41,86.05Z"/><path class="cls-2" d="M138.91,37.66a2.82,2.82,0,0,0-1.91-1L71,30.06a2.82,2.82,0,0,0-3.1,2.53L67.35,38,44.83,40A2.84,2.84,0,0,0,42.25,43l.63,7.25a2.84,2.84,0,0,0-2.22-.22l-22.9,7.36A2.84,2.84,0,0,0,15.93,61l25.79,80.26a2.81,2.81,0,0,0,1.42,1.66,2.86,2.86,0,0,0,1.28.3,2.77,2.77,0,0,0,.9-.14l42.1-14.15a2.83,2.83,0,0,0,1.91-3l18.24-1.82,20.5,2,.28,0a2.83,2.83,0,0,0,2.82-2.56l8.37-83.88A2.84,2.84,0,0,0,138.91,37.66ZM46.24,136.79,22.19,62l20.2-6.49a2.75,2.75,0,0,0,.89-.49l6.24,72a2.81,2.81,0,0,0,1,1.94,2.85,2.85,0,0,0,1.81.65h.28L74,127.47Zm8.68-13.12-6.78-78.3,18.64-1.61-7.26,72.72a2.83,2.83,0,0,0,2.54,3.1l17,1.69Zm70.89-3.43-17-1.7a2.84,2.84,0,0,0-1.13-.13h-.06l-42.12-4.2L73.25,36l60.36,6Z"/></g></g></svg>