<svg xmlns="http://www.w3.org/2000/svg" viewBox="0 0 162.77 162.77"><defs><style>.cls-1{fill:#4f55ec;}.cls-2{fill:#9296f9;}</style></defs><title>Asset 61</title><g id="Layer_2" data-name="Layer 2"><g id="Layer_1-2" data-name="Layer 1"><circle class="cls-1" cx="81.38" cy="81.38" r="81.38"/><path class="cls-2" d="M144.12,66.72c-3-3.57-8-3.4-10.67-3.31l-.95,0a21.3,21.3,0,0,0-2.35.2c-5.93.64-19.81,2.16-34-9.94,0,0-1.3-1.08-3.2-2.39-.37-3.77-1.82-12.71-7.22-16.17-1.83-1.18-4.91-2.21-9.16-.49a87.9,87.9,0,0,0-9,4.43c-6.79,3.66-13.2,7.13-26.81,7.34-7.47.12-12.38,2.12-15,6.11C21.23,59.34,25,70,29.64,81.22c5.41,13.13,17.89,43.5,45.68,39.54,2.84,7.54,7.86,13.62,16.2,16.59a23.62,23.62,0,0,0,7.93,1.41,24.34,24.34,0,0,0,11.88-3.25c20.38-11.31,32.45-48.65,34.34-57.28C146.8,73.09,146.29,69.33,144.12,66.72ZM34.88,79.06C31,69.68,27.49,60.14,30.45,55.64c1.5-2.28,5-3.47,10.37-3.56,15-.24,22.33-4.2,29.42-8a84.84,84.84,0,0,1,8.48-4.16,6.06,6.06,0,0,1,2.22-.5,3.08,3.08,0,0,1,1.75.51c2.33,1.49,3.73,6,4.36,9.81a8.69,8.69,0,0,0-3.33.93c-2.88,1.48-4.84,4.53-5.85,9A16.23,16.23,0,0,0,72.69,59a5.37,5.37,0,0,0-4.22,2.09C66,64.4,67.24,70.33,67.4,71a1.41,1.41,0,0,0,2.44.61c1.4-1.58,3.73-2.24,6-2.49a178,178,0,0,0-3.43,23.24,11.9,11.9,0,0,0-7.56,2.18c-6,4.23-7.32,13-7.38,13.4a1.42,1.42,0,0,0,.85,1.51,1.35,1.35,0,0,0,.55.11A1.4,1.4,0,0,0,60,109c.06-.08,5.6-7.19,12.13-7.84a66.84,66.84,0,0,0,1.54,14.09C53.64,117.53,42.82,98.36,34.88,79.06Zm27,24a14.55,14.55,0,0,1,4.63-6.23,9.16,9.16,0,0,1,5.75-1.66c0,1-.08,2.08-.1,3.13C68.07,98.62,64.46,100.89,61.87,103.08ZM76.46,66.21A14.8,14.8,0,0,0,69.82,68c-.13-1.78,0-4,.91-5.19a2.55,2.55,0,0,1,2.07-1,13,13,0,0,1,4.48.58c-.11.49-.22,1-.34,1.58ZM140.14,77A135.61,135.61,0,0,1,130.05,104c-6.62,13.28-14,22.48-21.47,26.6A17.57,17.57,0,0,1,93.42,132C69.79,123.6,79,81.18,82.48,65.21c.33-1.52.6-2.79.79-3.76.59-3,1.63-5,3-5.74a3,3,0,0,1,1.44-.34,4.08,4.08,0,0,1,1.37.24h0a2.19,2.19,0,0,0,.33.12h0C91.26,57,92.52,58,92.52,58h0c16,13.67,32.16,11.91,38.25,11.24.74-.08,1.43-.16,1.73-.16l1.15,0c2-.07,4.91-.17,6.12,1.27C140.7,71.48,140.83,73.84,140.14,77Z"/><path class="cls-2" d="M58.67,75.26a1.42,1.42,0,0,0,1.48-2c-.31-.61-3.15-6-7.19-6.88a5.37,5.37,0,0,0-4.57,1.11c-4.84,3.75-6.9,9.29-6.32,17a1.42,1.42,0,0,0,1,1.25,1.14,1.14,0,0,0,.37,0,1.43,1.43,0,0,0,1.16-.6C46.75,82.09,53.35,74.45,58.67,75.26Zm-13.81,5c.31-4.67,2-8.1,5.27-10.61A2.68,2.68,0,0,1,51.8,69a2.48,2.48,0,0,1,.54.06c1.51.34,3,2,4,3.4C51.8,73.27,47.48,77.33,44.86,80.3Z"/><path class="cls-2" d="M123.59,85.08c-6.07.78-10.66,4.51-14,11.41a1.42,1.42,0,0,0,1.27,2,1.37,1.37,0,0,0,.59-.13c3.33-1.53,12.89-4.77,17.07-1.38a1.42,1.42,0,0,0,2.31-1c0-.68.32-6.75-2.71-9.58A5.38,5.38,0,0,0,123.59,85.08ZM114,94.37c2.64-3.87,5.85-6,9.92-6.48l.5,0a2.36,2.36,0,0,1,1.7.64c1.13,1.06,1.6,3.19,1.76,5C123.58,91.82,117.79,93.14,114,94.37Z"/><path class="cls-2" d="M96.3,95.29a1.41,1.41,0,0,0,1.24.74l.23,0a1.41,1.41,0,0,0,1.17-1.14c1.41-7.54,0-13.28-4.45-17.53a5.37,5.37,0,0,0-4.42-1.6c-4.11.46-7.51,5.49-7.89,6.06A1.42,1.42,0,0,0,83.43,84C88.84,83.76,94.54,92.07,96.3,95.29ZM90.39,78.56a2.54,2.54,0,0,1,2.14.82c3,2.85,4.28,6.44,4.08,11.12-2.28-3.23-6.13-7.74-10.59-9C87.21,80.17,88.87,78.73,90.39,78.56Z"/><path class="cls-2" d="M114.42,115.12c-.08,0-8.08,2.85-15.89,1.52-7.6-1.29-13.15-9.22-13.21-9.3a1.42,1.42,0,0,0-1.6-.54,1.4,1.4,0,0,0-1,1.36c0,.16.34,16.19,13.32,18.87a18,18,0,0,0,3.57.37c10.62,0,16.44-10.14,16.51-10.26a1.42,1.42,0,0,0-1.72-2Zm-17.79,9.13c-4.45-.92-7.66-3.85-9.53-8.72a23.85,23.85,0,0,1-.87-2.79c2.66,2.64,6.79,5.84,11.82,6.7a35.49,35.49,0,0,0,13.22-.53C108.55,121.88,103.56,125.68,96.63,124.25Z"/></g></g></svg>