<svg xmlns="http://www.w3.org/2000/svg" width="300" height="375" viewBox="0 0 300 375">
    <g fill="none" fill-rule="evenodd">
        <path fill="#FFF" d="M240.423 246.777l-9.322-22.704a40.186 40.186 0 0 0 8.57-17.721l.818-4.772c2.601-.32 5.044-1.421 7.008-3.159a13.249 13.249 0 0 0 4.437-9.543l9.398-31.97a92.143 92.143 0 0 0 3.742-25.996 8.46 8.46 0 0 0-4.018-7.243 8.277 8.277 0 0 0-7.112-.802l-.42-41.99v-.458a81.642 81.642 0 0 0-9.312-30.11 65.811 65.811 0 0 0-17.062-20.27c-9.237-7.386-30.832-21.118-40.61-24.22a106.078 106.078 0 0 0-6.047-1.718c-21.376-5.468-38.82-5.468-60.196 0a90.756 90.756 0 0 0-6.037 1.69c-13.006 4.132-40.8 27.455-43.923 30.099l-.324.267-.267.324a82.225 82.225 0 0 0-18.595 43.9l-1.276 37.094-.553-.076c-5.218-.697-10.16 2.863-11.75 8.398a28.625 28.625 0 0 0 .096 15.832l8.874 29.737 2.114 12.406c1.514 8.436 7.15 14.907 14.282 16.749l.953 5.611v.153a40.3 40.3 0 0 0 10.74 20.117l-14.844 20.995L0 260.662c21.694 44.518 61.953 77.113 109.937 89.01v-.4l-7.617-59.331 23.69 27.046 13.007-11.128 9.998 7.768a9.804 9.804 0 0 1 3.332 10.622l-14.72 47.096 44.37 3.655-6.54-46.361a131.035 131.035 0 0 1-1.162-23.801l.37-8.818 17.578 6.184 20.205-28.496-10.064 72.29c42.8-14.316 78.008-45.369 97.616-86.1l-59.577-13.121z"/>
        <path fill="#2724AD" fill-rule="nonzero" d="M176.38 223.797l-9.522-.363a9.911 9.911 0 0 1-3.009-.592l-7.17-2.605-1.37.22-2.857 2.28-6.551-2.004-1.219.182-4.39 2.977c-1.751 1.193-4.075.954-6.57.687l-8.178-.85-.62.077-7.836 2.74a1.432 1.432 0 0 0 .467 2.786c.159 0 .316-.025.466-.077l7.532-2.634 7.913.821c2.723.286 5.808.601 8.417-1.174l3.808-2.595 6.618 2.023 1.304-.239 2.857-2.252 6.427 2.338c1.245.451 2.553.705 3.875.754l7.618.286-.733 1.833a12.598 12.598 0 0 1-10.084 5.182l-29.584.21-3.399-2.778-3 3.703 4.066 3.321 1.524.535 30.47-.22a17.356 17.356 0 0 0 14.101-7.444l.257-.477.952-2.433 3.714.792.952-4.667-5.713-1.221-1.533.878zm28.68-3.169l-1.753 2.777 2.41 1.537 1.751-2.777c6.094-9.62 9.97-22.246 10.922-35.54l-2.857-.2c-.914 12.817-4.637 24.965-10.483 34.203h.01zM91.55 204.52l-2.809.535a45.696 45.696 0 0 0 8.808 19.936l1.2 1.47 2.218-1.805-1.2-1.47a42.773 42.773 0 0 1-8.217-18.666zm-2.6-80.488l-8.969-44.853a1.426 1.426 0 1 0-2.363-.826c-.387.349-.554.88-.436 1.39l8.922 44.92a1.43 1.43 0 0 0 1.4 1.154c.091.01.184.01.275 0a1.428 1.428 0 0 0 1.172-1.785zm122.83-31.492l.857 25.766a2.383 2.383 0 0 0 2.38 2.31h.087c.631-.02 1.229-.29 1.66-.753a2.389 2.389 0 0 0 .644-1.71l-.848-25.47 5.504-29.728a2.39 2.39 0 0 0-.796-2.25 2.378 2.378 0 0 0-2.342-.434 2.386 2.386 0 0 0-1.547 1.816l-5.522 29.985-.076.468zm-13.149 24.955l-9.34 1.098-.353-2.08-23.88 4.084.609 3.579c-3.4 3.578-8.417 10.335-8.417 19.086v.2l2.056 24.307a2.383 2.383 0 0 0 2.371 2.186h.2a2.384 2.384 0 0 0 2.171-2.577l-2-24.26c0-5.391 2.562-9.981 5.019-13.178l23.509-3.999-.448-2.615 9.093-1.069a2.397 2.397 0 0 0 1.924-1.432 2.406 2.406 0 0 0-.276-2.386 2.394 2.394 0 0 0-2.2-.953l-.038.01zm-107.129 17.99l18.32-7.12-.18 1.737 30.002 3.092.952-9.496-30.003-3.092-.247 2.424-20.567 7.969a2.406 2.406 0 0 0-.645 4.112c.666.54 1.57.682 2.368.373zm77.383-98.163l-1.904-2.061c-4.428 2.863-17.044 8.179-38.601-4.266l-1.428 2.481c6.217 3.589 20.167 10.383 33.03 7.635a28.537 28.537 0 0 1-4.694 2.243c-10.007 3.702-21.966 1.65-34.592-5.927l-1.466 2.453c10.007 6.012 18.548 8.093 25.575 8.093a31.39 31.39 0 0 0 24.08-10.65zm-9.579-19.85c-5.149-.28-10.27.933-14.749 3.493l1.371 2.51c12.979-7.12 22.767-.258 23.176 0l1.79-2.224c-15.034-13.541-32.707-7.634-33.45-7.405l.953 2.71a33.568 33.568 0 0 1 20.91.916zm77.43 124.254l1.8-2.224c-7.36-5.965-6.808-18.829-6.798-18.962l-2.857-.144c-.028.573-.647 14.43 7.856 21.32v.01zm2.657-20.251h2.857c.276-18.447-10.474-24.603-10.921-24.813l-1.39 2.5c.409.21 9.712 5.66 9.454 22.303v.01zM211.22 45.452c.493.001.952-.253 1.214-.673.261-.419.288-.944.071-1.388-8.97-18.466-21.062-20.9-21.576-20.995l-.952.162-15.311 8.646a1.432 1.432 0 1 0 1.4 2.49l14.815-8.369a21.339 21.339 0 0 1 6.132 3.102c3.504 2.462 8.57 7.272 12.93 16.224.24.488.734.799 1.277.801zM78.773 62.458c6.084-15.527 16.33-22.98 20.367-25.433 3.409 4.448 13.587 15.346 33.221 18.219a2.379 2.379 0 0 0 2.212-.884c.527-.67.658-1.57.343-2.362a2.382 2.382 0 0 0-1.87-1.478 48.903 48.903 0 0 1-23.899-10.126 34.476 34.476 0 0 1-7.265-7.72l-3.018-.955c-.657.296-16.12 7.54-24.528 28.974a2.39 2.39 0 0 0 .305 2.413 2.378 2.378 0 0 0 4.122-.667l.01.02zM236.49 77.794l2.305-1.698c-1.82-2.482-6.256-4.037-6.76-4.209l-.953 2.71c1.162.392 4.313 1.718 5.408 3.197zM61.996 119.145l2.856-.506c-2.961-16.319 2.942-26.797 3.01-26.902l-2.467-1.441c-.276.458-6.532 11.423-3.4 28.85zm-.952-32.81l2.713.888a17.438 17.438 0 0 1 5.59-8.465l-1.648-2.348c-.18.125-4.465 3.13-6.684 9.925h.029zm106.233 110.11a15.53 15.53 0 0 0-9.207 5.183c-1.762 2.08-4.561 4.57-7.913 4.57h-.819a10.458 10.458 0 0 1-6.998-2.29 18.25 18.25 0 0 0-11.226-4.485h-.667a2.383 2.383 0 0 0-2.418 2.348 2.384 2.384 0 0 0 2.342 2.424h.552a13.476 13.476 0 0 1 8.284 3.32 15.213 15.213 0 0 0 10.093 3.427h.829c4.084 0 8.074-2.166 11.53-6.251a10.763 10.763 0 0 1 6.39-3.57l1.904-.324c.153-.026.302-.068.447-.124l.114-.057c.099-.041.194-.09.286-.143l.162-.115.19-.152.134-.143.162-.191.104-.163c.045-.07.087-.144.124-.22 0-.056.048-.123.076-.18.03-.075.055-.152.076-.23v-.219-.143l.79-7.396a6.16 6.16 0 0 0-2.856-5.831 8.498 8.498 0 0 0-10.407.954l-.324.315a2.39 2.39 0 0 0-.08 3.374c.907.954 2.413.99 3.365.08l.505-.333a3.707 3.707 0 0 1 4.532-.401c.456.276.717.785.676 1.317l-.6 5.611-.152.039zm-22.166-32.112l.457-11.69v-.144a54.705 54.705 0 0 0-2.98-14.668l-.953-2.863-2.694.954.952 2.863a51.817 51.817 0 0 1 2.856 13.828l-.457 11.615 2.819.105zm53.064-31.713l-13.454-.801-.495.057-13.597 4.17a1.433 1.433 0 0 0 .838 2.74l8.788-2.692a6.021 6.021 0 0 0 1.514 8.092 5.99 5.99 0 0 0 8.153-1.01 6.022 6.022 0 0 0-.497-8.218l8.57.497a1.407 1.407 0 0 0 1.504-1.346 1.43 1.43 0 0 0-1.324-1.489zm-8.57 13.714a22.451 22.451 0 0 1-12.454-.592l-2.466-.954a1.426 1.426 0 0 0-1.412.222 1.434 1.434 0 0 0 .384 2.45l2.418.954a22.064 22.064 0 0 0 8.15 1.375 28.636 28.636 0 0 0 5.99-.64 1.434 1.434 0 0 0 .83-2.393 1.426 1.426 0 0 0-1.42-.403l-.02-.019zm-78.458-4.104a6.01 6.01 0 0 0 4.683 5.81 5.995 5.995 0 0 0 6.713-3.242 6.021 6.021 0 0 0-1.617-7.292l10.312 1.05a1.434 1.434 0 0 0 1.308-.592 1.441 1.441 0 0 0-1.023-2.27l-16.587-1.69-.685.105-11.807 4.886a1.433 1.433 0 0 0-.705 1.837 1.427 1.427 0 0 0 1.79.807l9.808-4.056a5.998 5.998 0 0 0-2.171 4.58l-.02.067zm15.644 6.48a1.428 1.428 0 0 0-1.762-.954c-10.112 2.863-16.282.258-16.386.21a1.429 1.429 0 0 0-1.89.72 1.434 1.434 0 0 0 .718 1.895 21.741 21.741 0 0 0 8.37 1.393 36.553 36.553 0 0 0 9.97-1.46 1.429 1.429 0 0 0 .999-1.832l-.02.028zm113.632 98.067l-9.322-22.704a40.186 40.186 0 0 0 8.57-17.721l.818-4.772c2.601-.32 5.044-1.421 7.008-3.159a13.249 13.249 0 0 0 4.437-9.543l9.398-31.97a92.143 92.143 0 0 0 3.742-25.996 8.46 8.46 0 0 0-4.018-7.243 8.277 8.277 0 0 0-7.112-.802l-.42-41.99v-.458a81.642 81.642 0 0 0-9.312-30.11 65.811 65.811 0 0 0-17.062-20.27c-9.237-7.386-30.832-21.118-40.61-24.22a106.078 106.078 0 0 0-6.047-1.718c-21.376-5.468-38.82-5.468-60.196 0a90.756 90.756 0 0 0-6.037 1.69c-13.006 4.132-40.8 27.455-43.923 30.099l-.324.267-.267.324a82.225 82.225 0 0 0-18.595 43.9l-1.276 37.094-.553-.076c-5.218-.697-10.16 2.863-11.75 8.398a28.625 28.625 0 0 0 .096 15.832l8.874 29.737 2.114 12.406c1.514 8.436 7.15 14.907 14.282 16.749l.953 5.611v.153a40.3 40.3 0 0 0 10.74 20.117l-14.844 20.995L0 260.662c21.694 44.518 61.953 77.113 109.937 89.01v-.4l-7.617-59.331 23.69 27.046 13.007-11.128 9.998 7.768a9.804 9.804 0 0 1 3.332 10.622l-14.72 47.096 44.37 3.655-6.54-46.361a131.035 131.035 0 0 1-1.162-23.801l.37-8.818 17.578 6.184 20.205-28.496-10.064 72.29c42.8-14.316 78.008-45.369 97.616-86.1l-59.577-13.121zm14.625-119.234a3.526 3.526 0 0 1 3.504.163 3.714 3.714 0 0 1 1.762 3.187 87.352 87.352 0 0 1-3.542 24.631l-9.522 32.285-.095.678a8.473 8.473 0 0 1-2.857 6.336 8.212 8.212 0 0 1-2.99 1.699l11.664-67.977 2.076-1.002zM57.95 182.178l-2.152-12.692a4.78 4.78 0 0 0-.133-.573l-8.96-30.013a18.927 18.927 0 0 1-.057-10.498c.314-1.088.952-1.603 1.333-1.565l2.314.305 10.473 61.23a13.213 13.213 0 0 1-2.77-6.184l-.048-.01zm68.49 128.138l-25.271-28.82-4.047-31.494 6.932 15.432 46.875 24.01-24.49 20.872zm-17.558-57.317l1.552 1.174a35.45 35.45 0 0 1 6.389 5.84c.76.916 1.592 1.771 2.485 2.558l-7.903-4.056-2.523-5.516zm20.71 14.85c2.35.532 4.767.702 7.17.505h34.744a23.656 23.656 0 0 0 5.399-.181l-20.1 13.618-27.214-13.943zm84.285-4.39l-23.442 33.057-25.242-8.875 48.608-32.924.543 5.354-.467 3.387zm-15.825-9.64c3.952-3.578 9.15-8.235 14.34-12.845l.295 2.93-14.635 9.916zm20.091-30.633l-.343.277c-7.36 6.48-31.536 27.837-33.688 30.443a13.839 13.839 0 0 1-11.978 4.905h-36.03a13.858 13.858 0 0 1-11.978-4.905 44.571 44.571 0 0 0-8.027-7.406l-30.65-23.286A30.974 30.974 0 0 1 73.317 204.5l-4.285-24.736 7.484 3.703a16.505 16.505 0 0 1 9.075 12.005 2.38 2.38 0 0 0 4.694-.773 21.276 21.276 0 0 0-11.664-15.508l-10.588-5.248L63.1 145.17c9.055-14.315 5.96-42.105 5.799-43.46l-2.857.334c0 .296 2.752 24.488-3.732 38.63l-3.123-18.208 1.342-39.337a30.72 30.72 0 0 1 3.904-8.016 17.98 17.98 0 0 1 4.761-4.925l-.638-1.25-.762-1.212a20.62 20.62 0 0 0-5.998 6.194 72.864 72.864 0 0 1 14.977-31.006c8.37-7.053 30.974-25.051 40.334-28.02a101.63 101.63 0 0 1 5.532-1.574c19.71-5.048 35.783-5.048 55.483 0 1.905.496 3.809 1.03 5.532 1.575 7.808 2.48 28.099 15.03 37.544 22.589a56.32 56.32 0 0 1 14.626 17.33 72.14 72.14 0 0 1 8.198 26.368l.114 11.681a23.116 23.116 0 0 0-13.006-14.792l-.953 2.7a19.785 19.785 0 0 1 11.674 14.831 15.98 15.98 0 0 0-12.378-7.081v2.863c.504 0 12.197.086 13.435 17.006l1.371-.105.143 14.114-2.438 14.239a2.721 2.721 0 0 1-.847-.468c-4.418-3.578-5.047-19.687-4.923-25.585l-2.856-.067c-.048 2.32-.324 22.77 5.98 27.876a5.49 5.49 0 0 0 2.151 1.069l-2.856 16.653-5.104 7.415a29.295 29.295 0 0 1-14.93 11.175l-8.15 2.672 1.475 4.533 8.15-2.672a34.09 34.09 0 0 0 16.645-11.996l-6.39 37.219a30.974 30.974 0 0 1-12.158 18.752l-.029-.028z"/>
    </g>
</svg>
