<svg xmlns="http://www.w3.org/2000/svg" width="232" height="259" viewBox="0 0 232 259">
    <g fill="none" fill-rule="nonzero">
        <path fill="#FFF" d="M126.344 34.311c3.103-2.025 6.541-2.586 9.41-1.523 2.87 1.063 5.154 3.824 6.375 7.925 2.51 8.368.594 37.934-1.096 58.228-1.673-6.795-4.785-13.457-10.038-18.754a29.595 29.595 0 0 0-12.548-7.632c-1.95-4.837-3.02-12.82-3.58-21.323.602-3.699 5.085-12.737 11.477-16.92zM55.83 40.696c1.222-4.1 3.422-6.845 6.366-7.925 2.945-1.08 6.308-.502 9.412 1.523 6.4 4.185 10.875 13.24 11.502 16.93-.56 8.502-1.673 16.477-3.589 21.314a29.629 29.629 0 0 0-12.548 7.632C61.68 85.468 58.61 92.13 56.936 98.924c-1.707-20.26-3.59-49.843-1.105-58.228zm19.124 183.27c4.902 19.908 8.8 34.31 8.909 34.687.216.797.94 1.35 1.765 1.347h26.744c.826.002 1.55-.55 1.765-1.347.268-.996 26.929-99.359 28.719-139.293.318-3.038 6.885-65.944 2.82-79.66-1.975-6.636-5.773-9.28-8.617-10.318-3.965-1.464-8.592-.77-12.665 1.891-4.183 2.754-7.613 7.155-9.905 11.273-.368-12.268.067-23.809.2-26.98l2.694-2.034c2.092-.058 6.065-.443 8.784-2.41 3.856-2.787 3.856-4.82 3.848-8.854v-.443A1.825 1.825 0 0 0 128.151 0H69.81a1.832 1.832 0 0 0-1.832 1.825v.401c0 4.034 0 6.068 3.856 8.854 2.72 1.967 6.693 2.352 8.776 2.41l2.693 2.034c.143 3.172.57 14.712.21 26.98-2.293-4.117-5.689-8.52-9.905-11.272-4.082-2.662-8.7-3.348-12.674-1.892-2.836 1.038-6.634 3.682-8.608 10.319-4.074 13.724 2.51 76.696 2.82 79.667.886 19.825 7.905 54.06 14.781 83.626l3.68-.293c-6.934-29.766-14.053-64.37-14.84-84.01-.627-15.658 3.062-28.01 10.658-35.734a25.471 25.471 0 0 1 11.712-7.03 1.84 1.84 0 0 0 1.33-1.029c6.692-14.519 4.509-58.504 4.408-60.37a1.833 1.833 0 0 0-.719-1.364l-3.823-2.912a1.84 1.84 0 0 0-1.096-.368c-3.003 0-5.789-.661-7.261-1.724-2.008-1.423-2.292-1.95-2.334-4.46h54.677c0 2.51-.327 3.004-2.334 4.46-1.473 1.063-4.258 1.724-7.262 1.724-.398.002-.784.13-1.104.368l-3.856 2.912a1.841 1.841 0 0 0-.728 1.364c-.092 1.866-2.259 45.851 4.417 60.37.25.536.741.919 1.322 1.03.242.05 23.925 4.929 22.41 42.762-1.463 36.688-25.029 125.62-28.25 137.653H87.027a1820.668 1820.668 0 0 1-8.315-32.394l-3.756.058z"/>
        <path fill="#FFF" d="M88.807 76h20.386c.458-.025.807-.241.807-.5s-.35-.475-.807-.5H88.807c-.458.025-.807.241-.807.5s.35.475.807.5zM112.109 241H85.89c-.492 0-.891.224-.891.5s.4.5.891.5h26.218c.492 0 .891-.224.891-.5s-.4-.5-.891-.5zM112.182 236H85.818c-.464.025-.818.241-.818.5s.354.475.818.5h26.364c.464-.025.818-.241.818-.5s-.354-.475-.818-.5zM94.867 11h11.266c.492-.025.867-.241.867-.5s-.375-.475-.867-.5H94.867c-.492.025-.867.241-.867.5s.375.475.867.5z"/>
        <path fill="#9296F9" d="M74.933 259H43.067c-.603-.044-1.067-.478-1.067-1s.464-.956 1.067-1h31.866c.603.044 1.067.478 1.067 1s-.464.956-1.067 1zM199.821 243H127.18c-.651 0-1.179-.448-1.179-1s.528-1 1.179-1h72.642c.651 0 1.179.448 1.179 1s-.528 1-1.179 1zM196.699 218c-.423 0-.814-.227-1.025-.597a1.202 1.202 0 0 1 0-1.193c.211-.37.602-.597 1.025-.597 5.434 0 9.85-3.916 9.85-8.739a9.064 9.064 0 0 0-1.4-4.992c-1.016 3.412-4.692 5.883-9.059 5.883h-31.837c-3.092 0-5.609-2.26-5.609-5.042s2.5-5.042 5.61-5.042H172.37c9.676 0 15.927-5.362 15.927-13.656 0-7.428-6.968-13.445-15.594-13.647a9.513 9.513 0 0 1 5 8.143c0 6.084-4.116 9.723-11.017 9.723h-29.504A1.188 1.188 0 0 1 136 187.05c0-.659.53-1.193 1.183-1.193h29.504c5.584 0 8.65-2.605 8.65-7.336 0-3.966-3.716-7.202-8.333-7.336l-.409.126a1.177 1.177 0 0 1-1.52-.693 1.193 1.193 0 0 1 .687-1.534l.466-.202c.138-.056.285-.085.434-.084a20.552 20.552 0 0 1 5.709-.798c10.084 0 18.285 7.185 18.285 16.025 0 11.076-9.167 16.034-18.285 16.034h-8.076c-1.825 0-3.284 1.193-3.284 2.655 0 1.462 1.459 2.757 3.276 2.757h31.837c3.85 0 6.975-2.42 6.975-5.387v-.504c-.017-.427.192-.83.55-1.059a1.15 1.15 0 0 1 1.184-.05c3.059 1.63 4.167 5.571 4.167 8.453-.092 6.11-5.542 11.076-12.301 11.076z"/>
        <path fill="#9296F9" d="M171.277 194.996a1.184 1.184 0 0 1-1.102-.548 1.145 1.145 0 0 1 0-1.216c.233-.373.66-.585 1.102-.549 5.08 0 9.37-2.451 9.37-5.425a1.155 1.155 0 0 1 .557-1.086c.379-.23.856-.23 1.235 0 .379.23.594.65.557 1.086-.008 4.339-5.154 7.738-11.719 7.738zM170.282 234h-16.784c-4.735-.142-8.498-3.896-8.498-8.48 0-4.583 3.763-8.338 8.498-8.48l32.41-.04c.617.05 1.092.55 1.092 1.149s-.475 1.098-1.092 1.149l-32.418.048c-2.335-.09-4.534 1.06-5.734 3a6.005 6.005 0 0 0-.026 6.306c1.185 1.948 3.374 3.115 5.71 3.042h16.784c.425 0 .819.22 1.032.577a1.12 1.12 0 0 1 0 1.153 1.2 1.2 0 0 1-1.032.576h.058zM230.81 252h-51.62c-.657 0-1.19-.448-1.19-1s.533-1 1.19-1h51.62c.657 0 1.19.448 1.19 1s-.533 1-1.19 1zM37.557 225h-.125l-.494-.05c-4.625-.018-8.36-3.75-8.34-8.333.018-4.584 3.782-8.286 8.407-8.267h1.222c6.122 0 11.087-4.05 11.087-9.03 0-4.98-4.932-9.031-11.062-9.031H1.19c-.657 0-1.189-.528-1.189-1.18 0-.65.532-1.178 1.19-1.178h34.165l2.872-.041c7.428 0 13.457 5.104 13.457 11.38 0 6.274-6.029 11.379-13.398 11.379h-1.223c-3.306 0-5.987 2.657-5.987 5.935 0 3.277 2.68 5.934 5.987 5.934h.134l.47.058H78.421c9.057-.04 17.088-5.777 19.99-14.28 2.903-8.504.036-17.896-7.136-23.378A13.533 13.533 0 0 1 90.414 198c-2.522 3.928-6.892 6.31-11.59 6.316H60.912a1.192 1.192 0 0 1-1.112-.557 1.17 1.17 0 0 1 0-1.235 1.192 1.192 0 0 1 1.112-.557h17.912c4.722-.001 8.954-2.89 10.638-7.263a11.221 11.221 0 0 0-3.05-12.442 1.103 1.103 0 0 1-.336-.514l-.067-.216a1.163 1.163 0 0 1 .328-1.227c.343-.31.837-.391 1.263-.21 10.337 4.33 16.161 15.281 13.925 26.18-2.237 10.9-11.915 18.725-23.136 18.708H37.566l-.009.017z"/>
        <path fill="#9296F9" d="M78.726 216h-.555c-.667-.022-1.19-.553-1.17-1.187.032-.634.589-1.129 1.255-1.115 6.574.208 12.467-3.836 14.34-9.84.084-.3.29-.554.573-.707.283-.153.618-.192.93-.107.315.082.583.28.743.55.16.27.2.59.112.89-2.13 6.84-8.736 11.529-16.228 11.516z"/>
    </g>
</svg>
